<?xml version="1.0" encoding="utf-8"?>
<!-- Generator: Adobe Illustrator 25.0.0, SVG Export Plug-In . SVG Version: 6.00 Build 0)  -->
<svg version="1.1" id="Layer_2_1_" xmlns="http://www.w3.org/2000/svg" xmlns:xlink="http://www.w3.org/1999/xlink" x="0px" y="0px"
	 viewBox="0 0 1200 1200" style="enable-background:new 0 0 1200 1200;" xml:space="preserve">
<style type="text/css">
	.st0{fill:#FFFFFF;}
	.st1{fill:#1A2DD5;}
	.st2{fill:#F3F3F3;}
	.st3{fill:#374ED3;}
	.st4{fill:#F3AF94;}
	.st5{fill:#FCC486;}
	.st6{fill:#FED385;}
	.st7{fill:#DE8E68;}
	.st8{fill:#FED892;}
	.st9{fill:#FD8369;}
	.st10{fill:#FFBC01;}
</style>
<path class="st0" d="M896.4,562v427.7c0,31.3-25.3,56.6-56.6,56.6l0,0H507.4c-31.3,0-56.6-25.3-56.6-56.6l0,0V141.1
	c0-31.3,25.3-56.6,56.6-56.6h332.4c31.3,0,56.6,25.3,56.6,56.6l0,0L896.4,562"/>
<path class="st1" d="M814.6,1064.2l-73.5-101.8c0,0-41.4-57.2-67.4-58.2c-0.2,15,0.8,122.6,5.4,159.9L814.6,1064.2L814.6,1064.2z"/>
<path class="st2" d="M578.2,62.1H769c8.7,0,15.7,7,15.7,15.7v24.1c0,8.7-7,15.7-15.7,15.7H578.2c-8.7,0-15.7-7-15.7-15.7V77.8
	C562.5,69.2,569.5,62.1,578.2,62.1z"/>
<path class="st3" d="M882.8,1047.9h13.6V882.3l-114.6-19l-108.2,41c5.1,11.6,32,88.6,89.7,156h119.4L882.8,1047.9L882.8,1047.9z"/>
<path class="st4" d="M641.7,641.7c-9.3-0.2-9.3,14.1-9.3,14.1c-4.5-13.4-102.7-257.7-102.7-257.7s-20.3,8.6,3.1,54.8
	c-7.6,4.5-28.7,21.4-20,48.6c6.6,20.4,21,27.6,30,27.6c-1.5,15.3,31.2,171.6,35.5,179.1c10,17.7,29.3,37,40.7,37.5
	c18.2,0.9,63-23,74.1-35.5S659.2,642,641.7,641.7z"/>
<path class="st5" d="M776.9,555.5C732.6,516,624.5,610.6,626.6,627s60.3,75.7,77.4,70.7S811.8,586.5,776.9,555.5z"/>
<path class="st6" d="M896.4,562c-19.7-31.9-48.6-52.5-90-52.5c-143.7,0-147.8,374-132.8,394.8c13.3,18.4,171.8,23.2,222.8,10.5"/>
<path class="st7" d="M896.4,698.5l-15.1,6.2c1.3,4.8,7.1,31.7,15.1,61.4"/>
<path class="st8" d="M896.4,558.7c-10-7.4-20.2-10.4-29.6-6.5c-54.2,22.6-15.6,158.5,0,163.5c5,1.6,16.4,0,29.6-3.5"/>
<path class="st4" d="M834,542.3c0,11.9-65.9,14.5-65.9,0v-81H834V542.3z"/>
<ellipse transform="matrix(0.3697 -0.9292 0.9292 0.3697 102.8402 1005.1584)" class="st4" cx="792.3" cy="426.8" rx="80.3" ry="59.7"/>
<ellipse transform="matrix(0.5823 -0.813 0.813 0.5823 -17.383 876.0071)" class="st4" cx="843.8" cy="454.9" rx="18.9" ry="13.2"/>
<path class="st9" d="M899.2,416.9c0-11-10.3-23.1-12.2-36.9c-1-7,1.2-36.1-7-46c-17-20.4-27-16.2-40-21c-22.6-8.3-31.3-22-50-22
	c-21.2,0-29.8,11-45,11c-17.4,0-31.6-8-56-8c-13,0-30,17-30,32c0,35.5,33,30.4,33,39c0,6-2,10.8-2,19c0,10.8,14,17,22,17
	c24.4,0,27.6-3,27.6-3c4.8-9.7,11-18.6,18.4-26.5c1-1,16.8,10.1,42.6,11c21.2,0.7,36.1,4.8,36.1,14.7c0,7-2.6,27.7-2.4,33.5
	s2.2,9.6,3.5,9.6s2-1.9,10.2-1.9c8.7,0,9.4,10.7,10.9,10.7C867.7,449.1,899.2,442,899.2,416.9z"/>
<path class="st6" d="M504.5,284.8h49.9c14.8,0,26.8,12,26.8,26.8v49.9c0,14.8-12,26.8-26.8,26.8h-49.9c-14.8,0-26.8-12-26.8-26.8
	v-49.9C477.7,296.8,489.7,284.8,504.5,284.8z"/>
<circle class="st9" cx="568.8" cy="293.1" r="21.2"/>
<path class="st2" d="M841.6,54H505.7c-45.2,0-81.9,36.7-81.9,81.9v858.8c0,45.2,36.7,81.9,81.9,81.9l0,0h335.9
	c45.2,0,81.9-36.7,81.9-81.9V135.9C923.5,90.7,886.8,54,841.6,54z M896.4,562v427.7c0,31.3-25.3,56.6-56.6,56.6l0,0H507.4
	c-31.3,0-56.6-25.3-56.6-56.6l0,0V141.1c0-31.3,25.3-56.6,56.6-56.6h332.4c31.3,0,56.6,25.3,56.6,56.6l0,0L896.4,562L896.4,562z"/>
<path class="st1" d="M893.6,181.1h121.3c21.9,0,39.7,17.8,39.7,39.7l0,0c0,21.9-17.8,39.7-39.7,39.7H893.6
	c-21.9,0-39.7-17.8-39.7-39.7l0,0C853.9,198.8,871.7,181.1,893.6,181.1z"/>
<polygon class="st1" points="901.1,242 866.7,207.5 866.7,276.5 "/>
<circle class="st10" cx="913.3" cy="222.1" r="10"/>
<circle class="st10" cx="954.3" cy="222.1" r="10"/>
<circle class="st10" cx="995.2" cy="222.1" r="10"/>
<rect x="43" y="68.9" class="st10" width="133" height="90"/>
</svg>
