<?xml version="1.0" encoding="utf-8"?>
<!-- Generator: Adobe Illustrator 25.0.0, SVG Export Plug-In . SVG Version: 6.00 Build 0)  -->
<svg version="1.1" id="Layer_1" xmlns="http://www.w3.org/2000/svg" xmlns:xlink="http://www.w3.org/1999/xlink" x="0px" y="0px"
	 viewBox="0 0 704.7 871.8" style="enable-background:new 0 0 704.7 871.8;" xml:space="preserve">
<style type="text/css">
	.st0{fill:#F8F8F8;}
	.st1{fill:#1628D2;}
	.st2{fill:#2E3DD6;}
	.st3{fill:#F2AF92;}
	.st4{fill:#DEDEDE;}
	.st5{fill:none;stroke:#000000;stroke-width:8;stroke-linecap:round;stroke-linejoin:round;}
	.st6{fill:#FED385;}
	.st7{fill:#FD8369;}
	.st8{fill:#FED892;}
</style>
<path class="st0" d="M610.8,205.5c59.2,82.3,91.2,164.4,93.6,242.2c2.8,77.8-23.9,151.6-59.2,227.6
	c-35.2,75.8-79.3,153.8-138.5,164.1c-59.2,10.1-133.4-47.3-214.5-79.8C211,727.4,122.9,720.4,68,671.8
	C13.1,622.9-8.2,532.6,2.8,444.4c11.3-88.1,55.6-174,123.6-254.5c68.2-80.8,160.6-156.3,249.7-152.8
	C465.5,40.6,551.9,123.2,610.8,205.5z"/>
<path class="st1" d="M459.6,549.9c18.1,50.7,25.6,282.5,25.6,321.9h-93.8l-39-88l67.8-246.4L459.6,549.9z"/>
<path class="st2" d="M426.4,556.3c-5.1,33.9-50.7,288.5-60.9,315.4H230c-5.8-19.2-27.5-245.1,0-328.3S426.4,556.3,426.4,556.3z"/>
<path class="st3" d="M449.9,421.7c8.6-1.7,126.1-55.3,152.7-78.1s-5.2-40.4-15.2-34.5s-114.3,50.8-135.8,57.3
	S449.9,421.7,449.9,421.7z"/>
<rect x="550.7" y="181.8" transform="matrix(0.997 -7.776310e-02 7.776310e-02 0.997 -18.7786 46.9529)" class="st4" width="85.7" height="165.5"/>
<line class="st5" x1="507.7" y1="216.7" x2="552.4" y2="307.5"/>
<ellipse transform="matrix(0.9941 -0.1087 0.1087 0.9941 -10.6034 35.9839)" class="st3" cx="324.8" cy="115.3" rx="44.3" ry="64.3"/>
<path class="st6" d="M316,189.3c148,0,154.9,360.5,148.4,367s-157,37-239,3C205.4,472.3,219,189.3,316,189.3z"/>
<path class="st3" d="M550.2,264.2c0-8.4-9-26-22.2-22.9c-9.1,2.1-21.6,20.4-27,28.1C482.7,282,366.8,377.8,357.9,387.1
	c-0.4-7.7-7.8-23.2-16.7-37.6l-75.5,48.8c7.8,21.7,56.5,79,75.5,79c49.8,0,150.4-135.2,175.9-171.5C529,297.5,550.2,281,550.2,264.2
	z"/>
<path class="st7" d="M248.8,84c0-18.8,15.2-29.8,20.2-34.9c10-10.4,16-38.1,37.1-38.1c6,0,15.3,3.5,21.2,3.5
	c7.3,0,21.9-14.5,36.6-14.5C388.5,0,394,22.7,394,29.6c0,25.5-31.8,44.8-36,47.1c-1.8-2.9-10-13.9-12.7-15.5
	c-3.3,6.8-25.3,18.2-42,28.3c-9.3,5.7-15.2,49.9-15.1,53.4C272.6,143,248.8,119.4,248.8,84z"/>
<circle class="st3" cx="285.7" cy="126.2" r="12.5"/>
<path class="st3" d="M337,213.2c1,6.3-38.3,4.7-38.8-2l-4.3-62.8l35.6-3.9C329.5,144.5,336.1,207,337,213.2z"/>
<path class="st8" d="M237.7,243.3c-44.2,24.1-4.7,149.1,23.2,161.9c31.5,0,95.2-45.6,95.2-61.1S295,212.1,237.7,243.3z"/>
<path class="st3" d="M606.9,252.6c0,20.8,24.7,31.7,28.3,31.7c7.5,0,7.5-22.7,7.5-28.6c0-13.4-13.1-23.2-23-23.2
	S606.9,240.8,606.9,252.6z"/>
</svg>
