<?xml version="1.0" encoding="utf-8"?>
<!-- Generator: Adobe Illustrator 25.0.0, SVG Export Plug-In . SVG Version: 6.00 Build 0)  -->
<svg version="1.1" id="Vector" xmlns="http://www.w3.org/2000/svg" xmlns:xlink="http://www.w3.org/1999/xlink" x="0px" y="0px"
	 viewBox="0 0 1200 1200" style="enable-background:new 0 0 1200 1200;" xml:space="preserve">
<style type="text/css">
	.st0{fill:#D0D0D0;}
	.st1{fill:#DEDEDE;}
	.st2{fill:#F3F3F3;}
	.st3{fill:#DE8E68;}
	.st4{fill:#DFDFDF;}
	.st5{fill:#56CAD8;}
	.st6{fill:#1A27C9;}
	.st7{fill:#020202;}
	.st8{fill:#74D5DE;}
</style>
<path class="st0" d="M215,362.6L547.8,301c35-6.5,68.7,16.6,75.1,51.7l104.3,563c6.5,35-16.6,68.7-51.7,75.1l-332.8,61.6
	c-35,6.5-68.7-16.6-75.1-51.7l-104.3-563C156.8,402.7,180,369.1,215,362.6z"/>
<rect x="212.7" y="338.1" transform="matrix(0.9833 -0.1821 0.1821 0.9833 -119.076 80.6218)" class="st0" width="333.8" height="701.6"/>
<path class="st1" d="M164.1,369l373.3-97.8c34.4-9,69.7,11.6,78.7,46l145.1,553.9c9,34.4-11.6,69.7-46,78.7l-373.3,97.8
	c-34.4,9-69.7-11.6-78.7-46L118,447.7C109,413.2,129.6,378,164.1,369z"/>
<rect x="184.6" y="327.2" transform="matrix(0.9674 -0.2534 0.2534 0.9674 -159.8007 115.5051)" class="st1" width="367.7" height="701.6"/>
<rect x="556.7" y="274.4" transform="matrix(0.9684 -0.2496 0.2496 0.9684 -137.7883 164.8565)" class="st2" width="49.1" height="702.8"/>
<rect x="192.4" y="401.7" transform="matrix(0.9674 -0.2534 0.2534 0.9674 -112.1603 117.5893)" class="st2" width="416" height="185"/>
<rect x="192.4" y="401.7" transform="matrix(0.9674 -0.2534 0.2534 0.9674 -112.1603 117.5893)" class="st2" width="416" height="185"/>
<rect x="290.3" y="903.3" transform="matrix(0.9674 -0.2534 0.2534 0.9674 -229.211 124.8442)" class="st2" width="159.5" height="97.7"/>
<path class="st3" d="M901,512.7c3.7,1.7,12.5,8.4,15.8,12.3c3.9-1.8,70.1-43.2,79.7-42.7s4.5,19.5,4.5,21.4s-79.9,64.1-92.9,64.1
	s-30.3-28.2-30.3-29.9S901,512.7,901,512.7z"/>
<path class="st4" d="M1036.5,349.3l-9.8-1.4l-20-2.8l-2.8,20l-84,593.6l-5.2,36.9c-1.6,11,6.1,21.2,17.2,22.8l9.8,1.4
	c11,1.6,21.2-6.1,22.8-17.2l5.2-36.9l84-593.6l2.8-20L1036.5,349.3z"/>
<polygon class="st2" points="1040.9,282.9 1006.7,345 1056.5,352.1 "/>
<polygon class="st4" points="1046,305.7 1040.9,282.9 1029.6,303.4 "/>
<rect x="935.2" y="940" transform="matrix(0.1402 -0.9901 0.9901 0.1402 -143.7818 1764.7423)" class="st2" width="18.1" height="50.3"/>
<rect x="840" y="995.1" class="st3" width="24.2" height="14.6"/>
<rect x="899" y="948.4" transform="matrix(0.5922 -0.8058 0.8058 0.5922 -398.9614 1123.1517)" class="st3" width="22.2" height="14.6"/>
<path class="st5" d="M748.2,685c0,0-15.8,142.2-10.3,158.1s162,119.8,162,119.8l14.5-19.4L796.1,821.7c5.9-4.5,28.9-60.9,29.5-65.8
	s-17.1-80-17.1-80L748.2,685z"/>
<path class="st6" d="M844.7,483.2c12.6-19.5,62,20.9,63.3,29.4s-18.9,41.8-34.8,40.9S837.4,494.5,844.7,483.2z"/>
<path class="st6" d="M810.6,452.8c96.2,0,70.3,197.5,68.9,213.4c-7.4,12.6-124.2,26.5-131.3,18.8
	C745.3,662.9,719.7,452.8,810.6,452.8z"/>
<path class="st3" d="M801.7,462.5c0,5.6,30.9,6.8,30.9,0v-38h-30.9V462.5z"/>
<ellipse transform="matrix(0.9292 -0.3697 0.3697 0.9292 -91.943 332.9517)" class="st3" cx="822.8" cy="406.4" rx="27.7" ry="37.2"/>
<ellipse transform="matrix(0.813 -0.5823 0.5823 0.813 -96.3929 542.9587)" class="st3" cx="797.1" cy="421.5" rx="6.2" ry="8.9"/>
<path class="st7" d="M771.1,403.8c0-5.2,4.8-10.8,5.7-17.3c0.5-3.3-0.5-16.9,3.3-21.6c8-9.6,12.7-7.6,18.8-9.8
	c10.6-3.9,14.7-10.3,23.4-10.3c10,0,14,5.2,21.1,5.2c8.1,0,14.8-3.8,26.2-3.8c6.1,0,14,8,14,15c0,16.6-15.5,14.2-15.5,18.3
	c0,2.8,0.9,5,0.9,8.9c0,5-6.6,8-10.3,8c-11.4,0-12.9-1.4-12.9-1.4c-2.3-4.5-5.2-8.7-8.6-12.4c-0.5-0.5-7.9,4.8-20,5.2
	c-9.9,0.3-16.9,2.2-16.9,6.9c0,3.3,1.2,13,1.1,15.7s-1,4.5-1.7,4.5s-1-0.9-4.8-0.9c-4.1,0-4.4,5-5.1,5
	C785.9,418.8,771.1,415.5,771.1,403.8z"/>
<path class="st3" d="M769.8,545.7c-1.3,0-2.5,0.2-3.7,0.7c-0.2-0.3-0.6-0.5-1-0.5c-3.3,0-34.2-1.2-37.5-0.6
	c5.4-4.6,16.7-16.5,16.7-16.5l-25.6-30.6c-5.8,2.1-47.5,44.3-47.5,59.7c0,14.2,18.1,16.4,31.2,16.4c16.2,0,41.5-4.1,55-8
	c1.3,7.4,6.4,12.8,12.5,12.8c7.1,0,12.8-7.5,12.8-16.6S776.9,545.7,769.8,545.7z"/>
<path class="st6" d="M779.1,474.1c16,17.7-27.9,66.8-35.9,66.8s-35.6-28.8-32.6-46.6S769.8,463.8,779.1,474.1z"/>
<polyline class="st8" points="879.5,666.2 866.4,998.3 838.7,998.3 796.1,685.3 "/>
<polygon points="865.2,1006.1 865.2,1027.8 801.6,1027.8 801.6,1020.6 837.8,1006.1 "/>
<polygon points="920.7,949.1 935.6,958.1 919.2,1019.5 912.3,1017.7 906.3,968.7 "/>
</svg>
