<svg xmlns="http://www.w3.org/2000/svg" xmlns:xlink="http://www.w3.org/1999/xlink" viewBox="0 0 904.24 964.24"><defs><style>.cls-1,.cls-6,.cls-7,.cls-8{fill:none;}.cls-2{fill:#949494;}.cls-3{fill:url(#New_Pattern);}.cls-4{fill:url(#New_Pattern-3);}.cls-5{fill:#dedede;}.cls-6{stroke:#dedede;stroke-width:15px;}.cls-6,.cls-7{stroke-miterlimit:10;}.cls-7,.cls-8{stroke:#000;stroke-linecap:round;stroke-width:2.5px;}.cls-8{stroke-linejoin:round;}</style><pattern id="New_Pattern" data-name="New Pattern" width="12" height="12" patternTransform="translate(-21.26 -28.12)" patternUnits="userSpaceOnUse" viewBox="0 0 12 12"><rect class="cls-1" width="12" height="12"/><rect class="cls-1" width="12" height="12"/><circle class="cls-2" cx="12" cy="3" r="2"/><circle class="cls-2" cx="6" r="2"/><circle class="cls-2" cy="3" r="2"/><circle class="cls-2" cx="12" cy="9" r="2"/><circle class="cls-2" cx="6" cy="6" r="2"/><circle class="cls-2" cy="9" r="2"/><circle class="cls-2" cx="6" cy="12" r="2"/></pattern><pattern id="New_Pattern-3" data-name="New Pattern" width="12" height="12" patternTransform="matrix(-1, 0, 0, 1, 31.34, -28.12)" patternUnits="userSpaceOnUse" viewBox="0 0 12 12"><rect class="cls-1" width="12" height="12"/><rect class="cls-1" width="12" height="12"/><circle class="cls-2" cx="12" cy="3" r="2"/><circle class="cls-2" cx="6" r="2"/><circle class="cls-2" cy="3" r="2"/><circle class="cls-2" cx="12" cy="9" r="2"/><circle class="cls-2" cx="6" cy="6" r="2"/><circle class="cls-2" cy="9" r="2"/><circle class="cls-2" cx="6" cy="12" r="2"/></pattern></defs><title>lifting-monochrome</title><g id="Layer_2" data-name="Layer 2"><g id="Shadows"><path class="cls-3" d="M324.62,717c3.88,5.65,87,138.48,126.76,138.48-32.57-4.06-96.09-16.42-96.09-16.42l-17-75.22Z"/><path class="cls-4" d="M576.23,717c-3.87,5.65-87,138.48-126.76,138.48,32.58-4.06,96.09-16.42,96.09-16.42l17-75.22Z"/><path class="cls-4" d="M428.38,439.92c0-5,18.11-28.74,32.15-28.74a144.69,144.69,0,0,1-19.77-1.56l-13-5.35Z"/></g><g id="Vector"><path class="cls-5" d="M655.44,169.18a26.94,26.94,0,0,1,0-15H240.32a26.94,26.94,0,0,1,0,15Z"/><path class="cls-5" d="M707.32,154.18a26.94,26.94,0,0,1,0,15h81v-15Z"/><path class="cls-5" d="M187.38,161.68a27,27,0,0,1,1.07-7.5h-74v15h74A26.87,26.87,0,0,1,187.38,161.68Z"/><line class="cls-6" y1="161.68" x2="28.21" y2="161.68"/><line class="cls-6" x1="876.03" y1="161.68" x2="904.24" y2="161.68"/><path class="cls-7" d="M541.66,530.75c51.32-39.39,78.92-159.33,87.72-175.07,46.8-83.64,58.9-162.31,59-167.92a27,27,0,1,0-24-5.12c-36.7,52.47-76.69,142.88-92,161-14.45,17.17-50.12,69.42-67.2,120.64"/><path class="cls-7" d="M397.27,463.37c-17.2-50.91-52.52-102.63-66.89-119.69C314.68,325,273,230.25,235.47,178.53a27,27,0,1,0-21.09,10.15h.07c1,10.52,13.86,86.45,58.93,167,8.82,15.76,36.46,135.92,87.88,175.19"/><path class="cls-7" d="M428.38,440.56c-11.55,4.38-21.9,12.28-31.11,22.81"/><path class="cls-7" d="M505.18,464.32c-9.13-10.27-19.37-18.14-30.81-22.81"/><path class="cls-7" d="M566.66,640.66C562,604.27,554,565,541.66,530.75"/><path class="cls-7" d="M361.26,530.87c-11.95,34.48-19.6,74-23.64,110.62"/><path class="cls-7" d="M403.37,365.45a13.5,13.5,0,0,1-7.25-22.59"/><path class="cls-7" d="M506.92,343.15a13.51,13.51,0,0,1-7.32,22.26"/><path class="cls-7" d="M566.66,640.66a598.76,598.76,0,0,0-13.95-73.87,90.6,90.6,0,0,1-57.17-112,76.94,76.94,0,0,0-21.17-13.25"/><path class="cls-7" d="M428.38,440.57A71.62,71.62,0,0,0,406.65,454a87.29,87.29,0,0,1-55.58,111.39,576.32,576.32,0,0,0-13.44,76.14"/><path class="cls-8" d="M451.38,720.87,420.24,722c-3.56-8.65-78.41-114.34-194-114.34a1,1,0,0,0-.53.14"/><path class="cls-8" d="M355.29,839.1c40.32,9.25,86,16.42,96.09,16.42"/><path class="cls-8" d="M225.68,607.75c-1.58-.09-3.19-.14-4.81-.14-11.69,0-21.06,12.9-21.06,29.51,0,89.55,118.14,282,126.83,282h47.59c-18.08-60.35-30-158-59.32-227.9"/><path class="cls-8" d="M545.55,839.54c-39.83,9-84.2,16-94.17,16"/><path class="cls-8" d="M451.38,720.87,482.52,722c3.57-8.65,78.42-114.34,194-114.34"/><path class="cls-8" d="M676.57,607.68c1.15,0,2.32-.07,3.5-.07,11.69,0,21.06,12.9,21.06,29.51,0,89.55-118.14,282-126.83,282H526.71c18.54-61.88,30.59-163,61.59-233.18"/><polygon class="cls-8" points="372.63 962.99 374.23 919.09 326.64 919.09 220.32 962.99 372.63 962.99"/><polygon class="cls-8" points="528.31 962.99 526.71 919.09 574.3 919.09 680.62 962.99 528.31 962.99"/><path class="cls-7" d="M474.38,404.27v64.41c0,13-46,13-46,0V404.27"/><path class="cls-7" d="M499.87,338.46a73.11,73.11,0,0,1,1,12.22c0,33.42-22.16,60.5-49.5,60.5s-49.5-27.08-49.5-60.5c0-21.13,8.87-39.73,22.3-50.55"/><rect class="cls-5" x="64.86" width="49.61" height="323.37"/><rect class="cls-5" x="788.29" width="49.61" height="323.37"/><rect class="cls-5" x="27.41" y="68.06" width="34.36" height="187.26"/><rect class="cls-5" x="841.78" y="68.06" width="34.36" height="187.26"/><path class="cls-8" d="M496.38,257.68c-4.44,0-7.31,11.87-7.18,17.31-2-11.33-20.76-52.31-46.82-52.31-11,0-13,13-13,17,0,12,1,24,5,31-4-6-12.07-21-27-21-8,0-15,3.41-15,8,0,12.22,10,23,13,26-3-2-6.86-4-16-4-6.26,0-10,10-10,15,0,22.31,10.15,47.76,21.5,50.77a4.76,4.76,0,0,0,1.19.16c1.29-19,9.78-35.52,22.12-45.46,14.3,20.23,66.32,36.14,75.67,38.32a75.07,75.07,0,0,1,.91,8.32,8.42,8.42,0,0,0,2.05.45c3.49.25,14.56-20.64,14.56-47.56C517.38,292.68,513.42,257.68,496.38,257.68Z"/></g></g></svg>