<svg xmlns="http://www.w3.org/2000/svg" xmlns:xlink="http://www.w3.org/1999/xlink" viewBox="0 0 1040.62 858.17"><defs><style>.cls-1,.cls-5,.cls-6{fill:none;}.cls-2{fill:#949494;}.cls-3{fill:url(#New_Pattern);}.cls-4{fill:#f8f8f8;}.cls-5{stroke:#dfdfdf;stroke-width:6.72px;}.cls-5,.cls-6{stroke-linecap:round;stroke-linejoin:round;}.cls-6{stroke:#000;stroke-width:3.36px;}</style><pattern id="New_Pattern" data-name="New Pattern" width="12" height="12" patternTransform="matrix(-1.34, 0, 0, 1.34, -21.33, -47.29)" patternUnits="userSpaceOnUse" viewBox="0 0 12 12"><rect class="cls-1" width="12" height="12"/><rect class="cls-1" width="12" height="12"/><circle class="cls-2" cx="12" cy="3" r="2"/><circle class="cls-2" cx="6" r="2"/><circle class="cls-2" cy="3" r="2"/><circle class="cls-2" cx="12" cy="9" r="2"/><circle class="cls-2" cx="6" cy="6" r="2"/><circle class="cls-2" cy="9" r="2"/><circle class="cls-2" cx="6" cy="12" r="2"/></pattern></defs><title>shopping-cart-monochrome</title><g id="Layer_2" data-name="Layer 2"><g id="shadow"><path class="cls-3" d="M235.38,322.69c.34-5.65,33.8-35,62.88-28.62-1.2-8.26-4.15-24-4.15-24l-2.48-29.53-8.75-1.71-3.25-18.15-.95-18.91,3-26.79,2.62-14.12-13.63,20.69L253.26,216.3l-10,32.38-12.85,44.74-1.9,18.23Z"/><path class="cls-3" d="M424.55,224.87c.61,4.77-1.79,38.58-8.8,44.48C410.2,268.56,402.5,259,402.5,259l-20.12-17.35,3.44-26.38.46-19.77-3.79-23.14,6.93,3.41,12.82,11.53,13.1,18-3.19,6.88Z"/></g><g id="vector"><path class="cls-4" d="M739.26,69.3c-107.51-26-234.2,35.15-332.81,68.7-12.41,4.23-24.36,8-35.92,11.44l8.84,14.23,3.12,8.69,13.35,8.5,12,13.37,7.47,11.08-3.19,6.86,17.75,18.18,19.91,13.86,56,32.5,8.85-.12,11.86,4.62,4.77,8.32-.91,10.3-7.45,5.53-11.16,2.13-6,4.59-11.89,3.75L479.22,311l-5.87-6.38-34.13,3.5-44.78.6-30.78-1.33A338.08,338.08,0,0,1,350,338.71l-3,6.71L344.36,349c-3.31,5.62-6.27,9.76-8.64,12h0l-8.81,9.18L244.63,354,229.37,313.9a22.17,22.17,0,0,1-1.09-2.85c-.38-1.29-.09-5.13.85-10.86h0a368.22,368.22,0,0,1,10.42-42.8l2-8,5-13.54q2.08-5.94,4.4-12l.21-.55.08-.18c6.55-16.89,14.39-33.8,23.39-48.33-37.59,9.59-71.47,19.24-104.69,35.51C102.63,243.24,38.26,303.5,28,371.75S61.54,516.24,114,569.2s113.45,82.63,190.6,142.89C381.57,772.35,474.47,863.2,551.4,858,628.32,852.47,689,751.12,765.05,645.67c76.25-105.46,167.32-215,168.69-326.19C935.11,208.08,846.77,95.09,739.26,69.3ZM371.47,757.56l-35.12-54.67,11.76-21.66,29,5.35,10.07,67.08Z"/><path class="cls-5" d="M684.87,584.87,544.38,307.49c-4.29-2.51-21.49-13.56-21.49-13.56"/><path class="cls-5" d="M534.3,329.42c-1.68-5.55-6.75-17-6.75-17-3.08-.19-24.5-11.2-24.5-11.2"/><line class="cls-5" x1="496.97" y1="302.29" x2="563.55" y2="275.13"/><polygon class="cls-6" points="18.79 725.99 1.68 741.8 42.75 795.67 55.47 784.42 35.91 736.5 18.79 725.99"/><polygon class="cls-6" points="350.5 676.83 336.35 702.89 371.47 757.56 386.25 753.75 376.56 682.39 350.5 676.83"/><path class="cls-6" d="M505.77,276.71a27.87,27.87,0,0,1,4.81-.41c11.55,0,20.91,7,20.91,15.6s-9.29,15.53-20.77,15.59"/><path class="cls-6" d="M413.34,269c-7-5.33-22.6-18.1-31-27.35"/><path class="cls-6" d="M412.15,212.17c6.7,6.55,19.28,20.58,23.78,23.42s50.24,31.39,69,40.65"/><path class="cls-6" d="M382.18,171.83c16.06,6.3,32.9,30.52,32.39,35.16-.61,5.42-17.44,25.51-31.68,31.8"/><path class="cls-6" d="M354.48,138.24c38.88,16.72,36.35,74.26,22.69,127"/><path class="cls-6" d="M363.71,307.23c-11.21,29.38-23.66,51.66-29.79,55.21-13.41,7.76-96.71-21.77-105.64-51.39-3-9.85,34-169.1,95-177.38"/><path class="cls-6" d="M483.32,285.4a26.61,26.61,0,0,1,9.66-1.77c11.55,0,20.91,7,20.91,15.6s-9.36,15.6-20.91,15.6c-9,0-16.7-4.27-19.63-10.24"/><path class="cls-6" d="M483.32,285.4c-18.91-7.2-65.05-19.7-132.92-21.58-1-6.33.13-20.66.15-31.21"/><path class="cls-6" d="M291.63,240.5c1,17.49,4.28,54.66,8.18,56,55.12,18.37,150.47,10.27,166.93,9.17a37.11,37.11,0,0,0,6.61-1"/><path class="cls-6" d="M306.58,142.63c47.84-9.78,56.49,79.52,51.83,86.1s-65.54,15.91-73.49,10.15S270.39,150,306.58,142.63Z"/><path class="cls-6" d="M342.68,147.84c3.82,1.3,7.37,2.06,9.76,1.69.28-3.26,2.95-19,8.36-30.8"/><path class="cls-6" d="M337.62,83.19c-3.76,12.87-12.28,40.78-14.35,50.48"/><path class="cls-6" d="M397.39,46c3.59,8.5,5.19,19.1,4,30.36-2.62,25.74-18.61,45.19-35.71,43.45a21.55,21.55,0,0,1-4.92-1.11"/><path class="cls-6" d="M397.52,46.36c-14.85.74-27,19.29-47.14,20.31"/><path class="cls-6" d="M334.59,76.86c-3.64-3.43-9-13.53-9-23,0-16.57,16.51-26,27.65-30.94C361.72,19.21,368.85,1.68,388,1.68c15.32,0,16.33,15.41,23.38,16,18.25,1.52,28.48,2.21,28.48,15.46,0,9.74-12.5,36.21-38,36.21"/><path class="cls-6" d="M344.49,86l-.65,0c-5.22,0-9.44-5.15-9.44-11.51S338.62,63,343.84,63a8.32,8.32,0,0,1,5.51,2.17"/><path class="cls-5" d="M1022.75,689.53H583.88V594.31C607.87,592.18,949.1,560,949.1,560V352.9L534.3,329.42l49.58,264.89"/><circle class="cls-5" cx="619.15" cy="721.79" r="20.37"/><circle class="cls-5" cx="1016.89" cy="721.79" r="20.37"/><line class="cls-5" x1="550.5" y1="416" x2="949.1" y2="416"/><line class="cls-5" x1="561.52" y1="474.87" x2="949.1" y2="474.87"/><line class="cls-5" x1="463.27" y1="316.03" x2="496.97" y2="302.29"/><path class="cls-5" d="M595.24,474.87C590.89,462.52,544.57,330,544.57,330"/><path d="M464.93,491.66c-6.47-28.72-97.09-106.32-129.45-130.41a9.52,9.52,0,0,1-1.56,1.19c-13.17,7.62-93.73-20.72-105.08-49.79-4.27,6.11-21.35,48.31-21.35,62.93,0,100.76,150.21,126.88,171.79,126.88-3.13,14.07-36.17,173.81-34.61,177.25s29,10.68,34.61,9.74C400.73,677.76,470.15,514.8,464.93,491.66Z"/><path d="M229,312.91C202.82,359.78,15.6,727.58,15.6,727.58L39,741.8,311.71,446.71,245,331.4C237.31,325.52,231.51,319.24,229,312.91Z"/><line class="cls-6" x1="349.35" y1="65.19" x2="349.35" y2="65.19"/></g></g></svg>