<svg xmlns="http://www.w3.org/2000/svg" viewBox="0 0 833.99 745.03"><defs><style>.cls-1{fill:#f2f2f2;}.cls-2,.cls-3,.cls-4{fill:none;stroke:#000;stroke-miterlimit:10;}.cls-2,.cls-3{stroke-width:3px;}.cls-3,.cls-4{stroke-linecap:round;}.cls-4{stroke-width:7px;}</style></defs><title>dog-monochrome</title><g id="Layer_2" data-name="Layer 2"><g id="vector"><path class="cls-1" d="M730.79,333.18c8,9.32,16.31,19.93,24.59,31.59,0-.51,0-1,0-1.51-.4-14.29-.15-28.94.44-43.76C747.69,325.84,739.23,330.67,730.79,333.18Z"/><path class="cls-1" d="M562.61,299.39c80.81,0,107-9,116.09-9h.2c14.27-6.74,41.63-27.61,41.63-63,0-5.38-4.19-39-48.42-39-4.75,0-11.73,3.61-12.88,3.61S656,185.35,656,180.53s13-55.81,64.24-55.81c8.84,0,24.38,4.07,40.1,13.35-3-24.25-9.06-46.22-20.17-64.63-41.55-69.31-154-88.28-244.88-62.31-87.65,25.28-155,92.37-234,152.92C281.05,225.59,319.05,299.39,562.61,299.39Z"/><path class="cls-1" d="M742.27,662.74c0-2.63,12.43-11.81,19-18.35,1.36-2.44,2.65-4.92,3.86-7.42-1.76-57.8-85.85-150.15-372.18-178.24l50.61,204H348.83l22.68-15.3s-158.76-247-173.7-271.16c-10.74-15.86-52.06-85.92-69.58-96.91a109.28,109.28,0,0,0-13.92-7.14c-34.75,29.09-65.08,61.15-85.23,100-45.14,86.89-39.15,207.93,28,265s195.35,50.34,297,64.72c101.47,14.58,176.37,50.13,250.87,41.74,56-6.28,111.72-37.35,144.39-81Z"/><path d="M246.8,450.7q-19.77-.34-40.48-.34c-10,0-19.62,1.11-19.62,3.7s15.18,40,17,41.82,20.36,4.22,20.36,14.8c0,5.19-1.91,26.65-25.54,26.65-31.11,0-96.23-106.46-96.23-140.27,10.36-4.07,95.49-20.78,95.49-20.78"/><path d="M187,123.23c10.14-3.15,67.16-5.6,94.09,7.34,0,54.22-14.14,128.35-59.81,123.48C181.7,249.84,161.07,186.18,187,123.23Z"/><path class="cls-2" d="M90.06,217.11c4.51,8.26,40.58,60.5,64.64,51.25,16.15-6.21-4.54-55.54-13.83-66.9C135.06,204.57,106.41,215.49,90.06,217.11Z"/><path class="cls-2" d="M119,210.62c2.43,4.32,6.18,11.14,12.37,20.22"/><path class="cls-3" d="M14.75,188.67c17,29.25,70.62,42.92,131.25,10.12"/><ellipse cx="31" cy="141.36" rx="20.78" ry="9.32"/><ellipse cx="132.81" cy="135.24" rx="6.1" ry="11.55"/><path class="cls-2" d="M730.79,333.18c39.69-11.79,79.77-74.75,79.77-107.28,0-74.05-67.5-101.18-90.34-101.18-51.24,0-64.24,51-64.24,55.81s2.1,11.48,3.25,11.48,8.13-3.61,12.88-3.61c44.23,0,48.42,33.6,48.42,39,0,35.37-27.36,56.24-41.63,63h-.2c-9,0-35.28,9-116.09,9-417.75,0-230.79-217.1-384.45-217.1-49.93,0-77.32,64.58-100.64,64.58-5.92,0-45.89-7-49.59-7s-16.66,5.55-16.66,17.76c0,94.75,82.05,99.87,117,121.77,17.52,11,58.84,81.05,69.58,96.91,14.94,24.19,173.7,271.16,173.7,271.16l-22.68,15.3h94.68l-50.61-204c289.42,28.39,372.22,122.45,372.22,180.11,0,4.73-22.85,20.33-22.85,23.9h84.18c1.51-4.52,6-43.72,6-89C832.49,481.22,776.32,386.3,730.79,333.18Z"/><path class="cls-4" d="M166.53,327.46c17.22-5.61,94.63-41.4,133-95"/><path d="M599.48,498.78c-.14,7-19.19,147.63-19.19,147.63l-22,16.33h76.78s14.6-67.53,64.74-117.1C675.06,528.92,642.18,512.83,599.48,498.78Z"/></g></g></svg>