<svg xmlns="http://www.w3.org/2000/svg" viewBox="0 0 702.48 889.49"><defs><style>.cls-1{fill:#f2f2f2;}.cls-12,.cls-14,.cls-2,.cls-3,.cls-5,.cls-6,.cls-8,.cls-9{fill-rule:evenodd;}.cls-3{fill:#ffd98e;}.cls-10,.cls-11,.cls-13,.cls-4,.cls-7{fill:none;stroke-linecap:round;stroke-linejoin:round;}.cls-11,.cls-4{stroke:#ff8364;}.cls-4{stroke-width:5.73px;}.cls-5{fill:#d18c65;}.cls-6{fill:#ff8364;}.cls-13,.cls-7{stroke:#ffd98e;}.cls-7{stroke-width:2.83px;}.cls-8{fill:#6bd5e1;}.cls-9{fill:#dfdfdf;}.cls-10{stroke:#6bd5e1;}.cls-10,.cls-11{stroke-width:3.11px;}.cls-12{fill:#1b3c87;}.cls-13{stroke-width:4.23px;}.cls-14{fill:#e49d75;}</style></defs><title>student-colour</title><g id="Layer_2" data-name="Layer 2"><g id="Layer_1-2" data-name="Layer 1"><path class="cls-1" d="M623.07,143.07c52.35,64.75,86.21,135.78,78.25,199.05C693.55,405.2,644,460.7,591.62,537.65c-52.35,77.14-107.84,175.93-187.76,200.53-80.1,24.6-184.62-24.79-266.94-101.93S-5.52,454.59.4,355.81s77.7-191.65,160-256.39S335.6-2,417.55,9,570.53,78.33,623.07,143.07Z"/><path class="cls-2" d="M334.81,433.46c54,0,83,36.08,88.39,72.72,5.48,37.48-.77,68.51.79,113.82,1.06,30.51,14.49,50.89,23.1,78.09s-221.18,34.06-219.81,8.62,17.81-51.5,18.4-83.19c.6-32.31-4-51.7-3.37-104.26C242.78,477.77,280.79,433.46,334.81,433.46Z"/><path class="cls-3" d="M113.09,888.29c-2.07-25.54,9.32-116.62,44.53-184.63,131.51-72.83,296.51-38.14,361.75,0,22.09,22.44,38.06,171.52,33.23,182.22"/><path class="cls-4" d="M189,885.88c2.07-16.57,5.35-43.27,10.7-68"/><path class="cls-4" d="M480.67,885.88c-2.07-16.57-5.35-43.27-10.7-68"/><path class="cls-5" d="M251.34,551.72A14.63,14.63,0,1,1,266,566.34,14.63,14.63,0,0,1,251.34,551.72Z"/><path class="cls-5" d="M385.5,551.72a14.63,14.63,0,1,1,14.63,14.62A14.63,14.63,0,0,1,385.5,551.72Z"/><path class="cls-6" d="M393.07,299.87c-14.76-11.51-18.4,1.35-20.71,9s-2.14,21.14,9.43,20.85c10.14,9.09,19.58-2.68,22.48-8.66S414.29,302.11,393.07,299.87Z"/><path class="cls-7" d="M402.83,291.67c-5.09,1.79-7.95,4.23-9.57,8.47"/><path class="cls-8" d="M296.82,368.18A17.14,17.14,0,1,1,314,385.31,17.14,17.14,0,0,1,296.82,368.18Z"/><path class="cls-9" d="M178.13,375.74l47.47-12.05,19.23,75.78-47.46,12Z"/><path class="cls-6" d="M188.13,384.09l32.66-8.29,2.52,9.93L190.65,394Z"/><path class="cls-10" d="M193.39,404.8l32.66-8.29"/><path class="cls-10" d="M196.13,415.58l32.67-8.29"/><path class="cls-10" d="M199,426.83l32.69-8.3"/><path class="cls-10" d="M201.74,437.7l12.82-3.26"/><path class="cls-10" d="M229.29,430.7l5.14-1.3"/><path class="cls-9" d="M146.66,203.68,269.5,145.19l38.39,80.61L185.05,284.3Z"/><path class="cls-11" d="M189.14,266.47l12.22-35.77L224.13,235l8.94-44.11,22,3.66,6.4-31.12"/><path class="cls-3" d="M197.05,233a6.33,6.33,0,1,1,8.45,3A6.33,6.33,0,0,1,197.05,233Z"/><path class="cls-3" d="M227.65,194.62a6.34,6.34,0,1,1,8.45,3A6.33,6.33,0,0,1,227.65,194.62Z"/><path class="cls-3" d="M460.34,262.6A21.7,21.7,0,1,1,482,284.3,21.69,21.69,0,0,1,460.34,262.6Z"/><path class="cls-11" d="M518.67,258.81a25,25,0,0,1-24,31.76,25.14,25.14,0,0,1-4.87-.47"/><path class="cls-3" d="M468.88,279.08,460.56,294l34.35,5.52-3.76-17.38"/><path class="cls-12" d="M476.92,262.6a5.12,5.12,0,1,1,5.12,5.12A5.12,5.12,0,0,1,476.92,262.6Z"/><path class="cls-3" d="M512.17,257.48a5.12,5.12,0,1,1,5.12,5.12A5.13,5.13,0,0,1,512.17,257.48Z"/><path class="cls-6" d="M100.91,99.47,133,108.14l-31.6,117L69.31,216.5Z"/><path class="cls-13" d="M79.51,178.73l17.67,4.78"/><path class="cls-13" d="M73.9,199.49l17.68,4.77"/><path class="cls-13" d="M85.11,158l17.68,4.78"/><path class="cls-13" d="M90.72,137.23,108.39,142"/><path class="cls-13" d="M96.32,116.48,114,121.25"/><path class="cls-9" d="M431.43,75.21,552.6,104.46l-20,82.62L411.48,157.82Z"/><path class="cls-6" d="M503.9,164.78a13.06,13.06,0,1,1,9.63,15.76A13.06,13.06,0,0,1,503.9,164.78Z"/><path class="cls-6" d="M507.76,175.53l-8.71,22.71,12.16-2.75,7.81,7.25L520.59,178"/><path class="cls-10" d="M438.59,96.64l95.66,23.1"/><path class="cls-10" d="M433.05,119.31l57.77,13.95"/><path class="cls-8" d="M239.14,86.48l-13-14.09,18.7-4.23,18.71-4.23-5.69,18.32-5.69,18.31Z"/><path class="cls-3" d="M497.43,381.88,479.62,389l2.73-19,2.73-19,15.07,11.85,15.08,11.86Z"/><path class="cls-11" d="M351.24,153a9.3,9.3,0,1,1,9.3,9.3A9.3,9.3,0,0,1,351.24,153Z"/><path class="cls-3" d="M91.4,308.8a9.3,9.3,0,1,1,9.3,9.3A9.3,9.3,0,0,1,91.4,308.8Z"/><path class="cls-5" d="M301.81,606.75H364s.29,64.25,0,89.53c0,10.43-62.17,9.24-62.17,0Z"/><path class="cls-14" d="M270,545.32c0-47.72,29-86.41,64.83-86.41s64.84,38.69,64.84,86.41-29,86.42-64.84,86.42S270,593.05,270,545.32Z"/><path class="cls-2" d="M369.84,452.72c-16.47,38.27-84.71,75.63-113.45,84.37C251.85,514.24,281.26,416.91,369.84,452.72Z"/><path class="cls-2" d="M333.37,451.54c-12.47,4.75,28.07,69.59,76.65,85.55C429.85,508.86,384.13,450.19,333.37,451.54Z"/><path class="cls-3" d="M426.07,17.13A17.14,17.14,0,1,1,443.2,34.26,17.13,17.13,0,0,1,426.07,17.13Z"/><path class="cls-10" d="M130.62,467.56a16,16,0,1,1,16,16A16,16,0,0,1,130.62,467.56Z"/><path class="cls-11" d="M485.13,460.82a9.31,9.31,0,1,1,9.31,9.3A9.3,9.3,0,0,1,485.13,460.82Z"/><path class="cls-1" d="M623.07,143.82c52.35,64.74,86.21,135.78,78.25,199C693.55,406,644,461.44,591.62,538.4c-52.35,77.14-107.84,175.92-187.76,200.52C323.76,763.53,219.24,714.14,136.92,637S-5.52,455.34.4,356.55s77.7-191.64,160-256.39S335.6-1.21,417.55,9.7,570.53,79.07,623.07,143.82Z"/><path class="cls-2" d="M334.81,434.2c54,0,83,36.09,88.39,72.73,5.48,37.47-.77,68.5.79,113.81,1.06,30.52,14.49,50.89,23.1,78.1s-221.18,34.06-219.81,8.61,17.81-51.5,18.4-83.19c.6-32.3-4-51.7-3.37-104.25C242.78,478.51,280.79,434.2,334.81,434.2Z"/><path class="cls-3" d="M113.09,889c-2.07-25.54,9.32-116.62,44.53-184.62,131.51-72.83,296.51-38.15,361.75,0,22.09,22.44,38.06,171.51,33.23,182.21"/><path class="cls-4" d="M189,886.62c2.07-16.57,5.35-43.27,10.7-68"/><path class="cls-4" d="M480.67,886.62c-2.07-16.57-5.35-43.27-10.7-68"/><path class="cls-5" d="M251.34,552.46A14.63,14.63,0,1,1,266,567.08,14.63,14.63,0,0,1,251.34,552.46Z"/><path class="cls-5" d="M385.5,552.46a14.63,14.63,0,1,1,14.63,14.62A14.63,14.63,0,0,1,385.5,552.46Z"/><path class="cls-6" d="M393.07,300.62c-14.76-11.52-18.4,1.35-20.71,9s-2.14,21.14,9.43,20.85c10.14,9.1,19.58-2.67,22.48-8.65S414.29,302.86,393.07,300.62Z"/><path class="cls-7" d="M402.83,292.41c-5.09,1.79-7.95,4.23-9.57,8.47"/><path class="cls-8" d="M296.82,368.92A17.14,17.14,0,1,1,314,386.05,17.13,17.13,0,0,1,296.82,368.92Z"/><path class="cls-9" d="M178.13,376.48l47.47-12.05,19.23,75.78-47.46,12.05Z"/><path class="cls-6" d="M188.13,384.83l32.66-8.29,2.52,9.93-32.66,8.29Z"/><path class="cls-10" d="M193.39,405.55l32.66-8.3"/><path class="cls-10" d="M196.13,416.33,228.8,408"/><path class="cls-10" d="M199,427.57l32.69-8.3"/><path class="cls-10" d="M201.74,438.44l12.82-3.25"/><path class="cls-10" d="M229.29,431.44l5.14-1.3"/><path class="cls-9" d="M146.66,204.43l122.84-58.5,38.39,80.62L185.05,285Z"/><path class="cls-11" d="M189.14,267.21l12.22-35.76,22.77,4.24,8.94-44.11,22,3.66,6.4-31.11"/><path class="cls-3" d="M197.05,233.79a6.34,6.34,0,1,1,8.45,3A6.35,6.35,0,0,1,197.05,233.79Z"/><path class="cls-3" d="M227.65,195.36a6.34,6.34,0,1,1,8.45,3A6.33,6.33,0,0,1,227.65,195.36Z"/><path class="cls-3" d="M460.34,263.34A21.7,21.7,0,1,1,482,285,21.7,21.7,0,0,1,460.34,263.34Z"/><path class="cls-11" d="M518.67,259.56a24.6,24.6,0,0,1,.94,6.8,24.95,24.95,0,0,1-29.82,24.48"/><path class="cls-3" d="M468.88,279.82l-8.32,14.89,34.35,5.53-3.76-17.39"/><path class="cls-12" d="M476.92,263.34a5.12,5.12,0,1,1,5.12,5.12A5.12,5.12,0,0,1,476.92,263.34Z"/><path class="cls-3" d="M512.17,258.22a5.12,5.12,0,1,1,5.12,5.12A5.12,5.12,0,0,1,512.17,258.22Z"/><path class="cls-6" d="M100.91,100.21,133,108.89l-31.6,117-32.12-8.67Z"/><path class="cls-13" d="M79.51,179.48l17.67,4.77"/><path class="cls-13" d="M73.9,200.23,91.58,205"/><path class="cls-13" d="M85.11,158.73l17.68,4.77"/><path class="cls-13" d="M90.72,138l17.67,4.77"/><path class="cls-13" d="M96.32,117.22,114,122"/><path class="cls-9" d="M431.43,76,552.6,105.21l-20,82.61L411.48,158.56Z"/><path class="cls-6" d="M503.9,165.52a13.06,13.06,0,1,1,9.63,15.76A13.06,13.06,0,0,1,503.9,165.52Z"/><path class="cls-6" d="M507.76,176.28,499.05,199l12.16-2.76,7.81,7.25,1.57-24.75"/><path class="cls-10" d="M438.59,97.39l95.66,23.1"/><path class="cls-10" d="M433.05,120.06,490.82,134"/><path class="cls-8" d="M239.14,87.22l-13-14.08,18.7-4.23,18.71-4.23L257.85,83l-5.69,18.32Z"/><path class="cls-3" d="M497.43,382.62l-17.81,7.13,2.73-19,2.73-19,15.07,11.85,15.08,11.85Z"/><path class="cls-11" d="M351.24,153.76a9.3,9.3,0,1,1,9.3,9.3A9.3,9.3,0,0,1,351.24,153.76Z"/><path class="cls-3" d="M91.4,309.54a9.3,9.3,0,1,1,9.3,9.3A9.3,9.3,0,0,1,91.4,309.54Z"/><path class="cls-5" d="M301.81,607.49H364s.29,64.25,0,89.54c0,10.43-62.17,9.23-62.17,0Z"/><path class="cls-14" d="M270,546.07c0-47.73,29-86.41,64.83-86.41s64.84,38.68,64.84,86.41-29,86.41-64.84,86.41S270,593.79,270,546.07Z"/><path class="cls-2" d="M369.84,453.46c-16.47,38.27-84.71,75.64-113.45,84.38C251.85,515,281.26,417.66,369.84,453.46Z"/><path class="cls-2" d="M333.37,452.28C320.9,457,361.44,521.87,410,537.84,429.85,509.6,384.13,450.94,333.37,452.28Z"/><path class="cls-3" d="M426.07,17.88A17.14,17.14,0,1,1,443.2,35,17.13,17.13,0,0,1,426.07,17.88Z"/><path class="cls-10" d="M130.62,468.3a16,16,0,1,1,16,16A16,16,0,0,1,130.62,468.3Z"/><path class="cls-11" d="M485.13,461.56a9.31,9.31,0,1,1,9.31,9.3A9.3,9.3,0,0,1,485.13,461.56Z"/></g></g></svg>