<svg xmlns="http://www.w3.org/2000/svg" xmlns:xlink="http://www.w3.org/1999/xlink" viewBox="0 0 718.04 706.79"><defs><style>.cls-1,.cls-10,.cls-11,.cls-6,.cls-8,.cls-9{fill:none;}.cls-2{fill:#949494;}.cls-3{fill:#f2f2f2;}.cls-4{fill:#dfdfdf;}.cls-5{fill:url(#New_Pattern);}.cls-6{stroke:#f9f9f9;stroke-width:7px;}.cls-11,.cls-6,.cls-9{stroke-miterlimit:10;}.cls-7{fill:#f9f9f9;}.cls-10,.cls-11,.cls-8,.cls-9{stroke:#000;stroke-linecap:round;}.cls-10,.cls-8{stroke-linejoin:round;}.cls-8{stroke-width:16px;}.cls-10,.cls-9{stroke-width:2.5px;}.cls-11{stroke-width:4px;}</style><pattern id="New_Pattern" data-name="New Pattern" width="12" height="12" patternTransform="matrix(-1, 0, 0, 1, -9.22, -43.32)" patternUnits="userSpaceOnUse" viewBox="0 0 12 12"><rect class="cls-1" width="12" height="12"/><rect class="cls-1" width="12" height="12"/><circle class="cls-2" cx="12" cy="3" r="2"/><circle class="cls-2" cx="6" r="2"/><circle class="cls-2" cy="3" r="2"/><circle class="cls-2" cx="12" cy="9" r="2"/><circle class="cls-2" cx="6" cy="6" r="2"/><circle class="cls-2" cy="9" r="2"/><circle class="cls-2" cx="6" cy="12" r="2"/></pattern></defs><title>food-delivery-monochrome</title><g id="Layer_2" data-name="Layer 2"><g id="vector"><path class="cls-3" d="M696.53,287.15c-.51-62-16.17-123.57-55-169.47S540.44,41.19,475.92,38.84c-1.36-.05-2.73-.08-4.1-.11.1.24.21.49.31.74,2.41,6.13-9.35,18.1-19.51,18.1-5.94,0-15-3.4-17.65-5l0-.11a49.63,49.63,0,0,1-4.95,11.84c-9.66,16.74-26.89,25-39.25,19.25-1.86,2.64-4,6.12-5.93,9.2,9.45,7.13,17,17.73,17,28.36,0,1.27-.05,2.61-.13,4v0c8.23,6.7,14.51,29,13,38.62a14.05,14.05,0,0,1-2.67,2.4h0c1.44,10,4.61,32,6.25,34.9,1.84,3.25,53.51,84.39,57.67,90.59,6.69-.71,13,4.76,14.14,12.48,1.2,7.91-3.4,15.17-10.28,16.22s-13.44-4.52-14.64-12.43a16,16,0,0,1,.54-7.26,4.38,4.38,0,0,1-.52,0c-4.13-2.94-34.35-41.05-48.7-59.3,10.64,23.6,23.08,50.94,25.93,57.69,6.56.29,12.41,6.07,13.61,14,1.34,8.78-3.6,16.81-11,17.94s-14.54-5.07-15.87-13.85a17.94,17.94,0,0,1,1.19-9.8c-.42-.1-.84-.19-1.28-.32-7.26-5.93-51.19-63.24-60.85-79.29C356.58,251.82,345,270.34,339,271.74c-18.85,4.43-75.11-46.19-84.29-63.11l-12.43,16.54-72.53-54.5c-47.37,37.63-87,82.62-98.73,134.8-19.41,85.24,35.74,189.47,116.09,272.69,80.17,83.22,185.71,145.42,270.14,124.57S605.12,578.16,643.93,494.94,697.21,349,696.53,287.15Z"/><path class="cls-3" d="M365.84,84.27a212.54,212.54,0,0,0,12.82-21.36,39.41,39.41,0,0,1,.52-8.65q-15.18,5-30.9,11.57L357,72.39l-15,20h0c7.88-5.2,15-8.3,20.8-8.3A24.49,24.49,0,0,1,365.84,84.27Z"/><path class="cls-4" d="M303.77,542.1,299,546.41l-10.58-11.94a34.18,34.18,0,0,0-12.09-.47l15.31,6.38,24.12,26A34.74,34.74,0,0,0,303.77,542.1Z"/><path class="cls-4" d="M275.08,473l8.24,8.46L251,312l-12.1,2.31L270,477.55C272.39,475.38,274.28,473.66,275.08,473Z"/><path class="cls-4" d="M260.2,560.6s10.79-24.38,12.59-28.09l17.42,7.26c1.19-3.34,2.21-6.26,3-8.54,0,0-131.49-8.4-151.55-8.4l4.07,17.89s113.86,52.87,123.35,55.58c0,0,4.74-12.36,10.14-26.72Z"/><polygon class="cls-4" points="319.4 570.23 521.18 415.8 510.09 401.3 306.92 556.8 319.4 570.23"/><path class="cls-4" d="M260.2,560.6s8.11-18.34,11.44-25.62a34.78,34.78,0,1,0,40.07,50Z"/><path class="cls-3" d="M436.29,45.53h0c0,.21,0,.42-.06.63C436.24,45.93,436.26,45.72,436.29,45.53Z"/><path class="cls-5" d="M253.38,204.93c0-18.81,52.08-88.43,88.62-112.56l15-20L260.66,0,145.88,152.78l96.35,72.39,12.43-16.54A8.66,8.66,0,0,1,253.38,204.93Z"/><line class="cls-6" x1="255.6" y1="207.37" x2="159.25" y2="134.98"/><line class="cls-6" x1="343.74" y1="90.05" x2="247.39" y2="17.67"/><circle class="cls-7" cx="259.33" cy="120.02" r="17.95"/><path class="cls-3" d="M289,144.28l0-.06Z"/><path class="cls-3" d="M290.55,142.38l.36-.44Z"/><path class="cls-3" d="M283.86,150.81l.46-.59Z"/><path class="cls-3" d="M276,161.35l.63-.88Z"/><path class="cls-3" d="M278.84,157.46c.12-.15.23-.31.35-.47C279.07,157.15,279,157.31,278.84,157.46Z"/><path class="cls-3" d="M282.06,153.16l.58-.76Z"/><path class="cls-3" d="M301.48,129.56l.14-.16Z"/><path class="cls-3" d="M280.33,155.47c.19-.26.38-.53.58-.79C280.71,154.94,280.52,155.21,280.33,155.47Z"/><path class="cls-3" d="M303.39,127.43l0,0Z"/><path class="cls-3" d="M253.45,205.61a1.33,1.33,0,0,0,.05.19A1.33,1.33,0,0,1,253.45,205.61Z"/><path class="cls-3" d="M274.37,163.68c.24-.34.48-.69.73-1C274.85,163,274.61,163.34,274.37,163.68Z"/><path class="cls-3" d="M253.68,206.46l0,.15Z"/><path class="cls-3" d="M254.27,199.73c.14-.46.28-.93.44-1.41C254.55,198.8,254.41,199.27,254.27,199.73Z"/><path class="cls-3" d="M253.43,203.89c0,.36-.05.71-.05,1C253.38,204.6,253.4,204.25,253.43,203.89Z"/><path class="cls-3" d="M254.17,200.09c-.09.33-.17.65-.25,1C254,200.74,254.08,200.42,254.17,200.09Z"/><path class="cls-3" d="M253.82,201.5c-.07.28-.12.55-.17.82C253.7,202.05,253.75,201.78,253.82,201.5Z"/><path class="cls-3" d="M253.57,202.75c0,.27-.07.53-.1.79C253.5,203.28,253.53,203,253.57,202.75Z"/><path class="cls-3" d="M292.4,140.13l.32-.39Z"/><path class="cls-3" d="M259.82,186.92l.65-1.21Z"/><path class="cls-3" d="M256.11,194.66c.15-.37.31-.73.47-1.1C256.42,193.93,256.26,194.29,256.11,194.66Z"/><path class="cls-3" d="M256.83,193l.65-1.4Z"/><path class="cls-3" d="M258.78,188.92c.22-.43.44-.85.66-1.29C259.22,188.07,259,188.49,258.78,188.92Z"/><path class="cls-3" d="M257.63,191.26c.27-.58.56-1.17.86-1.77C258.19,190.09,257.9,190.68,257.63,191.26Z"/><path class="cls-3" d="M254.82,198c.13-.39.27-.79.43-1.19C255.09,197.23,255,197.63,254.82,198Z"/><path class="cls-3" d="M255.45,196.29c.13-.34.27-.69.41-1C255.72,195.6,255.58,196,255.45,196.29Z"/><path class="cls-3" d="M264.88,178.09l.77-1.27Z"/><path class="cls-3" d="M269.06,171.48c.45-.69.91-1.38,1.38-2.08C270,170.1,269.51,170.79,269.06,171.48Z"/><path class="cls-3" d="M266.24,175.88l.76-1.21Z"/><path class="cls-3" d="M267.63,173.69l.81-1.26Z"/><path class="cls-3" d="M271.15,168.34l.8-1.17Z"/><path class="cls-3" d="M260.88,185c.23-.42.47-.85.72-1.28C261.35,184.1,261.11,184.53,260.88,185Z"/><path class="cls-3" d="M262,183c.36-.62.72-1.25,1.1-1.89C262.71,181.71,262.35,182.34,262,183Z"/><path class="cls-3" d="M264.36,178.93c-.33.54-.64,1.08-1,1.61C263.72,180,264,179.47,264.36,178.93Z"/><path class="cls-3" d="M272.77,166l.73-1.06Z"/><path d="M242.39,298c-5.81,0-44.47-5.14-46.3-5.14s-6.3,1.16-6.3,4.15c0,10.12,32.52,19.08,65.55,19.08S242.39,298,242.39,298Z"/><circle class="cls-8" cx="134.1" cy="535.21" r="126.1"/><circle class="cls-8" cx="583.94" cy="535.21" r="126.1"/><rect class="cls-4" x="404.47" y="412.68" width="238.54" height="11.07" transform="translate(639.1 -242.01) rotate(61.3)"/><rect class="cls-4" x="253.38" y="406.55" width="267.81" height="7.62"/><rect class="cls-4" x="105.23" y="461.9" width="183.85" height="13.58" transform="translate(-268.6 264.71) rotate(-43.53)"/><path class="cls-9" d="M275.08,473c-3.11,2.7-22.62,20.88-22.62,20.88L299,546.41l8.6-7.81-18.28-51Z"/><path class="cls-10" d="M416.52,241.27c14.35,18.25,44.57,56.36,48.7,59.3a4.38,4.38,0,0,0,.52,0,16,16,0,0,0-.54,7.26c1.2,7.91,7.76,13.47,14.64,12.43s11.48-8.31,10.28-16.22c-1.18-7.72-7.45-13.19-14.14-12.48-4.16-6.2-55.83-87.34-57.67-90.59-1.64-2.89-4.81-24.94-6.25-34.9"/><path class="cls-9" d="M401.71,125.09c8.23,6.7,14.51,29,13,38.62-4.8,5.72-16.09,7.88-22.5,7.58"/><path class="cls-9" d="M384.88,92.78c9.44,7.13,16.95,17.73,16.95,28.36,0,12-4,29.33-10.05,48"/><path class="cls-9" d="M368.22,227.59C356.58,251.83,345,270.34,339,271.74c-20.54,4.83-85.57-55.77-85.57-66.81,0-22.87,77-120.86,109.42-120.86a24.49,24.49,0,0,1,3,.2"/><path class="cls-9" d="M372.91,96.36c2.82,1.79,5.74,3.08,7.95,3,1.53-2.34,6.33-10.66,9.94-15.76"/><path class="cls-9" d="M378.66,62.91a213.81,213.81,0,0,1-12.82,21.37"/><path class="cls-11" d="M376.38,114.86a152,152,0,0,0-22.27-38.62"/><path class="cls-11" d="M257.06,203.7c15.64,5.84,63.88.41,99.05-7.28"/><path class="cls-9" d="M379.33,68.1a36.33,36.33,0,0,1-.23-13.4"/><path class="cls-9" d="M436.29,45.53a47.28,47.28,0,0,1-6.24,18.8c-10,17.4-28.27,25.69-40.7,18.51a19.32,19.32,0,0,1-6-5.45"/><path class="cls-10" d="M382,38.76c1-6,7.38-22.29,17.05-27.35C409.77,5.78,416.5,9.6,424,9.6c6.74,0,12.09-3.28,19.52-2.82,9.65.6,10.86,10.16,12.37,14.69,2,6,11.8,6.6,16.29,18,2.41,6.13-9.35,18.1-19.51,18.1-5.94,0-15-3.4-17.65-5a70.48,70.48,0,0,0,1.32-7.07c-3.59,0-25.81-4.45-27.62-4.35s-8.45,6.84-9.06,8.25a72.79,72.79,0,0,1-8.09-1.84"/><path class="cls-9" d="M384.34,55.57a9.36,9.36,0,0,1-1.3.1,8.49,8.49,0,1,1,6.55-13.89"/><path class="cls-9" d="M391.06,142.16c2.57,6.6,4.15,12.57,4.34,16.84-3.53,5.72-40.75,19.47-48.3,18.37-11-12.65-24.21-72.38-1.34-81.62a12.14,12.14,0,0,1,3.93-.87"/><path class="cls-10" d="M350,177.3c3.83,10.8,13.37,39.06,16.48,47.09,3.44,8.9,54.66,76,62.55,82.49.44.13.86.22,1.28.32a17.94,17.94,0,0,0-1.19,9.8c1.33,8.78,8.44,15,15.87,13.85s12.37-9.16,11-17.94c-1.2-7.88-7.05-13.66-13.61-14-5-11.82-39.35-86.72-42.07-94.22-2.44-6.68-8.06-31.8-9.81-42"/><path class="cls-10" d="M272.79,532.51c-1.8,3.71-12.59,28.09-12.59,28.09l63.5,30,4.83-10.56-36.86-39.67Z"/><circle cx="134.1" cy="535.21" r="17.29"/><circle cx="583.94" cy="535.21" r="17.29"/><path d="M339,271.74c-19.78,4.65-80.78-51.34-85.3-65.37-9.92,8.91-30,34.56-30,62.32,0,40.6,81.57,104.09,111.09,124-5.7,14.75-62.15,135.93-64,141.63,4.4,3.63,17.61,8.55,22.53,8.55,27.18-21.75,102.79-137,104.09-148.11,1.07-9.27-43.21-94.73-58.11-123.16A2.24,2.24,0,0,1,339,271.74Z"/><path d="M347.92,263.35c-3.6,4.85-6.69,7.86-9,8.39-3.62.85-8.62-.33-14.4-2.92-14.84,27.05,10.91,106.34,10.91,106.34s-58.08,91.23-61.84,97.19c0,5,7.22,13.82,14.12,17.9,12.87-5,140.65-123.69,146.87-152.13C427.54,327.69,368.49,277.07,347.92,263.35Z"/><path d="M429.48,318.64l-8.45,3,2.87,8.07,9.57-3.4A17.77,17.77,0,0,1,429.48,318.64Z"/><path d="M490.12,304.08a18.06,18.06,0,0,1,.17,2.06l14.37-5.1L501.79,293l-13.94,4.95A16.2,16.2,0,0,1,490.12,304.08Z"/><path d="M467.58,314.2a16.15,16.15,0,0,1-2.38-6.33c-.09-.62-.15-1.24-.18-1.85l-9.82,3.49a18.38,18.38,0,0,1,.89,8.77Z"/></g></g></svg>