<svg xmlns="http://www.w3.org/2000/svg" xmlns:xlink="http://www.w3.org/1999/xlink" viewBox="0 0 801.71 775.58"><defs><style>.cls-1,.cls-4,.cls-5,.cls-6{fill:none;}.cls-2{fill:#949494;}.cls-3{fill:#f3f3f3;}.cls-10,.cls-3,.cls-6,.cls-7,.cls-8{fill-rule:evenodd;}.cls-4{stroke:#fff;stroke-width:12.98px;}.cls-4,.cls-5,.cls-6{stroke-linecap:round;}.cls-4,.cls-6{stroke-linejoin:round;}.cls-5{stroke:#dfdfdf;stroke-width:2.93px;}.cls-6{stroke:#000;stroke-width:2.5px;}.cls-7{fill:#e0e0e0;}.cls-8{fill:url(#New_Pattern);}.cls-9{fill:#fff;}</style><pattern id="New_Pattern" data-name="New Pattern" width="12" height="12" patternTransform="matrix(-1, 0, 0, 1, -22.19, -32.77)" patternUnits="userSpaceOnUse" viewBox="0 0 12 12"><rect class="cls-1" width="12" height="12"/><rect class="cls-1" width="12" height="12"/><circle class="cls-2" cx="12" cy="3" r="2"/><circle class="cls-2" cx="6" r="2"/><circle class="cls-2" cy="3" r="2"/><circle class="cls-2" cx="12" cy="9" r="2"/><circle class="cls-2" cx="6" cy="6" r="2"/><circle class="cls-2" cy="9" r="2"/><circle class="cls-2" cx="6" cy="12" r="2"/></pattern></defs><title>calendar-monochrome</title><g id="Layer_2" data-name="Layer 2"><g id="Layer_1-2" data-name="Layer 1"><path class="cls-3" d="M0,.29V540.67H222.81c-11.47-34.83-9.27-90.08-6.71-111.08a12.66,12.66,0,0,1-1.29-1c-5.05-4.63-8.07-66.1-1.27-115.49a45.46,45.46,0,0,1-8.89.85c-21.8,0-36.46-23.65-36.55-42.85-.11-23.54,26-52.43,32.33-70.18,5.31-15,15.4-44,39.59-44,10.08-.23,22.89,6.18,22.89,10.63a12.19,12.19,0,0,1-.43,2.9c7.75,6.84,12.78,17.83,12.78,30.22,0,17.61-10.15,32.38-23.84,36.46v14.66a157.42,157.42,0,0,1,18.8,5.1c6.4-.34,13.56-.77,16.3-2.24,4.63-2.47,61.78-45.3,67.53-51.13,4-4.1,8.76-7.83,13-11.89V146.61h93.3v57c12.06,4.39,13.37,11.86,12,20.56s-12.56,15.89-18.13,20.94-77.18,73.29-84.13,75.5c-6.27,2-36.32-2.75-48.65-5.24a11.62,11.62,0,0,1-3,3.33,23,23,0,0,1-4.78.05c6.46,39,12.68,93.91,5.27,106.05l-.2.3c6.34,21.17,22.71,79.1,33,115.57h450V.29Z"/><path class="cls-4" d="M454.16,112.56h94"/><path class="cls-4" d="M454.16,143.29h83.7"/><path class="cls-5" d="M200.09,200.89V1.47"/><path class="cls-5" d="M200.09,541.84V313.07"/><path class="cls-5" d="M400.18,145.78V1.47"/><path class="cls-5" d="M400.18,263.35V239.91"/><path class="cls-5" d="M400.18,541.84V295.4"/><path class="cls-5" d="M600.27,541.84V1.47"/><path class="cls-6" d="M349.92,745.76l-1.19,28.57,47.76-.29c.33.22-29.33-17.06-29.33-17.06l.47-11.22Z"/><path class="cls-6" d="M183.15,709l-17.6,33.68,20.28,28.72,19.16.13-7.94-13.1-6.81-16.89,8.91-19.14Z"/><path class="cls-7" d="M367.05,167.45h93.3v72.46h-93.3Z"/><path class="cls-8" d="M367.05,146.61h93.3v20.84h-93.3Z"/><path class="cls-6" d="M270.22,256.82c6.4-.34,13.56-.77,16.3-2.24,4.63-2.47,61.78-45.3,67.53-51.13s12.86-10.89,18-17.23.17,11.23-4.32,14.69c-.52,4.7-.65,14.54-.65,14.54a8.57,8.57,0,0,0-6.79,1.71c-2.58,2-32.74,37.31-45,51.68"/><path class="cls-6" d="M251.42,251.71c9.36,1.86,24.73,6.26,36.89,12.68"/><path class="cls-6" d="M313.7,318.75c6.46,39,12.68,93.91,5.27,106.05-11.27,18.48-89,17.7-104.16,3.76-5.05-4.63-8.07-66.1-1.27-115.49"/><path class="cls-7" d="M0,.29H801.71V72.63H0Z"/><path class="cls-4" d="M37.15,115H161.59"/><path class="cls-6" d="M251.42,264c-3.07,2.45-7.35,2.46-10.86,1.85"/><path class="cls-6" d="M251.42,237.06v19.16"/><path class="cls-6" d="M262.48,170.37c7.75,6.85,12.78,17.84,12.78,30.23,0,20.75-14.09,37.58-31.47,37.58A26.17,26.17,0,0,1,241,238"/><path class="cls-6" d="M245.94,208.84a17.08,17.08,0,0,1,.91,5.39c0,4.88-7.59,24-7.59,37,0,10.2,2.28,17.14,2.28,25.6,0,23.11-15.08,37.1-36.89,37.1s-36.46-23.65-36.55-42.85c-.11-23.54,26-52.43,32.33-70.18,5.31-15,15.4-44,39.59-44,10.08-.23,22.89,6.18,22.89,10.63,0,6.62-8.83,20.47-17,28.77"/><path class="cls-6" d="M247.41,207.41a7.87,7.87,0,1,1-.23-10"/><path class="cls-6" d="M321.47,315.37c12.33,2.49,42.38,7.23,48.65,5.24,6.95-2.21,78.55-70.45,84.13-75.5s16.78-12.2,18.13-20.94,0-16.22-12.14-20.6c.23,5.64.45,14.44.21,13.13-2.05-6.8-2.29-14.51-6-14.42-2,6.36.82,18.35-4.1,26.38-5.65,6.14-80.69,55.38-88.57,57.87-7.87,0-25.14-5.26-32.82-7.73"/><path class="cls-6" d="M259.34,279.38c6.12-25.7,59.81-12.11,68.84-4.9,3.16,9.79-1.81,38.83-9.7,44.22C306.63,320.42,252.82,306.72,259.34,279.38Z"/><path class="cls-4" d="M37.15,169.71h94"/><path class="cls-4" d="M37.15,263.7H88.1"/><path class="cls-4" d="M37.15,299.16h94"/><path class="cls-4" d="M37.15,329.89h83.7"/><path class="cls-4" d="M634.81,110.64H759.25"/><path class="cls-4" d="M634.81,144.73h87"/><path class="cls-4" d="M634.81,181H751.67"/><path class="cls-4" d="M634.81,214h58.9"/><path class="cls-9" d="M397,188.69h-.12L390.62,192l-.94-3.68,7.82-4.18h4.12v35.76H397Z"/><path class="cls-9" d="M437.89,184.18v3.19l-15.58,32.57h-5l15.51-31.64v-.11H415.33v-4Z"/><path class="cls-10" d="M360.53,572s-32.22-115-41.76-146.87c-10.14,15.41-67,17.14-93.24,8.85,8.65,28.4,51.5,130.27,58.75,138.48L348.83,747.8l20.78-1.64Z"/><path class="cls-10" d="M216.1,429.6C213.33,452.35,211,515.33,226,549c-7.46,28.17-45.35,159.45-45.35,159.45L199.47,725l97.12-147S284,477.89,249.68,438.23C235.06,437,222.24,434.05,216.1,429.6Z"/></g></g></svg>