<svg xmlns="http://www.w3.org/2000/svg" viewBox="0 0 724.92 763.38"><defs><style>.cls-1{fill:#f2f2f2;}.cls-10,.cls-11,.cls-12,.cls-2,.cls-3,.cls-4,.cls-6,.cls-8,.cls-9{fill-rule:evenodd;}.cls-3{fill:#ffc78e;}.cls-4{fill:#e0e0e0;}.cls-5,.cls-7{fill:none;stroke:#f3f3f3;stroke-linejoin:round;stroke-width:4.41px;}.cls-13,.cls-6{fill:#f3f3f3;}.cls-7{stroke-linecap:round;}.cls-8{fill:#e49d75;}.cls-9{fill:#5fc5d1;}.cls-10{fill:#6bd5e1;}.cls-11{fill:#ffd98e;}.cls-12{fill:#ffe4ad;}.cls-13{font-size:40.87px;font-family:SofiaPro-Bold, Sofia Pro;font-weight:700;}.cls-14{letter-spacing:-0.03em;}.cls-15{letter-spacing:0em;}</style></defs><title>ticket-colour</title><g id="Layer_2" data-name="Layer 2"><g id="Layer_1-2" data-name="Layer 1"><path class="cls-1" d="M623.69,127.76c68.48,87.87,93.18,208.47,67.57,316.49S589.75,647.42,503.55,668.63s-182.72-31.51-255-85.14C176.3,529.7,128.12,475.16,113.27,412.29s3.79-133.93,45.6-215.6,107-174.38,195.6-193C443.1-15.11,555.21,39.89,623.69,127.76Z"/><path class="cls-2" d="M389.8,136.51c.19,10.15,4.43,27.12,4.62,39.67s-8.49,25.64-11.07,31.91,11.43,26.57,11.43,26.57L426.33,217,425,161.6S389.62,126.36,389.8,136.51Z"/><path class="cls-3" d="M409.05,180.59c20.46,13.25-6,63.41-17.88,72.44s-43.81-12.72-44.25-23.89S388.59,167.35,409.05,180.59Z"/><path class="cls-4" d="M43.75,173.37,0,449.74l138.49,21.92,25.44-18.4,18.52,25.36,498.73,78.94,43.74-276.37L227.58,202.47,200.53,222l-19.68-27Z"/><path class="cls-5" d="M163.72,454.6l37-233.71"/><path class="cls-6" d="M103.41,342.83l20.86,3.3-14.34,90.61-20.86-3.3Z"/><path class="cls-6" d="M113.68,278l20.85,3.3-7.32,46.25-20.85-3.3Z"/><path class="cls-6" d="M248.42,260.05l389.86,61.71L634.6,345,244.74,283.29Z"/><path class="cls-7" d="M244.73,318.67l314.93,49.85"/><path class="cls-7" d="M239.58,352.24l224.83,35.59"/><path class="cls-7" d="M235.61,385.44l354.73,56.15"/><path class="cls-2" d="M418.31,56.42c37.24,0,50.94,32.23,51.52,53.07,0,12.73-3.66,25.08-1,34.73-.2,23.92,25.66,46.69,25.66,83.73,0,66-51.33,57.7-77.76,58.66s-4.85-61.2-4.46-73.17.89-39,1.66-50.18-30.77-33.9-30.39-43.74S365.45,58.16,418.31,56.42Z"/><path class="cls-8" d="M593.68,678.2l16.84,11.42,15.24-17.13-15.19-15.23Z"/><path class="cls-8" d="M297.27,713.83l-7.16,17.38,20.51,9.85,8.14-16.41Z"/><path class="cls-9" d="M482.18,336.72c8.9,8.48,13.5,140,12.24,166.37,6.67,14.83,118,154.38,118,154.38l-18.58,23.38s-151.87-116-160-129.24S339.51,413.17,482.18,336.72Z"/><path class="cls-10" d="M381.55,361c-7.16,19.93-35.82,133.33-40.81,165.42s-45.17,187.85-45.17,187.85l23.05,12.47S498.61,406.4,481,347.83,388.72,341.08,381.55,361Z"/><path class="cls-8" d="M378.76,111.15c1.79-25.36,19.33-44.78,39.17-43.38s34.48,23.1,32.69,48.46S431.29,161,411.44,159.61,377,136.51,378.76,111.15Z"/><path class="cls-11" d="M420.52,173.78c56.64-13.6,75.65,139,64.39,174.81-10.08,25.89-79.46,35.38-106.74,22.33C367.7,362.62,342.79,192.44,420.52,173.78Z"/><path class="cls-8" d="M429,264.6c2.26,14.22,6.32,61,7,72s-13.1,75-17.84,83.78c4.74,6.54,18.74,18.29,18.74,18.29S463.1,385,473.33,342c3.23-13.57-6.85-78.34-8.66-83.53S426.73,250.37,429,264.6Z"/><path class="cls-2" d="M313,738.06l-10.58,25.32-69.77-27.46,4.52-11.72,52.55,3.24Z"/><path class="cls-2" d="M624,669.11l21.67,16.82L601,746.12l-10.13-7.42,16.84-49.88Z"/><path class="cls-2" d="M397.09,69.16c.19,10.61,6.82,38.69,42.45,53.25,22.19,9.07,20.45,0,20.45,0L446.87,73,427.19,61.44S396.9,58.55,397.09,69.16Z"/><path class="cls-8" d="M430.35,123.61a9.82,9.82,0,1,1,9.82,9.82A9.82,9.82,0,0,1,430.35,123.61Z"/><path class="cls-12" d="M436.28,190.46c24.12-3.55,37.36,51.59,34.4,66.22-8.62,10.06-32.25,13.7-49,11.26C414,259.84,412.17,194,436.28,190.46Z"/><path class="cls-8" d="M408.21,138.48h30v42.81c-4.63,4.12-21.4,8.27-30-.51Z"/><text class="cls-13" transform="translate(63.41 431.45) rotate(-80.93)">ADMI<tspan class="cls-14" x="106.14" y="0">T</tspan><tspan class="cls-15" x="127.68" y="0" xml:space="preserve"> ONE</tspan></text></g></g></svg>