<svg xmlns="http://www.w3.org/2000/svg" xmlns:xlink="http://www.w3.org/1999/xlink" viewBox="0 0 951.51 663.35"><defs><style>.cls-1,.cls-3,.cls-7,.cls-8{fill:none;}.cls-2{fill:#949494;}.cls-3{stroke:#000;stroke-width:2.5px;}.cls-3,.cls-7,.cls-8{stroke-linecap:round;stroke-linejoin:round;}.cls-4{fill:#c9c9c9;}.cls-5{fill:#e0e0e0;}.cls-6{fill:url(#New_Pattern);}.cls-7{stroke:#c4c4c4;}.cls-7,.cls-8{stroke-width:2.38px;}.cls-8{stroke:#d3d3d3;}.cls-9{fill:#d3d3d3;}</style><pattern id="New_Pattern" data-name="New Pattern" width="12" height="12" patternTransform="translate(14.73 1235.56) rotate(-180)" patternUnits="userSpaceOnUse" viewBox="0 0 12 12"><rect class="cls-1" width="12" height="12"/><rect class="cls-1" width="12" height="12"/><rect class="cls-1" width="12" height="12"/><circle class="cls-2" cx="12" cy="9" r="2"/><circle class="cls-2" cx="6" cy="12" r="2"/><circle class="cls-2" cy="9" r="2"/><circle class="cls-2" cx="12" cy="3" r="2"/><circle class="cls-2" cx="6" cy="6" r="2"/><circle class="cls-2" cy="3" r="2"/><circle class="cls-2" cx="6" r="2"/></pattern></defs><title>reading-corner-monochrome</title><g id="Layer_2" data-name="Layer 2"><g id="vector"><path class="cls-3" d="M843,367.82c-3.9-19.75-23.11-79.4-70-79.4-20.07,0-34.33,20.94-34.33,47.12,0,36.21,49.37,63.11,57,71.26,11.45,12.22,18.23,40,30.65,46.79"/><path class="cls-3" d="M841.65,491.53c-4.76,0-17.66-35.7-17.66-65.2,0-34.38,31.35-76.45,35.55-91.63,7.43-26.92,19.67-79.46,57-79.46,21.2,0,33.74,23.28,33.74,47.46,0,23.28-22.7,43.43-43.12,66.57-20,22.68-17.69,41.8-28.82,69.55C866.94,467.17,848.31,491.53,841.65,491.53Z"/><path class="cls-3" d="M841.19,483.88c-6.91-40.79,36.84-162.83,70.07-197"/><path class="cls-3" d="M783.75,317.51c5.6,4.62,33.78,50.83,44.55,84.14"/><polygon class="cls-4" points="870.59 613.4 843.78 601.49 849.06 583.91 858.93 586.39 883.91 571.49 897.6 476.31 844.14 476.31 843.41 476.31 789.96 476.31 816.68 662.16 843.41 662.16 844.14 662.16 870.87 662.16 880.7 593.84 870.59 613.4"/><path class="cls-5" d="M520.27,501.49a109.15,109.15,0,0,1-24.69,35.22c-30.77-7.23-59.84-13-74.3-13.71-10.77-11.67-29.68-29.37-51.45-47.57-2-1.63-3.94-3.27-5.93-4.9l-.22-.18q-3-2.48-6.08-4.94l-.16-.12c-12.63-10.15-25.85-20.12-38.76-29-2.64-5.46-4.8-10.47-6.25-14.22h0a37.07,37.07,0,0,1-4.61.26c-7.18-6.29-28.82-64-13.86-87.76-3.75-6.83-6.76-17.38-6.76-33.81,0-3.54.16-7.35.5-11.35-9.92-4.12-19.42-6.43-28.22-6.43-56.48,0-95.22,36-95.22,119,0,105.08,41.44,193.93,100.51,260.16H835.1c12.18-18,17.26-32.31,17.26-37.95C852.36,572.93,693,518.48,520.27,501.49ZM749.83,605.87,738,579l15.74-9.45,5.63,8.48,42.24,8.58Z"/><path class="cls-6" d="M66.79,437.8c-6.19,0-7.69-6.75-15.48-6.75-4.85,0-15,2.76-15,7.49h0l5.11,35.77H69.67l5.88-39.54C74.83,437,71.56,437.8,66.79,437.8Z"/><path class="cls-3" d="M391.73,245.29l1.72-1.66c0,84.88,26,84.47,26,96.8a54.26,54.26,0,0,1-.52,7.87"/><line class="cls-7" x1="114.46" y1="78.69" x2="114.46" y2="1.19"/><line class="cls-7" x1="617.89" y1="78.69" x2="617.89" y2="1.19"/><path class="cls-3" d="M404.8,339a262.24,262.24,0,0,0-39.34-20.71"/><path class="cls-3" d="M484.52,404.05a426.72,426.72,0,0,0-52.38-46.24"/><path class="cls-3" d="M341.27,452.66c33,25,64.71,53.78,80,70.34,14.46.68,43.53,6.48,74.3,13.71,18.78-18.27,32.93-43.2,31.57-73-8.3-19.12-23.71-39.85-42.63-59.69"/><path class="cls-3" d="M365,301.15a209.29,209.29,0,0,0,.95,22.2"/><path class="cls-3" d="M391.2,247.16a63.69,63.69,0,0,1,.53,8.13c0,26.23-16.23,47.5-36.25,47.5a28.53,28.53,0,0,1-6.42-.74"/><path class="cls-3" d="M355.35,363a19.1,19.1,0,0,0,9.28,2.62c8.54,0,13.57-8.29,13.57-15,0-24.16-35.92-44.87-43.92-77.56"/><path class="cls-3" d="M344.88,253.15c12.67-8.58,29.19-22.55,29.19-29.28,0,6.42,16.7,23.86,19.52,25.1,1.24-4.06-5.63-54.18-40.36-54.18-47.26,0-66,68.41-66,106,0,16.42,3,27,6.75,33.81"/><polygon class="cls-4" points="577.79 441.98 541.72 469.83 547.13 375.75 583.2 347.9 577.79 441.98"/><line class="cls-8" x1="485.43" y1="369.78" x2="538.28" y2="377.94"/><line class="cls-8" x1="566.45" y1="346.22" x2="540.76" y2="377.94"/><line class="cls-8" x1="573.33" y1="349" x2="542.85" y2="377.08"/><path class="cls-6" d="M114.46,78.69a65.53,65.53,0,0,0-65.52,65.53H180A65.53,65.53,0,0,0,114.46,78.69Z"/><path class="cls-6" d="M617.89,78.69a65.52,65.52,0,0,0-65.52,65.53h131A65.53,65.53,0,0,0,617.89,78.69Z"/><line class="cls-7" x1="1.19" y1="476.31" x2="202.03" y2="476.31"/><line class="cls-7" x1="101.61" y1="476.31" x2="101.61" y2="662.16"/><rect class="cls-7" x="108.69" y="451.33" width="45.74" height="24.98"/><path class="cls-3" d="M335.51,272.19a9.44,9.44,0,1,1-1-15.58"/><polygon class="cls-9" points="541.72 469.83 529.44 472.86 534.85 378.79 547.13 375.75 541.72 469.83"/><polygon class="cls-3" points="843.78 601.49 870.59 613.4 895.95 564.31 858.93 586.39 849.06 583.91 843.78 601.49"/><path class="cls-3" d="M355.4,363A128.2,128.2,0,0,1,366,395.9c-6,8.39-39,26.73-58.17,26.46-8.38-7.33-36.41-84.62-3.14-96.41,12-4.26,35.67,6.43,50.69,37.05"/><polyline class="cls-7" points="78.41 415.5 69.67 474.31 41.42 474.31 33.02 415.5"/><path class="cls-5" d="M482.16,375.75l-3.07,53.34c3.59-5.27,6.75-15.7,8.3-16.07,2-.47,4.63-.36,7,3.9,6.87,14.45-.23,38.86-8.05,40.51-1.1.24-4.28.85-9,1.71l-.61,10.69,52.69,3,5.41-94.08Z"/><polygon class="cls-3" points="738.02 579.01 749.83 605.87 801.63 586.62 759.39 578.04 753.75 569.56 738.02 579.01"/><path d="M848.25,575.15c-6.51-11.34-242-83.89-269.14-85-51-8.64-84.57,19.21-96.93,43.5,47.49,10.67,104,26.28,118.39,32.21l3.52,0c2-.11,4.27-.13,6.88-.06,17.91-.21,32.85-.63,40.91-1.11,11.13,4.15,50.17,13.7,89.8,22.69L738,579l15.74-9.45,5.63,8.48,42.24,8.58-23.58,8.76c33.09,7.14,60,12.36,61.53,11.5C843.51,604.76,851.14,580.17,848.25,575.15Z"/><path class="cls-7" d="M97.71,144.22a17.1,17.1,0,0,0,33.51,0Z"/><path class="cls-7" d="M601.14,144.22a17.1,17.1,0,0,0,33.51,0Z"/><path class="cls-3" d="M312.43,422.11c1.45,3.75,3.61,8.76,6.25,14.22,17.23,11.81,35,25.63,51.25,39.19,37.47-3.41,110.19-16.77,116.41-18.09,7.82-1.65,14.92-26.06,8.05-40.51-2.37-4.26-5-4.37-7-3.9s-6.77,18.06-11.64,19-94.89,6.32-102.5,6.66c-.87-4.07-7.73-30-11.05-38.92"/><path d="M641.82,365.59c-48.36,11-131.93,100-173.22,165.08,29.93,6.32,66,15.43,93.35,23.1,41.61-32.38,72-84,76.5-90.16,11.36,23.13,92.08,117.3,98,117.3s15.55-4.2,19.34-11.35C752.39,549.38,667.46,361.93,641.82,365.59Z"/></g></g></svg>