<svg xmlns="http://www.w3.org/2000/svg" xmlns:xlink="http://www.w3.org/1999/xlink" viewBox="0 0 898.34 799.43"><defs><style>.cls-1,.cls-5,.cls-6,.cls-7,.cls-8{fill:none;}.cls-2{fill:#949494;}.cls-3{fill:#f2f2f2;}.cls-4{fill:url(#New_Pattern);}.cls-5,.cls-6,.cls-7,.cls-8{stroke:#000;stroke-linecap:round;stroke-linejoin:round;}.cls-5{stroke-width:2px;}.cls-6{stroke-width:2.09px;}.cls-7{stroke-width:2.19px;}.cls-8{stroke-width:2.45px;}</style><pattern id="New_Pattern" data-name="New Pattern" width="12" height="12" patternTransform="translate(9.16 1236.23) rotate(-180)" patternUnits="userSpaceOnUse" viewBox="0 0 12 12"><rect class="cls-1" width="12" height="12"/><rect class="cls-1" width="12" height="12"/><rect class="cls-1" width="12" height="12"/><circle class="cls-2" cx="12" cy="9" r="2"/><circle class="cls-2" cx="6" cy="12" r="2"/><circle class="cls-2" cy="9" r="2"/><circle class="cls-2" cx="12" cy="3" r="2"/><circle class="cls-2" cx="6" cy="6" r="2"/><circle class="cls-2" cy="3" r="2"/><circle class="cls-2" cx="6" r="2"/></pattern></defs><title>entryway-monochrome</title><g id="Layer_2" data-name="Layer 2"><g id="vector"><path class="cls-3" d="M760.6,421.55c-5.69-47.27-9.29-95-14.78-139.68-5.06,4.5-11.89,10.57-17.87,15.87l0,.08,0,0c-6.29,5.57-11.61,10.27-12.81,11.29-5.63-6.33-3-18.32,5.53-29.63h0c-1.53-5.75-2.46-11.54-1.7-15.23,1.29-6.24,12.47-17.14,21.05-23.45-10.37-62.08-27.49-115-63.93-147.33-68.95-61.5-207.16-49-315.88,3.09C251.4,148.48,172.15,240.05,142.7,342.7A347.71,347.71,0,0,0,130.93,474c2.61-7.74,4.65-14.86,5.46-21,4-30.59,20.15-66.22,45-66.22,36.72,0,50.68,25.46,54.92,46.43H246V416.37h96.77v16.84h78.87V402.87h20.29V391.41H431.58V377h99.85v14.41h25.36v11.46H527.68A15.21,15.21,0,0,1,542.85,418h0a15.21,15.21,0,0,1-15.17,15.17H594.6v-49h34.57v49H704.9v13.12H237.83q0,.68,0,1.32a25.31,25.31,0,0,0-4.6-1.32h-9.13a25,25,0,0,0,4.57,49.6,25.64,25.64,0,0,0,2.64-.14c-9.63,41.73-28.75,90.59-49.3,117.38l.92,1.2h39.43l-8.47,32.72C274.8,699,365,718.58,467,738.9c114.58,22.83,243.79,46.38,292.4-5.82C808.22,680.85,776.24,553.05,760.6,421.55ZM406.48,274a8.81,8.81,0,0,1-8.82-8.81h17.63A8.8,8.8,0,0,1,406.48,274ZM588,221.43a62.21,62.21,0,1,1,62.21-62.21A62.2,62.2,0,0,1,588,221.43Z"/><polygon class="cls-4" points="140.39 784.37 178.39 784.37 222.39 614.37 140.39 614.37 58.39 614.37 102.39 784.37 140.39 784.37"/><path class="cls-5" d="M181.11,614.37c20.9-26.51,40.46-76.23,50.23-118.58a25.64,25.64,0,0,1-2.64.14,25,25,0,0,1-7.44-48.9"/><path class="cls-5" d="M236.31,433.21c-4.23-21-18.2-46.43-54.92-46.43-24.85,0-41,35.63-45,66.22C133.08,478.28,109,519.93,109,553.76a104.39,104.39,0,0,0,19.53,60.61"/><rect class="cls-5" x="178.99" y="433.21" width="525.91" height="13.12"/><line class="cls-5" x1="223" y1="784.37" x2="223" y2="445.91"/><line class="cls-5" x1="311.47" y1="784.37" x2="311.47" y2="445.91"/><line class="cls-5" x1="223" y1="482.23" x2="311.47" y2="482.23"/><line class="cls-5" x1="223" y1="761.47" x2="311.47" y2="761.47"/><line class="cls-5" x1="572.41" y1="784.37" x2="572.41" y2="445.91"/><line class="cls-5" x1="660.88" y1="784.37" x2="660.88" y2="445.91"/><line class="cls-5" x1="572.41" y1="482.23" x2="660.88" y2="482.23"/><line class="cls-5" x1="572.41" y1="761.47" x2="660.88" y2="761.47"/><rect class="cls-5" x="246.01" y="416.37" width="96.77" height="16.84"/><path class="cls-6" d="M406.48,213.67v-9.11a54.78,54.78,0,0,0-54.62-54.62H349a54.78,54.78,0,0,0-54.62,54.62V416.37"/><path d="M435.36,265.08c0-.49,0-1,0-1.48V243a29,29,0,0,0-28.92-28.92h0A29,29,0,0,0,377.56,243V263.6c0,.5,0,1,0,1.48Z"/><path class="cls-6" d="M415.29,265.2a8.82,8.82,0,0,1-17.63,0"/><path class="cls-6" d="M421.65,402.87h106A15.21,15.21,0,0,1,542.85,418h0a15.21,15.21,0,0,1-15.17,15.17h-106"/><line class="cls-6" x1="523.6" y1="402.87" x2="523.6" y2="433.21"/><line class="cls-6" x1="427.63" y1="402.87" x2="427.63" y2="433.21"/><rect class="cls-4" x="441.94" y="391.41" width="114.85" height="11.45"/><rect class="cls-7" x="431.58" y="377" width="99.85" height="14.42"/><rect x="594.6" y="384.21" width="34.57" height="49.01"/><path class="cls-7" d="M629.17,395.18a13.17,13.17,0,0,1,0,26.33"/><rect class="cls-4" x="763.66" y="779.71" width="133.25" height="19.72"/><line class="cls-7" x1="830.28" y1="779.71" x2="830.28" y2="199.13"/><path class="cls-7" d="M830.28,345.25a61,61,0,0,1-60.8-60.8V260.83"/><path class="cls-7" d="M891,199.13v26.1a61,61,0,0,1-60.8,60.8"/><line class="cls-7" x1="714.99" y1="309.31" x2="799.88" y2="233.78"/><path class="cls-8" d="M745.44,281.78c-7.23-8.12-.89-25.55,14.14-38.93s33.08-17.63,40.3-9.52"/><path class="cls-8" d="M715.08,309.09c-5.63-6.33-3-18.32,5.53-29.63"/><path class="cls-8" d="M727.91,297.82c-2.42-2.42-10.88-24.44-9-33.59S744,235.88,749,235.88s12.53,5.29,12.53,5.29"/><circle class="cls-7" cx="890.98" cy="192.69" r="6.27"/><circle class="cls-7" cx="587.96" cy="159.22" r="62.21"/><line class="cls-7" x1="587.96" y1="159.22" x2="587.96" y2="114.75"/><line class="cls-7" x1="587.96" y1="159.22" x2="616.7" y2="159.22"/><rect class="cls-7" x="1.09" y="115.58" width="222.37" height="9.27"/><rect class="cls-4" x="99.77" width="22.24" height="115.58"/><rect class="cls-7" x="80.43" y="14.41" width="19.34" height="101.18"/><rect class="cls-7" x="159.5" y="16.41" width="19.34" height="101.18" transform="matrix(0.84, -0.55, 0.55, 0.84, -9.18, 103.05)"/><rect class="cls-7" x="122.01" y="31.63" width="11.99" height="83.95"/><rect class="cls-7" x="29.43" y="124.85" width="11.59" height="11.59"/><rect class="cls-7" x="183.54" y="124.85" width="11.59" height="11.59"/><path class="cls-7" d="M148.13,614.37c-1.81-25.1-1.74-89.18,27.17-139.35"/><path class="cls-7" d="M58.39,379c9.3,6,38.24,71.77,56.2,141.89"/><path class="cls-5" d="M137.46,446.23a293.62,293.62,0,0,1-26.26-49.37C106.45,385.37,95,336.4,56.14,336.4c-18.35,0-47.5,19.08-47.5,50.38,0,17.86,12.38,40.25,24,63.6A29,29,0,1,1,52,501.31c12.7,72,37.55,101.48,55.86,113.06"/></g></g></svg>