<svg xmlns="http://www.w3.org/2000/svg" xmlns:xlink="http://www.w3.org/1999/xlink" viewBox="0 0 761.02 741.83"><defs><style>.cls-1,.cls-5,.cls-6,.cls-9{fill:none;}.cls-2{fill:#949494;}.cls-3{fill:#f2f2f2;}.cls-4{fill:#e0e0e0;}.cls-5{stroke:#a4a4a4;stroke-width:3px;}.cls-5,.cls-6,.cls-9{stroke-linecap:round;stroke-linejoin:round;}.cls-6,.cls-9{stroke:#000;}.cls-6{stroke-width:2.5px;}.cls-7{fill:#a4a4a4;}.cls-8{fill:url(#New_Pattern);}.cls-9{stroke-width:5px;}</style><pattern id="New_Pattern" data-name="New Pattern" width="12" height="12" patternTransform="translate(17.18 1240.56) rotate(-180)" patternUnits="userSpaceOnUse" viewBox="0 0 12 12"><rect class="cls-1" width="12" height="12"/><rect class="cls-1" width="12" height="12"/><rect class="cls-1" width="12" height="12"/><circle class="cls-2" cx="12" cy="9" r="2"/><circle class="cls-2" cx="6" cy="12" r="2"/><circle class="cls-2" cy="9" r="2"/><circle class="cls-2" cx="12" cy="3" r="2"/><circle class="cls-2" cx="6" cy="6" r="2"/><circle class="cls-2" cy="3" r="2"/><circle class="cls-2" cx="6" r="2"/></pattern></defs><title>gamer-monochrome</title><g id="Layer_2" data-name="Layer 2"><g id="vector"><path class="cls-3" d="M426.26,449.71c6.5-11.82,120.9-21.13,152.63-23.49-10.72-11.33-24-39.49-33.69-72-7.51,9.95-16.29,20.34-20.86,22.73-16.45,8.6-111.31,1.27-115.46,1.27s-5.45,2.18-9.46,2.45c-21.16.28-39.53-10.81-39.81-13.13s6.13-13.54,9.26-14.08c.95-.17,3.78.42,7.31,1.31a14.43,14.43,0,0,1,3.05-1c4.29-.71,14.67,2.74,18,2.74s14.82-5,18-5.88,64.08-19.37,65.57-21.33,19.88-24,24.15-29.07a20.29,20.29,0,0,1-2-3.45c-.76-5,14.64-32.45,32.31-49.24,2.45-10.79,6.59-20.1,12.81-27.17q-5.75-7.09-11.42-14.35c-13.34-4.81-25.6-18-31.42-35.89a69.37,69.37,0,0,1-2.52-10.51c-3.2-4.6-6.38-9.21-9.55-13.79-11.93-2.78-23.55-7.51-23.55-13.53,0-4.16,3.38-7.51,8-9.06C438.45,66.6,400.51,16.2,351.31,3.38,281.11-14.89,188.21,43.19,130,122.67S48.37,302.75,64.78,402.35,137.27,600.56,215,628c55.13,19.43,121.17,3.13,187.27-25.39C410,539.08,421.68,458,426.26,449.71Z"/><path d="M502,148.51c-.31-.38-.61-.79-.89-1.21a11.69,11.69,0,0,0-.7,4v20a12,12,0,0,0,10.78,11.94,67.84,67.84,0,0,1-5.9-13.16A66,66,0,0,1,502,148.51Z"/><path class="cls-4" d="M408.88,378.18c-4.15,0-5.45,2.18-9.46,2.45-19.35.25-36.35-9-39.34-12.35h-316L0,391.77H518.06l-20.51-10.93C463.64,382.12,411.92,378.18,408.88,378.18Z"/><path class="cls-3" d="M521.82,532.45v-11c-8.2-.87-16.15-1.86-23.22-3,2.1,6,5.62,17.1,9.74,30.54,9.7-5.45,19.21-11,28.45-16.54Z"/><line class="cls-5" x1="412.19" y1="406.43" x2="412.19" y2="525.64"/><path class="cls-6" d="M505,300.18c-4.28,5.05-22.75,27.22-24.15,29.07s-62.36,20.47-65.57,21.33-14.75,5.88-18,5.88-13.68-3.45-18-2.74a14.09,14.09,0,0,0-3.06,1"/><path d="M688.5,469.6c-1.32-12.84-9.6-58.36-13.66-71h0c-9.1,15.34-82.36,40.37-94.52,29-.47-.43-.94-.92-1.42-1.42-31.74,2.36-146.13,11.67-152.63,23.49-7.56,13.72-34.42,226.19-31,229.58s16.91,8.35,26.06,6C426.85,679.68,476,525.9,477,513.57c19.49,7.36,87.33,11.93,107.82,11.93C646.88,525.5,690.85,492.28,688.5,469.6Z"/><line class="cls-6" x1="507.59" y1="672.64" x2="496.97" y2="727.33"/><line class="cls-6" x1="534.8" y1="532.45" x2="523" y2="593.24"/><polyline class="cls-6" points="649.96 303.66 674.21 214.45 759.77 214.45 678.63 532.45 521.82 532.45 521.82 521.42"/><path class="cls-6" d="M530.69,321.12c-11.36-6.56-24.22-16.37-27.72-24.39-.76-5,14.64-32.45,32.31-49.25"/><path class="cls-6" d="M532.43,274.33c.22-23.25,5.16-43.51,17.35-55.83"/><path class="cls-6" d="M578.78,206.05c1.41-.09,2.85-.14,4.34-.14,48.09,0,94.4,183.59,92.5,190.94-3.89,15.07-82.67,42.63-95.31,30.79-11-10.27-25.09-39.42-35.14-73.45"/><line class="cls-6" x1="669.59" y1="532.45" x2="707.42" y2="727.33"/><polyline class="cls-6" points="417.79 685.88 402.17 740.58 334.42 710.39 391.27 698.56 396.36 681.03"/><polyline class="cls-6" points="534.82 658.76 558.4 710.53 487.25 731.48 522.86 685.6 515.36 668.96"/><path class="cls-6" d="M551.43,230.62c-.67-6.39-2.24-18-4.28-22.67"/><path class="cls-6" d="M573.4,191.84c2.54,7.89,7.09,19.07,9.36,21.62,1.77,2-3.17,9.7-11.23,14.9"/><path class="cls-6" d="M576.62,184.51c-3.58,10.7-10.65,18.9-20.37,22.07-19.52,6.36-42.35-10-51-36.5a65.48,65.48,0,0,1-3.27-22.6"/><path class="cls-6" d="M548.58,155.17a24.8,24.8,0,0,1-4.59.38c-3.85,0-11.08-4.59-11.08-9.86-8.17.14-8.17,2.84-19.38,2.84-12.7,0-43.9-6.42-43.9-16.28,0-6.68,8.71-11.28,17.29-9.65-5.81-3.11-11-9.53-11-13.78,0-5.95,7.5-10.06,13.31-10.06,6.89,0,12.83,2.9,15.8,5.74-2.36-4.12-.07-14.86,5.61-14.86,19.92,0,71.11,35.39,71.11,71,0,19.11-3.38,24-4.66,24s-12.53-8.73-13.57-15.51"/><path class="cls-6" d="M546.85,159.43a10.33,10.33,0,1,1,11.76,11.88"/><rect class="cls-7" y="391.9" width="518.61" height="14.54"/><line class="cls-5" x1="65.31" y1="406.43" x2="65.31" y2="711.39"/><line class="cls-5" x1="106.41" y1="406.43" x2="106.41" y2="656.47"/><line class="cls-5" x1="453.3" y1="406.43" x2="453.3" y2="711.39"/><rect class="cls-7" x="190.79" y="362.07" width="17.6" height="20.95"/><rect class="cls-4" x="175.87" y="102.08" width="8.43" height="271.37"/><polygon class="cls-8" points="184.29 102.08 184.29 237.76 184.29 373.45 224.15 358.87 224.15 237.76 224.15 116.65 184.29 102.08"/><path class="cls-7" d="M362,369.91H305.85v6.31h68.86A56.1,56.1,0,0,1,362,369.91Z"/><path class="cls-8" d="M363.72,371c-6.18,1.66-10.35,4.77-10.35,8.35,0,5.32,9.23,9.64,20.62,9.64,10.59,0,19.31-3.74,20.48-8.54A71.74,71.74,0,0,1,363.72,371Z"/><path class="cls-6" d="M519.31,310.6c-4.77,6-20.57,28.74-22.39,31.32-42,4.9-97.5,18.37-99.54,18.44s-25.38-7.49-28.51-6.94-9.53,11.77-9.26,14.08,18.65,13.41,39.81,13.13c4-.27,5.31-2.45,9.46-2.45s99,7.34,115.46-1.27c7.94-4.16,28.64-32.49,33.2-40.66"/><path class="cls-6" d="M538.17,326.34c-9.74-6.28-19.31-14.3-22.26-21-1.22-8,39.64-74.73,64.22-60.38,28.76,16.79-14.25,90.13-19.69,92-4.17-.48-13.29-4.8-22.27-10.59"/><path d="M498.6,518.45h0L494.78,509l-9.88-11.66-18.44,23.31-10.62,39.68.88,20.63.81,0c2.93,6.38,37.22,81.93,47.82,90.3,8.65-.71,28.9-11.61,33.57-16.51C538.06,648.18,507,542.28,498.6,518.45Z"/><rect x="538.88" y="139.28" width="31.3" height="44.02" rx="12"/><path class="cls-9" d="M555.33,144.83c0-5.55,1.92-38.24-16.45-47.89"/><path class="cls-9" d="M557.53,179.3c0,3.19-1.26,21.28-15,21.28"/></g></g></svg>