<svg xmlns="http://www.w3.org/2000/svg" xmlns:xlink="http://www.w3.org/1999/xlink" viewBox="0 0 581.02 643.59"><defs><style>.cls-1,.cls-4,.cls-7{fill:none;}.cls-2{fill:#949494;}.cls-3{fill:#f1f1f1;}.cls-4{stroke:#000;stroke-width:2.5px;}.cls-4,.cls-7{stroke-linecap:round;stroke-linejoin:round;}.cls-5{fill:#e0e0e0;}.cls-6{fill:#a4a4a4;}.cls-7{stroke:#fff;stroke-width:2.04px;}.cls-8{fill:url(#New_Pattern);}</style><pattern id="New_Pattern" data-name="New Pattern" width="12" height="12" patternTransform="translate(13.95 1221.49) rotate(-180)" patternUnits="userSpaceOnUse" viewBox="0 0 12 12"><rect class="cls-1" width="12" height="12"/><rect class="cls-1" width="12" height="12"/><rect class="cls-1" width="12" height="12"/><circle class="cls-2" cx="12" cy="9" r="2"/><circle class="cls-2" cx="6" cy="12" r="2"/><circle class="cls-2" cy="9" r="2"/><circle class="cls-2" cx="12" cy="3" r="2"/><circle class="cls-2" cx="6" cy="6" r="2"/><circle class="cls-2" cy="3" r="2"/><circle class="cls-2" cx="6" r="2"/></pattern></defs><title>social-feed-monochrome</title><g id="Layer_2" data-name="Layer 2"><g id="vector"><path class="cls-3" d="M553.74,111.12C518.6,69.59,444.32,60.8,355.19,45.63l-.93-.16c.64,9.7-.09,19.15-2.25,24.57-.29.18-.57.34-.85.49h0a52.87,52.87,0,0,1-5.41,23.75c.08,5.41,1.83,20.77,4.57,29.86,9,1.4,16.85,5.68,23.71,12,25.74,4.63,44.77,61.39,43.89,69.36-.13,1.14-1,2.39-2.53,3.69,4.23,11.43,11.29,48.66,10.51,53.91-.4,2.63-3.37,7.09-6.93,11.18,1.33,15.55,1.55,26.71,1.37,29.38-7.14,23.44-92.78,51.6-119.14,36.19q-3.21-7.53-5.93-15.19a291.31,291.31,0,0,1-11.2,29.7L249.31,364s21.86-91.79,23.83-99.29a20.71,20.71,0,0,0,.44-2.77A147.75,147.75,0,0,1,255,254.1c-28.22-2.25-44.92-12.44-44.92-27.34,0-8.8,4.88-15.14,7.57-15.14,5.1,0,14.16,8.79,15.25,11.36-2.19-4.52-9.09-12.82-3.41-12.82,1.58,0,14.4,17.92,21.36,22.27,1.91,1.19,10.93,2.34,23.41,3.52,0-11.61,0-23.59.36-29.68-1.84-1-3.16-2.16-3.57-3.59-1.42-5,10.56-41.67,25.7-48.87,6.42-11,14.53-19.5,24.24-24.62-1-5.14-2.26-10.7-3.46-14.67-19.71,1.66-39.58-14.77-46.08-39.29a61.5,61.5,0,0,1-2.09-14.81,1.85,1.85,0,0,1,0-.23c-5.22,2-9.46,3.66-17.35,3.66-3.75,0-6.93-3.92-6.93-6.61,0-7.41,3.18-14.59,12.47-15.07-7.82-.17-15.07-5-15.07-8.56A9.48,9.48,0,0,1,244.23,29C188.67,23.67,135.5,26,96.4,50.9,31.23,92.43,5,196.74,20.05,286c15,89.13,71.4,163.41,136.58,217.41s139.45,88,199,73.48,105-77.48,140.09-131.47,60.22-99.2,74.76-158.94C584.89,226.93,588.89,152.65,553.74,111.12Z"/><path class="cls-4" d="M273.58,261.94a21,21,0,0,1-.44,2.77c-2,7.5-23.83,99.29-23.83,99.29l34.77-9.61a290.19,290.19,0,0,0,11.2-29.7"/><path class="cls-4" d="M274.65,206.27c-.36,6.09-.32,18.07-.36,29.68"/><rect class="cls-5" x="288.29" y="360.21" width="245.11" height="245.11"/><circle class="cls-6" cx="333.68" cy="409.12" r="24.7"/><line class="cls-7" x1="379.14" y1="398.53" x2="504.37" y2="398.53"/><line class="cls-7" x1="379.14" y1="419.7" x2="434.66" y2="419.7"/><line class="cls-7" x1="379.14" y1="472.18" x2="504.37" y2="472.18"/><line class="cls-7" x1="379.14" y1="493.35" x2="434.66" y2="493.35"/><line class="cls-7" x1="379.14" y1="545.82" x2="504.37" y2="545.82"/><line class="cls-7" x1="379.14" y1="566.99" x2="434.66" y2="566.99"/><circle class="cls-8" cx="333.68" cy="482.76" r="24.7"/><circle class="cls-8" cx="333.68" cy="556.41" r="24.7"/><path d="M300.53,342.5c-9.18.5-159.81,33.21-161.78,40.88-16.12,62.92,76,195,82.78,199,7.3-1.76,32.21-10.44,32.21-10.44L248,483.89Z"/><polygon class="cls-4" points="94.14 601.93 80.9 578.19 54.27 592.08 1.25 556.17 40.02 633.19 94.14 601.93"/><polygon class="cls-4" points="251.24 570.23 226.96 578.79 232.74 599.49 193.86 642.34 265.53 618.66 251.24 570.23"/><path class="cls-4" d="M296.77,153.81c-15.13,7.2-27.11,43.9-25.69,48.87.77,2.69,4.75,4.52,9.33,5.72"/><path class="cls-4" d="M279.1,236.4c-.68-50.1,14-92.51,41.92-107.22"/><path class="cls-4" d="M419,274.31c1.33,15.55,1.54,26.7,1.36,29.38-7.14,23.44-92.78,51.6-119.14,36.19A280,280,0,0,1,281,264.55"/><path class="cls-4" d="M350.33,124.14c9,1.4,16.85,5.68,23.72,12"/><path class="cls-4" d="M415.41,209.22c4.23,11.45,11.28,48.66,10.5,53.91-.86,5.74-14,20.19-18.68,20.51-66.54,4.52-138.71-22.07-152.2-29.54-28.22-2.25-44.92-12.44-44.92-27.34,0-8.8,4.88-15.14,7.57-15.14,5.1,0,14.16,8.79,15.25,11.36-2.19-4.52-9.09-12.82-3.41-12.82,1.58,0,14.4,17.92,21.36,22.27,1.91,1.19,10.93,2.34,23.41,3.52"/><path class="cls-4" d="M274.29,236c32.8,3.11,89.55,6.5,104.14,11.8-1.84-3.67-6.06-14.23-8.35-20.91"/><rect x="177.67" y="98.35" width="53.72" height="53.72" rx="7.68" transform="matrix(0.98, -0.19, 0.19, 0.98, -20.49, 42.28)"/><path class="cls-7" d="M206.75,119.39l-1.2-6a4.58,4.58,0,0,0-5.4-3.61l-3.33,14.73L200.11,141l17-3.37a3.06,3.06,0,0,0,2.5-3.15l-.62-14a3.06,3.06,0,0,0-3.2-2.92,4.1,4.1,0,0,0-.49.06ZM200.11,141l-4.51.9a3.07,3.07,0,0,1-3.61-2.41L189.9,129a3.07,3.07,0,0,1,2.41-3.61l4.51-.89"/><polygon points="212.23 163.91 216.91 150.13 202.63 152.97 212.23 163.91"/><path class="cls-4" d="M370.08,226.84c-3.79.64-6.58.74-7.67.1-5.48-3.24-28.65-78.75,1.7-89.87a18.78,18.78,0,0,1,9.93-.9"/><path class="cls-4" d="M374,136.17c25.74,4.63,44.77,61.39,43.89,69.36-.8,7.19-32.5,18.7-47.85,21.31"/><path class="cls-4" d="M321,129.19c-1-5.14-2.26-10.7-3.47-14.67"/><path class="cls-4" d="M350.37,124.28a27.57,27.57,0,0,0,1.72,4.44c-1.79,3.52-20.19,13.75-29,11.56-.46-2.51-1.21-6.65-2.1-11.09"/><path class="cls-4" d="M345.76,94.28c.08,5.45,1.84,20.93,4.61,30"/><path class="cls-4" d="M332.05,109.72a32.45,32.45,0,0,1-8.88,3.84c-21.42,5.69-44.57-11.47-51.69-38.33a62,62,0,0,1-2.1-14.92"/><path class="cls-4" d="M351.17,70.53a53,53,0,0,1-5.4,23.76"/><path class="cls-4" d="M329.12,64.3c-2.22.12-10.69-4.2-12.57-17.16-6.11-1-33.05,1.87-47.17,13-5.23,2-9.47,3.67-17.38,3.67-3.75,0-6.93-3.92-6.93-6.61,0-7.41,3.18-14.59,12.47-15.07-7.82-.17-15.07-5-15.07-8.56,0-4.73,10.75-19.24,29.5-12.88-4.4-3.18-9.37-6.28-9.37-9.29C262.6,6.22,270,1.25,283,1.25c20,0,41.9,8.31,46.62,14.26,2.2-1.14,5-3.26,10.35-3.26,13.37,0,17.85,43.28,12.07,57.79a12.69,12.69,0,0,1-4.71,1.83"/><path class="cls-4" d="M328.72,65.24a9.87,9.87,0,1,1,5,12.15"/><path class="cls-8" d="M217.68,211.62c5.1,0,14.16,8.79,15.25,11.36-2.19-4.52-9.09-12.82-3.41-12.82,1,0,6,6.57,11.43,12.72L228.33,175H205.76l9.9,37.56A3.55,3.55,0,0,1,217.68,211.62Z"/><path d="M429.43,336.52c-.57-6.19-5.21-22.68-10.23-30.17-12.37,22.84-92.62,48.36-118,33.53-.15-.35-.29-.71-.44-1.06C271.82,367.94,74.09,567,72.82,571.52c-1.37,4.89,14.27,41.65,23.85,38.91S263.25,492,281.24,476.9C300.2,468.68,437.1,419.7,429.43,336.52Z"/></g></g></svg>