<svg xmlns="http://www.w3.org/2000/svg" viewBox="0 0 548.62 726.94"><defs><style>.cls-1{fill:#f1f1f1;}.cls-2{fill:#e49d75;}.cls-3{fill:#5fc5d1;}.cls-4{fill:#6bd5e1;}.cls-5{fill:#ffc78e;}.cls-6{fill:#ffd98e;}.cls-7{fill:#d38d6a;}.cls-8{fill:#fff;}.cls-9{fill:#ffe4ad;}.cls-10{fill:#fd8369;}</style></defs><title>mirror-pose-colour</title><g id="Layer_2" data-name="Layer 2"><g id="Layer_2-2" data-name="Layer 2"><path class="cls-1" d="M434.09,136.71C468,182.07,467.58,250.19,474.73,325.6s22.18,158-11.59,227.67c-33.91,69.54-116.62,126.21-178.73,105.89S180.24,541.25,128.29,471.56,14.1,360.09,2.22,306.28,28.41,186.79,80.36,141.43A290,290,0,0,1,265.1,70C332.07,68.88,400.18,91.35,434.09,136.71Z"/><rect class="cls-2" x="192.82" y="666.23" width="25.49" height="30.36"/><polygon class="cls-2" points="427.31 664.5 428.98 688.64 460.67 681.4 448.77 654.1 427.31 664.5"/><path class="cls-3" d="M311.62,314.61c3.24,5.83,141.23,339.81,141.23,339.81l-27.53,13.93L262.71,437.06S268.54,307.81,311.62,314.61Z"/><path class="cls-4" d="M186.49,317.8V668c6.25,3.89,28.92,5.51,34.43,0,1.62-5.5,78.71-350.22,78.71-350.22Z"/><path class="cls-2" d="M347.6,134c6.17.2,31.92,1.15,47.28,0s98.53-16.92,108.49-20.56c5.66,4.86,11.36,16.15,1.26,20.33S393.13,173.8,382.48,176s-30.59,4.18-39.62,3.5S347.6,134,347.6,134Z"/><path class="cls-5" d="M274.28,152.06c3-21.64,61.24-30.31,70.26-22.8s8.95,53.35.17,59.25S270.52,179.23,274.28,152.06Z"/><path class="cls-6" d="M253.21,116.68c57.31,0,75,135.78,61,198.93-3.28,14.73-121.77,9.13-127.68,2.19S173.09,116.68,253.21,116.68Z"/><path class="cls-2" d="M160.36,171.87c-10.61,5.43-48.51,46.91-49.5,53.95S161.6,298.28,170,303.46c9.63.25,13-7.65,14.2-14.44-4.57-6.91-22.1-48.27-26.54-54.32,3.82-3.08,29.42-23.57,32.48-28.39S160.36,171.87,160.36,171.87Z"/><path class="cls-7" d="M236.32,71c1.35,3.44,6.94,51.57,4.47,60,2.88,2.63,24,5.18,28.3,0-1.4-5.52-2.22-31-1.15-35.87S236.32,71,236.32,71Z"/><ellipse class="cls-4" cx="519.47" cy="51.79" rx="29.15" ry="47.14"/><ellipse class="cls-8" cx="519.47" cy="52.34" rx="22.77" ry="38.73"/><ellipse class="cls-2" cx="518.94" cy="122.04" rx="20.4" ry="15.82" transform="translate(-12.6 81.4) rotate(-8.86)"/><path class="cls-9" d="M224.58,144.23c13.1,17.06-19.31,65.31-30.51,66.69S151,180.72,152.68,170.3,208.13,122.82,224.58,144.23Z"/><ellipse class="cls-2" cx="263.87" cy="65.46" rx="43.67" ry="33.94" transform="translate(189.06 326.83) rotate(-87.96)"/><path class="cls-10" d="M226.7,69.66c-1.6-1.9-4.53-20.74-4.53-24.53,0-14.79,13.29-20,20.89-28.48C248.07,11.06,253.57,0,261.17,0,271.68,0,277,5.51,282.78,5.55c8.33.06,12-4,26-4.67C317.41.47,321,12.42,321.19,17.23c.39,11.62-6.8,34.76-24.35,35.93-1.19-3.85-3.48-10-3.48-10-3.7.92-36.07,7.71-47.7,7.78.23,3.28.6,16.39-7.3,18.11S226.7,69.66,226.7,69.66Z"/><circle class="cls-2" cx="232.54" cy="72.14" r="9.64"/><path class="cls-2" d="M169.52,299.75c.26,2.77-.31,13.05,4.15,18.08,5.46,6.15,15.49,13.07,24.26,4.87,7.14-6.69,6.06-13.09,4-17.41-3-6.24-9.26-14.46-20.34-17.14S169.52,299.75,169.52,299.75Z"/><polygon points="238.55 726.94 181.73 726.94 192.82 696.58 218.31 696.58 238.55 726.94"/><polygon points="428.98 688.64 428.98 714.12 515.49 714.12 515.49 704.4 457.82 679.92 428.98 688.64"/><rect class="cls-4" x="513.33" y="96.39" width="9.84" height="50.44"/><path class="cls-2" d="M503.52,66.67a54.08,54.08,0,0,0,4.36,19.56c3.37,3.41,7.29,5.37,11.49,5.37,12.57,0,22.77-17.59,22.77-39.29,0-12.22-3.24-23.13-8.31-30.34C516.11,24,502.7,43.45,503.52,66.67Z"/><path class="cls-10" d="M519.37,13C507.06,13,497,29.87,496.62,50.92a19.35,19.35,0,0,0,7.86,2.24c1.18-3.85,3.47-10,3.47-10,2.67.66,20.18,4.36,34.12,6.41C541.24,29.14,531.4,13,519.37,13Z"/></g></g></svg>