<svg xmlns="http://www.w3.org/2000/svg" viewBox="0 0 641.06 534.51"><defs><style>.cls-1{fill:#f1f1f1;}.cls-2,.cls-4{fill:none;stroke:#e0e0e0;stroke-linecap:round;stroke-linejoin:round;}.cls-2{stroke-width:2px;}.cls-3{fill:#e49d75;}.cls-4{stroke-width:3px;}.cls-5{fill:#5fc5d1;}.cls-6{fill:#ffc78e;}.cls-7{fill:#6bd5e1;}.cls-8{fill:#ffd98e;}.cls-9{fill:#e0e0e0;}.cls-10{fill:#d38d6a;}.cls-11{fill:#ffe4ad;}</style></defs><title>fashion-tshirts-colour</title><g id="Layer_2" data-name="Layer 2"><g id="vector"><path class="cls-1" d="M591.29,346.4c-3.3-51.85-64.71-99.56-116.59-158.62.92,22.21-.6,40.18-1.63,42-4.12,7.37-80.28,15.57-101.37-3.6-3.3-3-6.3-38.26,1.48-71.38-5.68,2.07-12,3.76-17.61,3.84-.13,5.48,7,85.44,11.43,105.53-2.84,5.07-31.86,9.94-51.54,9.94s-48.71-4.87-51.55-9.94c4.47-20.09,11.57-100.05,11.43-105.53C260.6,158.46,241,147.1,241,147.1s8.18-22.91,14.12-38.28a12.11,12.11,0,0,1-5.64-10.16A12.5,12.5,0,0,1,262.2,86.42,12.92,12.92,0,0,1,272.12,91c9.36-2.85,21.45-6.15,23.86-8.43,4.46,4.26,13.8,7.11,19.48,7.11s15-2.85,19.48-7.11c2.42,2.3,14.73,5.64,24.13,8.51a13,13,0,0,1,8.74-3.35A12.49,12.49,0,0,1,380.55,100a11.83,11.83,0,0,1-1.84,6.32c.61,1,1.53,2.53,2.67,4.56a62,62,0,0,1,7.11-3.73,9.14,9.14,0,0,1-.78-3.28c0-6,3.71-18.78,6.37-28.49C369.84,39.8,346.31,11,317,2.66,263.38-12.66,190.79,40.34,142.18,106.9c-23.5,32.18-41.33,67.54-51.25,102.64,7.18-2.16,14-4.35,15.74-6,4.47,4.26,13.8,7.1,19.48,7.1s15-2.84,19.48-7.1c3.86,3.65,32.68,9.94,35.11,12.78s19.89,51.75,19.89,51.75S181,279.44,166.27,279.65c-.14,5.48,7,85.43,11.43,105.52-2.2,3.93-20.12,7.74-37.23,9.26,28.15,26.21,64,47.85,101.43,65.25C285.65,480,331.65,494.56,377.41,497l0-4.92h17.75v5.25a220,220,0,0,0,62.1-9.79C528.25,465.46,595.06,403.42,591.29,346.4Z"/><path class="cls-2" d="M508.67,201.68,459.62,242a1.77,1.77,0,0,0,1.13,3.13h98.08A1.77,1.77,0,0,0,560,242l-49-40.27A1.78,1.78,0,0,0,508.67,201.68Z"/><path class="cls-2" d="M494.44,186.07a7.68,7.68,0,1,1,15.35,0"/><line class="cls-2" x1="509.79" y1="201.28" x2="509.79" y2="186.07"/><path class="cls-3" d="M348.8,170.08c2.12,2.15,23.54,14.67,27.57,15.73S397,152.3,397,152.3L369.58,136C363,139,345.83,154.46,348.8,170.08Z"/><path class="cls-2" d="M255.25,201.68l-49,40.27a1.76,1.76,0,0,0,1.12,3.13h98.08a1.77,1.77,0,0,0,1.12-3.13l-49-40.27A1.78,1.78,0,0,0,255.25,201.68Z"/><path class="cls-2" d="M241,186.07a7.68,7.68,0,1,1,15.35,0"/><line class="cls-2" x1="256.37" y1="201.28" x2="256.37" y2="186.07"/><polyline class="cls-4" points="45.61 504.69 45.61 182.23 595.63 182.23 595.63 504.69"/><path d="M427.11,4c16.61,0,30.05,17.78,30.05,37.9,0,4.76-1.31,15.26-.58,21.87,1.42,12.94,18.63,32.48,18.63,47.13,0,26.92-36.25,28.84-48.1,28.84S388,112.81,388,103.46s9-35.06,9-40.15S409.66,4,427.11,4Z"/><path class="cls-5" d="M374.53,229.2V492.66h23L427,366S430.06,215,374.53,229.2Z"/><path class="cls-6" d="M413,107.82c11,11-9.32,54.3-16.75,55.12-5,.56-35.06-23.36-35.1-30C361.1,122.3,398.34,93.25,413,107.82Z"/><path class="cls-7" d="M469.84,231.89V492.66H444.45L394.21,234.47C394.21,229.31,465,227,469.84,231.89Z"/><path class="cls-8" d="M430.45,95.91c52.36,0,45.7,129.05,42.84,134.18-4.12,7.36-80.28,15.56-101.37-3.61C365.58,220.73,360.34,95.91,430.45,95.91Z"/><path class="cls-9" d="M315.33,273.74c19.69,0,48.71-4.87,51.55-9.94-4.47-20.1-11.57-100.05-11.43-105.53,14.74-.2,34.36-11.57,34.36-11.57S372.36,97.8,369.92,95s-31.25-9.14-35.11-12.79c-4.46,4.26-13.8,7.1-19.48,7.1s-15-2.84-19.48-7.1C292,85.82,263.18,92.11,260.74,95s-19.88,51.74-19.88,51.74,19.61,11.37,34.36,11.57c.13,5.48-7,85.43-11.43,105.53C266.63,268.87,295.65,273.74,315.33,273.74Z"/><path class="cls-9" d="M126.43,395.16c19.68,0,48.7-4.87,51.54-9.94-4.46-20.09-11.56-100.05-11.43-105.53,14.75-.2,34.36-11.56,34.36-11.56S183.45,219.22,181,216.38s-31.26-9.13-35.11-12.79c-4.47,4.26-13.8,7.11-19.48,7.11s-15-2.85-19.48-7.11c-3.86,3.66-32.68,9.95-35.11,12.79S52,268.13,52,268.13s19.61,11.36,34.36,11.56c.14,5.48-7,85.44-11.43,105.53C77.72,390.29,106.74,395.16,126.43,395.16Z"/><path class="cls-2" d="M194.79,201.68l-49,40.27a1.76,1.76,0,0,0,1.12,3.13H245a1.77,1.77,0,0,0,1.12-3.13l-49-40.27A1.78,1.78,0,0,0,194.79,201.68Z"/><path class="cls-2" d="M180.56,186.07a7.68,7.68,0,1,1,15.35,0"/><line class="cls-2" x1="195.91" y1="201.28" x2="195.91" y2="186.07"/><path class="cls-2" d="M125.31,201.68,76.27,242a1.76,1.76,0,0,0,1.12,3.13h98.08a1.77,1.77,0,0,0,1.12-3.13l-49-40.27A1.78,1.78,0,0,0,125.31,201.68Z"/><path class="cls-2" d="M111.08,186.07a7.68,7.68,0,1,1,15.35,0"/><line class="cls-2" x1="126.43" y1="201.28" x2="126.43" y2="186.07"/><polygon points="395.46 525.4 340.96 525.4 340.96 520.15 375.66 504.69 395.46 504.69 395.46 525.4"/><polygon points="437.02 525.4 476.12 525.4 468.36 507.56 444.01 507.56 437.02 525.4"/><rect class="cls-3" x="376.12" y="492.66" width="18.74" height="12.03"/><rect class="cls-3" x="445.96" y="492.66" width="21.08" height="14.9"/><path class="cls-10" d="M444.3,64.13c-3.54,5.39-6.38,33.93-4.88,45.09-2.08,2.9-20.3,3.36-23.2.47,1.5-4.92,2.6-18.29,1.68-27C423.68,75,444.3,64.13,444.3,64.13Z"/><polyline class="cls-4" points="82.35 516.95 82.35 504.69 8.5 504.69 8.5 516.95"/><polyline class="cls-4" points="632.55 516.95 632.55 504.69 558.7 504.69 558.7 516.95"/><circle class="cls-9" cx="8.5" cy="526" r="8.5"/><circle class="cls-9" cx="82.35" cy="526" r="8.5"/><circle class="cls-9" cx="558.7" cy="526" r="8.5"/><circle class="cls-9" cx="632.56" cy="526" r="8.5"/><path class="cls-3" d="M423.61,144.7c-2.76,2.45-12.55,15.55-14.45,17.84-2.13-3.63-28.88-55.41-31-57.3s-14.37,3.47-14.84,7S376.57,177.3,394.8,198c2.44,2.76,14.68,3.08,17.76,2.6s38.75-32.12,40.49-35.36S423.61,144.7,423.61,144.7Z"/><ellipse class="cls-3" cx="421.86" cy="49.57" rx="30.52" ry="38.12"/><path d="M390.55,43.19C388,19.49,409.59,4,427.11,4,414.75,17.48,404.82,42.44,390.55,43.19Z"/><path d="M407.83,17.4c-1.9,3,9.68,33.89,32.39,33.89C480.79,50,428.7-15.07,407.83,17.4Z"/><circle class="cls-3" cx="446" cy="52.46" r="8.34"/><ellipse class="cls-3" cx="367.98" cy="99.92" rx="12.74" ry="12.24"/><path class="cls-11" d="M472.36,115c11,11-9.32,54.3-16.74,55.12-5,.56-35.07-23.36-35.1-30C420.46,129.43,457.69,100.38,472.36,115Z"/><ellipse class="cls-3" cx="262.48" cy="98.71" rx="12.74" ry="12.24"/></g></g></svg>