<svg xmlns="http://www.w3.org/2000/svg" xmlns:xlink="http://www.w3.org/1999/xlink" viewBox="0 0 642.06 534.96"><defs><style>.cls-1,.cls-4,.cls-5,.cls-7{fill:none;}.cls-2{fill:#949494;}.cls-3{fill:#f1f1f1;}.cls-4,.cls-5,.cls-7{stroke:#000;stroke-linecap:round;stroke-linejoin:round;}.cls-6{fill:url(#New_Pattern);}.cls-7{stroke-width:1.02px;}</style><pattern id="New_Pattern" data-name="New Pattern" width="12" height="12" patternTransform="translate(5.75 1229.51) rotate(-180)" patternUnits="userSpaceOnUse" viewBox="0 0 12 12"><rect class="cls-1" width="12" height="12"/><rect class="cls-1" width="12" height="12"/><rect class="cls-1" width="12" height="12"/><circle class="cls-2" cx="12" cy="9" r="2"/><circle class="cls-2" cx="6" cy="12" r="2"/><circle class="cls-2" cy="9" r="2"/><circle class="cls-2" cx="12" cy="3" r="2"/><circle class="cls-2" cx="6" cy="6" r="2"/><circle class="cls-2" cy="3" r="2"/><circle class="cls-2" cx="6" r="2"/></pattern></defs><title>fashion-tshirts-monochrome</title><g id="Layer_2" data-name="Layer 2"><g id="vector"><path class="cls-3" d="M592.07,346.4c-3.31-51.85-64.72-99.56-116.6-158.62.93,22.21-.6,40.18-1.63,42-4.12,7.37-80.27,15.57-101.37-3.6-3.3-3-6.29-38.26,1.48-71.38-5.67,2.07-12,3.76-17.6,3.84-.14,5.48,7,85.44,11.43,105.53-2.84,5.07-31.86,9.94-51.55,9.94s-48.7-4.87-51.54-9.94c4.46-20.09,11.56-100.05,11.43-105.53-14.75-.2-34.36-11.56-34.36-11.56s8.17-22.91,14.11-38.28a12.1,12.1,0,0,1-5.63-10.16A12.5,12.5,0,0,1,263,86.42,12.93,12.93,0,0,1,272.9,91c9.36-2.85,21.45-6.15,23.85-8.43,4.47,4.26,13.8,7.11,19.48,7.11s15-2.85,19.48-7.11c2.43,2.3,14.73,5.64,24.13,8.51a13,13,0,0,1,8.75-3.35A12.5,12.5,0,0,1,381.33,100a11.84,11.84,0,0,1-1.85,6.32c.62,1,1.54,2.53,2.68,4.56a60.36,60.36,0,0,1,7.11-3.73,9.17,9.17,0,0,1-.79-3.28c0-6,3.72-18.78,6.37-28.49C370.62,39.8,347.08,11,317.78,2.66,264.15-12.66,191.56,40.34,143,106.9c-23.5,32.18-41.33,67.54-51.26,102.64,7.19-2.16,14-4.35,15.75-6,4.46,4.26,13.8,7.1,19.48,7.1s15-2.84,19.48-7.1c3.85,3.65,32.67,9.94,35.11,12.78s19.88,51.75,19.88,51.75S181.79,279.44,167,279.65c-.13,5.48,7,85.43,11.43,105.52-2.2,3.93-20.11,7.74-37.23,9.26,28.15,26.21,64,47.85,101.44,65.25C286.43,480,332.43,494.56,378.18,497l0-4.92H396v5.25a219.92,219.92,0,0,0,62.1-9.79C529,465.46,595.83,403.42,592.07,346.4Z"/><path class="cls-4" d="M382.11,110.86c7.13-4.33,15-7.37,21.67-7.08"/><path class="cls-4" d="M472.86,114.9c11,11-9.32,54.31-16.74,55.13-5,.55-35.07-23.36-35.1-30C421,129.39,458.19,100.34,472.86,114.9Z"/><path class="cls-4" d="M364.08,111.37a2.22,2.22,0,0,0-.27.77c-.47,3.47,13.26,65.11,31.49,85.79,2.44,2.77,14.68,3.08,17.76,2.61,2.65-.41,29.42-23.89,37.95-32.5"/><path class="cls-4" d="M423.66,145.09c-3.25,3.27-12.19,15.23-14,17.4-2-3.38-25.43-48.72-30.27-56.28"/><path class="cls-5" d="M364.08,111.37a12.28,12.28,0,0,1-8.34-11.49,12.75,12.75,0,0,1,25.48,0,11.88,11.88,0,0,1-1.83,6.33"/><ellipse class="cls-5" cx="262.98" cy="98.66" rx="12.74" ry="12.24"/><path class="cls-5" d="M387.54,120.8c7.37-11.45,17.41-20.18,30.95-23.49"/><path class="cls-5" d="M470.84,147.76c7.42,36.51,4.57,79.37,3,82.28-4.12,7.36-80.28,15.57-101.37-3.6-3.34-3-6.38-39.16,1.77-72.64"/><path class="cls-5" d="M439.58,97.15c7.19,2.26,13,7.34,17.69,14.26"/><path class="cls-4" d="M357.13,175.22c3.81,2.3,8.35,4.91,12.18,7"/><path class="cls-5" d="M255.42,108.51c-5.94,15.37-14.06,38.15-14.06,38.15S261,158,275.72,158.22c.13,5.48-7,85.44-11.43,105.53,2.84,5.07,31.86,9.94,51.54,9.94s48.71-4.87,51.55-9.94C362.91,243.66,355.81,163.7,356,158.22c5.85-.08,12.48-1.92,18.34-4.11"/><path class="cls-5" d="M360,90.79c-9.46-2.9-22.17-6.33-24.64-8.67-4.46,4.27-13.8,7.11-19.48,7.11s-15-2.84-19.48-7.11c-2.4,2.28-14.48,5.58-23.84,8.43"/><path class="cls-6" d="M126.93,395.12c19.68,0,48.7-4.87,51.54-9.95-4.46-20.09-11.56-100-11.43-105.52,14.75-.21,34.36-11.57,34.36-11.57S184,219.17,181.52,216.33s-31.26-9.13-35.11-12.78c-4.47,4.26-13.8,7.1-19.48,7.1s-15-2.84-19.48-7.1c-3.86,3.65-32.68,9.94-35.11,12.78s-19.89,51.75-19.89,51.75,19.62,11.36,34.36,11.57c.14,5.48-7,85.43-11.43,105.52C78.22,390.25,107.24,395.12,126.93,395.12Z"/><path class="cls-7" d="M452.82,47.24c0,.75.06,1.52.06,2.28,0,21.06-13.67,38.12-30.52,38.12-11.07,0-20.75-7.35-26.1-18.35"/><path class="cls-7" d="M396.26,69.29a45.16,45.16,0,0,1-4.42-19.77,47.5,47.5,0,0,1,.47-6.7"/><path class="cls-7" d="M434.46,51.93a8.34,8.34,0,1,1,3.13,11.86"/><path class="cls-7" d="M389.38,107.05a9.48,9.48,0,0,1-.92-3.63c0-7.27,5.44-24.45,7.85-34.12"/><path class="cls-7" d="M427.61,4c16.61,0,30.05,17.78,30.05,37.9,0,4.75-1.31,15.26-.58,21.87,1.42,12.94,18.63,32.47,18.63,47.13a25.47,25.47,0,0,1-.91,6.92"/><path class="cls-7" d="M447.2,50.32a13,13,0,0,0,5.62-3.08"/><path class="cls-7" d="M422.4,43.66a28.87,28.87,0,0,0,13.05,7"/><path class="cls-7" d="M427.61,4c-17.52,0-39.15,15.44-36.56,39.15,7.43-.39,13.69-7.36,19.73-15.84a53.47,53.47,0,0,0,5.75,9.83"/><path class="cls-5" d="M192.87,245h52.58a1.77,1.77,0,0,0,1.12-3.13l-49-40.27a1.75,1.75,0,0,0-2.24,0L179.08,215"/><path class="cls-5" d="M181.06,186a7.68,7.68,0,0,1,15.35,0"/><line class="cls-5" x1="196.41" y1="201.24" x2="196.41" y2="186.02"/><path class="cls-5" d="M136.72,208.76l-8.67-7.12a1.75,1.75,0,0,0-2.24,0l-8.74,7.17"/><path class="cls-5" d="M111.58,186a7.68,7.68,0,0,1,15.35,0"/><line class="cls-5" x1="126.93" y1="201.24" x2="126.93" y2="186.02"/><path class="cls-5" d="M271,212.35l-13-10.71a1.75,1.75,0,0,0-2.24,0l-49,40.27a1.76,1.76,0,0,0,1.12,3.13h59.45"/><path class="cls-5" d="M241.52,186a7.68,7.68,0,0,1,15.35,0"/><line class="cls-5" x1="256.87" y1="201.24" x2="256.87" y2="186.02"/><path class="cls-5" d="M509.17,201.64l-49.05,40.27a1.77,1.77,0,0,0,1.13,3.13h98.08a1.77,1.77,0,0,0,1.12-3.13l-49-40.27A1.75,1.75,0,0,0,509.17,201.64Z"/><path class="cls-5" d="M494.94,186a7.68,7.68,0,0,1,15.35,0"/><line class="cls-5" x1="510.29" y1="201.24" x2="510.29" y2="186.02"/><polygon class="cls-5" points="395.96 525.35 341.46 525.35 378.12 506.46 378.22 492.1 395.96 492.1 395.96 525.35"/><polygon class="cls-5" points="437.52 525.35 476.62 525.35 467.78 492.1 447 492.1 437.52 525.35"/><path class="cls-5" d="M441,79.67c-1.38,10.34-2,22.93-1.11,29.51-2.09,2.89-20.31,3.36-23.21.46,1.25-4.09,2.22-14,2-22.27"/><polyline class="cls-5" points="475.12 182.18 596.13 182.18 596.13 504.64"/><line class="cls-5" x1="357.74" y1="182.18" x2="369.7" y2="182.18"/><polyline class="cls-5" points="46.11 504.64 46.11 182.18 273.93 182.18"/><polyline class="cls-5" points="82.85 516.91 82.85 504.64 9 504.64 9 516.91"/><polyline class="cls-5" points="633.06 516.91 633.06 504.64 559.2 504.64 559.2 516.91"/><circle class="cls-5" cx="9" cy="525.96" r="8.5"/><circle class="cls-5" cx="82.85" cy="525.96" r="8.5"/><circle class="cls-5" cx="559.2" cy="525.96" r="8.5"/><circle class="cls-5" cx="633.06" cy="525.96" r="8.5"/><path d="M395,235.82l50,256.79h25.39V232.31C458.71,237.09,421.42,241,395,235.82Z"/><path d="M375.77,229l-.74.18V492.61h23L427.52,366s2-99.12-26.78-129.22C390.8,235.39,381.92,232.91,375.77,229Z"/></g></g></svg>