<svg xmlns="http://www.w3.org/2000/svg" width="625.35" height="726.17" viewBox="0 0 625.35 726.17"><g id="Layer_2" data-name="Layer 2"><g id="vector"><path d="M125.06,506.43,166.37,458,291.31,278.79c3.46-15,13.93-30.41,33.59-45.43-.39-6.29,11.59-32.71,30.62-58.66a6.22,6.22,0,0,1-2.28-.7c-1.06-.79-2.19-3.56-3.23-7.48-16.89-1.75-59.62-5.72-65.57-6-6.16-.28-75-2.33-105.13,1.63-20.86,11.93-38.64,26.52-52.33,44.22-44.39,57.41-45.84,147.34-25.3,230.49A432.62,432.62,0,0,0,125.06,506.43Z" fill="#f1f1f1"/><path d="M599.37,178.61c-1-1.37-2.14-2.7-3.25-4-14.23,31.54-36,85.33-41.29,85.8-6.32.57-48.73-23.65-61.07-33.31-3.11,1.94-5.71,3-7.27,2.91-2.07-.17-5.63-4.4-9.44-10.78a201,201,0,0,1-25.88,48.73c54.32,10.82,108.94,25.1,111.77,32.41,15.82,40.75-73.24,225.74-73.24,225.74l-36.32-11.66S468,383.5,469.86,369.84c-23.44,9.67-51.42,10.67-78.25,5.44-43.15,35.38-152.4,124.9-233,190.3,19.06,25.8,41.81,46,68.11,57.37,62.32,27,144.59,4.91,211.4-33.4q7.85-4.49,15.41-9.27l-22.29-18.41,18.37-32.53,29.22,11.51,7.47,16.2c44-35,79.19-80.14,104.94-138.85C625.68,339.25,643,235.73,599.37,178.61Z" fill="#f1f1f1"/><polygon points="346.59 254.12 346.58 254.11 346.59 254.12 346.59 254.12" fill="none" stroke="#000" stroke-linecap="round" stroke-linejoin="round" stroke-width="2"/><path d="M328.22,239.41c.19.22.39.43.59.65Z" fill="none" stroke="#000" stroke-linecap="round" stroke-linejoin="round" stroke-width="2"/><path d="M326.22,236.77c.11.18.23.37.36.55C326.45,237.14,326.33,237,326.22,236.77Z" fill="none" stroke="#000" stroke-linecap="round" stroke-linejoin="round" stroke-width="2"/><path d="M326.72,237.52a19.06,19.06,0,0,0,1.39,1.76A21.69,21.69,0,0,1,326.72,237.52Z" fill="none" stroke="#000" stroke-linecap="round" stroke-linejoin="round" stroke-width="2"/><path d="M346.89,118.49c.06-.19.11-.4.17-.58q-5.64.47-11.24,1C340.52,118.77,344.4,118.62,346.89,118.49Z" fill="none" stroke="#000" stroke-linecap="round" stroke-linejoin="round" stroke-width="2"/><path d="M418.06,121.57a54.22,54.22,0,0,1,28.15-2.33c.5-.65,1-1.33,1.56-2.07-16.35-1.3-33.11-1.79-49.92-1.62C405.36,116.81,412.43,118.75,418.06,121.57Z" fill="#f1f1f1"/><path d="M484.79,156.33c17.61,6.65,38.52,26.93,39.27,33a13.32,13.32,0,0,1-1.19,6.44l21.62,13.93s20.67-31,33-52.56c-24.43-18.39-57.52-29.64-94.42-35.73a116.08,116.08,0,0,0-7.93,14.52A48.45,48.45,0,0,1,484.79,156.33Z" fill="#f1f1f1"/><ellipse cx="503.43" cy="77.89" rx="45.67" ry="37.6" transform="translate(309.77 549.07) rotate(-76.45)" stroke-width="2" stroke="#000" stroke-linecap="round" stroke-linejoin="round" fill="none"/><path d="M477.36,87.67a9,9,0,0,1-2.81-.63c-5.11-2.07-7.36-8.45-5-14.26S477.92,63.94,483,66c4,1.63,6.27,5.93,5.91,10.52" fill="none" stroke="#000" stroke-linecap="round" stroke-linejoin="round" stroke-width="2"/><path d="M488.88,74c18,.38,39.74-3,51.75-9.67C537.73,49,528,36.83,514.13,33.5c-20.19-4.87-41.35,11.07-47.26,35.58-.12.53-.23,1.06-.34,1.58A34.15,34.15,0,0,0,470,71.73" fill="none" stroke="#000" stroke-linecap="round" stroke-linejoin="round" stroke-width="2"/><path d="M465.58,87.07c-6.52,13.17-18.37,32.92-23.69,36.77-.48,8.74,19.86,23.16,29.56,20.71,3.21-8.12,8.27-18.72,13.23-25.43" fill="none" stroke="#000" stroke-linecap="round" stroke-linejoin="round" stroke-width="2"/><path d="M475.18,135.91c34.91,42.53-19.81,142.32-45.85,152.52-15.29,6-103.48-40-104.43-55.07-.39-6.29,11.59-32.72,30.62-58.66" fill="none" stroke="#000" stroke-linecap="round" stroke-linejoin="round" stroke-width="2"/><path d="M418.06,121.55a54.11,54.11,0,0,1,28.15-2.31" fill="none" stroke="#000" stroke-linecap="round" stroke-linejoin="round" stroke-width="2"/><path d="M484.79,156.33c17.61,6.65,38.52,26.93,39.27,33,1.63,13.16-30,41.32-37.57,40.66-2.07-.17-5.63-4.4-9.44-10.78" fill="none" stroke="#000" stroke-linecap="round" stroke-linejoin="round" stroke-width="2"/><path d="M430.33,135.51C436.86,175,358.24,177.7,353.24,174s-11.2-50.45-5-58.5C362.25,111.8,426.24,110.73,430.33,135.51Z" fill="none" stroke="#000" stroke-linecap="round" stroke-linejoin="round" stroke-width="2"/><path d="M324.9,233.36c-105.7,80.75,53.88,174,145,136.48C468,383.5,453.38,514.43,453.38,514.43l36.32,11.66s89.06-185,73.24-225.74c-5.17-13.33-182.69-49.88-216.35-46.23C338.55,248.5,325.48,239.59,324.9,233.36Z"/><polygon points="449.64 529.34 431.27 561.87 499.88 618.53 509.18 606.58 478.86 540.85 449.64 529.34" fill="none" stroke="#000" stroke-linecap="round" stroke-linejoin="round" stroke-width="2"/><path d="M315.36,244.28,166.37,458,36.84,609.76C36.84,615.87,60.39,641,64,641c8.84-4.08,346.23-281,346.23-281Z"/><polygon points="28.04 626.29 1 647.3 18.43 725.17 34.4 721.91 48.08 647.63 28.04 626.29" fill="none" stroke="#000" stroke-linecap="round" stroke-linejoin="round" stroke-width="2"/><path d="M493.76,227.08c12.35,9.66,54.75,33.88,61.07,33.31,6.49-.58,37.54-80.8,49.39-102.69,5.29-2.44,10.22-7.76,13.08-14.85,4.81-11.9,1.94-24.29-6.41-27.65s-19,3.55-23.81,15.46a30.55,30.55,0,0,0-2.29,12.59c-7.91,17.94-40.3,66.45-40.3,66.45l-21.62-13.93" fill="none" stroke="#000" stroke-linecap="round" stroke-linejoin="round" stroke-width="2"/><path d="M346.89,118.49c-14,.72-72.19,2.2-72.19,2.2s-73.95,11.46-96.57,11.7a24.74,24.74,0,0,0-15.79-5.49c-12.63,0-22.87,8.88-22.87,19.82s10.24,19.82,22.87,19.82A25.26,25.26,0,0,0,176,162.65c28-4.62,102.07-2.42,108.47-2.13,5.95.28,48.68,4.25,65.57,6" fill="none" stroke="#000" stroke-linecap="round" stroke-linejoin="round" stroke-width="2"/><path d="M505.91,32.64C504.77,13.09,483.05,1,470.13,1c-38.27,0-37.37,59.53-86.46,59.53-4.38,0-6.35-.75-11.49.39,0,18.7,23.11,34.92,38.29,34.92,42.09,0,48.47-60,74.48-60a15.61,15.61,0,0,1,5.28,1.2" fill="none" stroke="#000" stroke-linecap="round" stroke-linejoin="round" stroke-width="2"/><polygon points="449.64 529.34 431.27 561.87 499.88 618.53 509.18 606.58 478.86 540.85 449.64 529.34" fill="none" stroke="#000" stroke-linecap="round" stroke-linejoin="round" stroke-width="2"/><polygon points="449.64 529.34 431.27 561.87 499.88 618.53 509.18 606.58 478.86 540.85 449.64 529.34" fill="none" stroke="#000" stroke-linecap="round" stroke-linejoin="round" stroke-width="2"/></g></g></svg>