<?xml version="1.0" encoding="utf-8"?>
<!-- Generator: Adobe Illustrator 25.0.0, SVG Export Plug-In . SVG Version: 6.00 Build 0)  -->
<svg version="1.1" id="Layer_1" xmlns="http://www.w3.org/2000/svg" xmlns:xlink="http://www.w3.org/1999/xlink" x="0px" y="0px"
	 viewBox="0 0 801.7 774.3" style="enable-background:new 0 0 801.7 774.3;" xml:space="preserve">
<style type="text/css">
	.st0{fill-rule:evenodd;clip-rule:evenodd;fill:#F3F3F3;}
	.st1{fill:none;stroke:#FFFFFF;stroke-width:12.98;stroke-linecap:round;stroke-linejoin:round;}
	.st2{fill:none;stroke:#DFDFDF;stroke-width:2.93;stroke-linecap:round;}
	.st3{fill-rule:evenodd;clip-rule:evenodd;fill:#F2AF92;}
	.st4{fill-rule:evenodd;clip-rule:evenodd;}
	.st5{fill-rule:evenodd;clip-rule:evenodd;fill:#E0E0E0;}
	.st6{fill-rule:evenodd;clip-rule:evenodd;fill:#A4A4A4;}
	.st7{fill-rule:evenodd;clip-rule:evenodd;fill:#1628D2;}
	.st8{fill-rule:evenodd;clip-rule:evenodd;fill:#2E3DD6;}
	.st9{fill-rule:evenodd;clip-rule:evenodd;fill:#FFD98E;}
	.st10{fill-rule:evenodd;clip-rule:evenodd;fill:#FFE4AD;}
	.st11{fill:#A4A4A4;}
</style>
<path class="st0" d="M0,0.3h801.7v540.4H0V0.3z"/>
<path class="st1" d="M454.2,112.6h94"/>
<path class="st1" d="M454.2,143.3h83.7"/>
<path class="st2" d="M200.1,541.8V1.5"/>
<path class="st2" d="M400.2,541.8V1.5"/>
<path class="st2" d="M600.3,541.8V1.5"/>
<path class="st3" d="M350.4,742.8l1.8,20.8l18.2,0.4l-3.4-22L350.4,742.8z"/>
<path class="st3" d="M184.4,705.8l-8.5,28.6l8.6,9l15.3-25L184.4,705.8z"/>
<path class="st4" d="M349.1,758.9l-0.3,15.4l47.8-0.3c0.3,0.2,0.1-7.5,0.1-7.5l-28.4-7.8L349.1,758.9z"/>
<path class="st4" d="M175.2,729.4l-9.7,13.2l20.3,28.7l19.2,0.1l-0.3-9.7l-7.7-3.4l-6.8-16.9L175.2,729.4z"/>
<path class="st5" d="M367,146.6h93.3v93.3H367V146.6z"/>
<path class="st6" d="M367,146.6h93.3v20.8H367V146.6z"/>
<path class="st3" d="M259.7,257.7c4.9-1.1,22.2-0.6,26.8-3.1s61.8-45.3,67.5-51.1s12.9-10.9,18-17.2s0.2,11.2-4.3,14.7
	c-0.5,4.7-0.6,14.5-0.6,14.5c-2.4-0.4-4.9,0.2-6.8,1.7c-3.2,2.5-50.1,57.7-50.1,57.7S254.9,258.8,259.7,257.7z"/>
<path class="st7" d="M217.3,422.4c-2.9,11-8.5,88,8.7,126.5c-7.5,28.2-45.3,159.5-45.3,159.5l18.8,16.6l97.1-147
	C296.6,578,276.4,417.2,217.3,422.4z"/>
<path class="st8" d="M316.4,417.7c3.9,10.9,44.1,154.3,44.1,154.3l9.1,174.2l-20.8,1.6l-64.5-175.4c-7.9-8.9-57.9-128.8-60.2-144.2
	C233.9,417.8,312.5,406.7,316.4,417.7z"/>
<path class="st9" d="M244.2,250.7c7.9,0,52.7,10.9,61.1,28.4c4.6,9.6,24.9,127.2,13.7,145.7s-89,17.7-104.2,3.8
	C206.3,420.7,203.5,250.7,244.2,250.7z"/>
<path class="st5" d="M0,0.3h801.7v72.3H0V0.3z"/>
<path class="st1" d="M37.2,115h124.4"/>
<path class="st3" d="M234.3,230.7h17.2V264c-6.2,4.9-17.2,0-17.2,0V230.7z"/>
<path class="st3" d="M212.3,200.6c0-20.8,14.1-37.6,31.5-37.6s31.5,16.8,31.5,37.6s-14.1,37.6-31.5,37.6S212.3,221.4,212.3,200.6z"
	/>
<path class="st4" d="M240,156.9c10.1-0.2,22.9,6.2,22.9,10.6c0,7.7-11.9,25.2-20.8,32.3c2.5,5.8,4.8,9.6,4.8,14.4s-7.6,24-7.6,37
	c0,10.2,2.3,17.1,2.3,25.6c0,23.1-15.1,37.1-36.9,37.1s-36.5-23.6-36.6-42.9c-0.1-23.5,26-52.4,32.3-70.2
	C205.7,185.9,215.8,156.9,240,156.9z"/>
<path class="st3" d="M233.3,202.5c0-4.4,3.5-7.9,7.9-7.9s7.9,3.5,7.9,7.9c0,4.4-3.5,7.9-7.9,7.9c0,0,0,0,0,0
	C236.9,210.4,233.3,206.9,233.3,202.5C233.3,202.5,233.3,202.5,233.3,202.5z"/>
<path class="st3" d="M318.1,314.6c8.8,2.1,45,8.2,52,6s78.5-70.4,84.1-75.5s16.8-12.2,18.1-20.9s0-16.2-12.1-20.6
	c0.2,5.6,0.5,14.4,0.2,13.1c-2-6.8-2.3-14.5-6-14.4c-2,6.4,0.8,18.4-4.1,26.4c-5.6,6.1-80.7,55.4-88.6,57.9c-10.3,0-36.6-9-36.6-9
	S309.3,312.5,318.1,314.6z"/>
<path class="st10" d="M259.3,279.4c6.1-25.7,59.8-12.1,68.8-4.9c3.2,9.8-1.8,38.8-9.7,44.2C306.6,320.4,252.8,306.7,259.3,279.4z"/>
<path class="st1" d="M37.2,169.7h94"/>
<path class="st1" d="M37.2,263.7h50.9"/>
<path class="st1" d="M37.2,299.2h94"/>
<path class="st1" d="M37.2,329.9h83.7"/>
<path class="st1" d="M634.8,110.6h124.4"/>
<path class="st1" d="M634.8,144.7h87"/>
<path class="st1" d="M634.8,181h116.9"/>
<path class="st1" d="M634.8,214h58.9"/>
<path class="st11" d="M397,188.7h-0.1l-6.3,3.3l-0.9-3.7l7.8-4.2h4.1v35.8H397V188.7z"/>
<path class="st11" d="M437.9,184.2v3.2l-15.6,32.6h-5l15.5-31.6v-0.1h-17.5v-4L437.9,184.2z"/>
</svg>
