<?xml version="1.0"?>
<svg xmlns="http://www.w3.org/2000/svg" xmlns:xlink="http://www.w3.org/1999/xlink" xmlns:svgjs="http://svgjs.com/svgjs" version="1.1" width="512" height="512" x="0" y="0" viewBox="0 0 448 448" style="enable-background:new 0 0 512 512" xml:space="preserve" class=""><g><path xmlns="http://www.w3.org/2000/svg" d="m270.222656 177.777344-16.964844-16.96875-101.824218 101.816406 16.964844 16.976562 16.96875 16.964844 101.824218-101.824218zm0 0" fill="#03045e" data-original="#000000" style="" class=""/><path xmlns="http://www.w3.org/2000/svg" d="m224 0c-123.710938 0-224 100.289062-224 224s100.289062 224 224 224 224-100.289062 224-224c-.140625-123.652344-100.347656-223.859375-224-224zm96 328h-192c-2.136719-.011719-4.175781-.875-5.671875-2.398438-.625-.65625-1.132813-1.414062-1.503906-2.242187-.097657-.191406-.175781-.375-.257813-.574219-.339844-.851562-.53125-1.75-.566406-2.664062v-.121094c0-.105469.054688-.183594.054688-.289062 0-.457032.035156-.914063.113281-1.367188l12.121093-57.375c.089844-.3125.199219-.621094.328126-.921875.078124-.222656.144531-.4375.238281-.664063.375-.855468.894531-1.640624 1.535156-2.320312l.074219-.09375 113.136718-113.136719 11.308594-11.3125c15.640625-15.503906 40.875-15.449219 56.445313.125 15.574219 15.570313 15.628906 40.804688.125 56.445313l-11.3125 11.308594-111.601563 111.601562h127.433594c4.417969 0 8 3.582031 8 8s-3.582031 8-8 8zm0 0" fill="#03045e" data-original="#000000" style="" class=""/><path xmlns="http://www.w3.org/2000/svg" d="m304.167969 177.777344c9.375-9.375 9.375-24.574219 0-33.945313-9.503907-9.054687-24.441407-9.054687-33.945313 0l-5.65625 5.664063 33.9375 33.9375zm0 0" fill="#03045e" data-original="#000000" style="" class=""/><path xmlns="http://www.w3.org/2000/svg" d="m144.894531 278.71875-6.527343 30.914062 30.914062-6.527343-12.191406-12.195313zm0 0" fill="#03045e" data-original="#000000" style="" class=""/></g></svg>
