<svg xmlns="http://www.w3.org/2000/svg" xmlns:xlink="http://www.w3.org/1999/xlink" viewBox="0 0 1200 1200"><defs><style>.cls-1,.cls-10,.cls-11,.cls-12,.cls-6,.cls-7,.cls-9{fill:none;}.cls-2{fill:#949494;}.cls-3{fill:url(#New_Pattern);}.cls-4{fill:#f8f8f8;}.cls-5{fill:#efefef;}.cls-6{stroke:#efefef;stroke-width:5px;}.cls-11,.cls-12,.cls-6,.cls-7{stroke-linecap:round;}.cls-12,.cls-6,.cls-7{stroke-linejoin:round;}.cls-10,.cls-11,.cls-12,.cls-7{stroke:#000;}.cls-7{stroke-width:2px;}.cls-8{fill:#bcbcbc;}.cls-9{stroke:#bcbcbc;stroke-width:9px;}.cls-10,.cls-11,.cls-9{stroke-miterlimit:10;}.cls-10,.cls-11,.cls-12{stroke-width:2.5px;}</style><pattern id="New_Pattern" data-name="New Pattern" width="12" height="12" patternUnits="userSpaceOnUse" viewBox="0 0 12 12"><rect class="cls-1" width="12" height="12"/><circle class="cls-2" cx="12" cy="9" r="2"/><circle class="cls-2" cx="6" cy="12" r="2"/><circle class="cls-2" cy="9" r="2"/><circle class="cls-2" cx="12" cy="3" r="2"/><circle class="cls-2" cx="6" cy="6" r="2"/><circle class="cls-2" cy="3" r="2"/><circle class="cls-2" cx="6" r="2"/></pattern></defs><title>Artboard 1</title><g id="Shadows"><path class="cls-3" d="M734.88,659.78c-8.51-10.94-24-88-2.14-127.78-6.63,5.74-7.72,5.51-7.72,5.51l-2.64-1-8.46-3.2L703.8,544.89l-2,7.09-2.31,15.11-2,14.17-1.9,13.62L694,610.05l-.42,16.22v12.05l2.17,5.38,10,5.84,13,3.79Z"/><path class="cls-3" d="M838.6,589.76c-.6-4.69-1.1-30.26,21.68-53.81-1.24-6.19-3.47-14.44-3.47-14.44l3.7-3.18-.62-4.35-4.67-12.32L848.91,490l-9-13.14-6.68-7.64-6.83-9.71-5.76-3,3.07,4.81,7.6,21.77,3.46,26.29L834,532l-1.79,23.53-3.41,21.68,2.41,4.09Z"/></g><g id="Vector"><path class="cls-4" d="M746.55,449.12a64.69,64.69,0,0,1,5.58-4.73V417.12c-7.4-.8-14.62-2.62-23.63-2.62-27.84,0-56.9,27-87,27-41.23,0-45-39-45-51,0-35.88,26.1-34.52,46-43,19.16-8.17,36-18,51-18,28.58,0,27.89,10,56,10a25.46,25.46,0,0,0,2.63-.15V164H199V717.12h553.1V657.38c-27.39-1.75-54.34-7.17-58.23-16.65-1.29-10,.28-52.2,9.36-95.85-18.38,20-46.35,49.83-51.2,55.83-7.17,8.87-24.62,51.58-28.7,78.36C620.75,696.23,608.82,697,604.1,697s-11.33-8.87-11.33-14.54c0-10.57,12.33-29.92,17.19-46.47,3.76-12.8,7.36-40.58,18.12-63.62,9.26-19.82,40.58-53.12,51.1-64.38h0a8.51,8.51,0,0,1-2-4.67C677.14,493.82,726.9,440.48,746.55,449.12Z"/><path class="cls-5" d="M754.11,925.16c-161.76,0-292.9,24.93-292.9,55.69s131.14,55.68,292.9,55.68S1047,1011.6,1047,980.85,915.87,925.16,754.11,925.16ZM595.77,976.85l-15.21-24.57L590.39,939,608,948l.09,12.62,6.39,7h15.65l6,9.22ZM922.26,975H862V955l19-1,41.26,12.31Z"/><polyline class="cls-6" points="542.96 221.42 542.96 375.63 596.98 375.63"/><polyline class="cls-7" points="862 955 862 975.03 922.26 975.03 922.26 966.31 881 954"/><polyline class="cls-7" points="608 948 608.09 960.62 614.48 967.63 630.13 967.63 636.12 976.85 595.77 976.85 580.56 952.28 590.39 939"/><path d="M810.56,653.51s75.52,113,82.1,137.43-9.5,164.38-9.5,164.38H860.88S844.07,854.5,848.82,819.06C832,808.84,759,762.43,753.11,738.51"/><path d="M693.9,640.73,676,802,589.1,938.15l19,12.42L736.68,810.3s66.85-139.55,73.88-156.79C797,658,718,666,693.9,640.73Z"/><rect class="cls-8" x="515.76" y="710.35" width="178.59" height="95.36"/><path class="cls-9" d="M620.11,688.79a27.06,27.06,0,1,1-26.4-2.09"/><path class="cls-10" d="M679.18,508c-10.52,11.26-41.84,44.56-51.1,64.38-10.76,23-14.36,50.82-18.12,63.62-4.86,16.55-17.19,35.9-17.19,46.47,0,5.67,6.61,14.54,11.33,14.54s16.65-.78,19.26-17.94c4.08-26.78,21.53-69.49,28.7-78.36,6-7.39,47-50.85,62-67.74"/><path class="cls-10" d="M816.25,451.29c21.11,13.72,49.22,62.77,43.21,68.37-3.37,3.14-14.07,8.27-25.42,12.34"/><path class="cls-11" d="M803.24,440.75c59.52,32.37,17.22,179.32,7.32,212.76-19,8.59-109.27,5.2-116.66-12.78-1.29-10,.28-52.2,9.36-95.85"/><path class="cls-10" d="M746.07,448.91c8-7.36,17.06-12.25,27.43-13.72"/><path class="cls-12" d="M791.17,429.66a19.61,19.61,0,0,0,3.6.34c16.18,0,29.3-20.54,29.3-45.88a70,70,0,0,0-1.45-14.28"/><path class="cls-12" d="M814.83,365.69a11.83,11.83,0,0,0,3.67-8.19c1.54,2.71,3.75,10.11,4.12,12.34,1.73-2.25,5.12-6,5.12-12.81,0-13.8-10.84-25.53-34.24-25.53-10,0-34,8-44,8-28.11,0-27.42-10-56-10-15,0-31.84,9.83-51,18-19.9,8.48-46,7.12-46,43,0,12,3.77,51,45,51,30.1,0,59.16-27,87-27,11.56,0,20.16,3,30,3,6,0,13-1,15-3v-17s-1.31,1-6,1c-1.67,0-3.34-1.4-3.85-4.19"/><path class="cls-10" d="M747.73,449.72c17.76,10.87-11.69,89.56-21.62,88s-49-24.71-49-34.41S729,438.25,747.73,449.72Z"/><path class="cls-10" d="M828.84,576.86c2.34,4.71,5.22,9.29,7.81,11.37,31.55,25.29,91.05,53.38,95.18,55,2.58,1,6.89,4.36,9.75,6.72a12.24,12.24,0,1,0,12-16.37c-2-.59-5.9-1.79-13.21-5.76s-66-51.88-76.21-57.31c.18-15.26-4.73-41-7.16-49"/><path class="cls-6" d="M412.06,227.53a106.6,106.6,0,1,1-55.95-15.85V318.27Z"/><path class="cls-6" d="M356.11,318.27H462.7"/><path class="cls-6" d="M543,297.92c2.51,0,10.85-24.46,27.68-24.46,14.85,0,7.49,50.9,37.89,50.9,24.32,0,30.83-33.37,40.3-33.37,4.95,0,4.67,3.68,9.62,3.68,12,0,13.71-48.36,30.82-48.36"/><polyline class="cls-6" points="260.87 663.21 322.59 601.49 355.22 634.11 482.67 506.66 506.77 530.77 575.24 462.29 621.89 508.94 705.45 425.38"/><path class="cls-12" d="M773.5,435.19v18.3c0,2,8.6,2.8,12.3,2.8"/><path class="cls-12" d="M773.5,414.5v20.69"/><line class="cls-11" x1="802.92" y1="428.79" x2="802.92" y2="440.5"/></g></svg>