<svg xmlns="http://www.w3.org/2000/svg" xmlns:xlink="http://www.w3.org/1999/xlink" viewBox="0 0 1200 1200"><defs><style>.cls-1,.cls-5,.cls-6,.cls-9{fill:none;}.cls-2{fill:#949494;}.cls-10,.cls-3,.cls-8{fill:#fff;}.cls-4,.cls-7{fill:url(#New_Pattern);}.cls-10,.cls-5,.cls-6,.cls-7,.cls-8,.cls-9{stroke:#000;}.cls-10,.cls-5,.cls-6,.cls-9{stroke-linecap:round;}.cls-5{stroke-linejoin:round;}.cls-10,.cls-5,.cls-6,.cls-7,.cls-8{stroke-width:2.5px;}.cls-10,.cls-6,.cls-7,.cls-8,.cls-9{stroke-miterlimit:10;}.cls-9{stroke-width:9px;}</style><pattern id="New_Pattern" data-name="New Pattern" width="12" height="12" patternUnits="userSpaceOnUse" viewBox="0 0 12 12"><rect class="cls-1" width="12" height="12"/><circle class="cls-2" cx="12" cy="9" r="2"/><circle class="cls-2" cx="6" cy="12" r="2"/><circle class="cls-2" cy="9" r="2"/><circle class="cls-2" cx="12" cy="3" r="2"/><circle class="cls-2" cx="6" cy="6" r="2"/><circle class="cls-2" cy="3" r="2"/><circle class="cls-2" cx="6" r="2"/></pattern></defs><title>Artboard 1</title><g id="Vector"><path class="cls-3" d="M879.44,577v427.66a56.59,56.59,0,0,1-56.59,56.59H490.41a56.59,56.59,0,0,1-56.59-56.59V156.05a56.59,56.59,0,0,1,56.59-56.59H822.85a56.59,56.59,0,0,1,56.59,56.59V577"/><path class="cls-4" d="M680.74,577.3c-6.74,3.7-64.8,100.28-61.27,179.49C628.53,754.21,650,743,650,743l9.78-5.84,6.15-33.84L674,665l15-48,18-35,14-20-13,4Z"/><path class="cls-4" d="M846.5,726.5c0,.53,0,1.23,0,2.1.64,22.3,7.39,154-84,207.9,41,46,108,5,108,5l9-10v-157l-2-4-11-40-14,1Z"/><path d="M797.6,1079.23,724.09,977.48S676,934,656.65,919.32c-.17,15,.81,122.6,5.38,159.91Z"/><path d="M865.8,1062.92h13.64V929C845,940,678,941,656.65,919.32c0,1.68,32.05,88.62,89.71,155.95H865.8Z"/><path class="cls-5" d="M619,659.1c-3.64,4-3.66,11.7-3.66,11.7-4.48-13.43-102.66-257.69-102.66-257.69s-20.33,8.62,3.1,54.78c-7.58,4.48-28.73,21.39-20,48.58,6.58,20.44,21,27.56,30,27.56-1.55,15.35,31.23,171.63,35.48,179.14,10,17.66,29.3,37,40.65,37.55,13,.65,39.58-11.33,57.73-22.8"/><path class="cls-6" d="M720.1,562.15C670.68,571.35,608,629.46,609.64,642c1.53,11.83,32.27,46,55.7,62.26"/><path class="cls-6" d="M751.09,534.61c-106,59.77-108,366-94.44,384.71,13.28,18.4,171.8,23.22,222.79,10.47"/><path class="cls-6" d="M875.55,571.05C861,549.87,841.85,534.46,817,528"/><path class="cls-6" d="M866.82,730.08c2.68,11.49,8.18,33,13.68,53.42"/><path class="cls-6" d="M834.91,704.24c5.16,14.88,10.82,25.18,14.9,26.5,5,1.61,16.37,0,29.63-3.53"/><path class="cls-6" d="M879.44,573.68c-8.77-6.44-17.63-9.6-26.05-7.64"/><path class="cls-6" d="M751.09,534.61V517.43"/><path class="cls-6" d="M817,485.92v71.37c0,5.78-15.53,9.35-31.52,9.85"/><path class="cls-6" d="M816.71,485.92c6,3.29,15.06-.22,20.83-8.28,6.09-8.51,6.21-18.85.27-23.11a9.94,9.94,0,0,0-5.27-1.79"/><path class="cls-6" d="M722,413.38q-1.51,3.21-2.85,6.57c-16.12,40.77-4.59,83.54,25.75,95.53a44.4,44.4,0,0,0,6.23,1.95"/><path class="cls-6" d="M854.54,461.89c12.27-3.67,27.68-12.42,27.68-30,0-11-10.27-23.1-12.22-36.93-1-7,1.18-36.15-7-46-17-20.43-27-16.25-40-21-22.64-8.28-31.31-22-50-22-21.22,0-29.81,11-45,11-17.37,0-31.62-8-56-8-13,0-30,17-30,32,0,35.46,33,30.38,33,39,0,6-2,10.76-2,19,0,4.37,2.32,8,5.6,10.77"/><rect class="cls-7" x="460.67" y="299.83" width="103.47" height="103.47" rx="26.78" ry="26.78"/><circle cx="551.8" cy="308.06" r="21.17"/><path class="cls-8" d="M824.56,69H488.7a81.92,81.92,0,0,0-81.92,81.92v858.84a81.92,81.92,0,0,0,81.92,81.92H824.56a81.92,81.92,0,0,0,81.92-81.92V150.92A81.92,81.92,0,0,0,824.56,69Zm54.88,508v427.66a56.59,56.59,0,0,1-56.59,56.59H490.41a56.59,56.59,0,0,1-56.59-56.59V156.05a56.59,56.59,0,0,1,56.59-56.59H545.5v17.43a15.72,15.72,0,0,0,15.72,15.72H752a15.72,15.72,0,0,0,15.72-15.72V99.46h55.09a56.59,56.59,0,0,1,56.59,56.59Z"/><rect x="836.9" y="196.06" width="200.72" height="79.38" rx="39.69" ry="39.69"/><polygon points="884.08 256.99 849.66 222.52 849.66 291.46 884.08 256.99"/><circle class="cls-3" cx="896.31" cy="237.05" r="10.03"/><circle class="cls-3" cx="937.26" cy="237.05" r="10.03"/><circle class="cls-3" cx="978.22" cy="237.05" r="10.03"/><path class="cls-9" d="M357.51,979.3c2-5.72,3.15-12.81,3.15-21.7,0-133.5-158-97.54-158-208.4"/><path d="M230.45,748.43C239,759.58,210.3,772.37,206.2,767S221.29,736.49,230.45,748.43Z"/><path d="M370.36,552.16c10.42,13.57-20.37,26-25.36,19.47S359.21,537.63,370.36,552.16Z"/><path d="M362,608.37c8.29,15-32,27.07-36,19.9S353.16,592.34,362,608.37Z"/><path d="M364.43,651.07c10.86,13.22-26.57,32.4-31.77,26.07S352.82,636.91,364.43,651.07Z"/><path d="M377.2,699.05c10.86,13.23-26.57,32.41-31.77,26.08S365.59,684.9,377.2,699.05Z"/><path d="M388.35,743.68c9.87,12-22.86,28.4-27.59,22.64S377.78,730.8,388.35,743.68Z"/><path d="M403.4,792.6c9.87,12-22.86,28.39-27.59,22.63S392.83,779.72,403.4,792.6Z"/><path d="M176,739.6c3.57-13.59,31.27,1.25,29.56,7.76S172.19,754.16,176,739.6Z"/><path d="M175.53,787.55c-1.75-13.94,29.48-10.48,30.32-3.8S177.4,802.48,175.53,787.55Z"/><path d="M203.12,831C194,820.26,222,806,226.38,811.14S212.87,842.41,203.12,831Z"/><path d="M237.77,854.45c-5.49-12.94,25.51-18.12,28.13-11.92S243.63,868.3,237.77,854.45Z"/><path d="M284.31,878.88c-5.48-12.94,25.51-18.12,28.14-11.92S290.18,892.73,284.31,878.88Z"/><path d="M319.16,914.33c-1.21-14,29.87-9.33,30.45-2.62S320.45,929.32,319.16,914.33Z"/><path d="M245.49,778.45c11,8.77-13.83,28.07-19.08,23.87S233.73,769.05,245.49,778.45Z"/><path d="M270.42,803.52c12.1,7.15-9.74,29.74-15.54,26.32S257.47,795.87,270.42,803.52Z"/><path d="M316.09,828.12c11.38,8.25-12.5,28.69-17.95,24.73S303.91,819.28,316.09,828.12Z"/><path class="cls-9" d="M354.57,979c13.87-22.9,30.81-57.46,30.81-96.56,0-107.8-60.19-161.8-60.19-238.8,0-14.56,1.32-60.42,24.47-79"/><path class="cls-10" d="M402.75,1131.43H314.31a9.55,9.55,0,0,1-9.08-6.56l-44-133.32A9.57,9.57,0,0,1,270.35,979H447.12a9.57,9.57,0,0,1,9.08,12.59l-44.38,133.31A9.56,9.56,0,0,1,402.75,1131.43Z"/><path class="cls-4" d="M395.53,979.3c2.47,3.7,21.15,108.57-74.69,152.13,26.32-.86,33.16.57,33.16.57h50l8-5,19-57,13.54-42L457,989l-3-7.11L448,978Z"/><path d="M417.61,848.65c5.18,14.68-31.18,18.9-33.65,11.87S412.07,832.94,417.61,848.65Z"/><path d="M358.19,870.35c11.54-10.43,29.45,21.48,23.92,26.48S345.83,881.52,358.19,870.35Z"/><path d="M348.89,830.49c7.65-13.55,34.73,11.06,31.07,17.55S340.7,845,348.89,830.49Z"/><path d="M340.19,783.29c7.65-13.55,34.74,11.06,31.07,17.54S332,797.79,340.19,783.29Z"/><path d="M324.67,745.75c5-14.75,36.2,4.35,33.81,11.41S319.34,761.53,324.67,745.75Z"/><path d="M302.74,694.05c7.28-13.76,35,10.1,31.55,16.68S295,708.77,302.74,694.05Z"/><path d="M292.39,636.43c8.51-13,33.95,13.28,29.87,19.52S283.28,650.37,292.39,636.43Z"/><path d="M297.48,586.84c8.51-13,33.95,13.28,29.88,19.52S288.37,600.78,297.48,586.84Z"/><path d="M417.61,899.73c5.18,14.67-31.18,18.89-33.65,11.86S412.07,884,417.61,899.73Z"/><path class="cls-6" d="M740,425c0,5-1,21-7,25"/><path class="cls-6" d="M736.5,476.5c10,0,19-6,19-10"/><ellipse cx="762" cy="427.5" rx="3.5" ry="6"/><path class="cls-6" d="M402.75,1131.43H314.31a9.55,9.55,0,0,1-9.08-6.56l-44-133.32A9.57,9.57,0,0,1,270.35,979H447.12a9.57,9.57,0,0,1,9.08,12.59l-44.38,133.31A9.56,9.56,0,0,1,402.75,1131.43Z"/></g></svg>