<svg xmlns="http://www.w3.org/2000/svg" xmlns:xlink="http://www.w3.org/1999/xlink" viewBox="0 0 1200 1200"><defs><style>.cls-1,.cls-4,.cls-5,.cls-6,.cls-7,.cls-9{fill:none;}.cls-2{fill:#949494;}.cls-3{fill:url(#New_Pattern);}.cls-10,.cls-4,.cls-5,.cls-6,.cls-7,.cls-9{stroke:#000;}.cls-4,.cls-6{stroke-linejoin:round;}.cls-10,.cls-4,.cls-6,.cls-7{stroke-width:2.5px;}.cls-5,.cls-6,.cls-9{stroke-linecap:round;}.cls-10,.cls-5,.cls-7,.cls-9{stroke-miterlimit:10;}.cls-5{stroke-width:8px;}.cls-8{fill:#de8e68;}.cls-9{stroke-width:9px;}.cls-10{fill:#fff;}.cls-11{fill:#e8e8e8;opacity:0.5;}</style><pattern id="New_Pattern" data-name="New Pattern" width="12" height="12" patternUnits="userSpaceOnUse" viewBox="0 0 12 12"><rect class="cls-1" width="12" height="12"/><circle class="cls-2" cx="12" cy="9" r="2"/><circle class="cls-2" cx="6" cy="12" r="2"/><circle class="cls-2" cy="9" r="2"/><circle class="cls-2" cx="12" cy="3" r="2"/><circle class="cls-2" cx="6" cy="6" r="2"/><circle class="cls-2" cy="3" r="2"/><circle class="cls-2" cx="6" r="2"/></pattern></defs><title>Artboard 1</title><g id="Shadows"><path class="cls-3" d="M401.51,428.06c0,9.29-18.19,153.88,74,208-31.46,5.86-51.69,5.75-51.69,5.75l-9.29-1.06-8.66-12.1-42.93-60.41-5.36-7.65-1.07-37.16V511.8l6-13.23L378,456.47l9.19-2.18,5.56-8.7Z"/><path class="cls-3" d="M572.31,367.37c5.26,11.09,32.58,106.3,8.46,173.84-5.75-4.64-16-14.51-16-14.51l-14.49-16-.1-6.29-1.35-50.94L544.63,418l-7.93-37.08-6.4-15.45-12.89-23.95-4.54-5.7L527,338.66l23,11.5Z"/></g><g id="Vector"><path class="cls-4" d="M516.58,619.26l-12.1,5.4-25.84,7-28,6.74-35.1,2.31,5.28,3.84c9.92,13.86,3,9.18,3,9.18s-4.88,23-6.89,31c0,0-24-18.82-51.46-43.82L244.85,672.36V850.09l158.83,88.16,264-70L671,687.76Z"/><line class="cls-5" x1="725.27" y1="436.31" x2="757.11" y2="437.22"/><line class="cls-5" x1="647.43" y1="434.41" x2="675.24" y2="435.14"/><path d="M537.36,604.65c5-5.7,138.27,49.4,157.26,75.88S581.63,907,527.92,946.85c-6-4.11-20.54-14.53-20.54-14.53s45.18-138.7,86.25-185.46c-10.42-2.84-44.23-11.69-44.23-11.69l-37.07-116C518.22,616.72,530.8,612.12,537.36,604.65Z"/><path class="cls-6" d="M550.28,510.09c14.33,17.87,35.55,39.75,46.33,37.28,19.22-4.19,79-64,94.56-80.54,10.47,2.85,22.6-3.7,28.28-15.83,6.23-13.31,2.33-28.28-8.71-33.45s-25,1.43-31.27,14.73a29.44,29.44,0,0,0-2,20.17c-15.2,7.25-59.65,28.47-68.61,32.61-4.33-38.22-11.51-57.22-19.15-67.8"/><path class="cls-6" d="M512.87,335.77c35.76,1.8,86.59,53.93,85.13,65.09-1.34,10.19-25.75,43.63-49.17,52.62"/><path class="cls-6" d="M414.92,641.18c47.79-1.8,111.15-20.81,122.44-36.53,11.74-16.83,40.2-265.11-59.36-292.76"/><path class="cls-6" d="M356.5,511.85c-.17,17.32.39,34,1.4,49.22"/><path class="cls-6" d="M435.07,313.06c-16.54,5.41-29.84,16.52-40.46,31.49"/><path class="cls-6" d="M313,435.27c-13.19,32.42-32.54,92-25.52,112.66,16.36,48,129.41,136.76,129.41,136.76,2-8,6.89-31,6.89-31s-77.2-107.34-81.22-115.38c5.65-8.74,28.34-52.92,34.87-82.26"/><path class="cls-6" d="M460.54,337.15c-11.89.6-25.47-1.87-25.47-7.09V270"/><path class="cls-6" d="M478,304.11v7.78"/><path class="cls-6" d="M478,304.12c20.63-3.12,36.36-29.14,35.77-60.47A88.42,88.42,0,0,0,512,227.42"/><path class="cls-6" d="M432.77,247.1c-.3,0-.6,0-.91,0a11.68,11.68,0,1,0,0,23.36,11.13,11.13,0,0,0,2.47-.27"/><path class="cls-7" d="M523,223.48c13-1.8,17.9-9.35,17.9-14.6,0-9-8-12.33-8-18,0-10,14-8.79,14-27,0-14.4-11-21-20-21-16.24,0-25.32,13-40,13-15.77,0-19.47-9-36-9-31.94,0-28.67,32.9-35.26,43.26-8.29,13-13.74,26.32-13.74,35.74,0,11.77,4.93,19.05,10.8,23.5"/><line class="cls-8" x1="525.58" y1="304.14" x2="531.38" y2="305.3"/><path class="cls-6" d="M392.93,445.27c-2.59,5.32-5.15,8.82-7.28,9.64-12.27,4.75-77.18-4.75-79.16-33.24s55.69-93.34,81.53-81.54a24.37,24.37,0,0,1,6.11,4"/><path class="cls-6" d="M394.13,344.11a28.53,28.53,0,0,1,5.54,6.79"/><polygon class="cls-7" points="667.67 1002.29 692.46 991.9 743.95 991.9 747.25 1000.4 678.06 1027.56 667.67 1002.29"/><polygon class="cls-7" points="507.71 931.86 529.28 947.9 555.52 992.19 549.89 999.37 491.26 953.68 507.71 931.86"/><path d="M1048.55,467.19c5,16.38-36.95,19.77-39.33,11.93S1043.23,449.67,1048.55,467.19Z"/><path d="M1042,509.45c7.84,15.21-32.78,26.11-36.53,18.83S1033.56,493.17,1042,509.45Z"/><path d="M1044.37,559.05c7.84,15.21-32.77,26.11-36.53,18.83S1036,542.77,1044.37,559.05Z"/><path d="M1045.92,605c7.13,13.83-28.31,23-31.72,16.35S1038.29,590.21,1045.92,605Z"/><path d="M1050.38,656c7.13,13.83-28.31,23-31.72,16.35S1042.74,641.2,1050.38,656Z"/><path class="cls-9" d="M940.28,852.15c1.21-5.61,59.78-47.41,73.65-112.08,22.6-105.41-24.94-170.83-8.8-246.13,3-14.23,14-58.79,40.48-72.05"/><path d="M989.87,722.55c13.48-7.78,24.3,27.18,17.84,30.91S975.44,730.88,989.87,722.55Z"/><path d="M989.13,681.63c10.32-11.65,31.65,18.09,26.71,23.67S978.08,694.09,989.13,681.63Z"/><path d="M990.52,633.65c10.32-11.65,31.65,18.09,26.71,23.67S979.47,646.12,990.52,633.65Z"/><path d="M983.22,593.69c8-13.37,34.48,11.85,30.67,18.25S974.7,608,983.22,593.69Z"/><path d="M972.62,538.54c10-11.92,32.13,17.22,27.34,22.93S961.91,551.3,972.62,538.54Z"/><path d="M974.57,480c11-10.95,30.41,20.1,25.12,25.35S962.74,491.76,974.57,480Z"/><path d="M1010,405.22c11-11,30.41,20.1,25.12,25.35S998.14,416.94,1010,405.22Z"/><path d="M939.11,676.68c-2.94-7.84-5-29.25-5-39.66,0-69.91-41.51-83-62.74-83-41.32,0-64.63,38.21-64.63,69.55,0,27.72,11.76,52.36,26.18,73.18a22.27,22.27,0,1,1,27.45,33.89c11.91,13.28,21.76,23.59,24.21,30.49,8.33,23.06,6.76,33.81,9.43,45.28,6.75,29,23.17,41.8,37.16,40.58,32.44-2.83,45.27-30.34,45.27-101.43C976.49,725.42,950.27,706.4,939.11,676.68Z"/><path class="cls-10" d="M992.18,980.07H903.75a9.57,9.57,0,0,1-9.09-6.56L850.71,840.19a9.56,9.56,0,0,1,9.08-12.56h176.77a9.57,9.57,0,0,1,9.08,12.59l-44.38,133.31A9.56,9.56,0,0,1,992.18,980.07Z"/><path d="M512.33,619.16c-23,11.83-65.63,19.1-97.81,21.6l9.29,12.94s-4.88,23-6.89,31c0,0-15.21-11.94-35.28-29.42C408.13,727.2,522,817.16,529.42,821.59c4.33,12.61,138.79,181.76,138.79,181.76l26.41-11Z"/><polygon class="cls-11" points="861.5 600.35 670.97 644.7 670.97 212.8 861.5 162.75 861.5 600.35"/><path class="cls-6" d="M495.89,237.89c-1.41,6.07.38,14.8,4.83,19.08"/><path class="cls-6" d="M474.44,258.74c-.64,4.47,2.75,8.4,7.2,9.47"/><ellipse cx="481.56" cy="242.29" rx="2.22" ry="3.27"/></g></svg>