<svg id="Vector" xmlns="http://www.w3.org/2000/svg" viewBox="0 0 1200 1200"><defs><style>.cls-1{fill:#dfdfdf;}.cls-2,.cls-3{fill:none;stroke:#000;stroke-width:2.5px;}.cls-2{stroke-linecap:round;stroke-linejoin:round;}.cls-3{stroke-miterlimit:10;}.cls-4{fill:#f2f2f2;}.cls-5{font-size:108.2px;font-family:SofiaProBlack, Sofia Pro;}.cls-5,.cls-6{fill:#fff;}</style></defs><title>Artboard 1</title><path d="M509.53,555.65c-.51,0-.83,15.86-1,41.55.77,8.26,1.31,13.93,1.31,14.59a.51.51,0,0,1-.22.35,34.45,34.45,0,0,1,3.72,15.93,33.43,33.43,0,0,1-5,18.09c-.17,129,1.19,350.37,1.19,350.37h30.74L626,594.19C592.82,587.84,538.36,567.79,509.53,555.65Z"/><path class="cls-1" d="M503.65,519.79c-1.75,13.53,6.18,89.48,6.18,92a.51.51,0,0,1-.22.35,34.45,34.45,0,0,1,3.72,15.93,35.7,35.7,0,0,1-2.27,12.71l31.8-2.38L533.3,510.5l-28.24,2.11C504.34,515.74,503.85,518.21,503.65,519.79Z"/><path class="cls-1" d="M475.12,628.07a34.15,34.15,0,0,1,4.05-16.53c-.3-5-9.25-34.93-12.61-87.49q-.27-4.23-.38-8.54l-29.45,2.21,9.56,127.9,32.16-2.4A34.8,34.8,0,0,1,475.12,628.07Z"/><path d="M672.4,597.52c.67,13.19,31.85,395.87,31.85,395.87H672.4L589.74,706s21.53-115,23-114.73C619.76,593.12,658.72,600,672.4,597.52Z"/><path class="cls-2" d="M701.49,380c9.94,7.66,26.76,22.54,35,33.29,8.23-6.1,101.83-83.84,103.66-88.11,3.65-2.13,11.58,9.76,0,19.51,7.92-.3,54.57-1.52,54.57,0s10.06,5.8-58.54,16.77c-9.14,11-91.46,107.92-104.87,107.92-9.16,0-37.5-24.71-55.3-43.4"/><path class="cls-2" d="M672.69,408.08c13.61-8.56,28.09-23.51,32.43-35.21,2.57-6.94-39.79-39-66-43.57"/><path class="cls-2" d="M505.32,553.13c23.1,17.88,155.83,56,167.08,44.39s31.39-261.37-67.2-291.46"/><path class="cls-2" d="M569.17,304.53c-19.91,3.8-34.92,15-46.15,30.63"/><path class="cls-2" d="M587.18,329.56c9,0,18-1.7,18-5V283.66"/><path class="cls-2" d="M569.17,284.25v20.28"/><ellipse class="cls-3" cx="586.83" cy="222.18" rx="41.01" ry="68.75"/><path d="M580,138c-20.65,0-48.12,10-68,10-17.95,0-50.74-13-68-13-11,0-63,5.12-63,47,0,18.9,20,37,24,42s11.33,33,30,33c26.08,0,44.09-19,68-19,16.47,0,20.76,4,29,4,6,0,15-2.82,15-3,0-3.06-.61-29,3-33.21,5-6,68.65,2.93,68.65-18.22,4.45,4,8.69,21,8.69,24.47C630.22,209,641,196,641,182,641,169.34,632,138,580,138Z"/><path class="cls-4" d="M509.83,611.79a.51.51,0,0,1-.22.35,34.45,34.45,0,0,1,3.72,15.93c0,10-3.88,18.69-9.63,23.32l49.21-3.68-9.56-127.9-39.91,3C502.8,542,509.83,609.42,509.83,611.79Z"/><path class="cls-4" d="M475.12,628.07a34.15,34.15,0,0,1,4.05-16.53c-.3-5-9.08-34.37-12.51-86L446.78,527l9.56,127.9,30.21-2.26C479.82,648.51,475.12,639.06,475.12,628.07Z"/><path class="cls-2" d="M479.56,410.84c-5.28,19.71-15.8,69.48-13,113.21,3.36,52.56,12.31,82.47,12.61,87.49a34.15,34.15,0,0,0-4.05,16.53c0,14.83,8.55,26.86,19.1,26.86s19.11-12,19.11-26.86a34.45,34.45,0,0,0-3.72-15.93.51.51,0,0,0,.22-.35c0-2.52-7.93-78.47-6.18-92,1.48-11.52,18.33-69.91,22.88-92.89"/><path class="cls-2" d="M537.7,350.15c-2.22-7.29-5.66-12.61-10.66-14.21-27.29-8.74-59.62,53.61-56.55,64.35,2.9,10.15,24.71,20.89,43.55,24.49"/><circle class="cls-1" cx="347.99" cy="365.13" r="68.3"/><polygon class="cls-1" points="445.14 315.48 362.95 332.05 383.11 371.9 445.14 315.48"/><polygon class="cls-1" points="715.29 211.46 796.1 233.79 796.1 189.13 715.29 211.46"/><text class="cls-5" transform="translate(325.59 402.02)">?</text><rect class="cls-1" x="746.07" y="153.43" width="155.95" height="108.6"/><circle class="cls-6" cx="788.8" cy="207.72" r="7.5"/><circle class="cls-6" cx="824.04" cy="207.72" r="7.5"/><circle class="cls-6" cx="859.29" cy="207.72" r="7.5"/><path class="cls-2" d="M528.17,530.54a6.17,6.17,0,0,1-5.68,6.6h0a6.17,6.17,0,0,1-6.59-5.68l-1.52-20.32a6.18,6.18,0,0,1,5.68-6.6h0a6.18,6.18,0,0,1,6.59,5.68l.81,10.77"/><polyline class="cls-2" points="537.54 996.53 537.54 1034.55 484.8 1062.34 515.48 1028.49 515.48 994.55"/><polyline class="cls-2" points="675.43 993.39 675.43 1034.55 748.03 1034.55 699.63 1010.88 699.63 991.35"/></svg>