<svg xmlns="http://www.w3.org/2000/svg" xmlns:xlink="http://www.w3.org/1999/xlink" viewBox="0 0 1200 1200"><defs><style>.cls-1,.cls-6,.cls-7,.cls-8{fill:none;}.cls-2{fill:#949494;}.cls-3{fill:url(#New_Pattern);}.cls-4{fill:#f3f3f3;}.cls-5{fill:#d0cbcb;}.cls-6{stroke:#dfdfdf;stroke-width:6px;stroke-dasharray:18;}.cls-6,.cls-7{stroke-miterlimit:10;}.cls-7,.cls-8{stroke:#000;stroke-width:2.5px;}.cls-8{stroke-linecap:round;stroke-linejoin:round;}.cls-9{fill:#dfdfdf;}</style><pattern id="New_Pattern" data-name="New Pattern" width="12" height="12" patternUnits="userSpaceOnUse" viewBox="0 0 12 12"><rect class="cls-1" width="12" height="12"/><circle class="cls-2" cx="12" cy="9" r="2"/><circle class="cls-2" cx="6" cy="12" r="2"/><circle class="cls-2" cy="9" r="2"/><circle class="cls-2" cx="12" cy="3" r="2"/><circle class="cls-2" cx="6" cy="6" r="2"/><circle class="cls-2" cy="3" r="2"/><circle class="cls-2" cx="6" r="2"/></pattern></defs><title>Artboard 1</title><g id="Shadows"><path class="cls-3" d="M798.07,517.94c1.7,0,23.29-2,34.47-10.87-18.13,13.7-34.47,27.24-34.47,41.89Z"/><path class="cls-3" d="M815.05,636.7c-6.91,10.14-36.7,157.81-10,191.39-16.47,2.49-37.13-3.84-37.13-3.84l-4.28-4.38-9-28.88-6.52-33.37-2.79-15.71L743,713.69,741.75,684l25.68-11,5.23,4,5.55.92,4.49-2,10.57-10Z"/></g><g id="Vector"><path class="cls-4" d="M590,562c-23.28,0-37.88-9.61-37.88-22s14-14.59,29.75-14.59c24.88-.69,39.73,28.92,71.72,67.64V214.94H129.23V836.05h524.4V679.82C623,645,593,573.81,590,562Z"/><path class="cls-5" d="M410,603.92,556.6,517.31l-10.71-40.57H419.14v-3.23c0-.06,0-.11,0-.17v-8.85a3.39,3.39,0,0,0-3.39-3.39H383.32a3.39,3.39,0,0,0-3.39,3.39v12.25l20.88,127.18Z"/><polyline class="cls-6" points="129.23 485.99 299.48 485.99 299.48 612.18 129.23 612.18"/><path d="M766,823.22c-15.32,0-144.73,163.51-144.73,185.51H762.45s56-41.92,64.21-56.84S766,823.22,766,823.22Z"/><path class="cls-7" d="M755.69,591.64c8.73-21.58,22.19-38.5,42.12-46.82"/><path class="cls-7" d="M844.6,544.17C906.26,578.4,925.37,778.1,916.77,791c-9.45,14.18-137.06,43-150.81,32.23-6.7-5.24-23.63-71.87-24.21-139.27"/><path class="cls-8" d="M830.23,607.12c-8.76,26.46-43.61,71-53.14,70.68-12.15-.41-54.69-52.67-50.64-67.66,2-7.5,23.45-18,46.66-23.86"/><path class="cls-7" d="M839.27,485.48c.24,10.81,1.64,52.69,7.69,66.26,0,4.45-48.89,7.36-48.89-1.11V517.94"/><path class="cls-8" d="M806.92,516.82a26.89,26.89,0,0,1-7.69,1.12c-22.09,0-40-27.08-40-60.5a82.69,82.69,0,0,1,7.51-35.29"/><path class="cls-8" d="M777.74,433.18a40.71,40.71,0,0,1-10.94-11c-1.83,2.75-6.14,16.49-7.28,27.95-3-3-7.72-7.95-7.72-23.95,0-29,29-46,54-46,40,0,63,41,63,59,0,23.22-14.35,42.45-29.53,46.3"/><path class="cls-8" d="M831.58,456.11c-2.74-1.88-9-4.41-15.67-6.89"/><path class="cls-8" d="M821.81,460.9A10.76,10.76,0,1,1,830.47,478"/><path class="cls-7" d="M843.32,394.1c3.38-25.28,18.35-63.27,50.45-63.27,6.46,0,57.65,17.24,71.12,17.24s40.14-3.23,48.77-3.23c16.94,0,57.11,19.5,57.11,53.61,0,23.77-18.4,36.94-39.06,47.42-8.05,4.07-15.19,21.41-43.92,21.41-46.32,0-73.11-65.06-114.77-65.06-3.61,0-13.22,1.19-17.88,4.2"/><rect class="cls-9" x="129.23" y="214.94" width="524.4" height="51.76"/><path class="cls-8" d="M763.68,417.31c.45.74,4.36,6.76,5.54,8.12"/><path d="M916.77,791c-9.45,14.18-137.06,43-150.81,32.23,5.77,57.62,70,185.51,70,185.51h116.3S918.6,803,916.77,791Z"/><path class="cls-9" d="M552.16,540c0-11.45,12-14.2,26.28-14.55V498a12,12,0,0,0-12-12H412.26a12,12,0,0,0-12,12V600.15a12,12,0,0,0,12,12H566.4a12,12,0,0,0,12-12v-39C562,558.5,552.16,550.21,552.16,540Z"/><path class="cls-8" d="M727.33,618.56a219,219,0,0,0-34.57,15.89c-62.26-56.72-77.6-109.93-110.85-109-15.71,0-29.75,2.21-29.75,14.59s14.6,22,37.88,22c3.88,15.7,56,136.9,93.3,136.9,18.74,0,62.14-15.14,84.61-25.93"/></g></svg>