<svg xmlns="http://www.w3.org/2000/svg" xmlns:xlink="http://www.w3.org/1999/xlink" viewBox="0 0 1200 1200"><defs><style>.cls-1,.cls-4{fill:none;}.cls-2{fill:#949494;}.cls-3{fill:url(#New_Pattern);}.cls-4{stroke:#000;stroke-linecap:round;stroke-linejoin:round;stroke-width:2.5px;}.cls-5{fill:#dfdfdf;}.cls-6{fill:#f3f3f3;}.cls-7{fill:#d0d0d0;}.cls-8{fill:#dedede;}</style><pattern id="New_Pattern" data-name="New Pattern" width="12" height="12" patternUnits="userSpaceOnUse" viewBox="0 0 12 12"><rect class="cls-1" width="12" height="12"/><circle class="cls-2" cx="12" cy="9" r="2"/><circle class="cls-2" cx="6" cy="12" r="2"/><circle class="cls-2" cy="9" r="2"/><circle class="cls-2" cx="12" cy="3" r="2"/><circle class="cls-2" cx="6" cy="6" r="2"/><circle class="cls-2" cy="3" r="2"/><circle class="cls-2" cx="6" r="2"/></pattern></defs><title>Artboard 1</title><g id="Shadows"><path class="cls-3" d="M907.52,567.65c-.48-5.53,5.57-40.4,16.09-46.68a51.62,51.62,0,0,1-7.14,3.66l-5.23-4.83-3.31-2.09c0-1.34.16-4,.16-4L907,510.18l-8.39-9.25-15.35-11.39-12.77-7.64-11.12-3.63,2.78,5.55,9.08,18.24,6.34,22.52,4.11,26.25,3.56-1,8.65,10,9.31,7.49Z"/><path class="cls-3" d="M766.88,546.08h6.65l5.14,4.17c-2-26-.93-46.55-.19-50.36L774,508.25l-18,23.4-9.9,8.75-.45,5Z"/><path class="cls-3" d="M780.69,569.9l-1.12,2.67-3.73,4.73-6.14,1h-4.13l-4.4-3.74-3.66-8.35-14,3.13v.06l-.88,36,1,43.34,4.43,35.62,7.33,6.08s63.56.72,92.1-8C803.79,672.38,786.81,617.12,780.69,569.9Z"/></g><g id="Vector"><path class="cls-4" d="M907.52,516.89a66.46,66.46,0,0,1,9.25,8.07c3.19-1.52,48.75-29.89,70-39.53"/><path class="cls-4" d="M982,519.34c-24.49,19-65,48.33-73.92,48.33-7.76,0-17-10-23.28-18.5"/><path class="cls-5" d="M915.22,991.24l-.6,4.27a20.09,20.09,0,0,0,3.16,13.94Z"/><path class="cls-5" d="M1036.5,349.28l-9.84-1.4-20-2.83-2.83,20L921,950.47l14.16,9.31-14.25,53.36a20,20,0,0,0,10.87,5.17l9.85,1.4a20.18,20.18,0,0,0,22.8-17.16l5.22-36.87,84-593.6,2.83-20Z"/><polygon class="cls-6" points="925.28 953.29 935.15 959.78 931.77 972.44 967.96 977.57 970.49 959.69 925.28 953.29"/><rect class="cls-7" x="211.6" y="325.89" width="467.4" height="701.58" rx="64.48" ry="64.48" transform="translate(-115.81 92.43) rotate(-10.49)"/><rect class="cls-7" x="212.72" y="338.05" width="333.83" height="701.58" transform="translate(-119.12 80.67) rotate(-10.49)"/><rect class="cls-8" x="184.61" y="327.21" width="367.75" height="701.58" transform="translate(-159.83 115.55) rotate(-14.68)"/><path class="cls-8" d="M682.82,571.67c-6.65-2.24-11.66-6.37-11.66-13.87,0-3.21,1.82-7.58,4.75-12.51L616.12,317.13a64.48,64.48,0,0,0-78.71-46L164.07,368.93a64.48,64.48,0,0,0-46,78.72l145.15,553.93a64.47,64.47,0,0,0,78.71,46l373.34-97.83a64.47,64.47,0,0,0,46-78.71Z"/><rect class="cls-6" x="557.32" y="271.31" width="49" height="701.58" transform="matrix(0.97, -0.25, 0.25, 0.97, -138.69, 167.8)"/><rect class="cls-6" x="192.37" y="401.62" width="416.01" height="185" transform="translate(-112.17 117.63) rotate(-14.68)"/><rect class="cls-6" x="192.37" y="401.62" width="416.01" height="185" transform="translate(-112.17 117.63) rotate(-14.68)"/><rect class="cls-6" x="290.31" y="903.27" width="159.46" height="97.65" transform="translate(-229.25 124.89) rotate(-14.68)"/><polygon class="cls-6" points="1040.88 282.86 1006.68 345.05 1056.48 352.1 1040.88 282.86"/><polygon class="cls-5" points="1046.02 305.68 1040.88 282.86 1029.61 303.35 1046.02 305.68"/><path class="cls-4" d="M858.43,478.13c19.29,2.62,48.6,27.9,49.6,34.39,1.09,7.06-12.77,31.39-26.6,38.79"/><path class="cls-4" d="M772,471c7.23-8.51,16.13-14.48,27.06-16.93"/><path class="cls-4" d="M745.78,545.35q.36-2.79.77-5.57"/><path class="cls-4" d="M821.58,453.72c83.21,14.6,59.29,197.18,57.88,212.44C872.1,678.81,755.24,692.7,748.2,685c-1.4-10.45-7.87-63.07-4.65-115.58"/><path class="cls-4" d="M711.47,503.74c-13.67,12.4-40.31,41.77-40.31,54.06,0,14.25,18.09,16.36,31.18,16.36,16.21,0,41.45-4.08,55-8,1.32,7.36,6.39,12.85,12.45,12.85,7.07,0,12.8-7.45,12.8-16.64s-5.73-16.65-12.8-16.65a9.92,9.92,0,0,0-3.71.72,1.31,1.31,0,0,0-1-.53c-3.27,0-34.25-1.15-37.52-.58,2.19-1.88,5.38-5,8.38-8"/><path class="cls-4" d="M746.58,539.55a7.22,7.22,0,0,1-3.31,1.35c-7.93,0-35.58-28.77-32.57-46.64s59.08-30.45,68.43-20.11c14.47,16-19.83,57.38-32.55,65.4"/><path class="cls-4" d="M797.76,424.26s1.59,36.14,1.62,41.25c0,3.12,11.17,4.63,19.83,3.74"/><path class="cls-4" d="M818.48,443.09a21.51,21.51,0,0,0,3.94.21c16.45-.65,29.06-19.71,28.16-42.58a52.37,52.37,0,0,0-7.33-25.28"/><path class="cls-4" d="M794,396.12a9.59,9.59,0,1,0,6.27,17.27"/><path class="cls-4" d="M782.21,401.64c-5.18-3.62-6.51-29.44,6.06-38.1,12.25-8.45,49.89-14.84,65.84-26.57"/><path class="cls-4" d="M843.89,360.49c3.67-2.67,15-18.2,16.81-22.41"/><path class="cls-4" d="M855.12,366.48c4-4.31,6.77-11.7,8-16.72"/><ellipse cx="827.58" cy="396.73" rx="2.61" ry="2.27" transform="translate(314.73 1157.82) rotate(-81.64)"/><path class="cls-4" d="M837.32,393.56c.1,2.82,1.77,10.58,4.94,17.38"/><path class="cls-4" d="M831.86,422.57a7.13,7.13,0,0,1-5.12-4.5"/><path d="M796.06,685.26h0l42.66,313.07h27.7l13-332.17C875.07,673.7,831.8,681.68,796.06,685.26Z"/><path d="M796.06,821.65c5.87-4.5,28.92-60.91,29.51-65.76.47-3.89-10.79-52.95-15.27-72.24-29.84,3.76-58.71,5.06-62.1,1.34,0,0-15.85,142.2-10.31,158.12s162,119.76,162,119.76l14.54-19.38Z"/><polyline class="cls-4" points="911.85 944.45 935.15 959.78 919.2 1019.53 911.45 964.38 901.84 958.21"/><polyline class="cls-4" points="864.31 998.33 864.31 1027.76 806.72 1027.76 846.87 1008.39 846.87 997.51"/></g></svg>