<svg xmlns="http://www.w3.org/2000/svg" xmlns:xlink="http://www.w3.org/1999/xlink" viewBox="0 0 1200 1200"><defs><style>.cls-1,.cls-10,.cls-13,.cls-14,.cls-15,.cls-6,.cls-7,.cls-9{fill:none;}.cls-2{fill:#949494;}.cls-3{fill:url(#New_Pattern);}.cls-4{fill:#f3f3f3;}.cls-5{fill:#dfdfdf;}.cls-6,.cls-7{stroke:#f3f3f3;}.cls-10,.cls-13,.cls-15,.cls-6,.cls-7,.cls-9{stroke-linecap:round;stroke-linejoin:round;}.cls-14,.cls-15,.cls-6{stroke-width:4px;}.cls-13,.cls-7{stroke-width:2px;}.cls-8{fill:#d0d0d0;}.cls-9{stroke:#000;stroke-width:2.5px;}.cls-10,.cls-13{stroke:#d0d0d0;}.cls-10{stroke-width:3px;}.cls-11{fill:#dedede;}.cls-12{fill:#fff;}.cls-14,.cls-15{stroke:#dfdfdf;}.cls-14{stroke-miterlimit:10;}</style><pattern id="New_Pattern" data-name="New Pattern" width="12" height="12" patternUnits="userSpaceOnUse" viewBox="0 0 12 12"><rect class="cls-1" width="12" height="12"/><circle class="cls-2" cx="12" cy="9" r="2"/><circle class="cls-2" cx="6" cy="12" r="2"/><circle class="cls-2" cy="9" r="2"/><circle class="cls-2" cx="12" cy="3" r="2"/><circle class="cls-2" cx="6" cy="6" r="2"/><circle class="cls-2" cy="3" r="2"/><circle class="cls-2" cx="6" r="2"/></pattern></defs><title>Artboard 1</title><g id="Shadows"><path class="cls-3" d="M542.67,711.08c0-5.87.09-39.82,6.92-56.59,4-5.18,7-8.66,7-8.66l-7-8.44,1.06-7.39,14.06-19.28L584,591.07l14.17-7.14,12.14.77,2.46,1.15-11.35,14.48-8.17,19.4-5,15-4,11.48-3,17-2.52,11.07-2.22,16.1-12.32,9.79-15.43,12.25Z"/><path class="cls-3" d="M683.5,660.19c0,5.29-24.39,109.34-68.73,133.39,62.89,7.25,77.38,1.4,77.38,1.4l13-6.34,5.47-17.51,1.82-32-.25-26.06L710.36,678l-7.7-5.63-8.48-.15-2.48-.69-4.83-5Z"/></g><g id="Vector"><polygon class="cls-4" points="88.17 374.3 88.17 615.34 443.21 615.34 438.16 608.84 440.04 594.19 445.1 584.29 436.42 576.79 427.9 569.54 423.67 560.51 427.9 554.65 470.25 592.2 495.62 615.34 511.33 615.34 511.33 374.3 88.17 374.3"/><path class="cls-4" d="M805.83,528.44V680.68c19.7,6.41,47.06,14.69,72.44,18.77a28,28,0,0,1,12.44-2.8c12.31,0,22.29,7.41,22.29,16.54s-10,16.53-22.3,16.53a26.49,26.49,0,0,1-16-5c-8.62-1.08-41.29-5.19-68.89-9V987.65h238.44V528.44Z"/><path class="cls-5" d="M874.72,724.71c-6.61-.83-27.37-3.44-49.13-6.32v7.09h50.25C875.46,725.23,875.08,725,874.72,724.71Z"/><path class="cls-5" d="M826.53,687.13c16.12,4.78,34.39,9.53,51.74,12.32a28,28,0,0,1,12.44-2.8c12.31,0,22.29,7.41,22.29,16.54,0,4.88-2.85,9.27-7.39,12.29h118.9V687.13Z"/><rect class="cls-5" x="1043.61" y="528.44" width="55.46" height="459.21" transform="translate(2142.69 1516.1) rotate(-180)"/><rect class="cls-5" x="825.59" y="557.5" width="198.93" height="38.35" transform="translate(1850.1 1153.34) rotate(-180)"/><circle class="cls-4" cx="839.88" cy="571.86" r="6.73"/><line class="cls-6" x1="955.82" y1="571.86" x2="852.26" y2="571.86"/><rect class="cls-5" x="825.59" y="622.32" width="198.93" height="38.35" transform="translate(1850.1 1282.98) rotate(-180)"/><circle class="cls-4" cx="839.88" cy="636.68" r="6.73"/><line class="cls-6" x1="955.82" y1="636.68" x2="852.26" y2="636.68"/><line class="cls-6" x1="955.82" y1="701.49" x2="906.42" y2="701.49"/><rect class="cls-5" x="825.59" y="751.95" width="198.93" height="38.35" transform="translate(1850.1 1542.25) rotate(-180)"/><circle class="cls-4" cx="839.88" cy="766.31" r="6.73"/><line class="cls-6" x1="955.82" y1="766.31" x2="852.26" y2="766.31"/><rect class="cls-5" x="825.59" y="816.77" width="198.93" height="38.35" transform="translate(1850.1 1671.89) rotate(-180)"/><circle class="cls-4" cx="839.88" cy="831.13" r="6.73"/><line class="cls-6" x1="955.82" y1="831.13" x2="852.26" y2="831.13"/><line class="cls-7" x1="1086.26" y1="585.08" x2="1056.42" y2="585.08"/><line class="cls-7" x1="1086.26" y1="592.81" x2="1056.42" y2="592.81"/><line class="cls-7" x1="1086.26" y1="637.63" x2="1056.42" y2="637.63"/><line class="cls-7" x1="1086.26" y1="645.35" x2="1056.42" y2="645.35"/><line class="cls-7" x1="1086.26" y1="701.49" x2="1056.42" y2="701.49"/><line class="cls-7" x1="1086.26" y1="709.22" x2="1056.42" y2="709.22"/><line class="cls-7" x1="1086.26" y1="763.28" x2="1056.42" y2="763.28"/><line class="cls-7" x1="1086.26" y1="771" x2="1056.42" y2="771"/><rect class="cls-8" x="117.72" y="409.37" width="239.85" height="174.14" rx="23.65" ry="23.65"/><path class="cls-9" d="M701.76,671.7c16,12.66,53.1,34.75,63.6,37.63,10.95,3,94.73,13.55,109.36,15.38a26.49,26.49,0,0,0,16,5c12.31,0,22.3-7.4,22.3-16.53s-10-16.54-22.29-16.54a28,28,0,0,0-12.44,2.8c-40.93-6.59-87-24.08-97.79-27-8.13-9.53-24.38-22.88-34.94-31.31"/><path class="cls-9" d="M468.76,623c28.26,42.21,65.63,89.08,77.5,89.08,5.08,0,19.31-11.73,30.71-22.79"/><path class="cls-9" d="M556.47,645.72c-4.07,4.95-9.05,11.41-10.77,14.47-6.45-5.61-114.47-104.93-117-104.93a4.57,4.57,0,0,0-4.49,4.21c0,13.12,9.53,13.81,21.4,26.32"/><path class="cls-9" d="M612.34,585.57c-25.06-12.64-63.54,41.11-62.74,50.22.53,6,16.23,19.53,31.36,27.41"/><path class="cls-9" d="M709.62,677.51c5.94,53,1.49,106.38-5,111.6-16.35,13.22-122.47,1-128.36-6.22-5.7-7-9.92-200.57,64-213.9"/><path class="cls-9" d="M660.31,570.21c9,3.08,16.52,9.66,22.85,18.7"/><path class="cls-9" d="M674.51,598a20.22,20.22,0,0,1,7.72-8.57c25-15.11,64.78,40.28,64,49.53s-37.46,36.2-52.81,33.21c-3.14-.61-8-7.38-12.3-16.88"/><path class="cls-9" d="M445.62,585.79A22.24,22.24,0,0,0,468.76,623"/><rect class="cls-4" x="206.62" y="161.01" width="301.9" height="178.99"/><rect class="cls-4" x="82.17" y="159.02" width="106.18" height="178.99"/><path class="cls-10" d="M238.87,314c8.78-10.54,24.36-28.45,52.7-34.54,42.34-9.11,54.59-58.56,74.94-58.56,25.54,0,36.3,14.64,46.84,14.64,21.16,0,43.39-19.62,55-48.6"/><rect class="cls-11" x="97.84" y="187.34" width="74.99" height="6.86"/><rect class="cls-11" x="97.84" y="210.44" width="74.99" height="6.86"/><rect class="cls-11" x="97.84" y="233.54" width="74.99" height="6.86"/><rect class="cls-11" x="97.67" y="256.64" width="74.99" height="6.86"/><rect class="cls-11" x="97.67" y="279.74" width="74.99" height="6.86"/><rect class="cls-11" x="97.67" y="302.84" width="74.99" height="6.86"/><rect class="cls-12" x="135.31" y="432.9" width="101.24" height="6.86"/><rect class="cls-12" x="135.31" y="456" width="101.24" height="6.86"/><rect class="cls-12" x="135.31" y="479.1" width="101.24" height="6.86"/><rect class="cls-12" x="135.09" y="502.2" width="101.24" height="6.86"/><rect class="cls-12" x="135.09" y="525.3" width="101.24" height="6.86"/><rect class="cls-12" x="135.09" y="548.39" width="101.24" height="6.86"/><rect class="cls-12" x="277.48" y="393.84" width="170.13" height="102.6" rx="23.65" ry="23.65"/><circle class="cls-8" cx="358.45" cy="406.97" r="5.72"/><circle class="cls-8" cx="358.45" cy="483.32" r="5.72"/><line class="cls-13" x1="358.45" y1="408.84" x2="358.45" y2="481.7"/><line class="cls-13" x1="372.34" y1="418.39" x2="372.34" y2="460.88"/><line class="cls-13" x1="358.45" y1="483.32" x2="372.34" y2="460.88"/><path class="cls-5" d="M892.28,399.51a40.69,40.69,0,0,1,43.17-67,56.4,56.4,0,0,1,99.15,8.79,40.69,40.69,0,0,1,50.4,58.23Z"/><line class="cls-14" x1="1063.03" y1="396.11" x2="1063.03" y2="533.2"/><path class="cls-15" d="M799.73,472.08c7.14,13.75,23.06,18.81,35.39,18.81,29.78,0,41.15-28.69,41.15-38.39"/><path class="cls-15" d="M797.85,327.2c6.58,12.51,9.84,25.74,9.84,37.3,0,27.38-4.57,46.15-8,62.57"/><path class="cls-15" d="M647.56,309.2c20.16-16.83,42.82-29.34,69.79-29.34,22.16,0,40.15,6.6,54.07,16.67"/><path class="cls-15" d="M539,396.62c21.13,0,40.46-18,61.13-39.87"/><rect class="cls-5" x="607.27" y="315.33" width="29.78" height="29.78"/><circle class="cls-5" cx="784.78" cy="309.61" r="13.08"/><polygon class="cls-5" points="821.07 450.22 791.93 431.24 790.06 465.97 821.07 450.22"/><path class="cls-9" d="M660.31,541.5s-.79,35.4-.71,40.41c0,3.05-10.83,4.77-19.33,4.08"/><path class="cls-9" d="M640.43,560.37a20.59,20.59,0,0,1-3.86.28c-16.11-.28-28.86-18.67-28.47-41.08a51.08,51.08,0,0,1,6.64-24.89"/><path class="cls-9" d="M663.43,513.86a9.39,9.39,0,1,1-5.77,17"/><path class="cls-9" d="M675,519c5-3.65,5.76-28.95-6.74-37.17-12.18-8-45.94-9.51-62.14-29.95"/><path class="cls-9" d="M613.78,480.05c-3.64-2.54-15-17.5-16.93-21.58"/><path class="cls-9" d="M602.92,486.15c-4-4.12-6.87-11.3-8.15-16.19"/><ellipse cx="630.53" cy="515.18" rx="2.22" ry="2.56" transform="translate(-77.17 112.52) rotate(-9.61)"/><path class="cls-9" d="M620.92,512.28c0,2.77-1.5,10.39-4.46,17.13"/><path class="cls-9" d="M626.89,540.57a7,7,0,0,0,4.92-4.52"/><path d="M576.29,782.89V1000H700.05V791.48C674.18,800.66,581.77,789.6,576.29,782.89Z"/><path class="cls-9" d="M765.36,709.33c10.95,3,94.73,13.55,109.36,15.38"/></g></svg>