<svg id="Layer_1" data-name="Layer 1" xmlns="http://www.w3.org/2000/svg" xmlns:xlink="http://www.w3.org/1999/xlink" viewBox="0 0 1200 1200"><defs><style>.cls-1,.cls-6,.cls-7{fill:none;}.cls-2{fill:#949494;}.cls-3{fill:url(#New_Pattern);}.cls-4{fill:#dfdfdf;}.cls-5{opacity:0.62;}.cls-6,.cls-7{stroke:#000;stroke-linecap:round;stroke-linejoin:round;}.cls-6{stroke-width:1.75px;}</style><pattern id="New_Pattern" data-name="New Pattern" width="12" height="12" patternUnits="userSpaceOnUse" viewBox="0 0 12 12"><rect class="cls-1" width="12" height="12"/><circle class="cls-2" cx="12" cy="9" r="2"/><circle class="cls-2" cx="6" cy="12" r="2"/><circle class="cls-2" cy="9" r="2"/><circle class="cls-2" cx="12" cy="3" r="2"/><circle class="cls-2" cx="6" cy="6" r="2"/><circle class="cls-2" cy="3" r="2"/><circle class="cls-2" cx="6" r="2"/></pattern></defs><title>Artboard 1</title><path class="cls-3" d="M336.09,567.63C334.5,573.77,308.75,692,326.27,734c.83-5.44,2-12.13,2-12.13l9.06-14,.61-23.19,2.8-45.76,6.48-34.45,3.68-15.73,7.68-17.54,11.25-19.31-6.56-1.12-11.89,3.74Z"/><path class="cls-3" d="M440.83,611c0,8-6.18,101.91-57.5,125.32,47.94,12.38,90.37-14.47,90.37-14.47l1.78-5.27-.66-37.3-1.21-38-2.69-10.65Z"/><path class="cls-4" d="M320,815c1.5,4,2.87,8.46,2.41,12.84-.89,8.45-3.46,13.69-8.47,16.16-4.22-4-16.77-16.42-17.55-18.64-.19-.55-.34-7.44-.46-17.51l-37-11-15,50.58,88.13,26.17,15-50.59Z"/><path class="cls-4" d="M594.84,363.79a79.41,79.41,0,0,0-41.53,147.15l5.35-10.73-1.87-9.38.11-4.43,2.78-4.36,6.3-6.37,6.48-6.26,5.09-4.5,5.39-3.23,2.34.88.4,2.86-.95,3.18-1.87,3.48L581,474.9l-2.49,3.37-3.44,4h3.85l5.16.7,2.75,1.86,2,4,1.72,4.1,1.84,4.65.33,3.37.33,2.6-2.93,2.89L581.62,514l-2.27,3.62-1.1,3.37a79.46,79.46,0,1,0,16.59-157.18Z"/><path class="cls-6" d="M472.16,631.66c3,24.09,3.91,52.66,3,85.6-22,17.53-40.57,17.17-68.95,17.17s-58.42-6.19-68.84-15.09c-1.23-97.59,13.58-182.41,67-182.41,17.33,0,31.22,6.52,42,19.37"/><path class="cls-6" d="M430.43,558.18C454.09,550,499.1,573.66,508.84,580c2.78,13.47-15.36,50.21-27.17,55.1a65.67,65.67,0,0,1-9.41-3.83"/><path class="cls-6" d="M472.26,631.26a165.67,165.67,0,0,1-35.4-23.71"/><path class="cls-6" d="M340.72,639.93c-15.14-5.4-32.13-15.82-35.4-23.58a66.12,66.12,0,0,1,3.79-9.44"/><path class="cls-6" d="M309.11,606.91c10.87-22.75,39.48-62.63,61.28-54.46"/><path class="cls-6" d="M337.31,708.87c-1.19,1.64-8.55,12.1-9.06,13s-11.83,78-11.34,83.45,6.43,14.15,5.54,22.6S319,841.56,314,844c-4.22-4-16.77-16.42-17.55-18.64s-.84-104.87-.9-108.76,15.15-90.56,15.93-92.76"/><path class="cls-6" d="M384.62,541.23c.1-4.32-.22-26.45-.11-29.19-4.11-.11-29.68-20.65-29.72-49.42-.08-59.34,65.83-56.51,86.93-89.83"/><path class="cls-6" d="M445.13,385c-1.65,4-14.18,25.11-18.74,30.32"/><path class="cls-6" d="M450.82,393.91c-1.25,3.52-8.48,22.39-15.85,34"/><path class="cls-6" d="M417.53,514.53c17.37-9.53,23.41-26.23,23.72-40.94,3.63-3.4,6.49-4.57,6.21-7.23-.31-2.9-13.39-8.33-15.25-21.28"/><path class="cls-6" d="M508.46,589a39.34,39.34,0,0,0,3.67,1.66c1.18-2.46,45.64-88.06,46.63-90.75-.71-3.29-2.48-10.58-1.6-13.89s23.37-27.41,27.56-23.78-6.31,16.3-10,19.86c3.93.15,11-2.44,14.58,7.17.16.45.32.88.48,1.3,3.2,8.64,3.91,12,2.18,13.92s-10.91,8.55-12.26,11.89S538.7,626,529.47,638.65c-5.8,5.84-27.21-2.49-39.58-9.44"/><path class="cls-6" d="M346.11,1055.88v16l-49.4.6,29.66-11.86.12-4.6"/><path class="cls-6" d="M448.54,1055h22.74v16.92H448.54Z"/><path class="cls-2" d="M593.93,451.1l12.73-54.17,12.74-54.18L644,355.63l24.57,12.88-37.3,41.3Z"/><path class="cls-4" d="M724.7,367.17H968.88V517.33H724.7Z"/><path class="cls-2" d="M739.43,379.23H761.1v126H739.43Z"/><path class="cls-2" d="M771.6,397.5h21.67V505.27H771.6Z"/><path class="cls-2" d="M803.78,425.22h21.67v80H803.78Z"/><path class="cls-2" d="M836,462.83h21.66v42.44H836Z"/><path class="cls-2" d="M868.13,426.4H889.8v78.87H868.13Z"/><path class="cls-2" d="M900.31,398.91H922V505.27H900.31Z"/><path class="cls-2" d="M932.49,379.23h21.66v126H932.49Z"/><path class="cls-7" d="M609.3,662.28l45.9-45.91"/><path class="cls-7" d="M681.08,640.78l49.27-49.26"/><path class="cls-7" d="M756,615.27l10.71-10.71"/><path class="cls-7" d="M808.57,645.79l64-64"/><path class="cls-7" d="M655.35,615.61l24.59,24.6"/><path class="cls-7" d="M730.42,592l24.38,24.38"/><path class="cls-7" d="M767.34,604l41.27,41.27"/><path class="cls-7" d="M874.2,580.21l15.92,15.91"/><path d="M652.73,616.42a2.75,2.75,0,1,1,2.75,2.75A2.75,2.75,0,0,1,652.73,616.42Z"/><path d="M677.89,639.83a2.75,2.75,0,1,1,2.75,2.75A2.75,2.75,0,0,1,677.89,639.83Z"/><path d="M727.39,592.84a2.75,2.75,0,1,1,2.74,2.75A2.75,2.75,0,0,1,727.39,592.84Z"/><path d="M752.61,615.75a2.75,2.75,0,1,1,2.75,2.75A2.75,2.75,0,0,1,752.61,615.75Z"/><path d="M764.53,604.19a2.75,2.75,0,1,1,2.75,2.75A2.75,2.75,0,0,1,764.53,604.19Z"/><path d="M806.05,644.61a2.75,2.75,0,1,1,2.75,2.75A2.75,2.75,0,0,1,806.05,644.61Z"/><path d="M871.41,581a2.75,2.75,0,1,1,2.75,2.75A2.75,2.75,0,0,1,871.41,581Z"/><g id="Pants"><path d="M321.31,1057.11c.17-3.63,15.35-336,15.59-337.49,61.78,26.75,120.83,14.71,138.89-2.12.37,8.46-.17,339.38-.17,339.38l-28.39.46L399.07,858.8,349.55,1057S324.62,1057.09,321.31,1057.11Z"/></g></svg>