<svg xmlns="http://www.w3.org/2000/svg" xmlns:xlink="http://www.w3.org/1999/xlink" viewBox="0 0 692.76 649.82"><defs><style>.cls-1,.cls-13,.cls-6,.cls-8,.cls-9{fill:none;}.cls-2{fill:#949494;}.cls-3{fill:url(#New_Pattern);}.cls-4{fill:#f2f2f2;}.cls-5{fill:#d3d3d3;}.cls-6,.cls-9{stroke:#000;stroke-width:2.5px;}.cls-6,.cls-8,.cls-9{stroke-linecap:round;}.cls-11,.cls-12,.cls-13,.cls-6,.cls-8{stroke-miterlimit:10;}.cls-7{fill:#efefef;}.cls-8{stroke:#d8d8d8;}.cls-11,.cls-13,.cls-8{stroke-width:2px;}.cls-9{stroke-linejoin:round;}.cls-10{fill:#ccc;}.cls-11,.cls-12{fill:#fff;}.cls-11,.cls-12,.cls-13{stroke:#ccc;}.cls-12{stroke-width:8px;}</style><pattern id="New_Pattern" data-name="New Pattern" width="12" height="12" patternTransform="translate(-13.2 -10.16)" patternUnits="userSpaceOnUse" viewBox="0 0 12 12"><rect class="cls-1" width="12" height="12"/><rect class="cls-1" width="12" height="12"/><circle class="cls-2" cx="12" cy="3" r="2"/><circle class="cls-2" cx="6" r="2"/><circle class="cls-2" cy="3" r="2"/><circle class="cls-2" cx="12" cy="9" r="2"/><circle class="cls-2" cx="6" cy="6" r="2"/><circle class="cls-2" cy="9" r="2"/><circle class="cls-2" cx="6" cy="12" r="2"/></pattern></defs><title>doctor-monochrome</title><g id="Layer_2" data-name="Layer 2"><g id="Shadows"><path class="cls-3" d="M322.28,538.7c-6.22-.48-116.54,20.34-105.34,79.5-2.71-17.75-4.67-35.2-4.67-35.2l-2.71-30-.32-35.31L267.29,521l10.09-.41,10.75,5.77Z"/><path class="cls-3" d="M485.57,251.37c4.46,3.41,43.58,65.56,47.8,106.48-10.23-2.58-64.93-19.4-64.93-19.4l-8.67-22.64-8-17.17L443,282.8l-10.74-15.71L422.89,256l-15.5-14.21,4.41-1.11,20.6.57,33.69,5Z"/></g><g id="vector"><path class="cls-4" d="M390.55,504c-9.45,0-13.44-1-15.84-2.22L359,544.08c3.37,39.54,5.79,76.31,6.57,105.74,12.42-.21,30.7-.65,45.65-1.55-.36-37.3-1.5-91.51-4.56-150.31C400.69,502.34,394.24,504,390.55,504Z"/><path class="cls-4" d="M399.53,397.61c-6.11-66.27-15.3-129.78-29.09-174l-.9-.22c.77,9.4,1.3,16.52,1.31,18,0,8-46.42,8-46.42-.74,0-2.36-.46-8.84-1.13-17-1.48.32-2.88.65-4.17,1,3.44,10.27,12.79,73.45,22.22,151.35Z"/><path class="cls-4" d="M395.65,445.54a33.08,33.08,0,0,1,7.88,1.7q-.66-9.53-1.41-19.06Z"/><path class="cls-5" d="M353.47,458.63h0c9.87-1.73,20.17-8.8,30.22-11.84l15.13-40.65-81.06-30.19L289,453.12c23.07.4,60.63,1.22,63.66,2.41A10,10,0,0,1,353.47,458.63Z"/><path class="cls-5" d="M352,506h0a101.22,101.22,0,0,1-1.8,12.09c-3,.57-22.71,1.73-48.1,2.24l47.61,17.73,12.72-34.14A48.38,48.38,0,0,1,352,506Z"/><path class="cls-4" d="M502.11,119c-39.31-26.8-77.48-57.5-131.9-83S245-9.95,179.35,5.15C113.89,20.1,53.79,70.62,42.74,132.34c-10.88,61.73,27.45,135,42.88,208.25,15.27,73.42,7.8,147,47.11,164.22,10.35,4.53,24,5.15,39.43,3.25a8.3,8.3,0,0,1-2.15-2.48c-11.26-21.27,14.44-266.85,85.08-250.24,4.73,1.12,9,2.28,12.89,3.56,15-17.85,33.56-30.46,56.32-35.45v-.06l-3.53-36.5,1.39-2.43-2.32.1-53.29,2.33a153.92,153.92,0,0,1-1.4-20.69c0-48.26,22.31-89.37,53.56-105a21.71,21.71,0,1,1,3.93-1.8,61.33,61.33,0,0,1,24-4.94c45,0,81.5,50,81.5,111.75,0,4.63-.21,9.18-.6,13.66l-19.15.84-7,14.55L390.13,209l-12.92,8.09-7.83.74.58,5.86A98.22,98.22,0,0,1,406.39,241c19.39-2,79.3,1.5,129.09,32.7,3.38-13.51,16.21-110.49,16.21-110.49l18.18,1.2C547.06,148.26,524.38,134.23,502.11,119Z"/><path class="cls-4" d="M622.8,207.39q-5.77-5.46-11.58-10.53c2.12,41.21,2.87,115.58-15,160.62-9,18.92-87.27-5.09-127.83-19,10.64,30.86,18,65,22.85,98.88a444.33,444.33,0,0,0,66.54-13.9c52.47-15.11,119.06-43.37,132.38-84C703.37,298.68,663.25,245.56,622.8,207.39Z"/><path class="cls-6" d="M605.65,166.81A247.56,247.56,0,0,1,608.41,132a43.72,43.72,0,0,0,6.32-23.14c0-20-12.27-36.22-27.39-36.22S560,88.88,560,108.88c0,10.51,3.38,20,8.78,26.58-1.23,9.17-3.74,20.68-5.56,28.55"/><rect class="cls-7" x="555.08" y="75.12" width="45.19" height="59.07" rx="3.79" ry="3.79"/><path class="cls-6" d="M406.39,241c19.39-2,79.31,1.51,129.09,32.71,3.38-13.51,16.21-110.49,16.21-110.49L609.1,167s12.83,125.62-12.83,190.45c-9,18.92-87.27-5.09-127.83-19"/><path class="cls-6" d="M268,258.89c14.8-17.6,33-30.1,55.35-35.23"/><path class="cls-6" d="M222.69,637.82c-5.31-6.15-13-56.49-13.9-120.19"/><path class="cls-6" d="M369.71,223.66c146.05,34.22,137.83,396,120.12,412.21"/><path class="cls-8" d="M382.89,503.71c3.79,47.59,6.45,91.4,7.34,122.15"/><path class="cls-8" d="M354,259.51c5.93,30,11.87,73.5,17.18,121.08"/><path class="cls-9" d="M369.15,218.55c1,11.72,1.69,21.11,1.7,22.82,0,8-46.42,8-46.42-.74,0-6.4-3.35-42.92-5.14-62"/><path class="cls-9" d="M407.82,180.72l19.73-.86c.39-4.48.6-9,.6-13.66,0-61.71-36.49-111.75-81.5-111.75s-81.5,50-81.5,111.75a153.92,153.92,0,0,0,1.4,20.69l53.29-2.33"/><path class="cls-9" d="M357.12,218.27a34.34,34.34,0,0,0,6.81.68c28.05,0,50.79-34.47,50.79-77a113.77,113.77,0,0,0-2.56-24.13l-.14,0c-10-3.94-19.69-8.18-27.57-16.06-2.58,2.83-5.4,5.73-8.39,8.65"/><path class="cls-9" d="M314.92,162.12a96.92,96.92,0,0,0,8.85,26.94"/><path class="cls-9" d="M336.89,143.55c-1.88,1.43-3.71,2.8-5.47,4.11"/><circle class="cls-6" cx="311.62" cy="40.62" r="21.77"/><path class="cls-6" d="M314.92,162.12a11.8,11.8,0,1,1,17.18-10.5"/><polyline class="cls-9" points="374.71 501.77 356.25 551.35 273.6 520.57"/><polyline class="cls-9" points="277.58 452.94 310.53 364.46 411.8 402.18 395.65 445.54"/><path class="cls-9" d="M353.47,458.62c12.67-2.22,26.06-13.24,38.7-13.24,16.36,0,27.85,10.36,27.85,23.32,0,27.35-21.37,35.3-29.47,35.3-13.6,0-15.89-2.09-18.42-3.88-3.55.85-8.53,4.79-20.15,5.88"/><path class="cls-9" d="M297.33,286.2c-4.95-17.83-17.49-25-42.24-30.86-70.64-16.61-96.34,229-85.08,250.24s171.21,14.21,180.17,12.51c2.58-10,5.63-56.93,2.5-62.56-4.4-1.73-81.54-2.68-81.54-2.68l1.85-7.47"/><rect class="cls-10" x="548.27" y="63.51" width="57.56" height="15.15" rx="7.57" ry="7.57"/><rect class="cls-10" x="579.11" y="123.49" width="19.86" height="5.47" rx="2.73" ry="2.73" transform="matrix(0.87, -0.5, 0.5, 0.87, 15.81, 311.43)"/><rect class="cls-10" x="579.48" y="107.74" width="19.86" height="5.47" rx="2.73" ry="2.73" transform="translate(103.81 -241.39) rotate(25.31)"/><rect class="cls-10" x="551.46" y="119.94" width="19.86" height="5.47" rx="2.73" ry="2.73" transform="translate(604.53 695.69) rotate(-106.63)"/><rect class="cls-10" x="560.92" y="119.94" width="19.86" height="5.47" rx="2.73" ry="2.73" transform="translate(842.04 639.76) rotate(-129.8)"/><rect class="cls-10" x="572.55" y="115.29" width="19.86" height="5.47" rx="2.73" ry="2.73" transform="translate(1155.66 275.16) rotate(-176.12)"/><polyline class="cls-8" points="325.64 248.18 346.65 256 354.01 249.97 361.59 256 372.12 245.28"/><circle class="cls-4" cx="14.73" cy="339.89" r="14.73"/><circle class="cls-4" cx="37.45" cy="309.96" r="5.82"/><circle class="cls-4" cx="657.18" cy="404.55" r="5.82"/><circle class="cls-4" cx="457.74" cy="48.97" r="18.95"/><circle class="cls-4" cx="499.79" cy="24.81" r="9.47"/><rect class="cls-11" x="54.71" y="24.81" width="139.31" height="79.85" rx="12" ry="12"/><line class="cls-12" x1="124.36" y1="48.57" x2="124.36" y2="80.9"/><line class="cls-12" x1="108.2" y1="64.74" x2="140.52" y2="64.74"/><circle class="cls-13" cx="165.03" cy="45.33" r="2.22"/><circle class="cls-13" cx="180.15" cy="40.2" r="4.68"/><circle class="cls-13" cx="172.82" cy="87.2" r="2.93"/><line class="cls-13" x1="65.7" y1="52.61" x2="96.99" y2="52.61"/><line class="cls-13" x1="65.7" y1="58.67" x2="96.99" y2="58.67"/><line class="cls-13" x1="65.7" y1="64.74" x2="96.99" y2="64.74"/><line class="cls-13" x1="65.7" y1="70.8" x2="96.99" y2="70.8"/><line class="cls-13" x1="65.7" y1="76.87" x2="84.86" y2="76.87"/><rect class="cls-13" x="172.82" y="51.42" width="5.71" height="25.44" rx="2.86" ry="2.86" transform="translate(64.4 -86.17) rotate(33.43)"/><line class="cls-13" x1="174.96" y1="60.04" x2="179.73" y2="63.19"/><line class="cls-13" x1="172.82" y1="104.66" x2="242.22" y2="134.19"/><polyline class="cls-9" points="374.71 501.77 356.25 551.35 273.6 520.57"/><polyline class="cls-9" points="277.58 452.94 310.53 364.46 411.8 402.18 395.65 445.54"/><rect class="cls-5" x="334.95" y="375.84" width="52.16" height="15.69" transform="translate(156.61 -101.87) rotate(20.43)"/></g></g></svg>