<svg xmlns="http://www.w3.org/2000/svg" viewBox="0 0 758.79 660.49"><defs><style>.cls-1{fill:#f8f8f8;}.cls-2{fill:#fcc486;}.cls-3{fill:#fed385;}.cls-4{fill:#74d5de;}.cls-5{fill:#56cad8;}.cls-6{fill:#fd8369;}.cls-7{fill:none;stroke:#fed385;stroke-miterlimit:10;stroke-width:8.52px;}.cls-8{fill:#efefef;}.cls-9{fill:#e5e5e5;}</style></defs><title>breakfast-colour</title><g id="Layer_2" data-name="Layer 2"><g id="Layer_1-2" data-name="Layer 1"><path class="cls-1" d="M250.73,149.4C196.61,204,131.8,242.77,122.13,290.29S157.78,394,211.91,424.48s117,35.29,195.86,49.32,173.35,37.61,242.35,7.09S762.7,366,758.51,285.26c-4-80.74-55.71-157.76-124.7-212.36S478.35-13.52,413.26,5.54,304.86,94.92,250.73,149.4Z"/><path class="cls-2" d="M517.32,372.62l.07-10.51a37.13,37.13,0,0,0-36.8-37.24l-158.61-1a37.13,37.13,0,0,0-37.24,36.8l-.06,10.5a37,37,0,0,0,15.9,30.58,31.73,31.73,0,0,0-14.51,26.47l-1,160.52a31.75,31.75,0,0,0,31.57,32l165.65,1a31.75,31.75,0,0,0,31.95-31.57l1-160.51A31.72,31.72,0,0,0,501.05,403,37,37,0,0,0,517.32,372.62Z"/><rect class="cls-2" x="300.9" y="413.13" width="198.54" height="192.18" rx="15.01" ry="15.01" transform="translate(3.08 -2.41) rotate(0.35)"/><rect class="cls-2" x="294.15" y="334.37" width="212.43" height="63.58" rx="31.79" ry="31.79" transform="translate(2.22 -2.41) rotate(0.35)"/><rect class="cls-2" x="314.73" y="385.74" width="170.79" height="40.8" rx="16.31" ry="16.31" transform="translate(2.46 -2.41) rotate(0.35)"/><path class="cls-2" d="M502.1,372.62l.06-10.51a37.12,37.12,0,0,0-36.79-37.24l-158.62-1a37.14,37.14,0,0,0-37.24,36.8l-.06,10.5a37,37,0,0,0,15.9,30.58,31.75,31.75,0,0,0-14.51,26.47l-1,160.52a31.76,31.76,0,0,0,31.57,32l165.65,1a31.75,31.75,0,0,0,32-31.57l1-160.51A31.72,31.72,0,0,0,485.82,403,37.06,37.06,0,0,0,502.1,372.62Z"/><rect class="cls-2" x="285.67" y="413.13" width="198.54" height="192.18" rx="15.01" ry="15.01" transform="translate(3.08 -2.32) rotate(0.35)"/><rect class="cls-2" x="278.93" y="334.37" width="212.43" height="63.58" rx="31.79" ry="31.79" transform="translate(2.22 -2.32) rotate(0.35)"/><rect class="cls-2" x="299.51" y="385.74" width="170.79" height="40.8" rx="16.31" ry="16.31" transform="translate(2.46 -2.32) rotate(0.35)"/><path class="cls-2" d="M487.77,372.62l.06-10.51A37.13,37.13,0,0,0,451,324.87l-158.61-1a37.13,37.13,0,0,0-37.24,36.8l-.06,10.5A37,37,0,0,0,271,401.79a31.75,31.75,0,0,0-14.51,26.47l-1,160.52a31.76,31.76,0,0,0,31.57,32l165.65,1a31.75,31.75,0,0,0,31.95-31.57l1-160.51A31.72,31.72,0,0,0,471.49,403,37.06,37.06,0,0,0,487.77,372.62Z"/><rect class="cls-2" x="271.34" y="413.13" width="198.54" height="192.18" rx="15.01" ry="15.01" transform="translate(3.08 -2.23) rotate(0.35)"/><rect class="cls-2" x="264.6" y="334.37" width="212.43" height="63.58" rx="31.79" ry="31.79" transform="translate(2.22 -2.23) rotate(0.35)"/><rect class="cls-2" x="285.17" y="385.74" width="170.79" height="40.8" rx="16.31" ry="16.31" transform="translate(2.46 -2.23) rotate(0.35)"/><path class="cls-2" d="M476.12,372.62l.07-10.51a37.13,37.13,0,0,0-36.8-37.24l-158.61-1a37.13,37.13,0,0,0-37.24,36.8l-.07,10.5a37.06,37.06,0,0,0,15.91,30.58,31.73,31.73,0,0,0-14.51,26.47l-1,160.52a31.75,31.75,0,0,0,31.57,32l165.65,1a31.75,31.75,0,0,0,31.95-31.57l1-160.51A31.72,31.72,0,0,0,459.85,403,37,37,0,0,0,476.12,372.62Z"/><rect class="cls-2" x="259.7" y="413.13" width="198.54" height="192.18" rx="15.01" ry="15.01" transform="translate(3.08 -2.16) rotate(0.35)"/><rect class="cls-2" x="252.95" y="334.37" width="212.43" height="63.58" rx="31.79" ry="31.79" transform="translate(2.22 -2.16) rotate(0.35)"/><rect class="cls-2" x="273.53" y="385.74" width="170.79" height="40.8" rx="16.31" ry="16.31" transform="translate(2.46 -2.16) rotate(0.35)"/><path class="cls-2" d="M462.69,372.62l.06-10.51A37.12,37.12,0,0,0,426,324.87l-158.61-1a37.14,37.14,0,0,0-37.25,36.8l-.06,10.5a37,37,0,0,0,15.9,30.58,31.75,31.75,0,0,0-14.51,26.47l-1,160.52a31.76,31.76,0,0,0,31.58,32l165.64,1a31.76,31.76,0,0,0,32-31.57l1-160.51A31.74,31.74,0,0,0,446.42,403,37.07,37.07,0,0,0,462.69,372.62Z"/><rect class="cls-2" x="246.26" y="413.13" width="198.54" height="192.18" rx="15.01" ry="15.01" transform="translate(3.08 -2.08) rotate(0.35)"/><rect class="cls-2" x="239.52" y="334.37" width="212.43" height="63.58" rx="31.79" ry="31.79" transform="translate(2.22 -2.08) rotate(0.35)"/><rect class="cls-2" x="260.1" y="385.74" width="170.79" height="40.8" rx="16.31" ry="16.31" transform="translate(2.46 -2.08) rotate(0.35)"/><path class="cls-2" d="M450.15,372.62l.06-10.51a37.12,37.12,0,0,0-36.79-37.24l-158.61-1a37.15,37.15,0,0,0-37.25,36.8l-.06,10.5a37,37,0,0,0,15.9,30.58,31.75,31.75,0,0,0-14.51,26.47l-1,160.52a31.75,31.75,0,0,0,31.57,32l165.64,1a31.76,31.76,0,0,0,32-31.57l1-160.51A31.77,31.77,0,0,0,433.88,403,37.07,37.07,0,0,0,450.15,372.62Z"/><rect class="cls-2" x="233.72" y="413.13" width="198.54" height="192.18" rx="15.01" ry="15.01" transform="translate(3.08 -2) rotate(0.35)"/><rect class="cls-2" x="226.98" y="334.37" width="212.43" height="63.58" rx="31.79" ry="31.79" transform="translate(2.22 -2.01) rotate(0.35)"/><rect class="cls-2" x="247.56" y="385.74" width="170.79" height="40.8" rx="16.31" ry="16.31" transform="translate(2.46 -2) rotate(0.35)"/><path class="cls-2" d="M440.42,372.62l.07-10.51a37.13,37.13,0,0,0-36.8-37.24l-158.61-1a37.13,37.13,0,0,0-37.24,36.8l-.06,10.5a37,37,0,0,0,15.9,30.58,31.75,31.75,0,0,0-14.51,26.47l-1,160.52a31.76,31.76,0,0,0,31.57,32l165.65,1a31.75,31.75,0,0,0,31.95-31.57l1-160.51A31.72,31.72,0,0,0,424.15,403,37,37,0,0,0,440.42,372.62Z"/><rect class="cls-2" x="224" y="413.13" width="198.54" height="192.18" rx="15.01" ry="15.01" transform="translate(3.08 -1.94) rotate(0.35)"/><rect class="cls-2" x="217.26" y="334.37" width="212.43" height="63.58" rx="31.79" ry="31.79" transform="translate(2.22 -1.95) rotate(0.35)"/><rect class="cls-2" x="237.83" y="385.74" width="170.79" height="40.8" rx="16.31" ry="16.31" transform="translate(2.46 -1.94) rotate(0.35)"/><path class="cls-2" d="M426.12,372.62l.07-10.51a37.13,37.13,0,0,0-36.8-37.24l-158.61-1a37.13,37.13,0,0,0-37.24,36.8l-.06,10.5a37,37,0,0,0,15.9,30.58,31.75,31.75,0,0,0-14.51,26.47l-1,160.52a31.76,31.76,0,0,0,31.57,32l165.65,1a31.75,31.75,0,0,0,31.95-31.57l1-160.51A31.72,31.72,0,0,0,409.85,403,37,37,0,0,0,426.12,372.62Z"/><rect class="cls-2" x="209.7" y="413.13" width="198.54" height="192.18" rx="15.01" ry="15.01" transform="translate(3.08 -1.86) rotate(0.35)"/><rect class="cls-2" x="202.96" y="334.37" width="212.43" height="63.58" rx="31.79" ry="31.79" transform="translate(2.22 -1.86) rotate(0.35)"/><rect class="cls-2" x="223.53" y="385.74" width="170.79" height="40.8" rx="16.31" ry="16.31" transform="translate(2.46 -1.86) rotate(0.35)"/><path class="cls-2" d="M413.54,372.62l.06-10.51a37.12,37.12,0,0,0-36.79-37.24l-158.61-1A37.13,37.13,0,0,0,181,360.71l-.07,10.5a37.06,37.06,0,0,0,15.91,30.58,31.7,31.7,0,0,0-14.51,26.47l-1,160.52a31.75,31.75,0,0,0,31.57,32l165.64,1a31.76,31.76,0,0,0,32-31.57l1-160.51A31.77,31.77,0,0,0,397.27,403,37,37,0,0,0,413.54,372.62Z"/><rect class="cls-2" x="197.12" y="413.13" width="198.54" height="192.18" rx="15.01" ry="15.01" transform="translate(3.08 -1.78) rotate(0.35)"/><rect class="cls-2" x="190.37" y="334.37" width="212.43" height="63.58" rx="31.79" ry="31.79" transform="translate(2.22 -1.78) rotate(0.35)"/><rect class="cls-2" x="210.95" y="385.74" width="170.79" height="40.8" rx="16.31" ry="16.31" transform="translate(2.46 -1.78) rotate(0.35)"/><path class="cls-2" d="M401,372.62l.06-10.51a37.12,37.12,0,0,0-36.79-37.24l-158.62-1a37.14,37.14,0,0,0-37.24,36.8l-.06,10.5a37,37,0,0,0,15.9,30.58,31.75,31.75,0,0,0-14.51,26.47l-1,160.52a31.76,31.76,0,0,0,31.57,32l165.65,1a31.75,31.75,0,0,0,32-31.57l1-160.51A31.72,31.72,0,0,0,384.69,403,37.06,37.06,0,0,0,401,372.62Z"/><rect class="cls-2" x="184.54" y="413.13" width="198.54" height="192.18" rx="15.01" ry="15.01" transform="translate(3.08 -1.7) rotate(0.35)"/><rect class="cls-2" x="177.8" y="334.37" width="212.43" height="63.58" rx="31.79" ry="31.79" transform="translate(2.22 -1.71) rotate(0.35)"/><rect class="cls-2" x="198.38" y="385.74" width="170.79" height="40.8" rx="16.31" ry="16.31" transform="translate(2.46 -1.71) rotate(0.35)"/><path class="cls-2" d="M393.53,372.62l.06-10.51a37.12,37.12,0,0,0-36.79-37.24l-158.61-1A37.13,37.13,0,0,0,161,360.71l-.07,10.5a37.06,37.06,0,0,0,15.91,30.58,31.7,31.7,0,0,0-14.51,26.47l-1,160.52a31.75,31.75,0,0,0,31.57,32l165.64,1a31.76,31.76,0,0,0,32-31.57l1-160.51A31.77,31.77,0,0,0,377.26,403,37,37,0,0,0,393.53,372.62Z"/><rect class="cls-2" x="177.11" y="413.13" width="198.54" height="192.18" rx="15.01" ry="15.01" transform="translate(3.08 -1.66) rotate(0.35)"/><rect class="cls-2" x="170.36" y="334.37" width="212.43" height="63.58" rx="31.79" ry="31.79" transform="translate(2.22 -1.66) rotate(0.35)"/><rect class="cls-2" x="190.94" y="385.74" width="170.79" height="40.8" rx="16.31" ry="16.31" transform="translate(2.46 -1.66) rotate(0.35)"/><path class="cls-2" d="M381.52,372.62l.06-10.51a37.12,37.12,0,0,0-36.79-37.24l-158.61-1a37.15,37.15,0,0,0-37.25,36.8l-.06,10.5a37,37,0,0,0,15.9,30.58,31.75,31.75,0,0,0-14.51,26.47l-1,160.52a31.75,31.75,0,0,0,31.57,32l165.64,1a31.76,31.76,0,0,0,32-31.57l1-160.51A31.77,31.77,0,0,0,365.25,403,37.07,37.07,0,0,0,381.52,372.62Z"/><rect class="cls-2" x="165.09" y="413.13" width="198.54" height="192.18" rx="15.01" ry="15.01" transform="translate(3.08 -1.59) rotate(0.35)"/><rect class="cls-2" x="158.35" y="334.37" width="212.43" height="63.58" rx="31.79" ry="31.79" transform="translate(2.22 -1.59) rotate(0.35)"/><rect class="cls-2" x="178.93" y="385.74" width="170.79" height="40.8" rx="16.31" ry="16.31" transform="translate(2.46 -1.59) rotate(0.35)"/><path class="cls-2" d="M370.51,372.62l.06-10.51a37.12,37.12,0,0,0-36.79-37.24l-158.62-1a37.14,37.14,0,0,0-37.24,36.8l-.06,10.5a37,37,0,0,0,15.9,30.58,31.75,31.75,0,0,0-14.51,26.47l-1,160.52a31.76,31.76,0,0,0,31.58,32l165.64,1a31.76,31.76,0,0,0,32-31.57l1-160.51A31.74,31.74,0,0,0,354.24,403,37.07,37.07,0,0,0,370.51,372.62Z"/><rect class="cls-2" x="154.08" y="413.13" width="198.54" height="192.18" rx="15.01" ry="15.01" transform="translate(3.08 -1.52) rotate(0.35)"/><rect class="cls-2" x="147.34" y="334.37" width="212.43" height="63.58" rx="31.79" ry="31.79" transform="translate(2.22 -1.52) rotate(0.35)"/><rect class="cls-2" x="167.92" y="385.74" width="170.79" height="40.8" rx="16.31" ry="16.31" transform="translate(2.46 -1.52) rotate(0.35)"/><path class="cls-2" d="M359.77,372.62l.06-10.51A37.13,37.13,0,0,0,323,324.87l-158.61-1a37.13,37.13,0,0,0-37.24,36.8l-.06,10.5A37,37,0,0,0,143,401.79a31.75,31.75,0,0,0-14.51,26.47l-1,160.52a31.76,31.76,0,0,0,31.57,32l165.65,1a31.75,31.75,0,0,0,31.95-31.57l1-160.51A31.72,31.72,0,0,0,343.49,403,37.06,37.06,0,0,0,359.77,372.62Z"/><rect class="cls-2" x="143.34" y="413.13" width="198.54" height="192.18" rx="15.01" ry="15.01" transform="translate(3.08 -1.46) rotate(0.35)"/><rect class="cls-2" x="136.6" y="334.37" width="212.43" height="63.58" rx="31.79" ry="31.79" transform="translate(2.22 -1.46) rotate(0.35)"/><rect class="cls-2" x="157.17" y="385.74" width="170.79" height="40.8" rx="16.31" ry="16.31" transform="translate(2.46 -1.46) rotate(0.35)"/><path class="cls-2" d="M341.53,372.62l.06-10.51a37.12,37.12,0,0,0-36.79-37.24l-158.61-1a37.15,37.15,0,0,0-37.25,36.8l-.06,10.5a37,37,0,0,0,15.9,30.58,31.75,31.75,0,0,0-14.51,26.47l-1,160.52a31.75,31.75,0,0,0,31.57,32l165.64,1a31.76,31.76,0,0,0,32-31.57l1-160.51A31.77,31.77,0,0,0,325.26,403,37.07,37.07,0,0,0,341.53,372.62Z"/><rect class="cls-2" x="125.1" y="413.13" width="198.54" height="192.18" rx="15.01" ry="15.01" transform="translate(3.08 -1.35) rotate(0.35)"/><rect class="cls-2" x="118.36" y="334.37" width="212.43" height="63.58" rx="31.79" ry="31.79" transform="translate(2.21 -1.35) rotate(0.35)"/><rect class="cls-2" x="138.94" y="385.74" width="170.79" height="40.8" rx="16.31" ry="16.31" transform="translate(2.46 -1.35) rotate(0.35)"/><path class="cls-2" d="M333.79,372.62l.07-10.51a37.13,37.13,0,0,0-36.8-37.24l-158.61-1a37.13,37.13,0,0,0-37.24,36.8l-.07,10.5a37.06,37.06,0,0,0,15.91,30.58,31.73,31.73,0,0,0-14.51,26.47l-1,160.52a31.75,31.75,0,0,0,31.57,32l165.65,1a31.75,31.75,0,0,0,31.95-31.57l1-160.51A31.72,31.72,0,0,0,317.52,403,37,37,0,0,0,333.79,372.62Z"/><rect class="cls-2" x="117.37" y="413.13" width="198.54" height="192.18" rx="15.01" ry="15.01" transform="translate(3.08 -1.3) rotate(0.35)"/><rect class="cls-2" x="110.62" y="334.37" width="212.43" height="63.58" rx="31.79" ry="31.79" transform="translate(2.21 -1.3) rotate(0.35)"/><rect class="cls-2" x="131.2" y="385.74" width="170.79" height="40.8" rx="16.31" ry="16.31" transform="translate(2.46 -1.3) rotate(0.35)"/><path class="cls-2" d="M324.07,372.62l.06-10.51a37.12,37.12,0,0,0-36.79-37.24l-158.61-1a37.15,37.15,0,0,0-37.25,36.8l-.06,10.5a37,37,0,0,0,15.9,30.58,31.75,31.75,0,0,0-14.51,26.47l-1,160.52a31.76,31.76,0,0,0,31.58,32l165.64,1a31.76,31.76,0,0,0,32-31.57l1-160.51A31.77,31.77,0,0,0,307.8,403,37.07,37.07,0,0,0,324.07,372.62Z"/><rect class="cls-2" x="107.64" y="413.13" width="198.54" height="192.18" rx="15.01" ry="15.01" transform="translate(3.08 -1.24) rotate(0.35)"/><rect class="cls-2" x="100.9" y="334.37" width="212.43" height="63.58" rx="31.79" ry="31.79" transform="translate(2.21 -1.24) rotate(0.35)"/><rect class="cls-2" x="121.48" y="385.74" width="170.79" height="40.8" rx="16.31" ry="16.31" transform="translate(2.46 -1.24) rotate(0.35)"/><path class="cls-2" d="M314.34,372.62l.07-10.51a37.13,37.13,0,0,0-36.8-37.24l-158.61-1a37.13,37.13,0,0,0-37.24,36.8l-.06,10.5a37,37,0,0,0,15.9,30.58,31.75,31.75,0,0,0-14.51,26.47l-1,160.52a31.75,31.75,0,0,0,31.57,32l165.65,1a31.75,31.75,0,0,0,32-31.57l1-160.51A31.72,31.72,0,0,0,298.07,403,37,37,0,0,0,314.34,372.62Z"/><rect class="cls-3" x="97.92" y="413.13" width="198.54" height="192.18" rx="15.01" ry="15.01" transform="translate(3.08 -1.18) rotate(0.35)"/><rect class="cls-3" x="91.17" y="334.37" width="212.43" height="63.58" rx="31.79" ry="31.79" transform="translate(2.21 -1.19) rotate(0.35)"/><rect class="cls-3" x="111.75" y="385.74" width="170.79" height="40.8" rx="16.31" ry="16.31" transform="translate(2.46 -1.18) rotate(0.35)"/><path class="cls-2" d="M232.7,360.14l-1.08-10.45a37.13,37.13,0,0,0-40.62-33L33.22,332.94a37.13,37.13,0,0,0-33,40.62L1.27,384A37.07,37.07,0,0,0,20.4,412.68,31.72,31.72,0,0,0,8.86,440.57L25.33,600.24a31.76,31.76,0,0,0,34.85,28.34l164.77-17a31.76,31.76,0,0,0,28.34-34.85L236.82,417.06a31.73,31.73,0,0,0-17-24.95A37.05,37.05,0,0,0,232.7,360.14Z"/><rect class="cls-3" x="31.8" y="412.56" width="198.54" height="192.18" rx="15.01" ry="15.01" transform="translate(-51.5 16.13) rotate(-5.89)"/><rect class="cls-3" x="9.52" y="334.63" width="212.43" height="63.58" rx="31.79" ry="31.79" transform="translate(-36.99 13.81) rotate(-5.89)"/><rect class="cls-3" x="34.44" y="385.8" width="170.79" height="40.8" rx="16.31" ry="16.31" transform="translate(-41.05 14.44) rotate(-5.89)"/><polygon class="cls-4" points="522.4 164.45 358.4 164.45 396.81 107.1 560.63 107.1 522.4 164.45"/><path class="cls-2" d="M482.36,101.07l7,26h0c2.46,9.14-10.89,20.68-29.82,25.77s-36.26,1.81-38.72-7.33l-7-26"/><path class="cls-4" d="M481.89,107.1h78.74V72.35A11.84,11.84,0,0,0,548.78,60.5H408.66a11.85,11.85,0,0,0-11.85,11.85V107.1H418.6"/><polygon class="cls-4" points="522.4 644.45 358.4 622.95 358.4 164.45 522.4 164.45 522.4 644.45"/><polygon class="cls-5" points="589.69 605.96 522.4 644.45 522.4 164.45 591.05 164.95 589.69 605.96"/><ellipse class="cls-3" cx="448.09" cy="110.29" rx="35.49" ry="17.14" transform="translate(-13.27 120.2) rotate(-15.06)"/><polygon class="cls-5" points="560.63 107.1 522.4 164.45 591.05 164.95 560.63 107.1"/><path class="cls-5" d="M497,296.34l-114.61-1.12a8.25,8.25,0,0,1-8.18-8.25V193.34a8.26,8.26,0,0,1,8.34-8.25l114.61,1.11a8.27,8.27,0,0,1,8.18,8.26v93.62A8.27,8.27,0,0,1,497,296.34Z"/><rect class="cls-6" x="579.67" y="414.38" width="129.7" height="33.32"/><rect class="cls-6" x="538.5" y="424.53" width="212.02" height="217.88" rx="50.9" ry="50.9"/><rect class="cls-3" x="556.21" y="381.43" width="176.61" height="38.27" rx="14.61" ry="14.61"/><line class="cls-7" x1="538.5" y1="591.51" x2="750.53" y2="591.51"/><line class="cls-7" x1="538.5" y1="473.07" x2="750.53" y2="473.07"/><circle class="cls-4" cx="644.51" cy="533.47" r="43.18"/><rect class="cls-8" x="243.85" y="365.12" width="160.57" height="295.37"/><ellipse class="cls-9" cx="324.13" cy="364.66" rx="80.28" ry="14.24"/><path class="cls-6" d="M374.92,432.24c-9.34,0-14.1-14.41-31.62-14.41-30.19,0-24.23,14.41-66.35,14.41h-3.6a13.21,13.21,0,0,0-13.22,13.21v184.2a13.22,13.22,0,0,0,13.22,13.21H374.92a13.21,13.21,0,0,0,13.21-13.21V445.45A13.2,13.2,0,0,0,374.92,432.24Z"/><circle class="cls-2" cx="635.67" cy="332.07" r="15.6"/><circle class="cls-3" cx="671.34" cy="305.38" r="11.09"/><circle class="cls-3" cx="677.33" cy="338.05" r="5.99"/><circle class="cls-4" cx="256.65" cy="208.61" r="12.8"/><circle class="cls-5" cx="276.99" cy="243.8" r="7.55"/></g></g></svg>