<svg xmlns="http://www.w3.org/2000/svg" xmlns:xlink="http://www.w3.org/1999/xlink" viewBox="0 0 759.07 661.74"><defs><style>.cls-1,.cls-6,.cls-7{fill:none;}.cls-2{fill:#949494;}.cls-3{fill:url(#New_Pattern);}.cls-4{fill:#f8f8f8;}.cls-5{fill:#d3d3d3;}.cls-6{stroke:#000;stroke-linecap:round;stroke-linejoin:round;stroke-width:2.5px;}.cls-7{stroke:#d3d3d3;stroke-miterlimit:10;stroke-width:8.52px;}</style><pattern id="New_Pattern" data-name="New Pattern" width="12" height="12" patternTransform="translate(19.93 -5.22)" patternUnits="userSpaceOnUse" viewBox="0 0 12 12"><rect class="cls-1" width="12" height="12"/><rect class="cls-1" width="12" height="12"/><circle class="cls-2" cx="12" cy="3" r="2"/><circle class="cls-2" cx="6" r="2"/><circle class="cls-2" cy="3" r="2"/><circle class="cls-2" cx="12" cy="9" r="2"/><circle class="cls-2" cx="6" cy="6" r="2"/><circle class="cls-2" cy="9" r="2"/><circle class="cls-2" cx="6" cy="12" r="2"/></pattern></defs><title>breakfast-monochomr</title><g id="Layer_2" data-name="Layer 2"><g id="Shadows"><path class="cls-3" d="M750.8,525.75c-9.2,36-58.24,116.49-165.31,116.49h118.6L715.33,640l13.13-5.67,6.34-5.86,6-6.72,4.66-7.57L749.82,603l1.22-9V581.75l-.24-31Z"/><polygon class="cls-3" points="416.27 110.29 413.82 117.38 416.27 123.32 423.69 127.61 429.81 128.9 444.5 128.9 456.89 125.62 470.06 119.59 478.14 113.18 482.5 107.1 482.64 101.07 480.17 96.95 475.04 93.69 467.37 91.73 459.06 91.38 452.01 91.38 440.08 94.88 428.48 99.93 422.25 104.24 416.27 110.29"/><path class="cls-3" d="M358.67,338.48c10.46,0,66.17,4.73,66.17,26.64S456.5,635.24,456.5,635.24l-51.84-3.82V365.12l-3-4.81-13.83-4.37L370.71,353l-12-1.25Z"/></g><g id="Layer_1-2" data-name="Layer 1"><path class="cls-4" d="M758.79,285.26c-4-80.74-55.71-157.76-124.71-212.36S478.63-13.52,413.54,5.54,305.14,94.92,251,149.4,132.08,242.77,122.4,290.29c-2.82,13.9-.94,28.53,4.48,43l59.91-6.18a31.89,31.89,0,0,1,34.88,28.36h0A31.92,31.92,0,0,1,203,387.8a15.79,15.79,0,0,1,1.64,5.57l.84,8.13a15.73,15.73,0,0,1,0,2.91,15.06,15.06,0,0,1,16.28,13.41l1.28,12.36c6.87,3.38,13.89,6.4,21.07,9.13V365.12h.06a2.32,2.32,0,0,1-.06-.46c0-7.86,35.94-14.24,80.28-14.24,12.26,0,23.87.49,34.26,1.36h0V164.45l39.11-57.35h-.69V72.35A11.85,11.85,0,0,1,408.94,60.5H549.06a11.84,11.84,0,0,1,11.85,11.85V107.1l-38.24,57.35V493.08q8.08.89,16.11,1.52V475.42a51.08,51.08,0,0,1,41.16-49.94v-11.1h129.7v11.1a49.61,49.61,0,0,1,6.31,1.67C745.3,387.85,761.41,335.83,758.79,285.26Z"/><path class="cls-5" d="M322.26,323.91c-.83,0-1.65,0-2.47.08L307,323.91c-.8,0-1.6,0-2.39.07l-11.94-.07c-.73,0-1.46,0-2.18.06l-9.46-.06c-.78,0-1.56,0-2.33.07l-11.11-.07q-1.12,0-2.25.06l-10.29-.06c-.68,0-1.36,0-2,0l-7.69,0c-.8,0-1.6,0-2.39.07l-11.91-.07c-.76,0-1.51,0-2.26.06l-10.32-.06c-.76,0-1.51,0-2.26.06l-10.32-.06c-.59,0-1.18,0-1.76,0l-5.67,0c-.75,0-1.48,0-2.22.06l-9.8-.06q-1.06,0-2.13.06l-8.88-.06c-.71,0-1.41,0-2.11,0l-8.63,0c-.91,0-1.81,0-2.7.1l-15.54-.1c-.61,0-1.22,0-1.83,0l-5.9,0c-.68,0-1.36,0-2,0l-7.69,0c-.68,0-1.36,0-2,0l-7.69,0a37,37,0,0,0-28.46,13.15l96-9.9a31.89,31.89,0,0,1,34.88,28.36h0A31.92,31.92,0,0,1,203,387.8a15.79,15.79,0,0,1,1.64,5.57l.84,8.13a15.73,15.73,0,0,1,0,2.91,15.06,15.06,0,0,1,16.28,13.41l16.64,161.3A15.06,15.06,0,0,1,225,595.6L90,609.53a31.65,31.65,0,0,0,24,11.2l130.16.79V365.12h.06a2.32,2.32,0,0,1-.06-.46c0-7.86,35.94-14.24,80.28-14.24,12.26,0,23.87.49,34.26,1.36V324.13Z"/><polyline class="cls-6" points="482.5 107.1 560.91 107.1 522.67 164.45 358.67 164.45 397.78 107.1 418.87 107.1"/><path class="cls-6" d="M560.91,107.1V72.35A11.84,11.84,0,0,0,549.06,60.5H408.94a11.85,11.85,0,0,0-11.85,11.85V107.1"/><polyline class="cls-6" points="358.67 351.78 358.67 164.45 522.67 164.45 522.67 643.23 404.66 628.98"/><ellipse class="cls-6" cx="448.37" cy="110.29" rx="35.49" ry="17.14" transform="translate(-13.26 120.28) rotate(-15.06)"/><polygon points="560.91 107.1 522.67 164.45 591.33 164.95 560.91 107.1"/><path d="M497.31,296.34,382.7,295.22a8.25,8.25,0,0,1-8.18-8.25V193.34a8.26,8.26,0,0,1,8.34-8.25l114.61,1.11a8.27,8.27,0,0,1,8.18,8.26v93.62A8.27,8.27,0,0,1,497.31,296.34Z"/><path d="M489.64,127.08h0l-7-26h0c2.46,9.14-10.89,20.68-29.82,25.77s-36.26,1.81-38.72-7.33l7,26c2.46,9.14,19.8,12.43,38.72,7.33S492.09,136.22,489.64,127.08Z"/><line class="cls-7" x1="538.78" y1="591.51" x2="750.8" y2="591.51"/><line class="cls-7" x1="538.78" y1="473.07" x2="750.8" y2="473.07"/><circle class="cls-3" cx="644.79" cy="533.47" r="43.18"/><ellipse class="cls-6" cx="324.41" cy="364.66" rx="80.28" ry="14.24"/><path class="cls-5" d="M375.19,432.24c-9.34,0-14.09-14.41-31.61-14.41-30.19,0-24.23,14.41-66.35,14.41h-3.6a13.21,13.21,0,0,0-13.22,13.21v184.2a13.22,13.22,0,0,0,13.22,13.21H375.19a13.22,13.22,0,0,0,13.22-13.21V445.45A13.21,13.21,0,0,0,375.19,432.24Z"/><circle cx="635.95" cy="332.07" r="15.6"/><circle cx="671.62" cy="305.38" r="11.09"/><circle cx="677.61" cy="338.05" r="5.99"/><circle cx="256.93" cy="208.61" r="12.8"/><circle cx="277.27" cy="243.8" r="7.55"/><path class="cls-5" d="M237.1,417.06a31.73,31.73,0,0,0-17-24.95,37.05,37.05,0,0,0,12.88-32l-1.08-10.45a37.13,37.13,0,0,0-40.62-33L33.5,332.94C13.25,335-2.29,355.09.28,377.19c2.58,22.27,10.07,29.83,20.4,35.49A31.73,31.73,0,0,0,9.13,440.57L25.6,600.24a31.77,31.77,0,0,0,34.86,28.34l164.77-17a31.62,31.62,0,0,0,18.9-8.84V485.18ZM225,595.6,57.4,612.89a15.07,15.07,0,0,1-16.48-13.4L24.29,438.19A15.06,15.06,0,0,1,36.18,422a15.68,15.68,0,0,1-.59-2.93l-.84-8.13a16,16,0,0,1,.47-5.79,31.91,31.91,0,0,1-24.86-27.78h0a31.88,31.88,0,0,1,28.36-34.88l148.07-15.28a31.89,31.89,0,0,1,34.88,28.36h0A31.92,31.92,0,0,1,203,387.8a15.79,15.79,0,0,1,1.64,5.57l.84,8.13a15.73,15.73,0,0,1,0,2.91,15.06,15.06,0,0,1,16.28,13.41l16.64,161.3A15.06,15.06,0,0,1,225,595.6Z"/><polyline class="cls-6" points="404.69 365.12 404.69 660.49 244.13 660.49 244.13 365.12"/><path class="cls-6" d="M709.64,425.48v-11.1H579.94v11.1a51.08,51.08,0,0,0-41.16,49.94V591.51a51,51,0,0,0,50.9,50.9H699.91a51,51,0,0,0,50.89-50.9V475.42A51.07,51.07,0,0,0,709.64,425.48Z"/><path d="M538.78,591.51V475.42a51.08,51.08,0,0,1,41.16-49.94v-11.1h10.62L591.33,165l-68.66-.5v480L553.25,627A50.71,50.71,0,0,1,538.78,591.51Z"/><rect class="cls-5" x="556.49" y="381.43" width="176.61" height="38.27" rx="14.61" ry="14.61"/></g></g></svg>