<svg xmlns="http://www.w3.org/2000/svg" xmlns:xlink="http://www.w3.org/1999/xlink" viewBox="0 0 772.96 892.03"><defs><style>.cls-1,.cls-5,.cls-6{fill:none;}.cls-2{fill:#949494;}.cls-3{fill:url(#New_Pattern);}.cls-4{fill:#f2f2f2;}.cls-5,.cls-6{stroke:#000;stroke-linecap:round;stroke-width:2.5px;}.cls-5{stroke-linejoin:round;}.cls-6{stroke-miterlimit:10;}.cls-7{fill:#d3d3d3;}</style><pattern id="New_Pattern" data-name="New Pattern" width="12" height="12" patternTransform="matrix(-1, 0, 0, 1, 24.18, -28.1)" patternUnits="userSpaceOnUse" viewBox="0 0 12 12"><rect class="cls-1" width="12" height="12"/><rect class="cls-1" width="12" height="12"/><circle class="cls-2" cx="12" cy="3" r="2"/><circle class="cls-2" cx="6" r="2"/><circle class="cls-2" cy="3" r="2"/><circle class="cls-2" cx="12" cy="9" r="2"/><circle class="cls-2" cx="6" cy="6" r="2"/><circle class="cls-2" cy="9" r="2"/><circle class="cls-2" cx="6" cy="12" r="2"/></pattern></defs><title>choices-monochrome</title><g id="Layer_2" data-name="Layer 2"><g id="Shadows"><polygon class="cls-3" points="217.69 189.59 207.39 199.13 190.27 220.49 178.81 241.38 176.14 251.1 179.21 256.43 181.57 258.15 178.85 263.65 173.14 278.69 169.92 290.37 169.92 301 172.49 309.56 178.26 317.47 184.93 323.17 200.49 331.83 199.36 308.48 199.36 290.06 200.81 267.33 203.54 248.13 206.23 231.41 214.58 199.81 217.69 189.59"/><path class="cls-3" d="M210.71,214.46c1.21-4.56,10.17-15.48,21.67-15.28S272.72,214.67,288,255a375.86,375.86,0,0,1-15.84-46.8v-14L277,182.87l9.43-9.38,8.25-2.73,14.08,3,8.28,5.71-4.83-9.38-12.05-18.81-8.48-6.72-5.33-1.79-2.12,18.58-1,6-6.06,4.88-9.88,3.75-12.81,2.41-12.81-1.24L228.37,172l-4.25,4.81-8,20.13Z"/><path class="cls-3" d="M318,283.38c1.78,4.12,3.41,78.8-47.51,87.71,15.44,9.8,63.84-1.63,63.84-1.63L345,355.79l4-5.34L348,317.14,330.2,299.08Z"/></g><g id="Vector"><path class="cls-4" d="M772.88,337.31c-2.68-91-62-183.39-142.32-217.08-80.46-33.53-181.71-8.39-282.29-7.55-12.72.11-25.43-.18-38.06-.68l-8.52,6.25-13.41,9-2-15.12.46-1.29-1.58-.09c5.9,17.6-1.44,43.68-1.44,53.66a8.49,8.49,0,0,1-1.91,5.21l1.53-1,.75-5.06,1.9-13.81,1.2-7.16,9.32,6.51,16.72,23.83,2.85,5.9c24,15.67,45,54.48,45,60.82,0,1.43-1.44,3.66-3.86,6.36,3.08,4,14.8,21.23,16.56,25.15,3.81-3.25,126.16-105.82,128.17-107.21s5.49-1.28,6.85-.36a5.39,5.39,0,0,1,1.87,6.91c-1.08,2-16.29,15.38-16.29,15.38,1.24,1.54,7.59,17.64-.54,25.2-5.53,5.15-11.8,6.86-17.83,3.68-4,4.32-99.62,110-116.3,110-3.09,0-9.21-4.37-16.18-10.92l4.35,5.3c1.55,19.57,1.2,33.59-1,36.56-12.59,16.78-102.67,30.29-140,3.54-2.89-2.06-5.28-12.13-6.56-26.87-18.7-9.68-29.64-18.57-31-34.5-.86-10.46,10.53-37,12.34-39.65h0c-2.49-1.67-4.26-3.16-4.94-4.33-4.17-7.05,17.28-45.54,42.57-65.08l-.71,3.12A149.71,149.71,0,0,1,228.37,172c-8.6-5.4-14-12.69-14-23.45,0-8.6,4.71-24.21,7.73-41.53-53.37-2.57-101.57-1.28-138,19.6C20.22,163.14-7.61,259.69,1.78,342.5c9.22,83,55.48,152.55,97.89,222.79,42.42,70.4,80.64,141.64,144.17,181,63.7,39.56,152.54,47.44,227.3,19.11,74.6-28.33,135.28-92.87,192.61-170C721.25,518.18,775.4,428.5,772.88,337.31Z"/><path class="cls-4" d="M200.41,268.14l.7.38c0-.39.07-.79.11-1.18L201,268.4Z"/><path class="cls-4" d="M238.77,176.83l17,1.65,13.48-2.17,3-2.06a50.37,50.37,0,0,1-17.89,3.56c-10.67,0-19.63-2.31-26.33-6.52l1.12,1.36Z"/><path d="M206.92,357.24c.65,13.11,0,509.71,0,509.71h34.65l53-326.35"/><path class="cls-5" d="M181.75,257.61c-1.81,2.63-13.2,29.2-12.34,39.66,1.32,16,12.3,24.85,31.08,34.56"/><path class="cls-6" d="M219.41,188.22c-25.29,19.54-46.74,58-42.58,65.08,2,3.31,12.43,9.21,24.32,14.57"/><path class="cls-6" d="M315.63,35.41c8.42,12.55,11.53,30.42,7.07,48.67-5.16,21.1-19.08,37.1-35.12,42.79"/><path class="cls-6" d="M348,317.14c1.55,19.57,1.2,33.59-1,36.56-12.58,16.78-102.66,30.29-140,3.54-10.82-7.74-14.72-127.53,21.14-186"/><path class="cls-6" d="M286.42,141.69c11.46,4.84,21.32,18.25,29.62,36.12"/><polyline class="cls-6" points="206.92 866.95 206.92 890.78 288.31 890.78 288.31 877.32 241.57 866.95"/><polyline class="cls-6" points="288.31 862.7 288.31 890.78 373.55 890.78 373.55 879.86 321.7 862.7"/><path class="cls-5" d="M356.72,244.71c1.57,1.68,15.25,21.63,17.16,25.89,3.81-3.25,126.16-105.83,128.17-107.22s5.49-1.27,6.85-.35a5.38,5.38,0,0,1,1.87,6.9c-1.08,2-16.29,15.38-16.29,15.38,1.24,1.55,7.58,17.65-.54,25.21-5.54,5.15-11.8,6.86-17.84,3.67-4,4.33-99.61,110-116.29,110-7.72,0-34.21-27.17-46.14-47.64"/><path class="cls-6" d="M272.18,199.69c0,33,26,79,35,79s54-33,54-41-35-67-65-67C284.18,170.69,272.18,183.69,272.18,199.69Z"/><path class="cls-6" d="M269.19,67.7c17.24.13,48.54-33.69,48.54-35,0-3-5.32-18.85-36.19-18.85-22.05,0-56.75,15.44-56.75,66.15,0,26.11-10.21,54-10.21,66.6,0,19.15,15.44,31.22,39.81,31.22,11.77,0,29.47-5.8,29.47-15.32,0-13.92,14.28-59.15-13-69"/><path class="cls-6" d="M274,92.12a10.1,10.1,0,0,1-5.48,1.64c-6.23,0-11.28-5.84-11.28-13.05s5.05-13,11.28-13a9.94,9.94,0,0,1,3.41.6"/><rect class="cls-7" x="532.5" width="198.01" height="146.38"/><circle class="cls-7" cx="631.5" cy="272.52" r="84.3"/><path d="M206.92,357.24a86.42,86.42,0,0,1,8.83,5.16L228,368.28l1.7,6.42,69.41,159.92-4.5,6"/><path d="M347,353.7c-11.34,15.12-85.62,27.58-127.54,10.32l97.27,228.52L288.31,862.7H321.7s65-234.34,65-244.66S347,353.7,347,353.7Z"/></g></g></svg>