<svg xmlns="http://www.w3.org/2000/svg" xmlns:xlink="http://www.w3.org/1999/xlink" viewBox="0 0 705.23 650.48"><defs><style>.cls-1,.cls-4,.cls-6{fill:none;}.cls-2{fill:#949494;}.cls-3{fill:#f2f2f2;}.cls-4{stroke:#000;stroke-linecap:round;stroke-linejoin:round;stroke-width:2.5px;}.cls-5{fill:url(#New_Pattern);}.cls-6{stroke:#f2f2f2;stroke-miterlimit:10;stroke-width:3px;}</style><pattern id="New_Pattern" data-name="New Pattern" width="12" height="12" patternTransform="matrix(-1, 0, 0, 1, 11.56, -15.8)" patternUnits="userSpaceOnUse" viewBox="0 0 12 12"><rect class="cls-1" width="12" height="12"/><rect class="cls-1" width="12" height="12"/><circle class="cls-2" cx="12" cy="3" r="2"/><circle class="cls-2" cx="6" r="2"/><circle class="cls-2" cy="3" r="2"/><circle class="cls-2" cx="12" cy="9" r="2"/><circle class="cls-2" cx="6" cy="6" r="2"/><circle class="cls-2" cy="9" r="2"/><circle class="cls-2" cx="6" cy="12" r="2"/></pattern></defs><title>holding-phone-monochrome</title><g id="Layer_2" data-name="Layer 2"><g id="Vector"><path class="cls-3" d="M702,137.08C683.2,71.78,579.83,27.45,497.44,15.78,414.88,4.11,353.3,25.08,303.39,39c-14.45,3.95-27.92,7.33-41.16,10.51,8.36,9,13.47,19.6,13.47,23.19,0,6.6-14.86,63.56-28.9,63.56S217.91,78.43,217.91,64.4a38.09,38.09,0,0,1,.31-4.52C199.65,64.3,180,69.18,157.39,75.5c-57.52,16.07-134,41.62-152.6,86.28-18.61,44.83,20.64,108.78,55,182.54C94,417.92,123.39,501.49,181.08,534.14a122.77,122.77,0,0,0,25.58,10.8c.35-1.71.67-3.28.94-4.67-7.43-35.49-5.75-99.31-3.28-105.92,0,0,137.94,27.94,147,29.72,2.36-7.87,15.41-42.95,22.23-47.94s74-28.07,74-28.07-.05-36.44.78-44.69c-96.58-66.86-38.52-125-35.22-120.9S536.66,328.14,537,334.74c.31,7.23-14.24,67.71-25.93,103.73,27.41-23.62,54.06-50.48,81.33-80.61C654.94,288.83,720.75,202.55,702,137.08ZM214.61,375.59c-16.51,0-62.73-65.21-62.73-91.62,0-14.86,9.08-49.53,34.67-49.53,7.43,0,23.94,13.21,26.41,16.51a92.46,92.46,0,0,0,8.08,7.43c-.52,2.63-2,9.91-3.52,17.51C230,290,253.41,319.7,253.41,341.75,253.41,360.74,249.28,375.59,214.61,375.59Zm14-117.21c-11.56,0-38-38-38-84.19,0-14,11.56-27.24,28.9-27.24,39.62,0,42.92,82.54,42.92,89.14C262.49,245.17,253.41,258.38,228.65,258.38Z"/><path d="M494.68,39.44,296.11.47a25.43,25.43,0,0,0-29.76,20L239.73,156.1c20.67,21.67,22.76,74.75,22.76,80,0,9.08-9.08,22.29-33.84,22.29-2.26,0-5.09-1.47-8.18-4.14l-.62,3.16c.79.68,1.19,1,1.19,1-.5,2.53-2,10.16-3.52,17.51C230,290,253.41,319.7,253.41,341.75c0,19-4.13,33.84-38.8,33.84-4,0-9.66-3.77-16-9.87l-8,41a25.47,25.47,0,0,0,13.78,27.68c.61.12,137.72,27.89,147,29.71h0c2.36-7.87,15.41-42.95,22.23-47.94s74-28.07,74-28.07-.05-36.44.78-44.69c-96.58-66.86-38.52-125-35.22-120.9,1.62,2,31.16,27.31,61,53.41L514.67,69.2A25.43,25.43,0,0,0,494.68,39.44Z"/><path class="cls-4" d="M235.25,35.51c-13.21,0-17.34,20.64-17.34,28.89,0,14,14.86,71.82,28.89,71.82s28.9-57,28.9-63.56S258.36,35.51,235.25,35.51Z"/><path class="cls-5" d="M449.19,30.59l-2.51,12.79a12.06,12.06,0,0,1-14.13,9.49l-85.62-16.8a12.07,12.07,0,0,1-9.49-14.13L340,9.15"/><line class="cls-6" x1="175.09" y1="386.56" x2="368" y2="424.42"/><circle class="cls-5" cx="310.67" cy="434.45" r="10.03"/><path class="cls-4" d="M219.57,147c-17.34,0-28.9,13.2-28.9,27.24,0,46.22,26.42,84.19,38,84.19,24.76,0,33.84-13.21,33.84-22.29C262.49,229.49,259.19,147,219.57,147Z"/><path class="cls-4" d="M217.52,275.89C230,290,253.41,319.7,253.41,341.75c0,19-4.13,33.84-38.8,33.84-16.51,0-62.73-65.21-62.73-91.62,0-14.86,9.08-49.53,34.67-49.53,7.43,0,23.94,13.21,26.41,16.51a92.46,92.46,0,0,0,8.08,7.43c-.52,2.63-2,9.91-3.52,17.51"/><path class="cls-4" d="M210.49,268.29c1.06,1.06,3.64,3.75,7,7.6"/><path class="cls-4" d="M222.92,282.22S210.43,267.38,203,260.78"/><path class="cls-4" d="M362,649.23l18.16-72.64S490.72,480,501.45,462.68,537.36,344.23,537,334.74c-.29-6.6-120.52-108.14-123.82-112.27s-61.36,54,35.22,120.9c-.83,8.25-.78,44.69-.78,44.69s-67.18,23.09-74,28.07-19.87,40.07-22.23,47.94c-9.08-1.78-147-29.72-147-29.72-2.47,6.61-4.15,70.43,3.28,105.92-5,25.59-24.77,109-24.77,109"/><path class="cls-4" d="M337.31,505.43c2.25-8.6,13.16-39.49,15.87-46.86"/></g></g></svg>