<svg xmlns="http://www.w3.org/2000/svg" xmlns:xlink="http://www.w3.org/1999/xlink" viewBox="0 0 679.95 692.61"><defs><style>.cls-1,.cls-5{fill:none;}.cls-2{fill:#949494;}.cls-3{fill:#f8f8f8;}.cls-4{fill:#dedede;}.cls-5{stroke:#000;stroke-linecap:round;stroke-linejoin:round;stroke-width:2.5px;}.cls-6{fill:url(#New_Pattern);}</style><pattern id="New_Pattern" data-name="New Pattern" width="12" height="12" patternTransform="matrix(-1, 0, 0, 1, 22.93, -11.68)" patternUnits="userSpaceOnUse" viewBox="0 0 12 12"><rect class="cls-1" width="12" height="12"/><rect class="cls-1" width="12" height="12"/><circle class="cls-2" cx="12" cy="3" r="2"/><circle class="cls-2" cx="6" r="2"/><circle class="cls-2" cy="3" r="2"/><circle class="cls-2" cx="12" cy="9" r="2"/><circle class="cls-2" cx="6" cy="6" r="2"/><circle class="cls-2" cy="9" r="2"/><circle class="cls-2" cx="6" cy="12" r="2"/></pattern></defs><title>drawkit-fast-food-monochrome</title><g id="Layer_2" data-name="Layer 2"><g id="Vector"><path class="cls-3" d="M677.3,298.12c-14.32-60.74-89-107.81-156-131.34S395,143.08,321,125.47,158,72.64,119.19,101.11c-39,28.64-27.81,120.8-51.34,213-5,19.64-11.61,39.28-18.7,58.67,26.21-39.06,93.7-66.87,172.82-66.87,101.9,0,184.5,46.11,184.5,103v26.38a12.65,12.65,0,0,1-12.62,12.62H50.09a12.66,12.66,0,0,1-12.62-12.62V408.88a57.56,57.56,0,0,1,.33-6C14.52,463.4-8.35,520.28,3,565.89,20,633.21,111.79,676,198.52,688.51c86.74,12.67,168.54-4.94,234.53-40.16,66-35.06,116.2-88.05,164.42-151.58C645.53,433.07,691.61,358.68,677.3,298.12Zm-266.76,223a12.2,12.2,0,0,1-12.17,12.16h-2.13a3.91,3.91,0,0,1,3.91,3.91v1.67a3.43,3.43,0,0,1-.06.57,12.06,12.06,0,0,1,7.49,11.11v17.34a12,12,0,0,1-1,4.8h.84c.11,1.16.17,2.34.17,3.53v15.22A36.72,36.72,0,0,1,371,628H73a36.72,36.72,0,0,1-36.62-36.61V576.2a34.34,34.34,0,0,1,.17-3.53h.84a11.83,11.83,0,0,1-1-4.8V550.53a12.06,12.06,0,0,1,7.49-11.11,3.43,3.43,0,0,1-.06-.57v-1.67a3.91,3.91,0,0,1,3.91-3.91H45.57A12.2,12.2,0,0,1,33.4,521.11V488.05a12.2,12.2,0,0,1,12.17-12.17h352.8a12.2,12.2,0,0,1,12.17,12.17Z"/><path class="cls-4" d="M276.73,177.88l19.83,136.77c64.74,16,109.91,52.16,109.91,94.23v26.38a12.65,12.65,0,0,1-12.62,12.62h-78l4.68,32.31h78a12,12,0,0,1,12,12v29.08a12,12,0,0,1-12,12h-2.3a3.91,3.91,0,0,1,3.91,3.91v1.35h0a11.79,11.79,0,0,1,7.43,10.92v18.68a11.65,11.65,0,0,1-.92,4.54h.75c.11,1.16.17,2.34.17,3.53v15.22a36.75,36.75,0,0,1-28.39,35.66H500.93l65.14-449.2Z"/><path class="cls-5" d="M407.41,572.67c.11,1.16.17,2.34.17,3.53v15.22A36.72,36.72,0,0,1,371,628H73a36.72,36.72,0,0,1-36.62-36.61V576.2a34.34,34.34,0,0,1,.17-3.53"/><line class="cls-5" x1="161.73" y1="579.87" x2="145.33" y2="579.87"/><line class="cls-5" x1="326.98" y1="579.87" x2="164.51" y2="579.87"/><path class="cls-5" d="M400.15,538.53a11.79,11.79,0,0,1,7.43,10.92v18.68a11.77,11.77,0,0,1-11.74,11.74h-47"/><path class="cls-5" d="M135.39,579.87H48.11a11.77,11.77,0,0,1-11.74-11.74V549.45a11.79,11.79,0,0,1,7.18-10.82"/><path class="cls-5" d="M33.4,510.25v11c0,6.6,5.14,12,11.41,12H399.14c6.27,0,11.4-5.4,11.4-12V509.42"/><path class="cls-5" d="M406.47,408.88c0-56.89-82.6-103-184.5-103S37.47,352,37.47,408.88v26.38a12.66,12.66,0,0,0,12.62,12.62H393.85a12.65,12.65,0,0,0,12.62-12.62Z"/><path class="cls-6" d="M46.15,469c-21.3,0-30.62,11.17-30.62,21.31,0,14.38,9.28,20.14,21.94,20.14,17.23,0,23-12.3,38.58-12.3,20.18,0,22.9,12.08,40.78,12.08,18.39,0,36.23-15.18,50.89-15.18,20.46,0,35.13,16.26,55.58,16.26s34.09-14.86,54.55-14.86c14.66,0,23.52,14.86,41.92,14.86,17.88,0,23.6-13,43.77-13,15.58,0,25.71,11.27,42.93,11.27,12.67,0,21.57-4.9,21.57-19.28,0-10.14-9.31-21.31-30.61-21.31"/><path class="cls-5" d="M348.84,579.87v16a11.15,11.15,0,0,1-10.93,11.29h0A11.15,11.15,0,0,1,327,595.88v-31.6c0-5.57-2.51-21.52-19.06-21.52H187.16c-16.55,0-19.07,16-19.07,21.52v10.66a5.12,5.12,0,0,1-3.58,4.93,4.59,4.59,0,0,1-1.39.21h0a5.07,5.07,0,0,1-5-5.14V564.28c0-23.73-12.82-23.73-12.82,0v57.06a5.07,5.07,0,0,1-5,5.13h0a5.07,5.07,0,0,1-5-5.13V564.28c0-5.57-2.51-21.52-19.07-21.52H47.71a3.91,3.91,0,0,1-3.91-3.91v-1.67a3.91,3.91,0,0,1,3.91-3.91H396.24a3.91,3.91,0,0,1,3.91,3.91v1.67a3.91,3.91,0,0,1-3.91,3.91H367.91c-16.56,0-19.07,16-19.07,21.52v15.59Z"/><rect x="46.52" y="447.88" width="350.91" height="32.31" rx="5.87" ry="5.87"/><rect class="cls-4" x="265.84" y="159.68" width="311.11" height="16.12" rx="8.06" ry="8.06"/><rect class="cls-4" x="418.58" y="66.14" width="13.02" height="93.54"/><rect class="cls-4" x="387.42" y="-9.1" width="13.02" height="93.54" transform="translate(88.74 289.58) rotate(-45)"/><circle cx="91.71" cy="405.85" r="3.37"/><circle cx="138.22" cy="378.64" r="3.37"/><circle cx="274.76" cy="362.74" r="3.37"/><circle cx="138.22" cy="340.16" r="3.37"/><circle cx="160.24" cy="412.58" r="3.37"/><circle cx="268.03" cy="415.95" r="3.37"/><circle cx="367.91" cy="425.27" r="3.37"/><circle cx="209.16" cy="378.64" r="3.37"/><circle cx="327.75" cy="362.74" r="3.37"/><circle cx="208.43" cy="340.16" r="3.37"/></g></g></svg>