<svg xmlns="http://www.w3.org/2000/svg" xmlns:xlink="http://www.w3.org/1999/xlink" viewBox="0 0 685.67 873.02"><defs><style>.cls-1,.cls-5,.cls-6,.cls-7{fill:none;}.cls-2{fill:#949494;}.cls-3{fill:url(#New_Pattern);}.cls-4{fill:#f2f2f2;}.cls-5,.cls-6,.cls-7{stroke:#000;stroke-linecap:round;}.cls-5{stroke-miterlimit:10;}.cls-5,.cls-7{stroke-width:2.5px;}.cls-6,.cls-7{stroke-linejoin:round;}.cls-6{stroke-width:8px;}</style><pattern id="New_Pattern" data-name="New Pattern" width="12" height="12" patternTransform="matrix(-1, 0, 0, 1, 10.95, -23.32)" patternUnits="userSpaceOnUse" viewBox="0 0 12 12"><rect class="cls-1" width="12" height="12"/><rect class="cls-1" width="12" height="12"/><circle class="cls-2" cx="12" cy="3" r="2"/><circle class="cls-2" cx="6" r="2"/><circle class="cls-2" cy="3" r="2"/><circle class="cls-2" cx="12" cy="9" r="2"/><circle class="cls-2" cx="6" cy="6" r="2"/><circle class="cls-2" cy="9" r="2"/><circle class="cls-2" cx="6" cy="12" r="2"/></pattern></defs><title>support-notes-monochrome</title><g id="Layer_2" data-name="Layer 2"><g id="shadow"><path class="cls-3" d="M350.28,477.56c-12.08,6.26-10.74,83.34,42.81,94.81l-59.94,39.77-92.61-28.29c-2-7.14-11.57-22.26-11.57-22.26l-2.62-1.67-2.79-15.07-4-40.63-1-31.72.14-23.45.92-25.64L222,391.14l3.66-32.49,2.42-11L234,366.06l11.77,22.88L255.63,402l6.82,4.95,7.75-1.33,10.42,18,17.93,21.91L318,464.8l9.9,7.7,11.93,5.84,7.54.25Z"/><path class="cls-3" d="M508,397.9c1.92-6.74,22.26-61.4,30.93-65.16-17.25,7.38-58.2,24.39-58.2,24.39l-6.53,8.19-21,26.09,2.91,15,2.12,14L473.62,414Z"/><path class="cls-3" d="M320.27,218.45c-6.49,1.7-29.37,29-16.43,42.44a94.46,94.46,0,0,0-16.08-11.07l-14.08-8-16.08-2.5,7.75-13,11.38-16,12.51-11.72,8.93-3.6,1.6,18.58,5.16,2.83Z"/></g><g id="vector"><path class="cls-4" d="M685.48,443.56c-1.7-52.27-17.06-106.52-45.36-161.47l-1.73,2.72L602,346.31l-31.33,20.52-70.18,34.6-42.27,18.93,3.46,28.53,3.48,37.44,1.48,26.27.48,26.78-1.15,17.14-2.86,2.37L330.55,605.48l-104-44.89L224,547.13l-3.14-25.45-2.23-29.5,0-49.64,2.19-36.82,4.72-46.13,2.41-11.31-5.09-21.14-4.23-29.82L219,284l3.42-17.42L227,256.14l5.53-7,14.62-8.11,10.47-1.17L266.27,224l11.6-14.73,11.47-10,8.8-4.83-2.38-34.42-5.63-9.57-2.82-5.82-5.43-2-8.07-4.58-12-11.31L253,109l-3.24-17.28-.58.14.28-1.75-.17-.87.35-.29,1.62-10.43C204.3,106.72,160,148.91,123,192.71,56.89,271.1,13.78,354.64,2.75,440.38-8,526.11,12.8,614.06,66.2,661.58c53.4,47.28,139.14,54.14,218.26,85.49,78.88,31.6,151.15,87.46,208.72,77.66,57.56-10.05,100.43-86,134.73-159.72C662.2,591,688.17,519.25,685.48,443.56Z"/><path class="cls-4" d="M388.67,52.57,373.52,67.86l-14,9.91,4.13,9.31L368,99.27l1.85,12.16.95,13.28-1.64,15.35-6.89,17.6-6.72,10L345,176.49l-10.71,3.75.67,3.9.64,8.17,4,.69L355,199.47l9.58,5.06,12.18,9.89L389.05,227l11.8,16.4,13.67,21.91,7.69,17.58,10.53,27.67,3.15,10.63,1.63.92,9.21-8.27,28.58-22.43,26.74-20.73,7.38-11.09,9.4-10.15,12.32-7.66,9.11,3.1,8.79,10,2.79,13.36-7.09,14.45-14.11,15.73-12.15,8.41-13.77,18.84-17.36,22.93-6.63,8.48,38.87-16.22,38.31-16.44,47.67-80.17,8.22-7.75q-9.16-14.31-19.45-28.65c-51.81-72.39-125.42-145-203.3-160.81Z"/><path class="cls-5" d="M458,420.45c27.36-11.06,122.2-55.37,145.76-75.57,26.59-22.79-5.19-40.41-15.2-34.54-7.57,4.44-69,31.16-107.78,46.79"/><line class="cls-6" x1="543.21" y1="287.91" x2="553.49" y2="308.8"/><line class="cls-6" x1="508.82" y1="217.97" x2="522.08" y2="244.94"/><path class="cls-5" d="M295.76,160.08a75.55,75.55,0,0,1-8.45-16"/><path class="cls-5" d="M346.51,62.35c12.07,10.47,21.1,28.35,23.4,49.37,3.78,34.59-12.09,64.83-35.62,68.52"/><path class="cls-5" d="M453.05,390.83c15.6,84.23,15.47,163.74,12.45,166.76-6.5,6.5-157,37-239,3-9.89-43-11.56-133.89,1-214.81"/><path class="cls-5" d="M335.62,192.58c49.76,11,81.37,66.08,101.08,130.28"/><path class="cls-5" d="M257.6,239.31c10.86-21.77,24.25-37.8,40.54-44.81"/><path class="cls-7" d="M269.61,405.73c13,24.74,55.31,72.86,72.68,72.86,49.77,0,150.39-135.23,175.9-171.5,11.93-8.29,33.12-24.87,33.11-41.68,0-8.44-9-26-22.21-22.88-9.1,2.14-21.59,20.37-27,28.11C483.78,283.28,367.92,379.08,359,388.36c-.29-6.05-4.89-16.82-11.13-28.07"/><path class="cls-7" d="M287.31,144.08c-15.53-1.84-37.45-24.93-37.45-58.86,0-18.77,15.24-29.75,20.19-34.88,10-10.4,16-38.13,37.13-38.13,6,0,15.32,3.49,21.18,3.49,7.33,0,21.92-14.45,36.63-14.45,24.64,0,30.15,22.68,30.15,29.65,0,25.52-31.78,44.78-36,47.08-1.79-2.93-10-13.89-12.73-15.55-3.29,6.84-25.4,18.17-42.08,28.34-4.48,2.74-8.17,14.33-10.77,26.05"/><path class="cls-5" d="M289.67,139.62a12.55,12.55,0,1,1,6.69-20.39"/><path class="cls-5" d="M334.29,180.24c.45,4.19.9,8.39,1.33,12.34"/><path class="cls-5" d="M324.65,218.44c-11.08.2-25-2-25.27-5.91l-3.62-52.45"/><path class="cls-5" d="M238.78,244.59C194.6,268.66,234.11,393.67,262,406.47c31.54,0,95.17-45.65,95.17-61.06S296.06,213.39,238.78,244.59Z"/><path d="M226.76,560.7c-20.71,92.88-1.1,294.24,4.33,312.32H366.67c9.47-25,49.61-247.44,59.24-305.39C374.25,576.63,284,584.27,226.76,560.7Z"/><path d="M463.08,558.89c-6.65,2.7-25.42,7.15-50.44,10.89L353.44,785l39.05,88H486.3C486.3,835.42,479.51,621.94,463.08,558.89Z"/><path class="cls-5" d="M608,253.83c0,20.75,24.68,31.7,28.27,31.7,7.52,0,7.52-22.71,7.52-28.59,0-13.4-13.07-23.21-23-23.21S608,242.07,608,253.83Z"/><path d="M636.24,285.53c-3.59,0-28.27-10.95-28.27-31.7,0-11.76,2.78-20.1,12.75-20.1,4.83,0,10.39,2.31,14.84,6.21l-4.68-60-85.42,6.67,12.89,165L643.76,345,639,284.25A3.82,3.82,0,0,1,636.24,285.53Z"/></g></g></svg>