<svg xmlns="http://www.w3.org/2000/svg" viewBox="0 0 942.95 687.16"><defs><style>.cls-1{fill:#d37c59;}.cls-2{fill:#de8e68;}.cls-3{fill:#f2f2f2;}.cls-4{fill:#fed385;}.cls-5{fill:#fcc486;}.cls-6{fill:#fccd81;}.cls-7{fill:#fd8369;}.cls-8{fill:#f76c54;}.cls-9{fill:#45d4ff;}.cls-10{fill:#1ccff9;}.cls-11{fill:#c4c4c4;}</style></defs><title>pet-toys-colour</title><g id="Layer_2" data-name="Layer 2"><g id="Layer_1-2" data-name="Layer 1"><circle class="cls-1" cx="503.39" cy="44.69" r="25.16"/><circle class="cls-2" cx="549.2" cy="31.17" r="31.17"/><circle class="cls-2" cx="677.63" cy="34.17" r="31.17"/><circle class="cls-2" cx="611.54" cy="43.18" r="22.16"/><circle class="cls-2" cx="598.02" cy="31.17" r="22.16"/><circle class="cls-1" cx="642.33" cy="36.43" r="22.16"/><circle class="cls-2" cx="668.62" cy="43.18" r="22.16"/><circle class="cls-1" cx="710.67" cy="50.69" r="25.16"/><circle class="cls-1" cx="578.49" cy="58.96" r="31.17"/><path class="cls-3" d="M680.21,115.42c73.41,29.85,170.18,51.17,197.25,102.52,26.88,51.35-15.94,132.92-57.66,200.58S737.68,539.77,685.59,571.1c-51.91,31.33-115.5,40.22-198.18,66.55-82.68,26.14-184.27,69.7-237.85,38.93-53.39-30.78-58.76-136.07-71.37-226.73s-32.44-166.66-11.12-228.2,84-108.82,147.38-142,127.73-52.09,185-42.45C556.56,47,606.8,85.58,680.21,115.42Z"/><polygon class="cls-4" points="774.84 500.53 435.83 500.53 461.83 116.96 435.83 28.53 774.84 28.53 753.84 118.05 774.84 500.53"/><polygon class="cls-5" points="710.11 88.53 402.83 88.53 434.56 28.53 741.84 28.53 710.11 88.53"/><polygon class="cls-5" points="758.42 88.53 802.84 88.53 786.25 28.53 741.84 28.53 758.42 88.53"/><path class="cls-6" d="M440,438.54l-4.21,62h339L760.1,232.25C680.81,318.68,563.84,407.14,440,438.54Z"/><circle class="cls-7" cx="807.52" cy="465.75" r="109.22"/><circle class="cls-1" cx="132.93" cy="387.19" r="43.71"/><circle class="cls-2" cx="212.52" cy="363.71" r="54.14"/><circle class="cls-2" cx="435.61" cy="368.93" r="54.14"/><circle class="cls-2" cx="320.8" cy="384.58" r="38.49"/><circle class="cls-2" cx="297.32" cy="363.71" r="38.49"/><circle class="cls-1" cx="374.29" cy="372.84" r="38.49"/><circle class="cls-2" cx="419.95" cy="384.58" r="38.49"/><circle class="cls-1" cx="493.01" cy="397.63" r="43.71"/><circle class="cls-1" cx="263.4" cy="411.98" r="54.14"/><path class="cls-8" d="M768.94,568A109.22,109.22,0,0,0,889,393.06C867.27,494.27,822,544.48,768.94,568Z"/><path class="cls-9" d="M629.72,518,590.66,405.47a28.29,28.29,0,0,0-26.74-19H67.35A28.19,28.19,0,0,0,40.72,405.4L1.58,518.15a28.19,28.19,0,0,0,26.64,37.43H603A28.3,28.3,0,0,0,629.72,518Z"/><rect class="cls-5" x="715.8" y="421.74" width="57.31" height="321.5" transform="translate(161.97 1326.95) rotate(-90)"/><path class="cls-10" d="M629.72,518,590.66,405.47a28.29,28.29,0,0,0-26.74-19H486.35c-13.45,62.32-40.05,125.74-81,169.13H603A28.3,28.3,0,0,0,629.72,518Z"/><circle class="cls-4" cx="905.21" cy="616.04" r="37.74"/><circle class="cls-4" cx="905.21" cy="548.95" r="37.74"/><circle class="cls-4" cx="583.71" cy="615.34" r="37.74"/><circle class="cls-4" cx="583.71" cy="548.25" r="37.74"/><circle class="cls-2" cx="89.04" cy="571.99" r="38.49"/><circle class="cls-2" cx="157.96" cy="591.57" r="19.34"/><rect class="cls-3" x="173.15" y="441.02" width="285" height="60"/><rect class="cls-3" x="484.83" y="144.53" width="241" height="79"/><rect class="cls-11" x="499.83" y="155.53" width="37" height="54"/><rect class="cls-11" x="550.83" y="170.53" width="133" height="24"/></g></g></svg>