<svg xmlns="http://www.w3.org/2000/svg" xmlns:xlink="http://www.w3.org/1999/xlink" viewBox="0 0 942.95 684.26"><defs><style>.cls-1{fill:none;}.cls-2{fill:#949494;}.cls-3{fill:#fff;}.cls-4{fill:#f2f2f2;}.cls-5{fill:url(#New_Pattern);}.cls-6{fill:#dfdfdf;}.cls-7{fill:#c4c4c4;}</style><pattern id="New_Pattern" data-name="New Pattern" width="12" height="12" patternTransform="matrix(-1.17, -0.12, -0.12, 1.17, 187.64, -125.53)" patternUnits="userSpaceOnUse" viewBox="0 0 12 12"><rect class="cls-1" width="12" height="12"/><rect class="cls-1" width="12" height="12"/><circle class="cls-2" cx="12" cy="3" r="2"/><circle class="cls-2" cx="6" r="2"/><circle class="cls-2" cy="3" r="2"/><circle class="cls-2" cx="12" cy="9" r="2"/><circle class="cls-2" cx="6" cy="6" r="2"/><circle class="cls-2" cy="9" r="2"/><circle class="cls-2" cx="6" cy="12" r="2"/></pattern></defs><title>pet-toys-monochrome</title><g id="Layer_2" data-name="Layer 2"><g id="Layer_1-2" data-name="Layer 1"><circle cx="494.98" cy="45.73" r="25.75"/><path class="cls-3" d="M541.86,63.29a31.4,31.4,0,1,1,31.39-31.4A31.43,31.43,0,0,1,541.86,63.29Z"/><path d="M541.86,1A30.9,30.9,0,1,1,511,31.89,30.93,30.93,0,0,1,541.86,1m0-1a31.9,31.9,0,1,0,31.89,31.89A31.9,31.9,0,0,0,541.86,0Z"/><path class="cls-3" d="M673.27,66.36A31.4,31.4,0,1,1,704.67,35,31.42,31.42,0,0,1,673.27,66.36Z"/><path d="M673.27,4.08A30.89,30.89,0,1,1,642.38,35,30.92,30.92,0,0,1,673.27,4.08m0-1A31.9,31.9,0,1,0,705.17,35a31.9,31.9,0,0,0-31.9-31.9Z"/><path class="cls-3" d="M605.64,66.36a22.17,22.17,0,1,1,22.17-22.17A22.19,22.19,0,0,1,605.64,66.36Z"/><path d="M605.64,22.52A21.67,21.67,0,1,1,584,44.19a21.69,21.69,0,0,1,21.67-21.67m0-1a22.67,22.67,0,1,0,22.67,22.67,22.67,22.67,0,0,0-22.67-22.67Z"/><path class="cls-3" d="M591.81,54.07A22.18,22.18,0,1,1,614,31.89,22.2,22.2,0,0,1,591.81,54.07Z"/><path d="M591.81,10.22a21.67,21.67,0,1,1-21.67,21.67,21.69,21.69,0,0,1,21.67-21.67m0-1a22.68,22.68,0,1,0,22.67,22.67A22.67,22.67,0,0,0,591.81,9.22Z"/><circle cx="637.15" cy="37.27" r="22.67"/><path class="cls-3" d="M664.05,66.36a22.17,22.17,0,1,1,22.17-22.17A22.19,22.19,0,0,1,664.05,66.36Z"/><path d="M664.05,22.52a21.67,21.67,0,1,1-21.67,21.67,21.69,21.69,0,0,1,21.67-21.67m0-1a22.67,22.67,0,1,0,22.67,22.67,22.67,22.67,0,0,0-22.67-22.67Z"/><circle cx="707.09" cy="51.88" r="25.75"/><circle cx="571.83" cy="60.33" r="31.89"/><path class="cls-4" d="M680.21,112.52C753.62,142.37,850.39,163.69,877.46,215,904.34,266.39,861.52,348,819.8,415.62S737.68,536.86,685.59,568.19c-51.91,31.33-115.5,40.23-198.18,66.56-82.68,26.14-184.27,69.7-237.85,38.93C196.17,642.9,190.8,537.61,178.19,447s-32.44-166.66-11.12-228.2,84-108.82,147.38-142,127.73-52.09,185-42.45C556.56,44.11,606.8,82.67,680.21,112.52Z"/><polygon class="cls-3" points="436.74 496.78 462.69 113.97 436.97 26.48 773.76 26.48 752.98 115.07 773.94 496.78 436.74 496.78"/><path d="M772.69,27.33l-20.51,87.43-.06.24,0,.24L773,495.93H437.65l25.88-381.75,0-.31-.08-.29L438.11,27.33H772.69m2.14-1.7h-339l26,88.43-26,383.57h339l-21-382.48,21-89.52Z"/><polygon class="cls-3" points="404.25 84.78 435.07 26.48 740.42 26.48 709.6 84.78 404.25 84.78"/><path d="M739,27.33l-29.92,56.6H405.66l29.92-56.6H739m2.82-1.7H434.56l-31.73,60H710.11l31.72-60Z"/><polygon class="cls-3" points="759.07 84.78 742.95 26.48 785.6 26.48 801.72 84.78 759.07 84.78"/><path d="M785,27.33l15.64,56.6H759.71l-15.64-56.6H785m1.29-1.7H741.83l16.59,60h44.41l-16.58-60Z"/><path class="cls-5" d="M440,435.64l-4.21,62h339L760.1,229.35C680.81,315.78,563.84,404.24,440,435.64Z"/><circle class="cls-3" cx="807.52" cy="462.85" r="108.37"/><path d="M807.52,355.33a107.51,107.51,0,1,1-76,31.49,106.85,106.85,0,0,1,76-31.49m0-1.7A109.22,109.22,0,1,0,916.74,462.85,109.22,109.22,0,0,0,807.52,353.63Z"/><circle cx="132.93" cy="384.29" r="43.71"/><path class="cls-3" d="M212.52,414.1a53.29,53.29,0,1,1,53.29-53.29A53.35,53.35,0,0,1,212.52,414.1Z"/><path d="M212.52,308.37a52.44,52.44,0,1,1-52.44,52.44,52.5,52.5,0,0,1,52.44-52.44m0-1.7a54.14,54.14,0,1,0,54.14,54.14,54.14,54.14,0,0,0-54.14-54.14Z"/><path class="cls-3" d="M435.61,419.32A53.29,53.29,0,1,1,488.9,366,53.35,53.35,0,0,1,435.61,419.32Z"/><path d="M435.61,313.59A52.44,52.44,0,1,1,383.17,366a52.49,52.49,0,0,1,52.44-52.44m0-1.7A54.14,54.14,0,1,0,489.75,366a54.14,54.14,0,0,0-54.14-54.14Z"/><path class="cls-3" d="M320.8,419.32a37.64,37.64,0,1,1,37.64-37.64A37.67,37.67,0,0,1,320.8,419.32Z"/><path d="M320.8,344.9A36.79,36.79,0,1,1,284,381.68,36.82,36.82,0,0,1,320.8,344.9m0-1.7a38.49,38.49,0,1,0,38.49,38.48A38.48,38.48,0,0,0,320.8,343.2Z"/><path class="cls-3" d="M297.32,398.45A37.64,37.64,0,1,1,335,360.81,37.69,37.69,0,0,1,297.32,398.45Z"/><path d="M297.32,324a36.79,36.79,0,1,1-36.79,36.79A36.84,36.84,0,0,1,297.32,324m0-1.7a38.49,38.49,0,1,0,38.49,38.49,38.49,38.49,0,0,0-38.49-38.49Z"/><circle cx="374.29" cy="369.94" r="38.49"/><path class="cls-3" d="M420,419.32a37.64,37.64,0,1,1,37.64-37.64A37.67,37.67,0,0,1,420,419.32Z"/><path d="M420,344.9a36.79,36.79,0,1,1-36.78,36.78A36.82,36.82,0,0,1,420,344.9m0-1.7a38.49,38.49,0,1,0,38.49,38.48A38.48,38.48,0,0,0,420,343.2Z"/><circle cx="493.01" cy="394.73" r="43.71"/><circle cx="263.4" cy="409.08" r="54.14"/><path class="cls-5" d="M768.94,565.05A109.23,109.23,0,0,0,889,390.15C867.27,491.37,822,541.58,768.94,565.05Z"/><path class="cls-3" d="M28.22,551.83A27.35,27.35,0,0,1,2.38,515.52L41.52,402.77A27.37,27.37,0,0,1,67.35,384.4H563.92a27.47,27.47,0,0,1,25.94,18.45l39.06,112.53A27.45,27.45,0,0,1,603,551.83Z"/><path d="M563.92,385.25a26.63,26.63,0,0,1,25.14,17.88l39.05,112.53A26.59,26.59,0,0,1,603,551H28.22a26.49,26.49,0,0,1-25-35.18L42.32,403.05a26.52,26.52,0,0,1,25-17.8H563.92m0-1.7H67.35A28.19,28.19,0,0,0,40.72,402.5L1.58,515.24a28.2,28.2,0,0,0,26.64,37.44H603a28.3,28.3,0,0,0,26.74-37.58L590.66,402.57a28.29,28.29,0,0,0-26.74-19Z"/><path class="cls-3" d="M583.71,649.33a36.89,36.89,0,0,1-16.89-69.68l1.46-.76-1.46-.75a36.89,36.89,0,1,1,53.78-32.79,37.58,37.58,0,0,1-.41,5.46l-.14,1H904.36V607.4H620.25l.1.94a36.71,36.71,0,0,1-36.64,41Z"/><path d="M583.71,509.3a36,36,0,0,1,35.64,41.39l-.29,1.95H903.51v53.91H619.3l.21,1.88a37.24,37.24,0,0,1,.24,4,36,36,0,1,1-52.54-32l2.92-1.51-2.92-1.51a36,36,0,0,1,16.5-68.08m0-1.7a37.74,37.74,0,0,0-17.28,71.29,37.74,37.74,0,1,0,55,33.55,38.64,38.64,0,0,0-.25-4.19h284V550.94H621a38.21,38.21,0,0,0,.42-5.59,37.75,37.75,0,0,0-37.74-37.75Z"/><circle class="cls-3" cx="89.04" cy="569.09" r="37.64"/><path d="M89,532.3a36.79,36.79,0,1,1-36.78,36.79A36.83,36.83,0,0,1,89,532.3m0-1.7a38.49,38.49,0,1,0,38.49,38.49A38.48,38.48,0,0,0,89,530.6Z"/><circle cx="157.96" cy="588.67" r="19.34"/><rect class="cls-6" x="173.15" y="438.12" width="285" height="60"/><rect class="cls-4" x="484.83" y="141.63" width="241" height="79"/><rect class="cls-7" x="499.83" y="152.63" width="37" height="54"/><rect class="cls-7" x="550.83" y="167.63" width="133" height="24"/><path class="cls-3" d="M905.21,650a36.89,36.89,0,0,1-16.89-69.68l1.46-.76-1.46-.75a36.89,36.89,0,1,1,33.78,0l-1.46.75,1.46.76A36.89,36.89,0,0,1,905.21,650Z"/><path d="M905.21,510a36,36,0,0,1,16.5,68.08l-2.92,1.51,2.92,1.51a36,36,0,1,1-33,0l2.92-1.51-2.92-1.51A36,36,0,0,1,905.21,510m0-1.7a37.74,37.74,0,0,0-17.28,71.29,37.74,37.74,0,1,0,34.56,0,37.74,37.74,0,0,0-17.28-71.29Z"/></g></g></svg>