<svg xmlns="http://www.w3.org/2000/svg" xmlns:xlink="http://www.w3.org/1999/xlink" viewBox="0 0 702.48 896.93"><defs><style>.cls-1,.cls-12,.cls-14,.cls-15,.cls-17,.cls-18,.cls-4,.cls-5,.cls-8,.cls-9{fill:none;}.cls-2{fill:#949494;}.cls-3{fill:#f2f2f2;}.cls-12,.cls-14,.cls-15,.cls-4{stroke:#000;}.cls-12,.cls-14,.cls-15,.cls-17,.cls-18,.cls-4,.cls-5,.cls-8,.cls-9{stroke-linecap:round;}.cls-14,.cls-4{stroke-miterlimit:10;stroke-width:2.5px;}.cls-5{stroke:#ffd98e;}.cls-12,.cls-15,.cls-17,.cls-18,.cls-5,.cls-8,.cls-9{stroke-linejoin:round;}.cls-15,.cls-5{stroke-width:2.83px;}.cls-6{fill:#dfdfdf;}.cls-10,.cls-11,.cls-13,.cls-14,.cls-16,.cls-19,.cls-20,.cls-21,.cls-6,.cls-7{fill-rule:evenodd;}.cls-7{fill:#ff8364;}.cls-8{stroke:#6bd5e1;}.cls-12,.cls-17,.cls-8,.cls-9{stroke-width:3.11px;}.cls-9{stroke:#ff8364;}.cls-10{fill:#ffd98e;}.cls-13{fill:#fff;}.cls-16{fill:url(#New_Pattern);}.cls-17{stroke:#383838;}.cls-18{stroke:#fff;stroke-width:4.23px;}.cls-19{fill:url(#New_Pattern-3);}.cls-20{fill:url(#New_Pattern-5);}.cls-21{fill:url(#New_Pattern-7);}</style><pattern id="New_Pattern" data-name="New Pattern" width="12" height="12" patternTransform="matrix(-1, 0, 0, 1, -6.58, -23.89)" patternUnits="userSpaceOnUse" viewBox="0 0 12 12"><rect class="cls-1" width="12" height="12"/><rect class="cls-1" width="12" height="12"/><circle class="cls-2" cx="12" cy="3" r="2"/><circle class="cls-2" cx="6" r="2"/><circle class="cls-2" cy="3" r="2"/><circle class="cls-2" cx="12" cy="9" r="2"/><circle class="cls-2" cx="6" cy="6" r="2"/><circle class="cls-2" cy="9" r="2"/><circle class="cls-2" cx="6" cy="12" r="2"/></pattern><pattern id="New_Pattern-3" data-name="New Pattern" width="12" height="12" patternTransform="matrix(-1, 0, 0, 1, -0.98, -28.49)" patternUnits="userSpaceOnUse" viewBox="0 0 12 12"><rect class="cls-1" width="12" height="12"/><rect class="cls-1" width="12" height="12"/><circle class="cls-2" cx="12" cy="3" r="2"/><circle class="cls-2" cx="6" r="2"/><circle class="cls-2" cy="3" r="2"/><circle class="cls-2" cx="12" cy="9" r="2"/><circle class="cls-2" cx="6" cy="6" r="2"/><circle class="cls-2" cy="9" r="2"/><circle class="cls-2" cx="6" cy="12" r="2"/></pattern><pattern id="New_Pattern-5" data-name="New Pattern" width="12" height="12" patternTransform="matrix(-1, 0, 0, 1, -2.9, -27.94)" patternUnits="userSpaceOnUse" viewBox="0 0 12 12"><rect class="cls-1" width="12" height="12"/><rect class="cls-1" width="12" height="12"/><circle class="cls-2" cx="12" cy="3" r="2"/><circle class="cls-2" cx="6" r="2"/><circle class="cls-2" cy="3" r="2"/><circle class="cls-2" cx="12" cy="9" r="2"/><circle class="cls-2" cx="6" cy="6" r="2"/><circle class="cls-2" cy="9" r="2"/><circle class="cls-2" cx="6" cy="12" r="2"/></pattern><pattern id="New_Pattern-7" data-name="New Pattern" width="12" height="12" patternTransform="matrix(-1, 0, 0, 1, -13.52, -28.36)" patternUnits="userSpaceOnUse" viewBox="0 0 12 12"><rect class="cls-1" width="12" height="12"/><rect class="cls-1" width="12" height="12"/><circle class="cls-2" cx="12" cy="3" r="2"/><circle class="cls-2" cx="6" r="2"/><circle class="cls-2" cy="3" r="2"/><circle class="cls-2" cx="12" cy="9" r="2"/><circle class="cls-2" cx="6" cy="6" r="2"/><circle class="cls-2" cy="9" r="2"/><circle class="cls-2" cx="6" cy="12" r="2"/></pattern></defs><title>student-monochrome</title><g id="Layer_2" data-name="Layer 2"><g id="Layer_1-2" data-name="Layer 1"><path class="cls-3" d="M623.07,150.47C570.53,85.72,499.5,27.27,417.55,16.35S242.74,42.07,160.42,106.81,6.32,264.42.4,363.21s54.2,203.3,136.52,280.44a513.45,513.45,0,0,0,60.61,48.84A342.4,342.4,0,0,1,235,680.57h-.05c4.91-15.34,10.4-31.58,10.74-49.66.6-32.3-4-51.69-3.37-104.25.47-41.5,38.48-85.8,92.5-85.8s83,36.08,88.39,72.72c5.48,37.47-.77,68.5.79,113.81.72,20.62,7.08,36.6,13.78,53.19h-.06A381,381,0,0,1,482.33,694c41.36-41.93,76-99.8,109.29-148.91,52.35-77,101.93-132.45,109.7-195.53C709.28,286.25,675.42,215.22,623.07,150.47Z"/><path class="cls-4" d="M189,892.53c2.07-16.57,5.35-43.27,10.7-68"/><path class="cls-4" d="M480.67,892.53c-2.07-16.57-5.35-43.27-10.7-68"/><path class="cls-5" d="M402.83,298.32c-5.09,1.79-7.95,4.23-9.57,8.47"/><path class="cls-6" d="M178.13,382.39l47.47-12.05,19.23,75.78-47.46,12.05Z"/><path class="cls-7" d="M188.13,390.74l32.66-8.29,2.52,9.93-32.66,8.29Z"/><path class="cls-8" d="M193.39,411.45l32.66-8.29"/><path class="cls-8" d="M196.13,422.23l32.67-8.29"/><path class="cls-8" d="M199,433.48l32.69-8.3"/><path class="cls-8" d="M201.74,444.35l12.82-3.26"/><path class="cls-8" d="M229.29,437.35l5.14-1.3"/><path class="cls-6" d="M146.66,210.33,269.5,151.84l38.39,80.61L185.05,291Z"/><path class="cls-9" d="M189.14,273.12l12.22-35.77,22.77,4.25,8.94-44.11,22,3.66L261.5,170"/><path class="cls-10" d="M197.05,239.69a6.33,6.33,0,1,1,8.45,3A6.34,6.34,0,0,1,197.05,239.69Z"/><path class="cls-10" d="M227.65,201.27a6.34,6.34,0,1,1,8.45,3A6.33,6.33,0,0,1,227.65,201.27Z"/><path class="cls-11" d="M460.34,269.25A21.7,21.7,0,1,1,482,291,21.69,21.69,0,0,1,460.34,269.25Z"/><path class="cls-12" d="M518.67,265.46a25,25,0,0,1-24,31.76,25.14,25.14,0,0,1-4.87-.47"/><path class="cls-11" d="M468.88,285.73l-8.32,14.89,34.35,5.53-3.76-17.39"/><path class="cls-13" d="M476.92,269.25a5.12,5.12,0,1,1,5.12,5.12A5.12,5.12,0,0,1,476.92,269.25Z"/><path class="cls-11" d="M512.17,264.13a5.12,5.12,0,1,1,5.12,5.12A5.12,5.12,0,0,1,512.17,264.13Z"/><path class="cls-6" d="M431.43,81.86,552.6,111.12l-20,82.61L411.48,164.47Z"/><path class="cls-8" d="M438.59,103.29l95.66,23.1"/><path class="cls-8" d="M433.05,126l57.77,14"/><path class="cls-9" d="M351.24,159.67a9.3,9.3,0,1,1,9.3,9.3A9.3,9.3,0,0,1,351.24,159.67Z"/><path class="cls-11" d="M91.4,315.45a9.3,9.3,0,1,1,9.3,9.3A9.3,9.3,0,0,1,91.4,315.45Z"/><path class="cls-8" d="M130.62,474.21a16,16,0,1,1,16,16A16,16,0,0,1,130.62,474.21Z"/><path class="cls-9" d="M485.13,467.47a9.31,9.31,0,1,1,9.31,9.3A9.3,9.3,0,0,1,485.13,467.47Z"/><path class="cls-14" d="M234.94,680.57c4.91-15.34,10.4-31.58,10.74-49.66.6-32.3-4-51.69-3.37-104.25.47-41.5,38.48-85.8,92.5-85.8s83,36.08,88.39,72.72c5.48,37.47-.77,68.5.79,113.81.72,20.62,7.08,36.6,13.78,53.19"/><path class="cls-14" d="M364.11,669.49c65.52,4.43,122.76,22.57,155.26,41.57,22.09,22.44,38.06,171.51,33.23,182.21"/><path class="cls-14" d="M113.09,895.68c-2.07-25.54,9.32-116.62,44.53-184.62,45.87-25.41,95.82-37.73,144.19-41.39"/><path class="cls-4" d="M189,893.27c2.07-16.57,5.35-43.27,10.7-68"/><path class="cls-4" d="M480.67,893.27c-2.07-16.57-5.35-43.27-10.7-68"/><path class="cls-14" d="M271.7,572.57a14.63,14.63,0,1,1-1.52-27.46"/><path class="cls-14" d="M399.36,544.51l.77,0a14.63,14.63,0,1,1-2.51,29"/><path class="cls-11" d="M393.81,307.89c-14.76-11.52-18.4,1.35-20.71,9S371,338,382.53,337.71c10.14,9.1,19.58-2.67,22.47-8.65S415,310.13,393.81,307.89Z"/><path class="cls-15" d="M402.83,299.06c-5.09,1.8-7.95,4.24-9.57,8.47"/><path class="cls-16" d="M307.89,384.64A17.13,17.13,0,1,1,325,401.77,17.13,17.13,0,0,1,307.89,384.64Z"/><path class="cls-6" d="M178.13,383.13l47.47-12.05,19.23,75.78-47.46,12.05Z"/><path class="cls-11" d="M188.13,391.48l32.66-8.29,2.52,9.93-32.66,8.29Z"/><path class="cls-17" d="M193.39,412.2l32.66-8.29"/><path class="cls-17" d="M196.13,423l32.67-8.3"/><path class="cls-17" d="M199,434.23l32.69-8.3"/><path class="cls-17" d="M201.74,445.09l12.82-3.25"/><path class="cls-17" d="M229.29,438.1l5.14-1.31"/><path class="cls-6" d="M146.66,211.08l122.84-58.5,38.39,80.62L185.05,291.69Z"/><path class="cls-17" d="M189.14,273.86l12.22-35.76,22.77,4.25,8.94-44.12,22,3.66,6.4-31.11"/><path class="cls-11" d="M197.05,240.44a6.34,6.34,0,1,1,8.45,3A6.33,6.33,0,0,1,197.05,240.44Z"/><path class="cls-11" d="M227.65,202a6.33,6.33,0,1,1,8.45,3A6.34,6.34,0,0,1,227.65,202Z"/><path class="cls-11" d="M100.45,107.93l32.11,8.67-31.6,117L68.84,225Z"/><path class="cls-18" d="M79.51,186.13l17.67,4.77"/><path class="cls-18" d="M73.9,206.88l17.68,4.77"/><path class="cls-18" d="M85.11,165.38l17.68,4.77"/><path class="cls-18" d="M90.72,144.63l17.67,4.77"/><path class="cls-18" d="M96.32,123.88,114,128.65"/><path class="cls-11" d="M501.73,176.92a13.06,13.06,0,1,1,9.63,15.76A13.05,13.05,0,0,1,501.73,176.92Z"/><path class="cls-11" d="M505.58,187.68l-8.71,22.71L509,207.63l7.81,7.25,1.57-24.75"/><path class="cls-17" d="M438.59,104l95.66,23.1"/><path class="cls-17" d="M433.05,126.71l57.77,14"/><path class="cls-19" d="M255.81,110.35l-13-14.09L261.5,92l18.71-4.23-5.69,18.31-5.69,18.31Z"/><path class="cls-20" d="M512.17,394.3l-17.8,7.13,2.72-19,2.73-19,15.08,11.85L530,387.17Z"/><path class="cls-12" d="M351.24,160.41a9.3,9.3,0,1,1,9.3,9.3A9.3,9.3,0,0,1,351.24,160.41Z"/><path class="cls-14" d="M333,711.05c-15.57-.14-31.15-2.75-31.15-7.37V627.11"/><path class="cls-14" d="M364,629.87c.06,20.69.14,56.44-.06,73.81"/><path class="cls-14" d="M301.81,627.11c-18.45-14.57-31-41-31.79-71.41"/><path class="cls-14" d="M399,540a115.88,115.88,0,0,1,.7,12.74c0,47.72-29,86.41-64.84,86.41a49.8,49.8,0,0,1-15.73-2.56"/><path class="cls-14" d="M344.9,492.3c-22.06,20.19-52.39,37.51-74.12,46.8"/><path class="cls-14" d="M385.5,532.21A113.37,113.37,0,0,0,399,540"/><path class="cls-14" d="M342.64,489a164.42,164.42,0,0,0,14.61,18.49"/><path class="cls-21" d="M430.19,17.13a17.14,17.14,0,1,1,17.14,17.13A17.14,17.14,0,0,1,430.19,17.13Z"/><path class="cls-12" d="M130.62,475a16,16,0,1,1,16,16A16,16,0,0,1,130.62,475Z"/><path class="cls-12" d="M485.13,468.21a9.31,9.31,0,1,1,9.31,9.31A9.31,9.31,0,0,1,485.13,468.21Z"/></g></g></svg>