<svg xmlns="http://www.w3.org/2000/svg" viewBox="0 0 718.04 706.79"><defs><style>.cls-1{fill:#f2f2f2;}.cls-2{fill:#dfdfdf;}.cls-10,.cls-13,.cls-3{fill:none;}.cls-3{stroke:#fd8369;stroke-linejoin:round;stroke-width:16px;}.cls-10,.cls-3{stroke-linecap:round;}.cls-4{fill:#56cad8;}.cls-5{fill:#de8e68;}.cls-6{fill:#74d5de;}.cls-7{fill:#d37c59;}.cls-8{fill:#fcc486;}.cls-9{fill:#fed385;}.cls-10{stroke:#dfdfdf;}.cls-10,.cls-13{stroke-miterlimit:10;stroke-width:7px;}.cls-11{fill:#fd8369;}.cls-12{fill:#fed892;}.cls-13{stroke:#f9f9f9;}.cls-14{fill:#f9f9f9;}</style></defs><title>food-delivery-colour</title><g id="Layer_2" data-name="Layer 2"><g id="vector"><path class="cls-1" d="M641.55,117.68c38.81,45.9,54.47,107.43,55,169.47.68,61.86-13.79,124.57-52.6,207.79s-102.3,187-186.73,207.79-190-41.35-270.14-124.57C106.71,494.94,51.56,390.71,71,305.47,90.2,220.23,183.65,154.16,264,108.1c80.34-45.9,147.24-71.62,211.92-69.26C540.44,41.19,602.74,71.79,641.55,117.68Z"/><rect class="cls-2" x="260.79" y="311.12" width="12.32" height="234.69" transform="translate(-75.54 57.59) rotate(-10.8)"/><path d="M242.39,298c-5.81,0-44.47-5.14-46.3-5.14s-6.3,1.16-6.3,4.15c0,10.12,32.52,19.08,65.55,19.08S242.39,298,242.39,298Z"/><circle class="cls-3" cx="134.1" cy="535.21" r="126.1"/><circle class="cls-3" cx="583.94" cy="535.21" r="126.1"/><rect x="420" y="307.06" width="85.7" height="8.56" transform="translate(-77.48 172.76) rotate(-19.54)"/><rect class="cls-2" x="404.47" y="412.68" width="238.54" height="11.07" transform="translate(639.1 -242.01) rotate(61.3)"/><rect class="cls-2" x="253.38" y="406.55" width="267.81" height="7.62"/><rect class="cls-2" x="272.35" y="481.84" width="271.21" height="18.25" transform="translate(-214.4 349.03) rotate(-37.43)"/><path class="cls-2" d="M141.63,522.83c20.06,0,151.55,8.4,151.55,8.4-5.42,16.27-24.13,65.07-24.13,65.07-9.49-2.71-123.35-55.58-123.35-55.58Z"/><rect class="cls-2" x="105.23" y="461.9" width="183.85" height="13.58" transform="translate(-268.6 264.71) rotate(-43.53)"/><circle class="cls-2" cx="281.07" cy="568.46" r="34.78"/><path d="M275.08,473c-3.11,2.7-22.62,20.88-22.62,20.88L299,546.41l8.6-7.81-18.28-51Z"/><rect class="cls-2" x="191.19" y="17.04" width="120.51" height="191.09" transform="translate(118.04 -128.46) rotate(36.92)"/><path class="cls-4" d="M342.16,260.07c10.61,3.6,84.49,66.31,92.45,78.05-6.22,28.44-134,147.11-146.87,152.13-6.9-4.08-14.12-12.87-14.12-17.9,3.76-6,61.84-97.19,61.84-97.19S296.42,255,342.16,260.07Z"/><ellipse class="cls-5" cx="442.61" cy="314.96" rx="13.61" ry="16.07" transform="translate(-42.33 70.14) rotate(-8.65)"/><ellipse class="cls-5" cx="477.66" cy="305.97" rx="12.6" ry="14.49" transform="translate(-40.58 75.31) rotate(-8.65)"/><path class="cls-6" d="M257.06,203.7c-7.51,4.66-33.41,33.47-33.41,65,0,40.6,81.57,104.09,111.09,124-5.7,14.75-62.15,135.93-64,141.63,4.4,3.63,17.61,8.55,22.53,8.55,27.18-21.75,102.79-137,104.09-148.11s-62.92-132.32-62.92-132.32Z"/><path class="cls-7" d="M411.57,162.7c1,6.75,4.87,35,6.74,38.31s54.94,86.65,57.81,90.81c-.43,3.59-6.6,9.47-10.9,8.75-5.45-3.87-56.24-68.9-56.24-68.9S356.91,163.71,411.57,162.7Z"/><path class="cls-8" d="M395.4,123.4c11-3.3,21.19,28.4,19.32,40.31-6,7.17-22.23,8.75-26.25,6.89C387.45,164.43,384.06,126.8,395.4,123.4Z"/><path class="cls-9" d="M362.8,84.07c16.09,0,39,18.49,39,37.07,0,41.71-48.23,147.16-62.88,150.6-20.54,4.83-85.57-55.77-85.57-66.81C253.38,182.06,330.37,84.07,362.8,84.07Z"/><path class="cls-7" d="M380.86,58.14c-.64,2.71-12.32,23.54-17.39,29.15.54,2.72,11.5,12.32,17.39,12C382.94,96.17,391,82,394,79.78S390.09,58.86,380.86,58.14Z"/><path class="cls-10" d="M257.06,203.7c21.94,8.2,108-5.8,132.18-17.07-1.48-22.36-1.37-67.68-35.13-110.39"/><ellipse class="cls-5" cx="407.54" cy="51.33" rx="36.38" ry="26" transform="translate(159.32 378.6) rotate(-60)"/><path class="cls-11" d="M381.81,40.37c-.2-3.82,6.44-23.33,17.2-29S416.5,9.6,424,9.6c6.74,0,12.09-3.28,19.52-2.82,9.65.6,10.86,10.16,12.37,14.69,2,6,11.8,6.6,16.29,18,2.41,6.13-9.35,18.1-19.51,18.1-5.94,0-15-3.4-17.65-5a70.48,70.48,0,0,0,1.32-7.07c-3.59,0-25.81-4.45-27.62-4.35s-8.45,6.84-9.06,8.25C397.6,48.82,385.83,48.12,381.81,40.37Z"/><circle class="cls-5" cx="383.04" cy="47.18" r="8.49"/><path class="cls-12" d="M345.76,95.75C366.28,87.45,394.55,140,395.4,159c-3.53,5.72-40.75,19.47-48.3,18.37C336.15,164.72,322.89,105,345.76,95.75Z"/><path class="cls-5" d="M349,174.47c2.72,7.32,14.06,41,17.5,49.92s54.66,76,62.55,82.49c9.32,2.59,13.05-1.43,13.91-6.59-1.86-5.17-39.74-87.66-42.6-95.55s-10.19-41.46-10.33-45.91C383.59,154.67,352.6,162.42,349,174.47Z"/><line class="cls-13" x1="255.6" y1="207.37" x2="159.25" y2="134.98"/><line class="cls-13" x1="343.74" y1="90.05" x2="247.39" y2="17.67"/><path d="M272.79,532.51c-1.8,3.71-12.59,28.09-12.59,28.09l63.5,30,4.83-10.56-36.86-39.67Z"/><circle class="cls-11" cx="134.1" cy="535.21" r="17.29"/><circle class="cls-11" cx="583.94" cy="535.21" r="17.29"/><circle class="cls-14" cx="259.33" cy="120.02" r="17.95"/></g></g></svg>