<svg xmlns="http://www.w3.org/2000/svg" viewBox="0 0 860.09 966.55"><defs><style>.cls-1{fill:#f2f2f2;}.cls-10,.cls-2,.cls-3,.cls-7{fill:none;stroke-linecap:round;stroke-linejoin:round;}.cls-10,.cls-2{stroke:#fed892;}.cls-2{stroke-width:4.06px;}.cls-3{stroke:#fd8a6e;stroke-width:9.03px;}.cls-4{fill:#fed892;}.cls-4,.cls-5,.cls-6,.cls-8{fill-rule:evenodd;}.cls-5{fill:#6fd4df;}.cls-6,.cls-9{fill:#fd8a6e;}.cls-7{stroke:#6fd4df;stroke-width:26.35px;}.cls-8{fill:#fff;}.cls-10{stroke-width:7.87px;}</style></defs><title>headphones-colour</title><g id="Layer_2" data-name="Layer 2"><g id="Layer_1-2" data-name="Layer 1"><path class="cls-1" d="M405.69,6.32C519.93-26.56,675.44,73.23,764.51,205.43s111.68,297,55.49,404.05C764,716.73,629.51,766.39,497.78,834.7s-260.43,155-353.45,126.13S-5.82,787.37.47,669.63c6.06-117.74,75.78-208.2,146.89-336.44C218.7,205,291.44,39.42,405.69,6.32Z"/><path class="cls-2" d="M99,479.86c0,58.43,49.89,74.2,49.89,131.48,0,59.1-24.54,90.26-24.54,128,0,81.69,67.66,152.94,151.46,152.94,80.21,0,144.43-70.23,144.43-155.9,0-74.64-27.77-70.5-8.89-146.28,26.47-106.2,104.41-149.74,229.19-149.74,155.93,0,217.53,138,217.53,243.28,0,164.07-126.71,243.06-209.2,215.54-156-52-107.78-207.61-55.87-250"/><path class="cls-3" d="M56,392l9,45.08"/><path class="cls-4" d="M62.52,410.24,78,407.14l11.88,59.34L74.4,469.57Z"/><path class="cls-5" d="M146.46,363.46a14,14,0,0,0-21-9.19,82.26,82.26,0,0,0,30.24,151,14,14,0,0,0,15.89-16.58Z"/><path class="cls-3" d="M455.3,312.05l9,45.09"/><path class="cls-4" d="M456.34,331.38l-16,3.2,11.88,59.34,16-3.21Z"/><path class="cls-5" d="M360.78,320.2a13.76,13.76,0,0,1,15.63-16.31A82.26,82.26,0,0,1,406.7,455.15a13.76,13.76,0,0,1-20.7-9Z"/><path class="cls-6" d="M73.67,400.33l16.91-3.39,16.61,82.95-16.91,3.39Z"/><path class="cls-6" d="M442.22,326.52l-16.9,3.39,16.61,82.95,16.91-3.39Z"/><path class="cls-7" d="M53.19,380.68C31.12,270.46,102.58,163.2,212.81,141.13s217.48,49.39,239.55,159.62"/><path class="cls-8" d="M700.14,727a13.09,13.09,0,0,1-2.72-.29l-153-32.38c-8.76-1.85-14-12.23-11.71-23.13l73.84-348.88c2-9.51,9.48-16.69,17.36-16.69a13.16,13.16,0,0,1,2.72.29l153,32.38c8.76,1.86,14,12.23,11.71,23.13L717.5,710.32C715.49,719.83,708,727,700.14,727Z"/><path class="cls-9" d="M623.9,300.64v10a7.93,7.93,0,0,1,1.68.18l153,32.38c6,1.27,9.56,9.15,7.86,17.21L712.61,709.28c-1.54,7.26-6.9,12.73-12.47,12.73a7.93,7.93,0,0,1-1.68-.18l-153-32.38c-3.53-.75-5.54-3.63-6.42-5.27a17.77,17.77,0,0,1-1.43-11.94l73.83-348.87c1.54-7.25,6.9-12.73,12.47-12.73v-10m0,0c-10.16,0-19.68,8.53-22.25,20.66L527.81,670.17c-2.88,13.62,4.09,26.63,15.57,29.06l153,32.39a18.44,18.44,0,0,0,3.75.39c10.16,0,19.68-8.52,22.25-20.66l73.84-348.87c2.88-13.62-4.09-26.63-15.57-29.06L627.66,301a17.87,17.87,0,0,0-3.76-.4Z"/><path class="cls-6" d="M663.09,316.54l2.72,18,68.82,14.56,10.6-15.23Z"/><path class="cls-10" d="M587.22,684.62l73.38,15.53"/></g></g></svg>