<svg xmlns="http://www.w3.org/2000/svg" viewBox="0 0 628.95 945.71"><defs><style>.cls-1{fill:#f2f2f2;}.cls-2{fill:#56cad8;}.cls-10,.cls-11,.cls-12,.cls-13,.cls-2,.cls-3,.cls-4,.cls-5,.cls-6,.cls-7,.cls-8,.cls-9{fill-rule:evenodd;}.cls-3{fill:#6bd5e1;}.cls-4{fill:#3f3f3f;}.cls-5{fill:#e49d75;}.cls-6{fill:#ffc78e;}.cls-7{fill:#ffd98e;}.cls-9{fill:#d18c65;}.cls-10{fill:#ffe4ad;}.cls-11{fill:#707070;}.cls-12{fill:#2b2b2b;}.cls-13{fill:#fd8369;}</style></defs><title>photographer-colour</title><g id="Layer_2" data-name="Layer 2"><g id="Layer_1-2" data-name="Layer 1"><path class="cls-1" d="M543.8,410.94c38.35,66.27,60.9,120.42,74.7,188.68,14,68.11,19.33,150.18-19,181.32s-120.42,11.5-213.23,22.24c-92.65,10.59-196,51.7-272.59,20.56C37.26,792.44-12.13,689.05,2.6,600.54,17.48,511.87,96.63,438.09,173,372c76.4-66.27,150.18-124.87,214.15-115.2,64.12,9.82,118.27,88.05,156.63,154.17Z"/><g id="Vector"><path class="cls-2" d="M297.18,421l-74.8,480.11L256.9,905,366.82,589S410.82,369.38,297.18,421Z"/><path class="cls-3" d="M432.25,422.57l-1.93,478.22-37.1.45L335.06,424.86Z"/><path class="cls-4" d="M249.57,97.56h21.51v15.28H249.57Z"/><path class="cls-5" d="M291.17,306.23c-28.2-1.45-40-57-51.89-152.07,19-11.57,23.32-3.07,25.13,7.41s17.54,67.09,21.88,79.56c15.37,3.44,25.5,28.75,25.5,28.75S302.73,306.82,291.17,306.23Z"/><path class="cls-6" d="M344.82,183c27.92,12.44,17.46,62.75,4.7,84.73-13.09,7.67-58.19-15.11-63.14-26.3C290.17,227.27,323.39,173.44,344.82,183Z"/><path class="cls-7" d="M365.93,172.36c28.54,0,59.59,12.16,73.16,38.31,13.89,26.76.76,200.26-5,218.44C420.4,443,305,439,293.37,426.84,288.07,404.11,275.86,172.19,365.93,172.36Z"/><path class="cls-8" d="M220.74,112.29h78.82v43.14H220.74Z"/><path class="cls-4" d="M251.74,116.62a21,21,0,0,1,0,41.95m-18.55-.07h19.72m-19.66-41.9H253"/><path class="cls-9" d="M350.67,140.77l31.1-13.47.85,59.39s-19,9-31.95,0C353.9,170.24,350.67,140.77,350.67,140.77Z"/><path class="cls-5" d="M314.65,99.46c-2-30.36,13.62-56.11,34.87-57.5S389.59,64,391.58,94.4,378,150.51,356.7,151.91,316.63,129.83,314.65,99.46Z"/><path class="cls-8" d="M379.5,33.66a33.66,33.66,0,1,1,33.66,33.66A33.66,33.66,0,0,1,379.5,33.66Z"/><path class="cls-8" d="M349.53,41.94c-9.61.63-18,6.4-24.17,15.16,12.2,18.08,35.8,43.12,65.56,52.5a76.15,76.15,0,0,0,.66-15.2C389.6,64,370.77,40.54,349.53,41.94Z"/><path class="cls-5" d="M417.81,267c-4.34,6.85-42.73,55.1-57.52,55.12S340.47,315.43,335.1,308s-45.62-138.77-47.93-146.87c-6.82-2-11.38-.33-14.69-4.22s-4.09-32.56-.39-36.74,12-2.92,11.58-7-11-16.31-6-21.18c5.43,1.3,14.26,9.46,17.76,15s-.3,7.09.44,10.11,11.18,20.68,7.53,31.65c2.85,7.88,55.38,104.85,60,115.83,5-8.36,23-26.21,23-26.21S422.15,260.19,417.81,267Z"/><path class="cls-10" d="M443.39,194.48c24,19,1.34,65.12-16.47,83.24-14.58,4.19-52.63-29.07-54.64-41.14C379.47,223.82,425,179.91,443.39,194.48Z"/><path class="cls-4" d="M235.08,116.6h17.25v41.9H235.08Z"/><path class="cls-11" d="M214.18,137.59a21,21,0,1,1,21,21A21,21,0,0,1,214.18,137.59Z"/><path class="cls-5" d="M256.92,904.84l-3.46,11.6L219.3,915l3-13.85Z"/><path class="cls-12" d="M254.73,945.41l-95.88.3-.18-14.52L220.16,914,254,916.29Z"/><path class="cls-5" d="M430.19,900.87l-.08,15.57L396,915,396,901Z"/><path class="cls-12" d="M431.38,945.41l-59.35.3-.19-14.52,25-17.17,33.82,2.27Z"/><path class="cls-13" d="M233.37,107.39h14.24v5.45H233.37Z"/></g></g></g></svg>