<svg xmlns="http://www.w3.org/2000/svg" xmlns:xlink="http://www.w3.org/1999/xlink" viewBox="0 0 628.95 937.8"><defs><style>.cls-1,.cls-6,.cls-8{fill:none;}.cls-2{fill:#949494;}.cls-3,.cls-5,.cls-6,.cls-7,.cls-8,.cls-9{fill-rule:evenodd;}.cls-3{fill:url(#New_Pattern);}.cls-4{fill:#f2f2f2;}.cls-6,.cls-8{stroke:#000;stroke-linecap:round;stroke-width:2.5px;}.cls-6{stroke-linejoin:round;}.cls-7{fill:#232323;}.cls-8{stroke-miterlimit:10;}.cls-9{fill:#474747;}</style><pattern id="New_Pattern" data-name="New Pattern" width="12" height="12" patternTransform="matrix(-1, 0, 0, 1, 20.24, -16.8)" patternUnits="userSpaceOnUse" viewBox="0 0 12 12"><rect class="cls-1" width="12" height="12"/><rect class="cls-1" width="12" height="12"/><circle class="cls-2" cx="12" cy="3" r="2"/><circle class="cls-2" cx="6" r="2"/><circle class="cls-2" cy="3" r="2"/><circle class="cls-2" cx="12" cy="9" r="2"/><circle class="cls-2" cx="6" cy="6" r="2"/><circle class="cls-2" cy="9" r="2"/><circle class="cls-2" cx="6" cy="12" r="2"/></pattern></defs><title>photographer-monochrome</title><g id="Layer_2" data-name="Layer 2"><g id="Layer_1-2" data-name="Layer 1"><path class="cls-3" d="M425.39,194.42c-11.71-10.46-27.14-16.83-43-19.43l.19,12.95s-19,9-31.95,0a84.75,84.75,0,0,0,1.3-12.31c-10.12,3.08-18.67,9.55-25.87,18.5,15.86,30,34.61,65.28,37.27,71.64,2.73-4.54,9.3-11.9,14.72-17.67-3.23-4-5.38-7.65-5.81-10.27C377.66,228.28,404.51,201.29,425.39,194.42Z"/><path class="cls-3" d="M444.64,253.12c-5.13,10.4-11.7,19.73-17.72,25.85-3.71,1.07-8.95-.3-14.72-3.12-7.74,9.87-21.65,26.29-33.88,37a234.67,234.67,0,0,1,61.66,56C443.09,331.84,445.52,286.23,444.64,253.12Z"/><path class="cls-3" d="M307.77,229c-5.71,16.06-9.75,34.41-12.53,53.33a191.41,191.41,0,0,1,32.19,7.09C322,273.71,314.69,251,307.77,229Z"/><path class="cls-4" d="M618.5,600.87c-13.8-68.26-36.35-122.41-74.7-188.68h0c-26.27-45.29-59.95-96.26-99.17-127-1.31,59.95-8.72,135-12.42,146.6-14,10-127.22,8.45-138.84-3.67-2.43-10.42-6.31-64.82-1.12-120.67a5.59,5.59,0,0,1-1.08.06c-7.46-.39-13.77-4.56-19.24-12.24-32.05,21-65.22,48.76-98.91,78C96.63,439.34,17.48,513.12,2.6,601.79-12.13,690.3,37.26,793.69,113.66,825c76.55,31.14,179.94-10,272.59-20.56,92.81-10.74,174.88,9.05,213.23-22.24S632.46,669,618.5,600.87Z"/><path class="cls-5" d="M295.87,118.29c.28,1.14,1.93,4.35,3.69,8.5V113.54h-2.72C296.5,115.32,295.45,116.57,295.87,118.29Z"/><path class="cls-5" d="M272.09,121.38c3.7-4.18,12-2.92,11.58-7a5.78,5.78,0,0,0-.17-.8H220.74v43.14h51C269.08,149.69,268.7,125.22,272.09,121.38Z"/><path class="cls-5" d="M249.57,98.81h21.51v15.28H249.57Z"/><path class="cls-6" d="M292.25,307.42a5.59,5.59,0,0,1-1.08.06c-28.2-1.45-40-57-51.89-152.07,19-11.57,23.32-3.07,25.13,7.41s17.54,67.09,21.88,79.56"/><path class="cls-6" d="M300.29,255.09c-7-4.42-12.39-9-13.91-12.42,1.53-5.72,7.88-17.94,16.32-29.83"/><path class="cls-6" d="M323.63,189.85c4.56-3.51,9.14-5.91,13.48-6.56"/><path class="cls-7" d="M270.09,128.69a21,21,0,0,0-18.35-10.82v41.95a21,21,0,0,0,18.45-11A102.71,102.71,0,0,1,270.09,128.69Z"/><path class="cls-8" d="M444.64,253.12c1.63,61.11-8,164.87-12.43,178.64-14,10-127.22,8.45-138.84-3.67-3.63-15.55-10.49-129,14.39-199.1"/><path class="cls-8" d="M382.43,175c15.83,2.6,31.26,9,43,19.43"/><path class="cls-8" d="M326.09,194.13c7.2-9,15.75-15.43,25.88-18.51"/><path class="cls-6" d="M381.88,136.8l.74,51.14a47.83,47.83,0,0,1-17,4"/><path class="cls-6" d="M350.67,187.94c2-10,1.54-24.85.91-34.93"/><path class="cls-6" d="M387.63,125.18c-5.78,16-17.17,27.07-30.93,28-21.24,1.4-40.07-22.08-42.05-52.45s13.62-56.11,34.87-57.5,40.07,22.08,42.06,52.44a79,79,0,0,1,.05,9.35"/><path class="cls-6" d="M379.5,34.91a33.66,33.66,0,1,1,33.66,33.66A33.66,33.66,0,0,1,379.5,34.91Z"/><path class="cls-6" d="M348.78,85.38a131.48,131.48,0,0,0,21,15.81"/><path class="cls-6" d="M391.5,105.34a67.92,67.92,0,0,0,.08-9.69c-2-30.36-20.81-53.86-42.05-52.46-9.61.63-18,6.4-24.17,15.16a153.45,153.45,0,0,0,16.2,20"/><path class="cls-6" d="M412.2,275.85c-12.23,15.6-39.88,47.54-51.91,47.55-14.79,0-19.82-6.72-25.19-14.19s-45.62-138.77-47.93-146.87c-6.82-2-11.38-.33-14.69-4.22s-4.09-32.56-.39-36.74,12-2.92,11.58-7-11-16.31-6-21.18c5.43,1.3,14.26,9.46,17.76,15s-.3,7.09.44,10.11,11.18,20.68,7.53,31.65c2.85,7.88,55.38,104.85,60,115.83,2.73-4.54,9.3-11.9,14.72-17.67"/><path class="cls-8" d="M393.09,263c-10.81-9-19.86-19.48-20.81-25.2,4.12-7.33,20.89-24.92,37.9-35.82"/><path class="cls-8" d="M439,193.46a13,13,0,0,1,4.36,2.27c24,19,1.34,65.12-16.47,83.24-2.88.83-6.67.2-10.91-1.44"/><path class="cls-7" d="M235.08,117.85h17.25v41.9H235.08Z"/><path class="cls-9" d="M214.18,138.84a21,21,0,1,1,21,21A21,21,0,0,1,214.18,138.84Z"/><path class="cls-8" d="M257.73,934.66l-95.88.3-.18-14.52,61.49-17.17L257,905.54Z"/><path class="cls-8" d="M431.38,936.24l-59.35.3L371.84,922l21.38-19.53,37.1-.45Z"/><path class="cls-5" d="M233.37,108.64h14.24v5.45H233.37Z"/><path class="cls-5" d="M336.45,437.56l56.77,464.93,37.1-.45,1.89-470.28C419.76,439.42,372.59,440.63,336.45,437.56Z"/><path class="cls-5" d="M293.37,428.09l-71,474.3,34.52,3.85,109.92-316S387.43,487.38,364,439C334.94,438.35,303.26,433.2,293.37,428.09Z"/><path class="cls-6" d="M379.25,103.37a11.7,11.7,0,1,1,2.41,22.27"/></g></g></svg>