<svg xmlns="http://www.w3.org/2000/svg" viewBox="0 0 724.92 764.63"><defs><style>.cls-1{fill:#f2f2f2;}.cls-2{fill:#e0e0e0;}.cls-2,.cls-3,.cls-4,.cls-7,.cls-8{fill-rule:evenodd;}.cls-3,.cls-9{fill:#f3f3f3;}.cls-4,.cls-5,.cls-6,.cls-8{fill:none;}.cls-4,.cls-8{stroke:#000;stroke-width:2.5px;}.cls-4,.cls-6,.cls-8{stroke-linecap:round;}.cls-4,.cls-5,.cls-6{stroke-linejoin:round;}.cls-5,.cls-6{stroke:#f3f3f3;stroke-width:4.41px;}.cls-8{stroke-miterlimit:10;}.cls-9{font-size:40.87px;font-family:SofiaPro-Bold, Sofia Pro;font-weight:700;}.cls-10{letter-spacing:-0.03em;}.cls-11{letter-spacing:0em;}</style></defs><title>ticket-monochrome</title><g id="Layer_2" data-name="Layer 2"><g id="Layer_1-2" data-name="Layer 1"><path class="cls-1" d="M623.69,127.76C555.21,39.89,443.1-15.11,354.47,3.68c-88.63,18.63-153.78,111.2-195.6,193s-60.45,152.72-45.6,215.6,63,117.41,135.29,171.2c72.27,53.63,168.78,106.35,255,85.14s162.11-116.5,187.71-224.38S692.17,215.63,623.69,127.76ZM484.6,348.59c-2.6,6.67-9.14,12.25-17.88,16.64-12,36.86-29.77,73.32-29.77,73.32s-14-11.74-18.74-18.29c2.52-4.69,7.62-25.05,11.73-44.72-19.75,2.51-40,1.15-52.08-4.62-6.38-5.06-18.13-70.32-8.7-124.7a83.44,83.44,0,0,1-21.57-18.37c-.14-8.69,26-40.57,47.06-47.93-.27-7.77-2.32-23.16-3.75-31.12-8.36-9-13.22-22.89-12.14-38.13a58.09,58.09,0,0,1,2.12-12c-1.05-18,3.41-39.72,37.43-40.84,37.24,0,50.94,32.23,51.52,53.07,0,68.07,24.7,76.09,24.7,118.46,0,19.09-4.3,32-11,40.63C488.78,302.76,489,334.6,484.6,348.59Z"/><path class="cls-2" d="M493.46,244.55c-1.64,10.9-5.11,19.06-9.78,25.17,5.4,33,5.66,65.23,1.23,79.31-2.65,6.81-9.41,12.49-18.42,16.92-12,36.61-29.54,72.6-29.54,72.6s-14-11.74-18.74-18.29c2.5-4.65,7.53-24.71,11.62-44.22-19.61,2.44-39.69,1-51.66-4.67-7.23-5.74-21.36-88.74-3.76-145.66L227.58,202.47,200.53,222l-19.68-27-137.1-21.7L0,449.74l138.49,21.92,25.44-18.4,18.52,25.36,498.73,78.94,43.74-276.37Z"/><path class="cls-3" d="M487.1,297.83c.67,8.55,1,16.66.89,24L634.6,345l3.68-23.24Z"/><path class="cls-3" d="M366.18,278.69,248.42,260.05l-3.68,23.24L366.13,302.5C365.86,294.76,365.86,286.76,366.18,278.69Z"/><path class="cls-4" d="M391.21,149.63c1.31,8.7,3.09,18.53,3.21,26.55a14.71,14.71,0,0,1-.16,3.44"/><path class="cls-4" d="M347.59,225.77C352.8,211,387.08,172,406.52,179.31"/><path class="cls-5" d="M163.72,454.6l37-233.71"/><path class="cls-3" d="M103.42,342.83l20.85,3.3-14.34,90.61-20.86-3.3Z"/><path class="cls-3" d="M113.68,278l20.85,3.3-7.32,46.25-20.85-3.3Z"/><path class="cls-6" d="M483.9,356.53l75.76,12"/><path class="cls-6" d="M244.73,318.67l124.52,19.71"/><path class="cls-6" d="M239.58,352.24l141.84,22.45"/><path class="cls-6" d="M488.67,425.49l101.67,16.1"/><path class="cls-6" d="M235.61,385.44l138,21.84"/><path class="cls-4" d="M381,98.77c-1.37-18.24,2.34-41.2,37.33-42.35,37.24,0,50.94,32.23,51.52,53.07,0,69.63,24.7,81.42,24.7,118.46,0,19-4.27,31.87-11,40.55"/><path class="cls-7" d="M485.55,346.31c6.66,32.46,10,134,8.87,156.78,6.67,14.83,118,154.38,118,154.38l-18.58,23.38s-151.87-116-160-129.24c-1.75-2.84-7.07-10.81-13-22.35"/><path class="cls-4" d="M429.9,375.59c-19.63,2.45-39.74,1.06-51.73-4.67-9.87-7.83-32.58-159.6,30-192.53"/><path class="cls-4" d="M438.23,175.1c42.83,18,56.67,141.74,46.68,173.49-2.64,6.77-9.32,12.41-18.25,16.83"/><path class="cls-8" d="M427,268.67c2.31,17.52,8.4,57.8,9,68,.68,11.06-13.1,75-17.84,83.78,4.74,6.54,18.74,18.29,18.74,18.29S463.1,385,473.33,342c2.95-12.4-3.6-68.57-6.41-82"/><path class="cls-4" d="M318.3,725.34l-15.91,38-69.77-27.46,59.07-7.2,7.25-13.45Z"/><path class="cls-4" d="M608.28,659.15l35.42,21.1-37,65.22,1.18-59.5L595.6,676.9Z"/><path class="cls-8" d="M436.28,190.46c24.12-3.55,37.36,51.59,34.4,66.22-8.62,10.06-32.25,13.7-49,11.26C414,259.84,412.17,194,436.28,190.46Z"/><path class="cls-4" d="M408.21,180.78V159.19"/><path class="cls-4" d="M438.23,147.47v33.82c-3.07,2.72-11.43,5.46-19.24,4.47"/><text class="cls-9" transform="translate(63.41 431.45) rotate(-80.93)">ADMI<tspan class="cls-10" x="106.14" y="0">T</tspan><tspan class="cls-11" x="127.68" y="0" xml:space="preserve"> ONE</tspan></text><path class="cls-4" d="M423.22,113.58C405.1,100.81,399.06,84.15,397.53,74c-10.27,7.55-17.65,21.16-18.77,37.13-1.7,24,11.28,44.65,29.45,48"/><path class="cls-4" d="M434,116a9.82,9.82,0,1,1,.68,15.78"/><path class="cls-7" d="M466.65,365.41c-12,36.85-29.76,73.3-29.76,73.3s-14-11.75-18.74-18.29c2.53-4.71,7.64-25.14,11.75-44.84-19.52,2.44-39.5,1.09-51.51-4.56C368.25,405.4,345.17,498,340.74,526.44c-5,32.09-45.17,187.85-45.17,187.85l23.05,12.47S488.27,424.82,482.08,353.6h0c-3.41,4.58-8.8,8.53-15.42,11.8"/></g></g></svg>