<svg xmlns="http://www.w3.org/2000/svg" viewBox="0 0 582.34 799.04"><defs><style>.cls-1{fill:#f2f2f2;}.cls-2{fill:#e49d75;}.cls-3{fill:#d18c65;}.cls-4{fill:#e0e0e0;}.cls-5{fill:#f3f3f3;}.cls-6{fill:none;stroke:#f3f3f3;stroke-linecap:round;stroke-linejoin:round;stroke-width:2px;}.cls-7{fill:#ffd98e;}.cls-8{fill:#6ad5e1;}</style></defs><title>gameboy-colour</title><g id="Layer_2" data-name="Layer 2"><g id="vector"><path class="cls-1" d="M479.1,161.83C537.78,225,594.36,300,580.11,357s-99.76,96.12-188.06,144.46S212.66,607.25,145.73,586,35.92,464.74,14.12,361.91-8.51,153.73,42.48,92.12c51.14-61.48,154.11-78.94,236-61.9S420.55,98.68,479.1,161.83Z"/><path class="cls-2" d="M538.57,754.88c-4-12-19.21-74.62-19.21-84.92s21.51-150,21.51-162.71-82.72-187.86-82.72-187.86S330.89,641.18,337.86,641.18c13.94,0,69.39,135.14,69.39,157.86C429.67,791.47,538.57,754.88,538.57,754.88Z"/><path class="cls-3" d="M458.15,319.39s50.58,107.08,72.63,159.87c-56.9,57.74-120.42,142.42-156,225.38-14.77-33.84-30.4-63.46-36.92-63.46C330.89,641.18,458.15,319.39,458.15,319.39Z"/><path class="cls-2" d="M20,754.88c4-12,19.21-74.62,19.21-84.92S17.71,520,17.71,507.25s82.72-187.86,82.72-187.86S227.69,641.18,220.72,641.18c-13.94,0-69.39,135.14-69.39,157.86C128.91,791.47,20,754.88,20,754.88Z"/><path class="cls-3" d="M100.43,319.39S49.85,426.47,27.8,479.26C84.7,537,148.22,621.68,183.8,704.64c14.77-33.84,30.39-63.46,36.92-63.46C227.69,641.18,100.43,319.39,100.43,319.39Z"/><path class="cls-4" d="M101.25,1h351a12.26,12.26,0,0,1,12.26,12.26V562.75A81.53,81.53,0,0,1,383,644.28H101.25A12.26,12.26,0,0,1,89,632V13.26A12.26,12.26,0,0,1,101.25,1Z"/><path class="cls-5" d="M134.88,59.88H430.23a15.53,15.53,0,0,1,15.53,15.53V257.57A49.73,49.73,0,0,1,396,307.3H134.88a15.53,15.53,0,0,1-15.53-15.53V75.41a15.53,15.53,0,0,1,15.53-15.53Z"/><line class="cls-6" x1="88.99" y1="38.61" x2="464.57" y2="38.61"/><line class="cls-6" x1="119.35" y1="1" x2="119.35" y2="38.61"/><line class="cls-6" x1="443.78" y1="1" x2="443.78" y2="38.61"/><rect class="cls-7" x="178.55" y="88.09" width="208.82" height="189.52"/><circle class="cls-8" cx="143.08" cy="155.03" r="5.76"/><rect class="cls-6" x="133.83" y="15.86" width="73.37" height="16.06" rx="8.03"/><rect class="cls-8" x="152.37" y="393.16" width="34.63" height="96.45" rx="3.82"/><rect class="cls-8" x="152.37" y="393.16" width="34.63" height="96.45" rx="3.82" transform="translate(611.07 271.7) rotate(90)"/><rect class="cls-5" x="208.74" y="529.1" width="45.09" height="11.61" rx="5.24" transform="translate(-211.41 155.91) rotate(-26.05)"/><rect class="cls-5" x="274.45" y="529.1" width="45.09" height="11.61" rx="5.24" transform="translate(-204.73 184.77) rotate(-26.05)"/><circle class="cls-8" cx="362.48" cy="450.78" r="22.9"/><circle class="cls-8" cx="425.64" cy="419.41" r="22.9"/><path class="cls-2" d="M148.94,682.91c7.71-33.75-1.86-140.86-18.34-152.82,19.14-19.93,50-109.23,50-144.71,0-23.52-9.57-56.74-17-56.74C150.8,355.22,92.87,474.81,63.9,510.43,55,520.72,53.75,746.3,148.94,682.91Z"/><path class="cls-2" d="M409.64,682.91c-7.71-33.75,1.86-140.86,18.33-152.82-19.13-19.93-50-109.23-50-144.71,0-23.52,9.57-56.74,17-56.74,12.76,26.58,70.69,146.17,99.66,181.79C503.55,520.72,504.83,746.3,409.64,682.91Z"/></g></g></svg>