<svg xmlns="http://www.w3.org/2000/svg" xmlns:xlink="http://www.w3.org/1999/xlink" viewBox="0 0 677.86 695.92"><defs><style>.cls-1,.cls-5{fill:none;}.cls-2{fill:#949494;}.cls-3{fill:url(#New_Pattern);}.cls-4{fill:#f1f1f1;}.cls-5{stroke:#000;stroke-linecap:round;stroke-linejoin:round;stroke-width:2.5px;}</style><pattern id="New_Pattern" data-name="New Pattern" width="12" height="12" patternTransform="translate(15.81 1215.58) rotate(-180)" patternUnits="userSpaceOnUse" viewBox="0 0 12 12"><rect class="cls-1" width="12" height="12"/><rect class="cls-1" width="12" height="12"/><rect class="cls-1" width="12" height="12"/><circle class="cls-2" cx="12" cy="9" r="2"/><circle class="cls-2" cx="6" cy="12" r="2"/><circle class="cls-2" cy="9" r="2"/><circle class="cls-2" cx="12" cy="3" r="2"/><circle class="cls-2" cx="6" cy="6" r="2"/><circle class="cls-2" cy="3" r="2"/><circle class="cls-2" cx="6" r="2"/></pattern></defs><title>mobile-post-monochrome</title><g id="Layer_2" data-name="Layer 2"><g id="vector"><path class="cls-3" d="M259.22,338.56a29.84,29.84,0,0,1-4.36-4.07c-.73-2.87,1.12-14.24,5.46-26.87q-53.55,2.1-105.33,6.75v88.2h98.16C251.54,384.16,256.08,352,259.22,338.56Z"/><path class="cls-3" d="M430.1,307.59c3.59,9,5.66,16.84,5.84,20.13-.91,2.4-3,4.9-5.89,7.31,4.41,12.92,13.23,52.26,15,67.54h86V313.93Q481.42,309.6,430.1,307.59Z"/><path class="cls-4" d="M598.65,102.62A314.3,314.3,0,0,0,531,50.47V474.8c56.69-60.72,121.37-102.09,140.58-160.91C692.7,249.19,658.66,163.5,598.65,102.62Z"/><path class="cls-4" d="M155,624.8v-489C84.65,196.39,13.74,265.79,1.8,346.9-10.08,428.77,38,522.52,108.91,593.83a456.68,456.68,0,0,0,47.47,41.74A42.51,42.51,0,0,1,155,624.8Z"/><path class="cls-4" d="M205.07,667.25C253,693.14,301.89,704,342.19,689.34c13.25-4.84,25.56-12.45,37.24-22.09Z"/><path class="cls-5" d="M259.21,338.56c-3.16,13.56-7.73,46-6,64.37H272"/><path class="cls-5" d="M272.28,345.53c-7.07-2.6-13.39-6.31-17.42-11-1.92-7.56,14-74.18,46.41-67.24A21.93,21.93,0,0,1,304,268"/><rect class="cls-5" x="154.99" y="1.25" width="376" height="666" rx="42.45"/><path class="cls-3" d="M410.41,1.06a15.68,15.68,0,0,1,.08,1.69v10A16.49,16.49,0,0,1,394,29.25H292a16.5,16.5,0,0,1-16.5-16.5v-10c0-.51,0-1,.07-1.5"/><circle cx="342.99" cy="630.17" r="19.22"/><circle class="cls-3" cx="198.82" cy="442.85" r="21.73"/><circle class="cls-3" cx="221.59" cy="521.52" r="12.24"/><line class="cls-5" x1="240.33" y1="433.81" x2="437.53" y2="433.81"/><line class="cls-5" x1="249.07" y1="521.52" x2="446.27" y2="521.52"/><line class="cls-5" x1="240.33" y1="452.09" x2="305.86" y2="452.09"/><path class="cls-4" d="M317.17,110.12H192.34S199.8,99.8,221.59,98s10.95-29.89,42.69-29.89,25.39,19,38.88,19S317.17,110.12,317.17,110.12Z"/><path class="cls-4" d="M407.78,124.62h86.11s-5.15-7.12-20.18-8.39-7.55-20.62-29.44-20.62-17.52,13.14-26.82,13.14S407.78,124.62,407.78,124.62Z"/><path class="cls-5" d="M327.48,254.31c-47.26,14.56-61.74,84.63-55.44,148.62H408.73"/><path class="cls-5" d="M380.51,268.27c-5.44-6.42-11.83-11.34-19.35-14.12"/><path class="cls-5" d="M386.71,349.16c2.93,13.13,10.27,42.59,13.74,53.77h44.6c-1.63-15-10.55-54.88-15-67.9"/><path class="cls-5" d="M385,266.08c29-9.79,50.33,50.76,50.91,61.64-4.5,11.89-37.71,26.25-56.42,19.87C374,342.07,353.65,276.66,385,266.08Z"/><path class="cls-5" d="M362.08,231.06a138,138,0,0,0-1.09,23"/><path class="cls-5" d="M361,254.08a51.16,51.16,0,0,0,1.4,10.07c-3.06,4.09-33.49,5.11-37.12.57a152.18,152.18,0,0,0,3.52-19.65"/><path class="cls-5" d="M372.29,211.26c-5.08,19.65-21,34-39.81,34q-1.87,0-3.69-.18"/><path class="cls-5" d="M328.79,245.07C307.58,242.93,291,222.56,291,197.75c0-26.23,18.58-47.5,41.52-47.5,20.35,0,37.28,16.75,40.83,38.85"/><path class="cls-5" d="M373.31,189.1c-3.55-22.1-20.48-38.85-40.83-38.85-16.93,0-31.48,11.59-37.94,28.21a10.57,10.57,0,0,0,6.77,2.91c5.45.11,36.33-2.38,40.65-.45s5,10.1,13.62,10.9a6.74,6.74,0,0,1,2.38.69"/><path class="cls-5" d="M373.2,189.12a13.87,13.87,0,0,1,4.68,10.73c0,6.58-4,12-9.22,12.84"/><path class="cls-5" d="M360.22,190.17a9.59,9.59,0,0,1,7-3.26,9.29,9.29,0,0,1,5.93,2.21"/><rect class="cls-5" x="154.99" y="402.93" width="376" height="189.33"/></g></g></svg>