<svg xmlns="http://www.w3.org/2000/svg" viewBox="0 0 548.62 729.44"><defs><style>.cls-1{fill:#f1f1f1;}.cls-2{fill:none;stroke:#000;stroke-linecap:round;stroke-linejoin:round;stroke-width:2.5px;}.cls-3{fill:#fff;}</style></defs><title>mirror-pose-monochrome</title><g id="Layer_2" data-name="Layer 2"><g id="Layer_2-2" data-name="Layer 2"><path class="cls-1" d="M474.73,326.85C468.49,261,468,200.71,445.42,156.28c-28.48,10-57.51,19.83-62.94,20.93a225.24,225.24,0,0,1-33.22,3.61c-1.09,4.37-2.6,7.63-4.55,8.94-4.08,2.74-20.47.92-36.42-4.56,11.83,43.42,13.39,97.91,5.88,131.66-2.69,12.08-82.85,10.49-114.87,5.7h0c-.42.46-.86.92-1.36,1.39-8.77,8.2-18.8,1.28-24.26-4.87-3.29-3.71-3.84-10.29-4-14.59-9.33-6.56-59.77-70.47-58.8-77.42.84-6,28.52-37,43.23-49.42-1.13-2.4-1.66-4.5-1.41-6.1,1.42-8.75,39.45-36.21,61.39-32.22,7.34-9.8,16.32-16.87,27.24-19.84-.23-6.37-.83-14.12-1.55-21.49h0a45.32,45.32,0,0,1-7.62-15h0a9.62,9.62,0,0,1-9.09-7.81A290.4,290.4,0,0,0,80.36,142.68C28.41,188-9.8,253.73,2.22,307.53s74.13,95.73,126.07,165.28S222.17,640,284.41,660.41s144.82-36.35,178.73-105.89C496.91,484.83,482,402.12,474.73,326.85Z"/><path class="cls-1" d="M267.49,110c.06,3.68.21,7.59.42,11.13,7.37,3.39,13.9,9.3,19.62,17.07,18.54-10.16,50.52-13.13,57-7.73a12.06,12.06,0,0,1,3.06,4.72h0c6.17.2,31.92,1.15,47.28,0,5.13-.38,17.84-2.4,32.85-5-29.49-33.27-78.51-52.57-130.3-57.6C295.09,92.24,282.7,107.61,267.49,110Z"/><path class="cls-1" d="M188.37,211c-.3-.12-.6-.25-.9-.4C180,218,160.91,233.32,157.65,236c4.18,5.69,19.93,42.59,25.58,52.71A432.57,432.57,0,0,1,188.37,211Z"/><path class="cls-2" d="M287.53,138.24c18.54-10.16,50.52-13.13,57-7.73,9,7.52,8.95,53.35.17,59.25-4.08,2.74-20.47.92-36.42-4.56"/><path class="cls-2" d="M267.92,121.16c45.57,20.94,59,138.32,46.25,195.7-2.69,12.08-82.85,10.49-114.87,5.7"/><path class="cls-2" d="M214.07,139.33c7.34-9.8,16.31-16.88,27.24-19.85"/><path class="cls-2" d="M183.23,288.67A432.58,432.58,0,0,1,188.36,211"/><path class="cls-2" d="M239.76,98c1.39,14.19,2.34,29.78,1,34.23,2.88,2.63,24,5.18,28.3,0-.82-3.24-1.45-13.39-1.6-22.19"/><ellipse cx="519.47" cy="53.04" rx="29.15" ry="47.14"/><ellipse class="cls-3" cx="519.47" cy="53.59" rx="22.77" ry="38.73"/><path class="cls-2" d="M349.26,180.82a225.09,225.09,0,0,0,33.22-3.61c10.54-2.14,109.94-37.29,121.79-42.06,4.27,3.23,10.5,4.8,17.11,3.77,11.13-1.73,19.06-10.14,17.71-18.77s-11.46-14.23-22.58-12.5a23.39,23.39,0,0,0-14,7.3c-13,4.09-92.65,19.16-107.66,20.28-15.36,1.15-41.11.2-47.28,0"/><path class="cls-2" d="M224.58,145.48c13.1,17.06-19.31,65.31-30.51,66.69S151,182,152.68,171.55,208.13,124.07,224.58,145.48Z"/><path class="cls-2" d="M296.66,54.55a55.71,55.71,0,0,1,1.13,13.37c-.86,24.1-16.74,43.1-35.47,42.43-13.92-.49-25.5-11.71-30.17-27.33"/><path class="cls-2" d="M225.36,67c-1.51-6.25-3.19-17.73-3.19-20.6,0-14.79,13.29-20,20.89-28.48,5-5.59,10.51-16.65,18.11-16.65,10.51,0,15.86,5.51,21.61,5.55,8.33.06,12-4,26-4.67,8.63-.41,12.25,11.54,12.41,16.35.39,11.62-6.8,34.76-24.35,35.93-1.19-3.85-3.48-10-3.48-10-3.7.92-36.07,7.71-47.7,7.78.17,2.5.43,10.71-2.95,15.24"/><path class="cls-2" d="M238,81.38A9.64,9.64,0,1,1,239.76,67"/><path class="cls-2" d="M154.09,177.65c-14.72,12.39-42.39,43.42-43.23,49.42-1,7,49.47,70.86,58.8,77.42.17,4.3.72,10.88,4,14.59,5.46,6.15,15.49,13.07,24.26,4.87,7.14-6.69,6.06-13.09,4-17.41-2.79-5.73-8.29-13.13-17.77-16.38C179.46,283,162.07,242,157.65,236c3.26-2.63,22.38-17.94,29.82-25.36"/><polygon class="cls-2" points="238.55 728.19 181.73 728.19 191.55 688.29 214.64 688.29 238.55 728.19"/><polygon class="cls-2" points="428.98 673.22 428.98 715.37 515.49 715.37 459.44 683.78 454.29 666.17 428.98 673.22"/><rect x="513.33" y="97.64" width="9.84" height="50.44"/><path class="cls-2" d="M508,44.37a53,53,0,0,0-4.43,23.55,54.08,54.08,0,0,0,4.36,19.56c3.37,3.41,7.29,5.37,11.49,5.37,12.57,0,22.77-17.59,22.77-39.29,0-.93,0-1.86-.06-2.78"/><path class="cls-2" d="M519.37,14.28c-12.31,0-22.33,16.84-22.75,37.89a19.35,19.35,0,0,0,7.86,2.24c1.18-3.85,3.47-10,3.47-10,2.67.66,20.18,4.36,34.12,6.41C541.24,30.39,531.4,14.28,519.37,14.28Z"/><path d="M313,318.81c-3,2.84-11.14,4.73-21.91,5.88-24.51,28.4-28.35,113.62-28.35,113.62L424.23,674.84l36-10.25S328.09,352.9,313,318.81Z"/><path d="M199.3,322.55c-.43.47-.87.93-1.37,1.4a12.41,12.41,0,0,1-11.42,3.48c.15,54.89,1,360.2,1,360.2,6.25,3.88,24,6.08,29.47.58,1.51-5.14,72.18-322.33,81.58-364.53C273.1,327.89,223,326.1,199.3,322.55Z"/></g></g></svg>