<svg xmlns="http://www.w3.org/2000/svg" xmlns:xlink="http://www.w3.org/1999/xlink" width="652.01" height="784.99" viewBox="0 0 652.01 784.99"><defs><pattern id="New_Pattern" data-name="New Pattern" width="12" height="12" patternTransform="translate(15.81 1516.08) rotate(180) scale(1.26)" patternUnits="userSpaceOnUse" viewBox="0 0 12 12"><rect width="12" height="12" fill="none"/><rect width="12" height="12" fill="none"/><rect width="12" height="12" fill="none"/><circle cx="12" cy="9" r="2" fill="#949494"/><circle cx="6" cy="12" r="2" fill="#949494"/><circle cy="9" r="2" fill="#949494"/><circle cx="12" cy="3" r="2" fill="#949494"/><circle cx="6" cy="6" r="2" fill="#949494"/><circle cy="3" r="2" fill="#949494"/><circle cx="6" r="2" fill="#949494"/></pattern></defs><g id="Layer_2" data-name="Layer 2"><g id="vector"><path d="M467.32,482.69c-1.76-3.21-54.94-56.22-76.73-77.89l-.91,1.82,0,.09c-4.44,8.93-9,18.08-13.73,27.31h0c-9.39,18.46-19.15,37.18-28.64,54.9l0,.06-1.75,3.27h0c-26.57,49.45-50.7,90.29-58.33,94.15C280.49,589.78,92,555.73,92,555.73l6.62-35.59,159.8-2.21,9.79-42.09c.11-.5.23-1,.34-1.5.54-2.29,1.08-4.62,1.63-7,.15-.61.29-1.23.43-1.85.35-1.5.7-3,1.05-4.52q1.08-4.62,2.18-9.39c.13-.54.25-1.08.38-1.61.19-.84.38-1.67.58-2.51.77-3.33,1.56-6.71,2.34-10.1l1.29-5.52c.2-.88.4-1.75.61-2.63.4-1.76.81-3.51,1.22-5.27s.83-3.6,1.25-5.39c.22-1,.45-1.93.67-2.89l2.71-11.71.16-.69c.16-.66.31-1.32.46-2q.44-1.89.87-3.75l1.24-5.34,1.15-5c.2-.83.39-1.67.58-2.48v-.06l.51-2.21c.41-1.74.8-3.45,1.19-5.13.32-1.39.64-2.75.95-4.1l1.46-6.34c.17-.73.34-1.46.5-2.17l.09-.35c.15-.69.31-1.36.46-2,.33-1.43.65-2.81,1-4.13,0-.24.1-.46.16-.7.2-.89.41-1.77.6-2.61l.11-.47c.07-.33.15-.66.22-1l.4-1.71c.63-2.77,1.19-5.18,1.65-7.2l0-.17c.12-.55.24-1.07.35-1.56l.06-.24c-8.4-8.81-24.54-58.2-28-107.33-8.42,8.17-16.31,13.49-19.91,13.49-2.31,0-5.69-1.51-9.59-4-10.62,8.52-30.74,24.66-35.14,28-6,4.54-89.55,47.5-96.2,50.52a5,5,0,0,1-3.27.23c-.85,4.9-4.15,10.07-9.39,13.85A24.11,24.11,0,0,1,85,341.94C36.31,398.36-4.83,446.65,2.41,485.43c3.48,18.29,17.76,34.42,38.81,49.39l8.62-6.18,42.16-6-5.88,33.79-4.3,2.39c37.42,19.13,83.37,37.1,127.56,56.42,94.4,41.43,180.49,89,258.72,70.38a154,154,0,0,0,17.79-5.43C483.53,652.47,469.34,486.39,467.32,482.69Z" fill="#f1f1f1"/><path d="M548.26,224.22c-26.38-.36-63.88-1.36-66.54-2.14-3-.87-37.23-12.61-54.61-18.57,18.35,34.36,28.86,69.92,31.68,81.84-.12.3-.27.6-.42.9,15.79,26.92,90.74,177.24,91.42,184.06C550.36,476,535.67,600.75,529,657c51.2-36.52,91.41-99.45,102.52-165.42C646.46,402.67,608.55,308.09,548.26,224.22Z" fill="#f1f1f1"/><path d="M173.41,246.35c2.15-2.62,24-27,33.2-37.27-2.72-4.58-4.13-8.58-3.48-11.29,2.59-10.85,48.4-50.92,78.68-40,5.25-10.12,12.56-18.22,22.41-23.3.46-11.86-.49-31.18-1.73-46.16-.59-1.15-1.16-2.33-1.68-3.54C246.3,115.23,200.47,198,143.8,271.24,158.93,258.84,172.24,247.78,173.41,246.35Z" fill="#f1f1f1"/><path d="M361.27,133c17.84-14.05,69.82,2.73,73.83,11,1,2.1,1.32,6.38,1,11.78,14,7.57,45.1,28.68,50.49,30.34,2.72.83,20.32,4.61,39,8.55C481.56,140.27,429.24,94.14,380.15,78.35c-6.55,17.24-19.62,29.75-34.59,33a151.76,151.76,0,0,0-.22,17A70.06,70.06,0,0,1,361.27,133Z" fill="#f1f1f1"/><path d="M458.38,286.25c15.8,27,90.73,177.24,91.41,184.06.74,7.36-24,213.8-24,213.8H486.22s-16.69-197.38-18.9-201.42c-1.76-3.21-54.94-56.22-76.73-77.89" fill="none" stroke="#000" stroke-linecap="round" stroke-linejoin="round" stroke-width="3.16"/><path d="M471.73,521.31c5.67,58.52,14.49,162.8,14.49,162.8h39.52s12.35-102.82,19.36-165.92Z" fill="url(#New_Pattern)"/><path d="M299,342.8c-6.68,29.31-40.59,175.13-40.59,175.13l-159.8,2.21L92,555.73s188.49,34,195.14,30.68c13.65-6.9,80-132,118.86-213.23" fill="none" stroke="#000" stroke-linecap="round" stroke-linejoin="round" stroke-width="3.16"/><path d="M458.38,286.25l-5.61,9.81-.11-.24-9.57,8.5L432,312.2l-15.14,9.21-18,9-16.74,6.91-34.54,9.74-17,2.3L317.79,349s-14-2.66-18.78-6.24c-4.35,19.09-20.24,87.58-30.8,133,9.69-2.43,59.45-2.61,77.26,16.42,20.95-39,43.42-83.29,60.53-119.08l-4.35,10.75-.63,2.63L390.59,404.8c13.51,13.44,39.1,38.93,57,57.12l69.73-60.81C494.78,355.44,467.25,301.4,458.38,286.25Z"/><path d="M206.61,209.08c-9.18,10.24-31.05,34.65-33.2,37.27-2.72,3.33-71.09,58.69-75.32,62a2.64,2.64,0,0,0-.93,1.55c-4.91-.74-10.85.76-16.08,4.52-8.74,6.3-12.15,16.52-7.6,22.82s15.31,6.31,24,0c5.23-3.77,8.53-8.94,9.38-13.84a4.92,4.92,0,0,0,3.28-.24c6.65-3,90.15-46,96.2-50.52,4.4-3.3,24.52-19.43,35.14-28" fill="none" stroke="#000" stroke-linecap="round" stroke-linejoin="round" stroke-width="3.16"/><path d="M427.11,203.51c17.38,6,51.65,17.7,54.61,18.57,4,1.17,85.63,2.81,91.95,2.11a8.9,8.9,0,0,0,.55-1.37c4.26,3.11,11.24,4.45,18.72,3.1,11.31-2,19.45-9.45,18.17-16.56s-11.5-11.2-22.82-9.16a27.75,27.75,0,0,0-14.13,6.71c-.17-.92-.34-1.71-.49-2.31,0,0-80.95-16.68-87-18.55-5.38-1.66-36.46-22.77-50.49-30.34" fill="none" stroke="#000" stroke-linecap="round" stroke-linejoin="round" stroke-width="3.16"/><path d="M361.26,133c17.84-14,69.83,2.74,73.84,11,3.52,7.25-1.44,40.69-9.91,56" fill="none" stroke="#000" stroke-linecap="round" stroke-linejoin="round" stroke-width="3.16"/><path d="M281.79,157.72c5.25-10.12,12.56-18.22,22.43-23.3" fill="none" stroke="#000" stroke-linecap="round" stroke-linejoin="round" stroke-width="3.16"/><path d="M345.34,128.36c70.4,11.3,107.73,132.8,113.45,157-12.11,29.4-118.06,78.7-158.28,58.38-7.83-4-25.77-56.38-29.49-108.5" fill="none" stroke="#000" stroke-linecap="round" stroke-linejoin="round" stroke-width="3.16"/><path d="M292.72,164.73c27.34,27.6-29.87,84-41.6,84s-50.92-38.66-48-50.93S264.19,135.93,292.72,164.73Z" fill="none" stroke="#000" stroke-linecap="round" stroke-linejoin="round" stroke-width="3.16"/><path d="M239.54,518.19,98.62,520.14,92,555.73s84.91,15.34,142.76,24.41Z" fill="url(#New_Pattern)"/><polygon points="92 522.65 86.12 556.44 39.69 582.23 6.74 577.41 1.58 563.26 49.84 528.64 92 522.65" fill="none" stroke="#000" stroke-linecap="round" stroke-linejoin="round" stroke-width="3.16"/><polyline points="526.23 698.46 524.12 696.01 523.88 688.55 486.82 690.23 478.88 733.54 538.44 761.55" fill="none" stroke="#000" stroke-linecap="round" stroke-linejoin="round" stroke-width="3.16"/><circle cx="586.55" cy="719.53" r="63.88" fill="none" stroke="#000" stroke-linecap="round" stroke-linejoin="round" stroke-width="3.16"/><path d="M302.49,88.28c1.53,18.4,2.61,43.34,1.19,53,7.89,9.09,36.37,11.43,43.83,3.06-2.42-7.26-2.69-23.37-1.95-33" fill="none" stroke="#000" stroke-linecap="round" stroke-linejoin="round" stroke-width="3.16"/><path d="M296.75,49c4.57-29,26.47-49.89,50-47.13,24.24,2.85,41,29.8,37.41,60.2S358,114.76,333.78,111.91c-19.62-2.3-34.34-20.42-37.33-43.37" fill="none" stroke="#000" stroke-linecap="round" stroke-linejoin="round" stroke-width="3.16"/><path d="M318.85,49.09A13.76,13.76,0,0,0,324,47.7c4.54-3.11,1.19-9.81,4.54-11.25,3-1.29,33.81-2.2,55.25,7.18" fill="none" stroke="#000" stroke-linecap="round" stroke-linejoin="round" stroke-width="3.16"/><path d="M310.64,74.18a13.13,13.13,0,0,1-2.89.32c-7.93,0-14.36-7-14.36-15.56s6.43-15.55,14.36-15.55a14.34,14.34,0,0,1,13.05,9.08" fill="none" stroke="#000" stroke-linecap="round" stroke-linejoin="round" stroke-width="3.16"/><path d="M320.8,52.47a16.46,16.46,0,0,1,1.3,6.47c0,7.52-4.92,13.79-11.46,15.24" fill="none" stroke="#000" stroke-linecap="round" stroke-linejoin="round" stroke-width="3.16"/></g></g></svg>