<svg xmlns="http://www.w3.org/2000/svg" width="627.87" height="724.17" viewBox="0 0 627.87 724.17"><g id="Layer_2" data-name="Layer 2"><g id="vector"><path d="M602,180.71c43.44,56.81,26.18,159.8-8,238.34-34.38,78.39-85.73,132.48-152.33,170.45s-148.3,60.13-210.3,33.23-104-102.56-124.42-185.12c-20.43-82.71-19-172.18,25.17-229.29s131-81.7,226.7-88.6C454.3,113,558.58,123.74,602,180.71Z" fill="#f2f2f2"/><path d="M314.36,243.28,165.37,457,35.84,608.76C35.84,614.87,59.39,640,63,640c8.84-4.08,346.23-281,346.23-281Z" fill="#5fc5d1"/><path d="M348.49,117.32c-6.09.63-74.79,2.37-74.79,2.37S184.22,133.56,172,131.1c-7.46-1.5-15.26,37.91-5.87,33,14.51-7.68,110-4.87,117.31-4.53s70.09,6.26,72.35,6.78S348.49,117.32,348.49,117.32Z" fill="#e49d75"/><path d="M489.6,223.13c3.84,5.87,57.08,36.9,64.23,36.26S598,161.44,606.2,152c1.77-2-20.26-20.57-20.7-15-.77,9.93-42,71.69-42,71.69l-27.33-17.6Z" fill="#e49d75"/><path d="M463.91,157.45c14.11-17,58.05,22,59.15,30.88,1.63,13.16-30,41.32-37.57,40.66S450.46,173.68,463.91,157.45Z" fill="#ffc78e"/><path d="M461.52,124.36c58.36,33.06-4.64,151.89-33.19,163.07-15.29,6-103.48-40-104.43-55.07S393.48,85.82,461.52,124.36Z" fill="#ffd98e"/><path d="M429.33,134.51C435.86,174,357.24,176.7,352.24,173s-11.2-50.45-5-58.5C361.25,110.8,425.24,109.73,429.33,134.51Z" fill="#ffe4ad"/><path d="M323.9,232.36c-105.7,80.75,53.88,174,145,136.48C467,382.5,452.38,513.43,452.38,513.43l36.32,11.66s89.06-185,73.24-225.74c-5.17-13.33-182.69-49.88-216.35-46.23C337.55,247.5,324.48,238.59,323.9,232.36Z" fill="#6bd5e1"/><polygon points="448.64 528.34 430.27 560.87 498.88 617.53 508.18 605.58 477.86 539.85 448.64 528.34"/><polygon points="27.04 625.29 0 646.3 17.43 724.17 33.4 720.91 47.08 646.63 27.04 625.29"/><ellipse cx="601.19" cy="135.76" rx="23.25" ry="16.3" transform="translate(250.36 642.49) rotate(-68.03)" fill="#e49d75"/><ellipse cx="161.34" cy="145.72" rx="22.87" ry="19.82" fill="#e49d75"/><ellipse cx="502.43" cy="76.89" rx="45.67" ry="37.6" transform="translate(309.98 547.33) rotate(-76.45)" fill="#e49d75"/><path d="M539.63,63.28C536.73,48,527,35.83,513.13,32.5c-20.19-4.87-41.35,11.07-47.26,35.58-.12.53-.23,1.06-.34,1.58C482.25,75.78,521.73,73.31,539.63,63.28Z"/><path d="M469.07,75.09c-.95,6.64-20.82,42.43-28.18,47.75-.48,8.74,19.86,23.16,29.56,20.71,3.95-10,10.71-23.76,16.63-29.38S469.07,75.09,469.07,75.09Z" fill="#e49d75"/><path d="M505,33.25C505,12.76,482.4,0,469.13,0c-38.27,0-37.37,59.53-86.46,59.53-4.38,0-6.35-.75-11.49.39,0,18.7,23.11,34.92,38.29,34.92,42.09,0,48.47-60,74.48-60,4,0,9.28,3.09,9.28,3.09Z"/><ellipse cx="477.79" cy="75.52" rx="11.34" ry="9.99" transform="matrix(0.37, -0.93, 0.93, 0.37, 228.99, 490.36)" fill="#e49d75"/></g></g></svg>