<?xml version="1.0"?>
<svg xmlns="http://www.w3.org/2000/svg" xmlns:xlink="http://www.w3.org/1999/xlink" xmlns:svgjs="http://svgjs.com/svgjs" version="1.1" width="512" height="512" x="0" y="0" viewBox="0 0 83.816 83.816" style="enable-background:new 0 0 512 512" xml:space="preserve" class=""><g>
<g xmlns="http://www.w3.org/2000/svg">
	<g>
		<path d="M54.074,33.163H29.741c-0.551,0-1,0.449-1,1V58.83c0,0.551,0.449,1,1,1h24.333c0.551,0,1-0.449,1-1V34.163    C55.074,33.611,54.625,33.163,54.074,33.163z M34.908,56.163c0,0.552-0.448,1-1,1c-0.552,0-1-0.448-1-1v-19c0-0.552,0.448-1,1-1    c0.552,0,1,0.448,1,1V56.163z M38.908,56.163c0,0.552-0.448,1-1,1c-0.552,0-1-0.448-1-1v-19c0-0.552,0.448-1,1-1    c0.552,0,1,0.448,1,1V56.163z M42.908,56.163c0,0.552-0.448,1-1,1c-0.552,0-1-0.448-1-1v-19c0-0.552,0.448-1,1-1    c0.552,0,1,0.448,1,1V56.163z M46.908,56.163c0,0.552-0.448,1-1,1c-0.553,0-1-0.448-1-1v-19c0-0.552,0.447-1,1-1    c0.552,0,1,0.448,1,1V56.163z M50.908,56.163c0,0.552-0.448,1-1,1c-0.553,0-1-0.448-1-1v-19c0-0.552,0.447-1,1-1    c0.552,0,1,0.448,1,1V56.163z" fill="#dc136c" data-original="#000000" style="" class=""/>
		<path d="M54.074,24.534h-7.167c-0.552,0-1-0.448-1-1v-0.872c0-0.551-0.449-1-1-1h-6c-0.551,0-1,0.449-1,1v0.872    c0,0.552-0.448,1-1,1H29.74c-0.551,0-1,0.449-1,1v1.128c0,0.551,0.449,1,1,1h24.333c0.551,0,1-0.449,1-1v-1.128    C55.074,24.983,54.625,24.534,54.074,24.534z" fill="#dc136c" data-original="#000000" style="" class=""/>
		<path d="M41.908,0C18.762,0,0,18.763,0,41.909c0,23.146,18.763,41.907,41.908,41.907c23.145,0,41.908-18.762,41.908-41.907    C83.816,18.763,65.053,0,41.908,0z M57.074,58.829c0,1.653-1.346,3-3,3H29.741c-1.654,0-3-1.347-3-3V34.163c0-1.654,1.346-3,3-3    h24.333c1.654,0,3,1.346,3,3V58.829z M57.074,26.663c0,1.654-1.346,3-3,3H29.741c-1.654,0-3-1.346-3-3v-1.128c0-1.654,1.346-3,3-3    h6.169c0.067-1.595,1.386-2.872,2.997-2.872h6c1.61,0,2.931,1.277,2.997,2.872h6.169c1.653,0,3,1.346,3,3L57.074,26.663    L57.074,26.663z" fill="#dc136c" data-original="#000000" style="" class=""/>
	</g>
</g>
<g xmlns="http://www.w3.org/2000/svg">
</g>
<g xmlns="http://www.w3.org/2000/svg">
</g>
<g xmlns="http://www.w3.org/2000/svg">
</g>
<g xmlns="http://www.w3.org/2000/svg">
</g>
<g xmlns="http://www.w3.org/2000/svg">
</g>
<g xmlns="http://www.w3.org/2000/svg">
</g>
<g xmlns="http://www.w3.org/2000/svg">
</g>
<g xmlns="http://www.w3.org/2000/svg">
</g>
<g xmlns="http://www.w3.org/2000/svg">
</g>
<g xmlns="http://www.w3.org/2000/svg">
</g>
<g xmlns="http://www.w3.org/2000/svg">
</g>
<g xmlns="http://www.w3.org/2000/svg">
</g>
<g xmlns="http://www.w3.org/2000/svg">
</g>
<g xmlns="http://www.w3.org/2000/svg">
</g>
<g xmlns="http://www.w3.org/2000/svg">
</g>
</g></svg>
